<svg id="writer" xmlns="http://www.w3.org/2000/svg" xmlns:xlink="http://www.w3.org/1999/xlink" viewBox="0 0 1200 1200"><defs><style>.cls-1{fill:none;}.cls-2{fill:#00cdc4;}.cls-3{clip-path:url(#clip-path);}.cls-4{fill:#5abf4e;}.cls-5{fill:#00c4bf;}.cls-6{fill:#ff783f;}.cls-7{fill:#ff80cc;}.cls-8{fill:#33a623;}.cls-9{fill:#00c4b4;}.cls-10{fill:#00d9cd;}.cls-11{clip-path:url(#clip-path-2);}.cls-12{fill:#65547d;}.cls-13{fill:#111;}.cls-14{clip-path:url(#clip-path-3);}.cls-15{fill:#e01c1b;}.cls-16{fill:#00eadc;}.cls-17{fill:#00a08c;}.cls-18{fill:#005e50;}.cls-19{fill:#ffcb00;}.cls-20{fill:#e6af00;}.cls-21{fill:#ffe677;}.cls-22,.cls-50{fill:#fff;}.cls-22{opacity:0.5;}.cls-23{fill:#ffc700;}.cls-24{fill:#fcb000;}.cls-25{fill:#ff7500;}.cls-26{fill:#ff8c1e;}.cls-27{clip-path:url(#clip-path-4);}.cls-28{fill:#d35700;}.cls-29{fill:#0080bb;}.cls-30{fill:#0091cb;}.cls-31{fill:#00b09c;}.cls-32{fill:#ffae18;}.cls-33{fill:#d71558;}.cls-34{fill:#f8df9c;}.cls-35{fill:#fcc198;}.cls-36{fill:#34312f;}.cls-37,.cls-58{fill:#ffa65f;}.cls-38{clip-path:url(#clip-path-5);}.cls-39{fill:#c8d963;}.cls-40{fill:#ff3d2f;}.cls-41{fill:#00b7aa;}.cls-42{fill:#005b75;}.cls-43{fill:#004d61;}.cls-44{fill:#00001b;}.cls-45{fill:#000133;}.cls-46{fill:#ffdc37;}.cls-47{fill:#d38c5b;}.cls-48{fill:#b27247;}.cls-49{opacity:0.2;}.cls-50{opacity:0.1;}.cls-51{fill:#00c666;}.cls-52{fill:#f5e259;}.cls-53{fill:#38a9c4;}.cls-54{fill:#f6599e;}.cls-55{fill:#cff6ff;}.cls-56{fill:#9ddeed;}.cls-57{fill:#f8e391;}.cls-58,.cls-59{fill-rule:evenodd;}.cls-59{fill:#f48e48;}</style><clipPath id="clip-path"><path id="SVGID" class="cls-1" d="M743.2,491.29s84.21-100.5,163.38-69.21c89.79,35.49,36.62,114.44-20.36,96.58S803.81,461.27,743.2,491.29Z"/></clipPath><clipPath id="clip-path-2"><path id="SVGID-2" data-name="SVGID" class="cls-1" d="M803.19,531.11c109.16,114.82,230.41,361.09,207.65,886.14a290.15,290.15,0,0,1-186.28,258.29c-150.17,57.41-373,92.62-570.27-74.45A290.09,290.09,0,0,1,154,1345.48c25.68-216.36,100.4-640.24,302.2-825C556.16,429,709.82,432.91,803.19,531.11Z"/></clipPath><clipPath id="clip-path-3"><path id="SVGID-3" data-name="SVGID" class="cls-1" d="M670.16,765.51c-29.9,8.38-61.58,3.82-87.26-14l-1.22-.84c-40.54-28.5-89.06,35.7-40,83.17s131.49,51.68,173.14,10.69C751.23,808.63,728.33,749.2,670.16,765.51Z"/></clipPath><clipPath id="clip-path-4"><path id="SVGID-4" data-name="SVGID" class="cls-1" d="M703.44,477.24s115.65-61.79,101.27-145.7c-16.3-95.16-104.48-59.33-98.69.11S745.27,424.09,703.44,477.24Z"/></clipPath><clipPath id="clip-path-5"><path id="SVGID-5" data-name="SVGID" class="cls-2" d="M730.41,271.77s-25.09-128.7,49.06-170.53c84.09-47.43,112,43.58,62.23,76.61S745.23,205.77,730.41,271.77Z"/></clipPath></defs><title>writer</title><g class="cls-3"><path class="cls-4" d="M743.2,491.29s84.21-100.5,163.38-69.21c89.79,35.49,36.62,114.44-20.36,96.58S803.81,461.27,743.2,491.29Z"/><circle class="cls-5" cx="894.29" cy="433.47" r="57.08" transform="translate(-88.11 283.36) rotate(-17.17)"/><circle class="cls-6" cx="896.05" cy="432.6" r="36.2" transform="translate(53.84 962.43) rotate(-57.94)"/><path class="cls-7" d="M916.44,437.28a22,22,0,1,1-12.23-28.53A22,22,0,0,1,916.44,437.28Z"/><path class="cls-8" d="M808.49,462.09a76.63,76.63,0,0,1-.64-25.2c-37.72,22.27-64.65,54.4-64.65,54.4,30.82-15.27,52.55-12.53,74-3.82A101.65,101.65,0,0,1,808.49,462.09Z"/></g><path class="cls-9" d="M114.14,836c81.84,42.76,198.59,30.7,215.21,28.71l-7.05-59.06c-48.19,5.69-181.28,6.78-218-55.71-27.32-46.52-.21-128.5,78.39-237.11L134.53,478C38.3,610.92,11.66,709.77,53.08,780.17,67.7,805,89.32,823,114.14,836Z"/><path class="cls-9" d="M1159.51,968.61c-63.34-65.84-187.89-80.45-205.75-82.23L933.31,952.2c51.73,5.25,187.79,35.63,195.94,112.19,6,57-59.93,139.61-190.8,238.9l32.76,49.3c160.21-121.55,233.6-222.58,224.36-308.85C1192.3,1013.27,1178.72,988.58,1159.51,968.61Z"/><path class="cls-10" d="M1010.84,1417.25C1033.13,903,917.29,656.22,810,538.4l-.26.18c-33.56,21.83-70.05,39.56-110.11,45.06-35.22,4.84-71.83-.38-106.56-6.83-48.21-8.95-99.57-25.19-133.46-59.29-1.12,1-2.24,2-3.34,3-201.8,184.73-276.52,608.61-302.2,825a290.09,290.09,0,0,0,100.27,255.61c197.28,167.07,420.1,131.86,570.27,74.45A290.15,290.15,0,0,0,1010.84,1417.25Z"/><path class="cls-9" d="M1010.84,1417.25c10.87-250.85-11.14-438-49-577.68Q961.14,860.33,960,881c-9,158.12-25.86,319.19-114.46,455.18-41.26,63.33-93.88,115.57-163.93,145.89-66,28.54-138.94,36.62-210.22,32.91-65.1-3.4-129.95-18.5-184.76-55-46.42-30.94-81.18-75.81-105.8-125.43-7.29-14.7-13.76-29.72-19.61-45-2.74,19.83-5.13,38.58-7.19,56a290.09,290.09,0,0,0,100.27,255.61c197.28,167.07,420.1,131.86,570.27,74.45A290.15,290.15,0,0,0,1010.84,1417.25Z"/><g class="cls-11"><path class="cls-12" d="M220.64,1612.6s96.17-616.54,403.94-578.4c312.37,38.71,249.23,670.08,249.23,670.08S443.64,1844.35,220.64,1612.6Z"/></g><path class="cls-13" d="M562.94,697.61c-2.54,20.5-9.25,36.55-15,35.84s-8.34-17.91-5.8-38.42,9.26-36.55,15-35.84S565.49,677.1,562.94,697.61Z"/><path class="cls-13" d="M716.75,716.67c-2.54,20.5-9.26,36.55-15,35.84s-8.33-17.91-5.79-38.42,9.25-36.55,15-35.84S719.29,696.16,716.75,716.67Z"/><path class="cls-13" d="M670.16,765.51c-29.9,8.38-61.58,3.82-87.26-14l-1.22-.84c-40.54-28.5-89.06,35.7-40,83.17s131.49,51.68,173.14,10.69C751.23,808.63,728.33,749.2,670.16,765.51Z"/><g class="cls-14"><path class="cls-15" d="M541.3,835.69s.93-51.78,76.91-1.73c0,0,71.78-32.23,84.79,21.56C703,855.52,630.06,912.57,541.3,835.69Z"/></g><path class="cls-9" d="M903.66,821.06a81.11,81.11,0,0,1-95,74.09C768,888,738.86,850.66,741.86,809.51a81.12,81.12,0,0,1,95-74.09C877.54,742.56,906.65,779.91,903.66,821.06Z"/><path class="cls-9" d="M515.72,773a81.1,81.1,0,0,1-95,74.08c-40.64-7.14-69.75-44.48-66.75-85.63A81.11,81.11,0,0,1,449,687.35C489.61,694.49,518.72,731.84,515.72,773Z"/><path class="cls-16" d="M600.09,891.4c-.43,3.5,5.57,7.14,13.41,8.11s14.54-1.09,15-4.6-5.56-7.14-13.4-8.11S600.53,887.89,600.09,891.4Z"/><path class="cls-17" d="M459.56,517.52S592.8,455.17,810,538.4C810,538.4,654.56,677.89,459.56,517.52Z"/><path class="cls-18" d="M478.11,530.52s97.71-50.13,316.7,18.26C794.81,548.78,677.56,655,478.11,530.52Z"/><path class="cls-19" d="M653.85,502.65s62-238.37-77.4-285.91-210.79,64.17-172,145.66C471.77,503.69,629.65,287,653.85,502.65Z"/><path class="cls-20" d="M656.33,327.81c-10.08,17.07-25.93,28.71-42.74,38.56-22.18,13-46.37,22.37-70.51,31q-22.22,8-44.54,15.7c67.18-8,139.56-50.8,155.31,89.54,0,0,25.81-99.35,6.6-182.56Q658.58,324,656.33,327.81Z"/><path class="cls-21" d="M426.33,306.57c22.1-14.45,44.69-28.47,65.59-44.63,19.14-14.8,33.41-27.81,46.09-47.65,1-1.5,1.89-3,2.79-4.56.2-.35.4-.7.46-.82.18-.35.34-.7.51-1-98.35-16.5-154,52.29-147.24,119C405.22,320.22,415.81,313.44,426.33,306.57Z"/><circle class="cls-22" cx="505.84" cy="307.67" r="71.77" transform="translate(-83.14 367.99) rotate(-37.16)"/><path class="cls-23" d="M513.1,289.57c1.6,10.28-.63,19.17-5,19.85s-9.19-7.11-10.79-17.4.63-19.17,5-19.85S511.5,279.28,513.1,289.57Z"/><path class="cls-23" d="M528.61,303.55c-8.69,6.7-18,9.57-20.73,6.41s2.06-11.15,10.75-17.85,18-9.56,20.74-6.41S537.31,296.85,528.61,303.55Z"/><path class="cls-23" d="M523.31,323.41c-10.42-3.49-17.6-9.47-16-13.35s11.28-4.2,21.7-.71,17.61,9.46,16,13.34S533.74,326.9,523.31,323.41Z"/><path class="cls-23" d="M502.42,329.57c-1.88-10.23.12-19.17,4.46-19.95s9.38,6.89,11.26,17.12-.11,19.17-4.45,20S504.3,339.81,502.42,329.57Z"/><path class="cls-23" d="M486.53,316c8.51-6.9,17.72-10,20.56-6.89s-1.76,11.18-10.27,18.08-17.72,10-20.56,6.9S478,322.87,486.53,316Z"/><path class="cls-23" d="M491.29,296c10.52,3.23,17.86,9,16.41,12.95s-11.17,4.46-21.69,1.23-17.87-9-16.41-13S480.77,292.77,491.29,296Z"/><path class="cls-24" d="M514.52,307.59a6.51,6.51,0,1,1-7.35-5A6.29,6.29,0,0,1,514.52,307.59Z"/><path class="cls-23" d="M469.14,271.9c.4,2.56-.16,4.77-1.24,4.94s-2.28-1.77-2.68-4.33.16-4.76,1.24-4.93S468.74,269.34,469.14,271.9Z"/><path class="cls-23" d="M473,275.38c-2.16,1.66-4.47,2.38-5.16,1.59s.52-2.77,2.68-4.43,4.47-2.38,5.15-1.6S475.16,273.71,473,275.38Z"/><path class="cls-23" d="M471.68,280.32c-2.59-.87-4.38-2.36-4-3.32s2.81-1.05,5.4-.18,4.37,2.35,4,3.32S474.27,281.18,471.68,280.32Z"/><path class="cls-23" d="M466.49,281.85c-.47-2.55,0-4.77,1.1-5s2.34,1.71,2.81,4.25,0,4.77-1.11,5S467,284.39,466.49,281.85Z"/><path class="cls-23" d="M462.53,278.47c2.12-1.72,4.41-2.49,5.12-1.72s-.44,2.78-2.56,4.5-4.4,2.48-5.11,1.71S460.42,280.18,462.53,278.47Z"/><path class="cls-23" d="M463.72,273.5c2.61.81,4.44,2.25,4.08,3.22s-2.78,1.11-5.39.31-4.45-2.25-4.08-3.22S461.1,272.7,463.72,273.5Z"/><path class="cls-24" d="M469.49,276.38a1.61,1.61,0,1,1-1.82-1.23A1.55,1.55,0,0,1,469.49,276.38Z"/><path class="cls-23" d="M542.21,260.53c.4,2.55-.16,4.76-1.24,4.93s-2.28-1.77-2.68-4.32.16-4.77,1.24-4.94S541.81,258,542.21,260.53Z"/><path class="cls-23" d="M546.07,264c-2.16,1.67-4.47,2.38-5.16,1.6s.52-2.78,2.68-4.44,4.47-2.38,5.15-1.59S548.23,262.34,546.07,264Z"/><path class="cls-23" d="M544.75,268.94c-2.59-.87-4.38-2.35-4-3.32s2.81-1,5.4-.18,4.37,2.36,4,3.32S547.34,269.81,544.75,268.94Z"/><path class="cls-23" d="M539.56,270.47c-.47-2.54,0-4.76,1.1-5s2.34,1.71,2.81,4.26,0,4.77-1.11,5S540,273,539.56,270.47Z"/><path class="cls-23" d="M535.6,267.09c2.12-1.71,4.41-2.48,5.12-1.71s-.44,2.78-2.56,4.49-4.4,2.49-5.11,1.72S533.49,268.81,535.6,267.09Z"/><path class="cls-23" d="M536.79,262.13c2.61.8,4.44,2.24,4.08,3.22s-2.78,1.11-5.39.3-4.45-2.24-4.08-3.22S534.17,261.32,536.79,262.13Z"/><path class="cls-24" d="M542.56,265a1.61,1.61,0,1,1-1.82-1.24A1.56,1.56,0,0,1,542.56,265Z"/><path class="cls-23" d="M542.48,347.06c.4,2.56-.16,4.77-1.24,4.94s-2.29-1.77-2.69-4.32.16-4.77,1.24-4.94S542.08,344.51,542.48,347.06Z"/><path class="cls-23" d="M546.33,350.54c-2.16,1.67-4.47,2.38-5.15,1.59s.51-2.77,2.67-4.43,4.47-2.38,5.16-1.6S548.5,348.88,546.33,350.54Z"/><path class="cls-23" d="M545,355.48c-2.59-.87-4.38-2.35-4-3.32s2.8-1,5.39-.18,4.38,2.36,4,3.32S547.61,356.35,545,355.48Z"/><path class="cls-23" d="M539.82,357c-.46-2.54,0-4.76,1.11-5s2.33,1.71,2.8,4.26,0,4.76-1.11,5S540.29,359.56,539.82,357Z"/><path class="cls-23" d="M535.87,353.63c2.12-1.71,4.41-2.48,5.11-1.71s-.43,2.78-2.55,4.49-4.41,2.48-5.11,1.72S533.75,355.35,535.87,353.63Z"/><path class="cls-23" d="M537.05,348.67c2.62.8,4.45,2.24,4.08,3.22s-2.77,1.11-5.39.3-4.44-2.25-4.08-3.22S534.44,347.86,537.05,348.67Z"/><path class="cls-24" d="M542.83,351.55a1.62,1.62,0,1,1-1.83-1.24A1.56,1.56,0,0,1,542.83,351.55Z"/><path class="cls-23" d="M495.64,357.29c.4,2.56-.15,4.77-1.24,4.94s-2.28-1.77-2.68-4.33.16-4.76,1.24-4.93S495.24,354.73,495.64,357.29Z"/><path class="cls-23" d="M499.5,360.77c-2.16,1.66-4.47,2.38-5.16,1.59s.52-2.77,2.68-4.44,4.47-2.37,5.15-1.59S501.66,359.1,499.5,360.77Z"/><path class="cls-23" d="M498.18,365.7c-2.59-.86-4.37-2.35-4-3.31s2.81-1.05,5.4-.18,4.38,2.35,4,3.32S500.77,366.57,498.18,365.7Z"/><path class="cls-23" d="M493,367.24c-.47-2.55,0-4.77,1.11-5s2.33,1.71,2.8,4.25,0,4.77-1.11,5S493.46,369.78,493,367.24Z"/><path class="cls-23" d="M489,363.86c2.11-1.72,4.4-2.49,5.11-1.72s-.44,2.78-2.55,4.5-4.41,2.48-5.12,1.71S486.92,365.57,489,363.86Z"/><path class="cls-23" d="M490.22,358.89c2.61.81,4.44,2.25,4.08,3.22s-2.78,1.11-5.39.31-4.44-2.25-4.08-3.22S487.6,358.09,490.22,358.89Z"/><path class="cls-24" d="M496,361.77a1.58,1.58,0,0,1-1.37,1.74,1.51,1.51,0,1,1,1.37-1.74Z"/><path class="cls-25" d="M703.44,477.24s115.65-61.79,101.27-145.7c-16.3-95.16-104.48-59.33-98.69.11S745.27,424.09,703.44,477.24Z"/><path class="cls-26" d="M714.3,461c91-32.35,44.29-157.16,39-188.1C727.53,274,702.87,299.31,706,331.65,711.19,384.79,738.49,416.81,714.3,461Z"/><g class="cls-27"><path class="cls-28" d="M746.84,266.45c0,1.92,2.23,5.21,3,7q2.82,6.75,5.3,13.62c2.78,7.78,5.21,15.68,7.22,23.7a209.1,209.1,0,0,1,6.57,51.57,174.21,174.21,0,0,1-7.62,51.36c-2.49,8-5.38,16.26-10.12,23.26-4.56,6.71-10.56,12.5-16.22,18.27-12.08,12.32-25.48,24.12-42.73,28.12-.75.17-.43,1.33.32,1.15,14.45-3.34,26.38-12.15,37-22.21,11-10.41,22.43-21.35,28.35-35.52,13.61-32.55,15-69.46,8.42-103.8a240.64,240.64,0,0,0-7.62-29.27q-2.29-7-5-13.83-1.34-3.46-2.78-6.88c-.69-1.65-2.87-4.74-2.87-6.51a.6.6,0,0,0-1.2,0Z"/><path class="cls-28" d="M701.44,306.51c-4.94,6.22-9.55,13.58-5,21.37,4.41,7.54,13.66,10.91,21.86,12,10.19,1.39,21.41-.42,30.11-6.1s12.79-15.09,15-25l-1.1.15c7.26,12,23,15.16,34.77,7.84,13.25-8.24,16.78-24.75,12.13-38.94-.24-.73-1.4-.42-1.16.32,4.33,13.19,1.53,28.51-10.37,36.79-11.25,7.84-27.09,5.37-34.33-6.62a.61.61,0,0,0-1.1.14c-2,9-5.4,17.79-13.15,23.42-6.73,4.89-15.39,7.17-23.64,7.28s-17.52-1.71-24-7.23c-3.4-2.89-6-6.87-5.77-11.49.22-5,3.61-9.3,6.6-13.06.47-.6-.37-1.46-.85-.85Z"/><path class="cls-28" d="M699.36,359.24c.17,8.18,5.46,14.24,12,18.55,7.86,5.15,17.5,10.23,27,10.85,15.64,1,29.12-10.58,31.68-25.76l-1.18-.16c-.61,13.89,16.37,21.36,28.08,17.62,15.79-5,21.31-22.09,20.08-37.18-.06-.77-1.26-.77-1.2,0,1.06,13.06-2.64,27.8-15.15,34.3-11.32,5.89-31.29.71-30.61-14.74,0-.66-1.06-.83-1.18-.16-2.39,14.18-14.47,25.19-29.13,24.93-8.45-.14-16.28-4.16-23.51-8.17-7.82-4.34-15.54-10.34-15.75-20.08a.6.6,0,0,0-1.2,0Z"/><path class="cls-28" d="M713.81,402.24c-7.33,11.46.3,25.74,12.61,29.25,14.89,4.24,26.9-4.82,35.43-16.06l-1.11-.3c.36,7.28,4.3,13.59,11.88,14.87,8.3,1.41,15.51-3.49,21.26-8.89.56-.53-.29-1.38-.85-.85-4.65,4.38-10.35,8.7-17,8.77-8.41.08-13.64-5.76-14-13.9a.61.61,0,0,0-1.12-.3C753.19,424.88,743,433.17,729.56,431c-12.84-2.1-22.39-16.12-14.71-28.11.42-.65-.62-1.26-1-.61Z"/><path class="cls-28" d="M708.38,447.16c-1.43,6.09,2.9,11,8.67,12.38,7.54,1.83,15.62-.94,21.62-5.5.61-.46,0-1.5-.6-1a27.46,27.46,0,0,1-14.72,5.79c-6.65.46-15.78-2.95-13.81-11.32.18-.75-1-1.07-1.16-.32Z"/></g><circle class="cls-29" cx="865.06" cy="354.61" r="49.03" transform="translate(-68.48 303.79) rotate(-19.17)"/><circle class="cls-29" cx="625.79" cy="78.56" r="29.9" transform="translate(329.29 635.22) rotate(-69.11)"/><path class="cls-29" d="M688.67,82.14a12.54,12.54,0,1,1-10.9-14A12.55,12.55,0,0,1,688.67,82.14Z"/><path class="cls-29" d="M656.3,97.4a11.91,11.91,0,1,1-3.46,16.48A11.92,11.92,0,0,1,656.3,97.4Z"/><circle class="cls-30" cx="856.82" cy="333.57" r="18.78" transform="translate(-23.63 598.55) rotate(-38.02)"/><path class="cls-23" d="M828.05,258.57c-1.19,9.58-5.45,16.95-9.51,16.44s-6.39-8.68-5.21-18.27,5.45-17,9.51-16.45S829.23,249,828.05,258.57Z"/><path class="cls-23" d="M838.34,275c-9.47,3.76-18.48,4-20.14.44s4.67-9.42,14.14-13.19,18.48-4,20.14-.45S847.8,271.23,838.34,275Z"/><path class="cls-23" d="M828.55,291.37c-8.41-5.76-13.31-12.93-10.92-16s11.13-.88,19.55,4.88,13.31,12.93,10.92,16S837,297.14,828.55,291.37Z"/><path class="cls-23" d="M808.34,291.56c.92-9.61,5-17.08,9-16.67s6.62,8.53,5.7,18.15-5,17.08-9.06,16.67S807.41,301.18,808.34,291.56Z"/><path class="cls-23" d="M797.6,275.38c9.36-4,18.36-4.41,20.12-.93S813.3,284,804,288s-18.36,4.41-20.11.92S788.25,279.37,797.6,275.38Z"/><path class="cls-23" d="M806.94,258.76c8.56,5.57,13.65,12.62,11.35,15.74s-11.1,1.15-19.67-4.42S785,257.46,787.27,254.34,798.37,253.19,806.94,258.76Z"/><path class="cls-24" d="M824.72,275a6,6,0,1,1-5.28-6.31A5.82,5.82,0,0,1,824.72,275Z"/><path class="cls-23" d="M807.38,219.53c-.62,5-2.85,8.86-5,8.59s-3.34-4.53-2.72-9.54,2.85-8.86,5-8.6S808,214.52,807.38,219.53Z"/><path class="cls-23" d="M812.76,228.11c-5,2-9.66,2.08-10.53.24s2.45-4.93,7.39-6.9,9.66-2.07,10.52-.23S817.7,226.15,812.76,228.11Z"/><path class="cls-23" d="M807.64,236.67c-4.39-3-6.95-6.75-5.7-8.36s5.81-.46,10.21,2.56,7,6.75,5.71,8.36S812,239.69,807.64,236.67Z"/><path class="cls-23" d="M797.08,236.77c.48-5,2.6-8.93,4.73-8.71s3.46,4.46,3,9.48-2.6,8.93-4.73,8.71S796.6,241.8,797.08,236.77Z"/><path class="cls-23" d="M791.47,228.31c4.89-2.08,9.6-2.3,10.51-.48s-2.3,5-7.19,7.07-9.6,2.3-10.51.48S786.59,230.4,791.47,228.31Z"/><path class="cls-23" d="M796.35,219.63c4.48,2.91,7.13,6.59,5.93,8.23s-5.8.59-10.28-2.32-7.13-6.59-5.93-8.22S791.87,216.72,796.35,219.63Z"/><path class="cls-24" d="M805.64,228.13a3.15,3.15,0,1,1-2.76-3.3A3.05,3.05,0,0,1,805.64,228.13Z"/><path class="cls-16" d="M458.72,517.62s166.54,180.12,352.1,20.55C810.82,538.17,655.66,621.77,458.72,517.62Z"/><path class="cls-31" d="M81.76,501.23s3.42-25.3,50.66-82.65l64,77.83S147.21,552.19,81.76,501.23Z"/><rect class="cls-32" x="143.87" y="328.63" width="52.48" height="286.94" transform="translate(-328 411.24) rotate(-63.22)"/><path class="cls-33" d="M291.84,563.1s18.76,11.79,32.32-13.19-8.66-33.69-8.66-33.69S291.59,563,291.84,563.1Z"/><rect class="cls-34" x="274.37" y="534.71" width="52.58" height="6.78" transform="translate(-315.19 564.04) rotate(-63.22)"/><polygon class="cls-35" points="30.23 430.84 2.67 386.26 53.88 383.99 59.88 397.94 47.53 401.99 51.52 414.08 40.43 417.72 44.17 429.06 30.23 430.84"/><polygon class="cls-36" points="16.51 408.74 2.67 386.26 27.79 385.14 28.56 400.18 16.51 408.74"/><path class="cls-9" d="M117.35,538.59s111.38,28.14,96.27-64.17c0,0-11.9-58.5-27.87-11.6-10.5,30.83-29.52,52.4-95.93,20.82C89.82,483.64,58.73,517.38,117.35,538.59Z"/><path class="cls-9" d="M160.13,471.77h0a16.39,16.39,0,0,1-11.82-19.88l12.63-49.65a16.41,16.41,0,0,1,19.89-11.82h0a16.41,16.41,0,0,1,11.82,19.89L180,460A16.41,16.41,0,0,1,160.13,471.77Z"/><path class="cls-37" d="M802,103.27l-9.73,4.66a204.76,204.76,0,0,1,9.24,22.26l10.23-3.38A214.64,214.64,0,0,0,802,103.27Z"/><path class="cls-37" d="M783.17,70.58l-8.9,6.09a231.37,231.37,0,0,1,12.59,20.69l9.48-5.12A238.1,238.1,0,0,0,783.17,70.58Z"/><path class="cls-37" d="M758.88,41.25l-7.33,7.92a180,180,0,0,1,15.77,18l8.52-6.6A190.86,190.86,0,0,0,758.88,41.25Z"/><path class="cls-37" d="M728.7,17.8l-5.13,9.57a135.09,135.09,0,0,1,19.36,13.9l6.66-8.52A146.51,146.51,0,0,0,728.7,17.8Z"/><path class="cls-37" d="M693.35,3.44,690.76,14A120,120,0,0,1,713.23,22l4.33-10A129.91,129.91,0,0,0,693.35,3.44Z"/><path class="cls-37" d="M655.31.26l.14,10.83a127.31,127.31,0,0,1,23.82.8L681,1.16A136.73,136.73,0,0,0,655.31.26Z"/><path class="cls-37" d="M617.71,7l2.85,10.4c3.75-1.34,7.69-2,11.54-3a111.17,111.17,0,0,1,11.74-2.16l-1-10.76a117.66,117.66,0,0,0-12.65,2.3C626,4.84,621.76,5.59,617.71,7Z"/><path class="cls-37" d="M582.39,21.53l5.26,9.41,10.68-5.36,11.12-4.5L605.75,11c-4,1.6-7.94,3.14-11.87,4.8Z"/><path class="cls-37" d="M552,45.21l7.93,7.3a37.13,37.13,0,0,1,4.13-4.19l4.3-4c3-2.52,6.25-4.81,9.35-7.23l-6.1-8.89c-3.43,2.65-7,5.16-10.27,8l-4.77,4.44A43.53,43.53,0,0,0,552,45.21Z"/><path class="cls-37" d="M531.47,78l10,3.92,2.39-5.37,1.19-2.68c.44-.87,1-1.71,1.43-2.56l2.89-5.1c1-1.67,2.24-3.21,3.34-4.82L544,55.14c-1.24,1.8-2.58,3.53-3.72,5.38L537,66.22c-.53,1-1.1,1.88-1.59,2.86l-1.33,3Z"/><path class="cls-37" d="M523.54,115.69l10.76.65c.43-3.94.54-7.94,1.32-11.82.33-1.94.61-3.9,1-5.84L538,92.94,527.6,90.18l-1.55,6.31c-.42,2.12-.72,4.25-1.09,6.38C524.13,107.12,524,111.42,523.54,115.69Z"/><path class="cls-37" d="M525.64,153.68l10.64-1.7A183.89,183.89,0,0,1,534.12,128l-10.78.22A194.12,194.12,0,0,0,525.64,153.68Z"/><path class="cls-37" d="M534.57,190.33l10.26-3.3a236.78,236.78,0,0,1-6.32-23.42L528,165.89A248.73,248.73,0,0,0,534.57,190.33Z"/><path class="cls-37" d="M548.35,225.3l9.75-4.6c-3.45-7.32-6.57-14.82-9.4-22.42L538.59,202C541.53,209.91,544.76,217.67,548.35,225.3Z"/><path class="cls-9" d="M129.05,463.86h0A16.39,16.39,0,0,1,117.23,444l12.63-49.65a16.41,16.41,0,0,1,19.89-11.82h0a16.41,16.41,0,0,1,11.82,19.89L148.94,452A16.41,16.41,0,0,1,129.05,463.86Z"/><path id="SVGID-6" data-name="SVGID" class="cls-2" d="M730.41,271.77s-25.09-128.7,49.06-170.53c84.09-47.43,112,43.58,62.23,76.61S745.23,205.77,730.41,271.77Z"/><g class="cls-38"><path class="cls-2" d="M730.41,271.77s-25.09-128.7,49.06-170.53c84.09-47.43,112,43.58,62.23,76.61S745.23,205.77,730.41,271.77Z"/><circle class="cls-39" cx="780.59" cy="117.97" r="57.08" transform="translate(223.04 676.87) rotate(-53.66)"/><circle class="cls-6" cx="781.01" cy="116.05" r="36.2" transform="translate(113.8 538.27) rotate(-40.78)"/><path class="cls-40" d="M797.49,103.15a22,22,0,1,1-29.87-8.46A22,22,0,0,1,797.49,103.15Z"/><path class="cls-41" d="M748.81,202.65a76.8,76.8,0,0,1-20-15.37c-6.44,43.33,1.58,84.49,1.58,84.49C738,238.2,753.75,223,774,211.89A102.08,102.08,0,0,1,748.81,202.65Z"/></g><path class="cls-19" d="M403.2,198.18s2.61-5,8.34-2.15a4.68,4.68,0,0,1,2.21,6,50.16,50.16,0,0,1-31.89,29,4.57,4.57,0,0,1-4.85-1.41c-1.46-1.82-2.55-4.84.25-9.13Z"/><path class="cls-19" d="M351.83,131.05s24.93-16.43,60.08,19.74l-14.35,17.13Z"/><path class="cls-19" d="M388.85,143.21c-9.06-6.73-22-12.27-34.08-13.61a19.23,19.23,0,0,0-2.94,1.45l45.73,36.87,7.31-8.73A80.85,80.85,0,0,0,388.85,143.21Z"/><path class="cls-19" d="M316.07,165.16S298.49,189.29,333,226.1l17.79-13.52Z"/><path class="cls-19" d="M326.48,202.72c-6.3-9.37-11.23-22.54-12-34.68a18.68,18.68,0,0,1,1.58-2.88l34.69,47.42-9.07,6.89A81.26,81.26,0,0,1,326.48,202.72Z"/><path class="cls-42" d="M312.87,126.74s-10.16,42.3,26.61,78.83,58.34,10.21,58.34,10.21,27.31-20.3-7.45-58.75S312.87,126.74,312.87,126.74Z"/><path class="cls-43" d="M375.53,143.57c11.51,13.35,18.62,30.61,15.76,46.85-2.16,12.28-13.23,25.21-26.47,32.4,21.13,7.42,33-7,33-7s27.31-20.3-7.45-58.75A99.68,99.68,0,0,0,375.53,143.57Z"/><path class="cls-19" d="M346.75,129.38c-19.18-5.44-33.88-2.64-33.88-2.64s-3.85,16.07,1.8,37C330.33,157.32,342.18,145,346.75,129.38Z"/><path class="cls-19" d="M368.87,161a16.57,16.57,0,1,1-23.43-.55A16.57,16.57,0,0,1,368.87,161Z"/><path class="cls-44" d="M364.76,164.87a10.89,10.89,0,1,1-15.4-.36A10.89,10.89,0,0,1,364.76,164.87Z"/><path class="cls-45" d="M351.37,176.48a7.56,7.56,0,0,1,1.26-6.54c.84-1.29,2-2.39,2.61-3.84a5.75,5.75,0,0,0,.36-1.86,7.34,7.34,0,1,0-2.93,14.38A5.15,5.15,0,0,1,351.37,176.48Z"/><path class="cls-46" d="M336,140.71a2.92,2.92,0,1,1-4-4.22"/><path class="cls-46" d="M348.19,161.14a1.48,1.48,0,1,1-2.09,0A1.47,1.47,0,0,1,348.19,161.14Z"/><path class="cls-46" d="M356.84,157.38a1.48,1.48,0,1,1-2.09,0A1.48,1.48,0,0,1,356.84,157.38Z"/><path class="cls-46" d="M367.73,161a1.47,1.47,0,1,1-2.08,0A1.47,1.47,0,0,1,367.73,161Z"/><path class="cls-46" d="M371.85,172.31a1.47,1.47,0,1,1-2.08-.05A1.46,1.46,0,0,1,371.85,172.31Z"/><path class="cls-46" d="M367.74,181.63a1.48,1.48,0,1,1-2.09,0A1.48,1.48,0,0,1,367.74,181.63Z"/><path class="cls-46" d="M357,185.37a1.47,1.47,0,1,1-2.08-.05A1.47,1.47,0,0,1,357,185.37Z"/><path class="cls-46" d="M348.69,182.18a1.47,1.47,0,1,1-2.08-.05A1.47,1.47,0,0,1,348.69,182.18Z"/><path class="cls-46" d="M344.28,171.4a1.47,1.47,0,1,1-2.08-.05A1.47,1.47,0,0,1,344.28,171.4Z"/><path class="cls-19" d="M412.1,201.51c4.57,1.89,7.67,4.9,6.92,6.73s-5.08,1.78-9.66-.1-7.67-4.9-6.92-6.73S407.52,199.62,412.1,201.51Z"/><path class="cls-19" d="M403.49,216.05c3.42,3.58,5,7.59,3.59,9s-5.36-.43-8.78-4-5-7.6-3.59-9S400.07,212.47,403.49,216.05Z"/><path class="cls-19" d="M382.37,229.87c1.67,4.66,4.54,7.89,6.4,7.22s2-5,.36-9.64-4.54-7.9-6.4-7.23S380.7,225.21,382.37,229.87Z"/><polygon class="cls-21" points="877.41 246.92 882.41 257.04 893.58 258.66 885.5 266.55 887.4 277.67 877.41 272.42 867.42 277.67 869.33 266.55 861.24 258.66 872.41 257.04 877.41 246.92"/><polygon class="cls-21" points="916.04 398.74 917.77 402.24 921.63 402.8 918.83 405.52 919.49 409.37 916.04 407.55 912.59 409.37 913.25 405.52 910.45 402.8 914.31 402.24 916.04 398.74"/><polygon class="cls-21" points="398.94 464.78 403.94 474.9 415.12 476.53 407.03 484.41 408.94 495.54 398.94 490.28 388.95 495.54 390.86 484.41 382.77 476.53 393.95 474.9 398.94 464.78"/><polygon class="cls-21" points="413.57 451.08 415.05 454.07 418.36 454.55 415.96 456.88 416.53 460.17 413.57 458.62 410.62 460.17 411.18 456.88 408.79 454.55 412.1 454.07 413.57 451.08"/><polygon class="cls-21" points="402.62 510.41 404.53 514.27 408.79 514.89 405.71 517.9 406.44 522.14 402.62 520.14 398.81 522.14 399.54 517.9 396.45 514.89 400.71 514.27 402.62 510.41"/><polygon class="cls-21" points="686.74 369.59 689.02 374.21 694.12 374.95 690.43 378.55 691.3 383.63 686.74 381.23 682.18 383.63 683.05 378.55 679.36 374.95 684.46 374.21 686.74 369.59"/><polygon class="cls-21" points="715.68 131.18 720.68 141.3 731.85 142.93 723.77 150.81 725.68 161.93 715.68 156.68 705.69 161.93 707.6 150.81 699.51 142.93 710.69 141.3 715.68 131.18"/><polygon class="cls-21" points="673.09 32.33 676 38.22 682.5 39.16 677.79 43.74 678.9 50.22 673.09 47.16 667.28 50.22 668.39 43.74 663.68 39.16 670.18 38.22 673.09 32.33"/><path class="cls-7" d="M931.47,306.9a4.92,4.92,0,1,1-4.92-4.93A4.92,4.92,0,0,1,931.47,306.9Z"/><path class="cls-7" d="M938.93,270.61a6.19,6.19,0,1,1-6.19-6.19A6.19,6.19,0,0,1,938.93,270.61Z"/><path class="cls-7" d="M518.68,100.73a4.93,4.93,0,1,1-4.92-4.93A4.92,4.92,0,0,1,518.68,100.73Z"/><path class="cls-7" d="M526.14,64.44A6.19,6.19,0,1,1,520,58.25,6.19,6.19,0,0,1,526.14,64.44Z"/><circle class="cls-7" cx="903.71" cy="223.15" r="6.67"/><circle class="cls-7" cx="935.47" cy="364.79" r="4"/><path class="cls-7" d="M381,380.82a7.37,7.37,0,1,1-7.37-7.38A7.37,7.37,0,0,1,381,380.82Z"/><path class="cls-7" d="M675.07,397.73a6.33,6.33,0,1,1-6.33-6.33A6.32,6.32,0,0,1,675.07,397.73Z"/><path class="cls-7" d="M817.15,491.56a3.6,3.6,0,1,1-3.6-3.6A3.6,3.6,0,0,1,817.15,491.56Z"/><path class="cls-7" d="M536.38,504.75a8.06,8.06,0,1,1-8.06-8.06A8.06,8.06,0,0,1,536.38,504.75Z"/><path class="cls-10" d="M889.56,219.19a7.41,7.41,0,1,1-7.4-7.4A7.4,7.4,0,0,1,889.56,219.19Z"/><circle class="cls-7" cx="588.89" cy="150.43" r="6.67"/><path class="cls-10" d="M574.75,146.48a7.41,7.41,0,1,1-7.41-7.4A7.4,7.4,0,0,1,574.75,146.48Z"/><path class="cls-10" d="M914.09,278.21A5.19,5.19,0,1,1,908.9,273,5.19,5.19,0,0,1,914.09,278.21Z"/><polygon class="cls-21" points="505 155.91 500 166.04 488.82 167.66 496.91 175.54 495 186.67 505 181.41 514.99 186.67 513.08 175.54 521.17 167.66 509.99 166.04 505 155.91"/><path class="cls-7" d="M443.47,179.61a6.2,6.2,0,1,0,6.19-6.19A6.19,6.19,0,0,0,443.47,179.61Z"/><path class="cls-7" d="M472,132.14a6.68,6.68,0,1,0,6.68-6.67A6.68,6.68,0,0,0,472,132.14Z"/><path class="cls-10" d="M492.85,128.19a7.4,7.4,0,1,0,7.4-7.41A7.4,7.4,0,0,0,492.85,128.19Z"/><circle class="cls-10" cx="473.51" cy="187.21" r="5.19"/><path class="cls-10" d="M814.31,416.07a4.71,4.71,0,1,1-4.71-4.71A4.71,4.71,0,0,1,814.31,416.07Z"/><path class="cls-10" d="M697.79,407.8a5.9,5.9,0,1,1-5.9-5.89A5.9,5.9,0,0,1,697.79,407.8Z"/><path class="cls-10" d="M412.43,415.79a4.91,4.91,0,1,1-4.9-4.91A4.9,4.9,0,0,1,412.43,415.79Z"/><path class="cls-10" d="M947.08,392.7a4.08,4.08,0,1,1-4.07-4.07A4.07,4.07,0,0,1,947.08,392.7Z"/><path class="cls-9" d="M98.59,456.7h0a16.41,16.41,0,0,1-11.82-19.89L99.4,387.17a16.41,16.41,0,0,1,19.89-11.82h0a16.41,16.41,0,0,1,11.82,19.89l-12.64,49.64A16.39,16.39,0,0,1,98.59,456.7Z"/><circle class="cls-47" cx="656.06" cy="238.07" r="82.6" transform="translate(-15.79 49.09) rotate(-4.23)"/><path class="cls-48" d="M713.08,178.64c16,42.53,0,93.61-47.07,113.11a100.24,100.24,0,0,1-71.31,1.61A82.52,82.52,0,1,0,713.08,178.64Z"/><path class="cls-49" d="M653.27,208.91a22.24,22.24,0,1,1-19.33-24.8A22.24,22.24,0,0,1,653.27,208.91Z"/><path class="cls-50" d="M647.23,206a18.05,18.05,0,1,1-15.69-20.13A18,18,0,0,1,647.23,206Z"/><path class="cls-49" d="M704.27,251.89a18.52,18.52,0,1,1-16.1-20.65A18.52,18.52,0,0,1,704.27,251.89Z"/><path class="cls-50" d="M700.13,248.94c-1,7.7-8.4,13.12-16.64,12.09s-14.14-8.09-13.19-15.79,8.41-13.12,16.65-12.1S701.09,241.24,700.13,248.94Z"/><path class="cls-49" d="M641,278.55a12.51,12.51,0,1,1-10.87-13.95A12.5,12.5,0,0,1,641,278.55Z"/><path class="cls-50" d="M638.16,277a10.15,10.15,0,1,1-8.83-11.33A10.16,10.16,0,0,1,638.16,277Z"/><path class="cls-49" d="M711.23,198.22a8.14,8.14,0,1,1-7.08-9.08A8.15,8.15,0,0,1,711.23,198.22Z"/><path class="cls-50" d="M709.38,197.19a6.61,6.61,0,1,1-5.74-7.37A6.61,6.61,0,0,1,709.38,197.19Z"/><path class="cls-49" d="M665.3,179.27a2.06,2.06,0,1,1-1.79-2.3A2.06,2.06,0,0,1,665.3,179.27Z"/><path class="cls-49" d="M681.73,202a4.17,4.17,0,1,1-3.62-4.65A4.17,4.17,0,0,1,681.73,202Z"/><path class="cls-49" d="M589.86,236.27a3.77,3.77,0,1,1-3.28-4.21A3.79,3.79,0,0,1,589.86,236.27Z"/><path class="cls-49" d="M608.67,243.64a1.23,1.23,0,0,1-2.45-.3,1.23,1.23,0,1,1,2.45.3Z"/><path class="cls-49" d="M658.64,284a2.38,2.38,0,1,1-2.08-2.66A2.38,2.38,0,0,1,658.64,284Z"/><path class="cls-49" d="M663,299.89a1.46,1.46,0,1,1-1.27-1.63A1.46,1.46,0,0,1,663,299.89Z"/><path class="cls-49" d="M598.27,264.55a2.74,2.74,0,1,1-2.38-3.05A2.74,2.74,0,0,1,598.27,264.55Z"/><path class="cls-49" d="M726.78,244.3a2,2,0,0,1-2.22,1.72,2,2,0,0,1,.49-3.94A2,2,0,0,1,726.78,244.3Z"/><path class="cls-49" d="M699.62,222.25a1.18,1.18,0,1,1-1-1.32A1.18,1.18,0,0,1,699.62,222.25Z"/><path class="cls-49" d="M690,173.31a3,3,0,1,1-2.65-3.39A3.06,3.06,0,0,1,690,173.31Z"/><path class="cls-49" d="M642.8,164.89a.49.49,0,0,1-.54.43.5.5,0,0,1-.43-.55.49.49,0,0,1,1,.12Z"/><path class="cls-51" d="M542.94,494.34c-.25-.94-.47-1.89-.66-2.86A42.62,42.62,0,1,1,626,475.25c.18,1,.33,1.94.45,2.9l15.9-3.08c-.13-1-.29-1.93-.48-2.89a58.79,58.79,0,1,0-115.43,22.38c.18,1,.39,1.92.63,2.86Z"/><path class="cls-52" d="M530.15,496.82c-.2-.83-.38-1.66-.55-2.51A56.22,56.22,0,0,1,640,472.91c.17.84.31,1.69.43,2.53l15.88-3.08c-.13-.84-.27-1.68-.43-2.53a72.39,72.39,0,0,0-142.13,27.56c.16.84.35,1.68.54,2.51Z"/><path class="cls-53" d="M515.44,499.67c-.08-.4-.17-.79-.25-1.19-7.71-39.78,17.08-78.17,55.27-85.57s75.54,18.93,83.25,58.71c.08.4.15.8.22,1.2l15.87-3.08c-.07-.4-.14-.8-.22-1.2C660.17,420,614.33,387.93,567.39,397s-77.48,56-68.07,104.53c.08.4.17.79.25,1.19Z"/><path class="cls-54" d="M504.92,501.71c-.27-1.1-.51-2.22-.73-3.34-8.49-43.76,21.18-86.45,66.14-95.17s88.43,19.79,96.91,63.55c.22,1.13.41,2.25.57,3.37l15.89-3.07c-.18-1.13-.37-2.25-.59-3.38-10.18-52.51-62.16-86.76-115.86-76.34s-89.12,61.6-78.93,114.11c.21,1.13.46,2.24.71,3.35Z"/><path class="cls-55" d="M574.16,501.37a18.13,18.13,0,0,0-28.87-16.95,29,29,0,0,0-47.08,2.83,18.12,18.12,0,0,0-29.73,14.93c-15.91,3.21-27.28,11.66-27,21.2.38,11.74,18.29,20.69,40,20,2.19-.07,4.34-.24,6.42-.49a11.62,11.62,0,0,0,2.1,2.63,11.77,11.77,0,0,0,15.38.6c.26.27.51.55.79.81a18.15,18.15,0,0,0,25.66-.83c.44-.48.86-1,1.25-1.49a11.76,11.76,0,0,0,16.08-1,12,12,0,0,0,1.79-2.52c.89,0,1.79,0,2.7,0,21.71-.7,39-10.79,38.62-22.53C592.05,511.12,584.86,504.84,574.16,501.37Z"/><path class="cls-56" d="M574.16,501.37a18.14,18.14,0,0,0-4.72-14.79,33.81,33.81,0,0,1-3,14.19c1.7,8.85-.83,19-7.81,25.06a32.46,32.46,0,0,1-26.59,7.2c-.54-.11-1.06-.23-1.57-.36a27.46,27.46,0,0,1-17,6,31.72,31.72,0,0,1-19.67-6,26.71,26.71,0,0,1-15.55-3.08c-9.43-5.09-15.29-15.09-16.49-25.58-12.27,4-20.48,11.3-20.22,19.43.38,11.74,18.29,20.69,40,20,2.19-.07,4.34-.24,6.42-.49a11.62,11.62,0,0,0,2.1,2.63,11.77,11.77,0,0,0,15.38.6c.26.27.51.55.79.81a18.15,18.15,0,0,0,25.66-.83c.44-.48.86-1,1.25-1.49a11.76,11.76,0,0,0,16.08-1,12,12,0,0,0,1.79-2.52c.89,0,1.79,0,2.7,0,21.71-.7,39-10.79,38.62-22.53C592.05,511.12,584.86,504.84,574.16,501.37Z"/><path class="cls-55" d="M727.58,481.8a18.13,18.13,0,0,0-28.87-16.95,29,29,0,0,0-47.08,2.82,18.12,18.12,0,0,0-29.72,14.94c-15.92,3.2-27.28,11.65-27,21.2.37,11.74,18.28,20.69,40,20,2.19-.07,4.33-.24,6.42-.49a11.72,11.72,0,0,0,17.48,3.23c.25.27.5.55.78.81a18.16,18.16,0,0,0,25.66-.83,19.34,19.34,0,0,0,1.25-1.49,11.76,11.76,0,0,0,16.08-1,11.6,11.6,0,0,0,1.79-2.52c.9,0,1.8,0,2.7,0,21.71-.7,39-10.79,38.62-22.54C745.48,491.55,738.29,485.27,727.58,481.8Z"/><path class="cls-56" d="M727.58,481.8A18.1,18.1,0,0,0,722.87,467a33.85,33.85,0,0,1-3,14.19c1.7,8.85-.83,19-7.81,25.05a32.42,32.42,0,0,1-26.59,7.21q-.79-.16-1.56-.36a27.49,27.49,0,0,1-17,6A31.75,31.75,0,0,1,647.19,513,26.8,26.8,0,0,1,631.64,510c-9.42-5.09-15.29-15.09-16.49-25.58-12.26,4-20.48,11.3-20.21,19.43.37,11.74,18.28,20.69,40,20,2.19-.07,4.33-.24,6.42-.49a11.72,11.72,0,0,0,17.48,3.23c.25.27.5.55.78.81a18.16,18.16,0,0,0,25.66-.83,19.34,19.34,0,0,0,1.25-1.49,11.76,11.76,0,0,0,16.08-1,11.6,11.6,0,0,0,1.79-2.52c.9,0,1.8,0,2.7,0,21.71-.7,39-10.79,38.62-22.54C745.48,491.55,738.29,485.27,727.58,481.8Z"/><path class="cls-57" d="M756.86,443.05c.6-1.3,2.44-1.86,5.08-.85,9.94,3.84,27.76,12.76,52.45,29.23s39.8,29.51,47.16,37.2c2,2.05,2.14,4,1.16,5l13.35,8.9a2.41,2.41,0,0,0,.21-.24c6.28-9.41-35.44-40.83-58.37-56.13s-68-41.75-74.26-32.33a2.59,2.59,0,0,0-.14.29Z"/><path class="cls-58" d="M771.14,450.91A47.46,47.46,0,1,0,837,437.76,47.45,47.45,0,0,0,771.14,450.91Z"/><path class="cls-59" d="M844.43,443.93c-6.82,7.14-2.11,19.05-5.58,28.32-2.53,6.75-7.74,6.26-13.75,4.94-5.09-1.11-21.26-3.85-17.71,5.43,1.87,4.87,6.8,8.14,8.43,13.28,3.55,11.18-11.58,13.25-19.22,12.1a58.37,58.37,0,0,1-30.67-14.93,47.44,47.44,0,1,0,78.5-49.14Z"/><path class="cls-57" d="M876.5,517.82l-17.28-11.53c.84.82,1.63,1.61,2.33,2.34,3.61,3.79,1.33,7.22-3.55,5.34-9.93-3.83-27.77-12.75-52.48-29.24s-39.78-29.49-47.14-37.19c-3.61-3.79-1.33-7.22,3.56-5.34.95.37,2,.8,3.08,1.26L747.7,431.91a5,5,0,0,0-4.06,1.94c-6.28,9.41,35.44,40.84,58.37,56.14s68,41.74,74.26,32.32A5,5,0,0,0,876.5,517.82Z"/><polygon class="cls-21" points="868.27 561.33 871.81 568.5 879.72 569.65 873.99 575.23 875.35 583.11 868.27 579.39 861.19 583.11 862.54 575.23 856.82 569.65 864.73 568.5 868.27 561.33"/></svg>