<svg id="reader" xmlns="http://www.w3.org/2000/svg" xmlns:xlink="http://www.w3.org/1999/xlink" viewBox="0 0 1200 1200"><defs><style>.cls-1{fill:none;}.cls-2{fill:#963a38;}.cls-3{fill:#e5b267;}.cls-4{fill:#c9862f;opacity:0.34;}.cls-5{clip-path:url(#clip-path);}.cls-6{fill:#f7c786;}.cls-7{clip-path:url(#clip-path-2);}.cls-8{fill:#ffa50a;}.cls-9{opacity:0.1;}.cls-10{fill:#111;}.cls-11{clip-path:url(#clip-path-3);}.cls-12{fill:#ef4440;}.cls-13{fill:#e21414;}.cls-14{clip-path:url(#clip-path-4);}.cls-15{fill:#fff;}.cls-16{fill:#00d9cd;}.cls-17{fill:#00c4b4;}.cls-18{fill:#65547d;}.cls-19{fill:#00eadc;}.cls-20{fill:#866faa;}.cls-21{fill:#8a518c;}.cls-22{fill:#ea6a0c;}.cls-23{fill:#dd4137;}.cls-24{clip-path:url(#clip-path-5);}.cls-25{fill:#fbb040;}</style><clipPath id="clip-path"><path id="SVGID" class="cls-1" d="M746.28,438.72s255.55,117,239.35-204.62c0,0,159.92,397.73-208.86,363.11Z"/></clipPath><clipPath id="clip-path-2"><path id="SVGID-2" data-name="SVGID" class="cls-1" d="M438.75,438.72S183.2,555.74,199.4,234.1c0,0-159.91,397.73,208.86,363.11Z"/></clipPath><clipPath id="clip-path-3"><path id="SVGID-3" data-name="SVGID" class="cls-1" d="M566.85,640.52c34,15.49,71.5,13.54,103.36-7.35l1.51-1c50.32-33.44,100.24,60.82,38,119S550.8,804,506.46,742.37C467.67,688.45,500.64,610.37,566.85,640.52Z"/></clipPath><clipPath id="clip-path-4"><path id="SVGID-4" data-name="SVGID" class="cls-1" d="M566.84,640.42c34,15.49,71.51,13.54,103.36-7.35l1.51-1c50.33-33.44,100.24,60.82,38,119s-158.94,52.8-203.28-8.82C467.67,688.35,500.64,610.27,566.84,640.42Z"/></clipPath><clipPath id="clip-path-5"><path id="SVGID-5" data-name="SVGID" class="cls-1" d="M377.28,442.14l241.12-406,204.29,411S638.51,358.27,377.28,442.14Z"/></clipPath></defs><title>monster</title><path class="cls-2" d="M377.28,442.14s234.92-105.25,445.41,4.93C822.69,447.07,551.42,511.2,377.28,442.14Z"/><path class="cls-3" d="M746.28,438.72s255.55,117,239.35-204.62c0,0,159.92,397.73-208.86,363.11Z"/><path class="cls-4" d="M988.83,472.36C928,512,810.42,515.11,750,462.8L775.8,597.21c171.31,16.08,228.5-61.14,240.66-148.44A138.92,138.92,0,0,1,988.83,472.36Z"/><g class="cls-5"><path class="cls-6" d="M807.84,416.72S758,560.35,862.51,643.66l11.34-7.39s-94-71.4-55.08-219.55Z"/><path class="cls-6" d="M876.37,389.61s-29.12,149.2,86,217l10.19-8.91S869.53,540.21,887.2,388.07Z"/><path class="cls-6" d="M919.32,328.7S932.55,480.14,1062,513.49l7.33-11.38s-114.92-26.78-140-177.88Z"/><path class="cls-6" d="M926.59,238.75s39.59,146.77,172.84,156.9l5.22-12.48S986.81,377,935.63,232.6Z"/></g><path class="cls-3" d="M438.75,438.72S183.2,555.74,199.4,234.1c0,0-159.91,397.73,208.86,363.11Z"/><path class="cls-4" d="M196.2,472.36C257,512,374.61,515.11,435.08,462.8L409.23,597.21c-171.3,16.08-228.5-61.14-240.66-148.44A138.92,138.92,0,0,0,196.2,472.36Z"/><g class="cls-7"><path class="cls-6" d="M377.19,416.72S427,560.35,322.52,643.66l-11.34-7.39s93.95-71.4,55.08-219.55Z"/><path class="cls-6" d="M308.66,389.61s29.12,149.2-86,217l-10.19-8.91s103.06-57.49,85.39-209.63Z"/><path class="cls-6" d="M265.71,328.7S252.48,480.14,123.08,513.49l-7.33-11.38s114.92-26.78,140-177.88Z"/><path class="cls-6" d="M258.44,238.75S218.85,385.52,85.6,395.65l-5.21-12.48S198.22,377,249.4,232.6Z"/></g><path class="cls-8" d="M533.08,378.78S504,349,524.92,350.83s37.86,13.94,37.86,13.94S533.66,332.61,554,331.4,606.47,363,606.47,363s45.43-45.55,53.58-39.48-22.71,44.95-22.71,44.95,43.1-23.08,45.43-3-27.7,29.16-27.7,29.16,60.32-8.91,155.84,64c0,0,12,15.8-7,17.42,0,0,158.43,168.86,135.13,190.73,0,0-9.32,1.21-10.87,0,0,0,247.26,852.83-78.44,775.08,0,0,9.51,15.19,1.36,17.31S824.6,1447,824.6,1447s.87,6.07-3.21,6.68-6.69-6.68-6.69-6.68,7.86,13.06-1.75,15.79-24.17-8.2-24.17-8.2L511,1461.22s-1.93,14.48-16.2,10.53-27.77-15-28.35-13.77-21.91,17.92-32.4,14.58-17.81-21.06-17.81-21.06S80.15,1586,296.79,703.27c0,0-21.84,24.29-21.74,0,0-10.36,57.47-243.1,153.77-278.73C428.82,424.54,375.62,409.15,533.08,378.78Z"/><path class="cls-9" d="M989,930.93c-1,8-2.24,16-3.73,23.91-5.26,27.91-32.37,107.82-67.14,87.39.93,40.53-10.45,91.37-56.13,81.58,1.34,36.85-20.51,79.33-59,63.86-12.36,48.55-56.33,53.21-99.93,37.74-9.71,33.75-21.55,61.74-62.73,61.42-40.7-.31-86.21-17.1-108.31-52.67-49.92,59.55-140.27-3.43-157.21-68-29.36,16.5-65.92,41.84-99.1,28.86-31.7-12.39-43-53-48.8-87.32C197,1539.2,416.27,1451.5,416.27,1451.5s7.33,17.72,17.81,21.06,31.82-13.36,32.4-14.58,14.08,9.82,28.35,13.77,16.2-10.53,16.2-10.53l277.75-6.68s14.56,10.93,24.17,8.2c6.67-1.9,4.92-8.76,3.23-12.78,1.17,1.92,3,4,5.21,3.67,4.08-.61,3.21-6.68,3.21-6.68s18.35,14.27,26.5,12.14-1.36-17.31-1.36-17.31C1053.72,1490.48,1033,1174.16,989,930.93Z"/><path class="cls-10" d="M566.85,640.52c34,15.49,71.5,13.54,103.36-7.35l1.51-1c50.32-33.44,100.24,60.82,38,119S550.8,804,506.46,742.37C467.67,688.45,500.64,610.37,566.85,640.52Z"/><g class="cls-11"><path class="cls-12" d="M710,753.8S714.29,683,620.33,741c0,0-80.44-53.73-101.27,18C519.06,759,598.25,846.8,710,753.8Z"/><path class="cls-13" d="M622.56,770.62c-4.19,2.94-10.19,1.37-13.68-1.77-22-19.76-41.13-33.34-68-41.37-9.27,5.44-17.12,15.21-21.86,31.54,0,0,70,77.52,171.14,9.6C676.06,745.9,640,758.39,622.56,770.62Z"/></g><g class="cls-14"><path class="cls-15" d="M558.73,625.62s7.83,33.89-4.25,42.54c-4,2.83-25.55,4.88-30.28.94-13.08-10.92-11.62-44.46-11.62-44.46S552.3,600.84,558.73,625.62Z"/><path class="cls-15" d="M600.93,631.66s7.83,33.88-4.25,42.53c-4,2.84-25.56,4.88-30.28.94-13.08-10.92-11.62-44.46-11.62-44.46S594.5,606.87,600.93,631.66Z"/><path class="cls-15" d="M654.38,631.66s7.83,33.88-4.25,42.53c-4,2.84-25.55,4.88-30.27.94-13.09-10.92-11.62-44.46-11.62-44.46S648,606.87,654.38,631.66Z"/><path class="cls-15" d="M695.69,625.62s7.83,33.89-4.25,42.54c-4,2.83-25.56,4.88-30.28.94-13.08-10.92-11.62-44.46-11.62-44.46S689.26,600.84,695.69,625.62Z"/></g><ellipse class="cls-10" cx="703.64" cy="591.47" rx="14.72" ry="21.27"/><ellipse class="cls-10" cx="517.9" cy="591.47" rx="14.72" ry="21.27"/><circle class="cls-9" cx="792.07" cy="623.47" r="52.24"/><path class="cls-9" d="M386.51,630.76a52.24,52.24,0,1,0,52.24-52.24A52.24,52.24,0,0,0,386.51,630.76Z"/><polygon class="cls-16" points="435.41 989.75 484.33 1314.4 760.21 1314.4 789.99 983.53 435.41 989.75"/><path class="cls-17" d="M562.11,1138.77c40.83-32.61,89.1-56.39,136.3-78.31,27.94-13,57.32-25.28,87.62-32.67l4-44.32-354.58,6.22,42,278.86C493.28,1218.86,518.62,1173.5,562.11,1138.77Z"/><rect class="cls-18" x="596.15" y="958.06" width="65.49" height="356.34"/><rect class="cls-19" x="416.91" y="955.97" width="394.77" height="75.54"/><rect class="cls-20" x="596.15" y="955.97" width="65.49" height="75.54"/><path class="cls-20" d="M612,924.19s83.66-127.13,137.27-69.09S797.71,999,716.36,992.31,612,924.19,612,924.19Z"/><path class="cls-20" d="M645.25,924.19S561.6,797.06,508,855.1,459.55,999,540.9,992.31,645.25,924.19,645.25,924.19Z"/><path class="cls-21" d="M706.64,913.6c17.71-5.2,37.51-17.17,39.38-37,1.17-12.47-3.68-24-11.75-33-39.81-18.49-88.85,36.54-110.64,64.83C651.27,912.83,679.84,921.46,706.64,913.6Z"/><path class="cls-21" d="M545.66,914.15c28,1,54.5-11,81.69-14.22-27.61-33.69-81-86.13-119.1-44.83A144.26,144.26,0,0,0,487,884.8C494.34,904.22,519.5,913.18,545.66,914.15Z"/><path class="cls-18" d="M631,961.88h0a16.65,16.65,0,0,1-16.6-16.6V902a16.65,16.65,0,0,1,16.6-16.6h0a16.65,16.65,0,0,1,16.6,16.6v43.33A16.65,16.65,0,0,1,631,961.88Z"/><path class="cls-22" d="M801.1,1086.63s6.64,36.54-39.92,42.69c-8.64,1.14-14-9.43-7.77-15.49,4.54-4.39,12.31-9.48,25.3-15,0,0-46.49,19.87-48.82,6.8S772,1088.78,772,1088.78s-43.32.91-42.31-10.13,44.06-3.25,44.06-3.25-26.49-6.26-23.76-18.79S804.7,1048.92,801.1,1086.63Z"/><path class="cls-22" d="M1076.09,848.41c-17-36.67-76-45.95-112.77-42.68,1.71,7.57,3.49,15.55,5.33,23.88,16.4-1,34.05.32,49.84,5.81,11.59,4,23.31,9.24,30.83,19.22,8.91,11.84,7.61,23,4.33,37.39-8.37,36.66-34.26,67.56-60.76,93-53.65,51.5-123.5,84.69-197.47,92.81-15.38,1.69-15.55,26,0,24.3,95.19-10.45,186-58.05,245.53-133.87C1064.11,938.73,1094,887.14,1076.09,848.41Z"/><path class="cls-22" d="M429.91,1112s-6.64,36.55,39.92,42.69c8.64,1.15,14-9.42,7.77-15.48-4.54-4.39-12.31-9.49-25.3-15,0,0,46.48,19.87,48.82,6.8S459,1114.16,459,1114.16s43.31.91,42.3-10.12-44.06-3.25-44.06-3.25,26.5-6.27,23.77-18.8S426.3,1074.3,429.91,1112Z"/><path class="cls-22" d="M154.91,873.79c17-36.67,76-45.95,112.78-42.68-1.72,7.58-3,15.76-4.87,24.09-16.41-1-34.51.11-50.3,5.61-11.59,4-23.31,9.23-30.83,19.21-8.91,11.84-7.62,23-4.33,37.39,8.36,36.67,34.26,67.56,60.75,93,53.66,51.5,123.51,84.7,197.48,92.81,15.37,1.69,15.55,26,0,24.3-95.2-10.44-186-58-245.53-133.87C166.89,964.11,137,912.53,154.91,873.79Z"/><path class="cls-23" d="M377.28,442.14l241.12-406,204.29,411S638.51,358.27,377.28,442.14Z"/><path class="cls-2" d="M633.32,39.89a24.29,24.29,0,0,1-27.15,2.25c-14.63-8.23-34.74-21.73-23.78-28.59,16.45-10.27,31.66,17.76,31.66,17.76S608.36-4.12,619.43.4s4.48,31.24,4.48,31.24,2.47-27.54,23.44-21.37C660.92,14.26,646,29.72,633.32,39.89Z"/><g class="cls-24"><polygon class="cls-25" points="574.81 138.34 592.84 174.87 633.15 180.72 603.98 209.16 610.86 249.31 574.81 230.35 538.75 249.31 545.64 209.16 516.47 180.72 556.78 174.87 574.81 138.34"/><polygon class="cls-25" points="595.88 291.22 608.76 317.31 637.55 321.49 616.72 341.8 621.63 370.47 595.88 356.94 570.13 370.47 575.05 341.8 554.22 321.49 583.01 317.31 595.88 291.22"/><polygon class="cls-25" points="681.74 198.67 698.2 232.01 734.99 237.35 708.37 263.3 714.65 299.95 681.74 282.65 648.84 299.95 655.12 263.3 628.5 237.35 665.29 232.01 681.74 198.67"/><polygon class="cls-25" points="734.99 356.07 739.67 365.55 750.13 367.07 742.56 374.45 744.35 384.88 734.99 379.96 725.63 384.88 727.42 374.45 719.84 367.07 730.31 365.55 734.99 356.07"/><polygon class="cls-25" points="471.67 356.07 479.41 371.74 496.7 374.25 484.19 386.45 487.14 403.68 471.67 395.54 456.2 403.68 459.16 386.45 446.64 374.25 463.94 371.74 471.67 356.07"/><polygon class="cls-25" points="617.27 89.61 623.88 103 638.66 105.15 627.96 115.58 630.49 130.29 617.27 123.34 604.05 130.29 606.58 115.58 595.88 105.15 610.66 103 617.27 89.61"/></g></svg>