<svg id="youtuber" xmlns="http://www.w3.org/2000/svg" xmlns:xlink="http://www.w3.org/1999/xlink" viewBox="0 0 1200 1200"><defs><style>.cls-1{fill:none;}.cls-2{fill:#00cdc4;}.cls-3{clip-path:url(#clip-path);}.cls-4{fill:#5abf4e;}.cls-5{fill:#00c4bf;}.cls-6{fill:#ff783f;}.cls-7{fill:#ff80cc;}.cls-8{fill:#33a623;}.cls-9{fill:#00c4b4;}.cls-10{fill:#00d9cd;}.cls-11{clip-path:url(#clip-path-2);}.cls-12{fill:#00eadc;}.cls-13{fill:#111;}.cls-14{clip-path:url(#clip-path-3);}.cls-15{fill:#e01c1b;}.cls-16{fill:#00a08c;}.cls-17{fill:#005e50;}.cls-18{fill:#ffcb00;}.cls-19{fill:#e6af00;}.cls-20{fill:#ffe677;}.cls-21,.cls-43,.cls-57{fill:#fff;}.cls-21{opacity:0.5;}.cls-22{fill:#ffc700;}.cls-23{fill:#fcb000;}.cls-24{fill:#ff7500;}.cls-25{fill:#ff8c1e;}.cls-26{clip-path:url(#clip-path-4);}.cls-27{fill:#d35700;}.cls-28{fill:#0080bb;}.cls-29{fill:#0091cb;}.cls-30,.cls-51{fill:#ffa65f;}.cls-31{clip-path:url(#clip-path-5);}.cls-32{fill:#c8d963;}.cls-33{fill:#ff3d2f;}.cls-34{fill:#00b7aa;}.cls-35{fill:#005b75;}.cls-36{fill:#004d61;}.cls-37{fill:#00001b;}.cls-38{fill:#000133;}.cls-39{fill:#ffdc37;}.cls-40{fill:#d38c5b;}.cls-41{fill:#b27247;}.cls-42{opacity:0.2;}.cls-43{opacity:0.1;}.cls-44{fill:#00c666;}.cls-45{fill:#f5e259;}.cls-46{fill:#38a9c4;}.cls-47{fill:#f6599e;}.cls-48{fill:#cff6ff;}.cls-49{fill:#9ddeed;}.cls-50{fill:#f8e391;}.cls-51,.cls-52{fill-rule:evenodd;}.cls-52{fill:#f48e48;}.cls-53{fill:#ff4d43;}.cls-54{fill:#cecece;}.cls-55{fill:#e03232;}.cls-56{fill:#acacac;}.cls-58{fill:#cc2929;}</style><clipPath id="clip-path"><path id="SVGID" class="cls-1" d="M731,563.84s59.63-71.16,115.68-49c63.57,25.13,25.93,81-14.41,68.38S773.92,542.58,731,563.84Z"/></clipPath><clipPath id="clip-path-2"><path id="SVGID-2" data-name="SVGID" class="cls-1" d="M773.48,592c77.29,81.29,163.14,255.65,147,627.39a205.45,205.45,0,0,1-131.89,182.87c-106.32,40.65-264.08,65.57-403.76-52.71a205.4,205.4,0,0,1-71-181c18.19-153.18,71.09-453.3,214-584.09C598.59,519.74,707.38,522.5,773.48,592Z"/></clipPath><clipPath id="clip-path-3"><path id="SVGID-3" data-name="SVGID" class="cls-1" d="M679.3,758c-21.17,5.94-43.6,2.71-61.78-9.92l-.86-.61c-28.7-20.17-63,25.29-28.35,58.89s93.09,36.59,122.59,7.57C736.7,788.51,720.49,746.44,679.3,758Z"/></clipPath><clipPath id="clip-path-4"><path id="SVGID-4" data-name="SVGID" class="cls-1" d="M702.87,553.89s81.87-43.75,71.7-103.16c-11.55-67.37-74-42-69.88.08S732.48,516.25,702.87,553.89Z"/></clipPath><clipPath id="clip-path-5"><path id="SVGID-5" data-name="SVGID" class="cls-2" d="M722,408.41s-17.76-91.12,34.73-120.73c59.54-33.58,79.28,30.85,44.06,54.24S732.45,361.69,722,408.41Z"/></clipPath></defs><title>banner-youtuber</title><g class="cls-3"><path class="cls-4" d="M731,563.84s59.63-71.16,115.68-49c63.57,25.13,25.93,81-14.41,68.38S773.92,542.58,731,563.84Z"/><circle class="cls-5" cx="837.99" cy="522.9" r="40.41" transform="translate(-117.03 270.72) rotate(-17.17)"/><circle class="cls-6" cx="839.24" cy="522.28" r="25.63" transform="translate(-48.84 956.36) rotate(-57.94)"/><path class="cls-7" d="M853.67,525.6A15.54,15.54,0,1,1,845,505.39,15.54,15.54,0,0,1,853.67,525.6Z"/><path class="cls-8" d="M777.24,543.16a54.31,54.31,0,0,1-.45-17.84C750.08,541.09,731,563.84,731,563.84c21.83-10.81,37.21-8.88,52.37-2.71A71.85,71.85,0,0,1,777.24,543.16Z"/></g><path class="cls-9" d="M294.45,849.32c64.72,9.25,139.82-26.31,150.45-31.56L426.27,780c-30.83,15.16-119.43,47.25-158.66,14.19-29.2-24.62-30.43-85.74-3.55-176.78l-40.39-11.92c-32.9,111.44-27.39,183.71,16.86,220.95C256.15,839.58,274.83,846.51,294.45,849.32Z"/><path class="cls-9" d="M1025.77,901.78c-44.85-46.62-133-57-145.68-58.22l-14.48,46.6c36.63,3.72,133,25.23,138.73,79.44,4.28,40.35-42.43,98.84-135.09,169.14l23.2,34.9c113.43-86.06,165.39-157.59,158.84-218.67C1049,933.4,1039.36,915.92,1025.77,901.78Z"/><path class="cls-10" d="M920.51,1219.42c15.78-364.07-66.24-538.81-142.23-622.23l-.19.13c-23.76,15.45-49.59,28-78,31.9-24.93,3.42-50.85-.27-75.44-4.84-34.14-6.33-70.5-17.83-94.49-42-.8.7-1.59,1.4-2.37,2.11-142.87,130.79-195.77,430.91-214,584.09a205.4,205.4,0,0,0,71,181c139.68,118.28,297.44,93.36,403.76,52.71A205.45,205.45,0,0,0,920.51,1219.42Z"/><path class="cls-9" d="M920.51,1219.42c7.69-177.6-7.89-310.13-34.68-409q-.51,14.7-1.33,29.32c-6.34,112-18.3,226-81,322.27-29.22,44.84-66.47,81.82-116.06,103.29-46.7,20.21-98.38,25.93-148.84,23.3-46.09-2.4-92-13.1-130.81-39-32.88-21.9-57.49-53.68-74.91-88.8-5.16-10.41-9.75-21-13.89-31.86-1.94,14-3.63,27.32-5.09,39.63a205.4,205.4,0,0,0,71,181c139.68,118.28,297.44,93.36,403.76,52.71A205.45,205.45,0,0,0,920.51,1219.42Z"/><g class="cls-11"><path class="cls-12" d="M361,1357.73s68.09-436.52,286-409.51c221.16,27.4,176.46,474.42,176.46,474.42S518.92,1521.81,361,1357.73Z"/></g><path class="cls-13" d="M603.39,709.91c-1.8,14.52-6.55,25.88-10.61,25.37s-5.91-12.68-4.11-27.19,6.56-25.88,10.62-25.38S605.19,695.39,603.39,709.91Z"/><path class="cls-13" d="M712.29,723.4c-1.8,14.52-6.56,25.88-10.62,25.38s-5.9-12.68-4.1-27.2,6.55-25.88,10.61-25.38S714.09,708.89,712.29,723.4Z"/><path class="cls-13" d="M679.3,758c-21.17,5.94-43.6,2.71-61.78-9.92l-.86-.61c-28.7-20.17-63,25.29-28.35,58.89s93.09,36.59,122.59,7.57C736.7,788.51,720.49,746.44,679.3,758Z"/><g class="cls-14"><path class="cls-15" d="M588.07,807.67s.66-36.66,54.45-1.22c0,0,50.82-22.82,60,15.26C702.56,821.71,650.91,862.1,588.07,807.67Z"/></g><path class="cls-9" d="M821.62,765.37a40.39,40.39,0,1,1-33.24-42.65A40.39,40.39,0,0,1,821.62,765.37Z"/><path class="cls-9" d="M557.86,738.15a40.39,40.39,0,1,1-33.24-42.65A40.4,40.4,0,0,1,557.86,738.15Z"/><path class="cls-12" d="M629.7,847.11c-.31,2.49,3.94,5.06,9.48,5.75s10.3-.77,10.61-3.26-3.94-5.05-9.49-5.74S630,844.63,629.7,847.11Z"/><path class="cls-16" d="M530.2,582.41s94.33-44.14,248.08,14.78C778.28,597.19,668.26,696,530.2,582.41Z"/><path class="cls-17" d="M543.33,591.61s69.18-35.49,224.23,12.93C767.56,604.54,684.54,679.73,543.33,591.61Z"/><path class="cls-18" d="M667.76,571.88S711.62,403.11,613,369.45,463.71,414.89,491.19,472.58C538.84,572.62,650.62,419.22,667.76,571.88Z"/><path class="cls-19" d="M669.51,448.09c-7.14,12.09-18.36,20.33-30.26,27.3-15.71,9.21-32.83,15.84-49.92,22Q573.6,503,557.79,508.48c47.57-5.67,98.81-36,110,63.4,0,0,18.26-70.34,4.67-129.26C671.54,444.46,670.58,446.28,669.51,448.09Z"/><path class="cls-20" d="M506.67,433.05c15.64-10.22,31.64-20.15,46.44-31.6,13.55-10.48,23.65-19.69,32.63-33.73.68-1.06,1.34-2.14,2-3.23l.33-.58c.13-.25.24-.5.36-.74-69.63-11.68-109,37-104.25,84.21C491.73,442.72,499.22,437.92,506.67,433.05Z"/><circle class="cls-21" cx="562.96" cy="433.83" r="50.82" transform="translate(-147.74 428.1) rotate(-37.16)"/><path class="cls-22" d="M568.1,421c1.14,7.29-.45,13.58-3.53,14.06s-6.51-5-7.64-12.32.45-13.57,3.53-14.05S567,413.73,568.1,421Z"/><path class="cls-22" d="M579.09,430.91c-6.16,4.75-12.73,6.78-14.68,4.54s1.45-7.89,7.61-12.63,12.73-6.78,14.68-4.54S585.24,426.17,579.09,430.91Z"/><path class="cls-22" d="M575.33,445c-7.38-2.47-12.46-6.7-11.36-9.45s8-3,15.37-.5,12.46,6.7,11.36,9.45S582.71,447.44,575.33,445Z"/><path class="cls-22" d="M560.54,449.34c-1.33-7.25.08-13.57,3.16-14.13s6.64,4.88,8,12.13-.08,13.57-3.15,14.12S561.88,456.59,560.54,449.34Z"/><path class="cls-22" d="M549.29,439.71c6-4.88,12.54-7.07,14.56-4.88s-1.25,7.92-7.27,12.8S544,454.7,542,452.51,543.26,444.59,549.29,439.71Z"/><path class="cls-22" d="M552.66,425.57c7.45,2.3,12.65,6.4,11.62,9.17s-7.91,3.17-15.36.87-12.65-6.4-11.62-9.17S545.21,423.28,552.66,425.57Z"/><path class="cls-23" d="M569.11,433.78a4.61,4.61,0,1,1-5.2-3.53A4.45,4.45,0,0,1,569.11,433.78Z"/><path class="cls-22" d="M537,408.51c.28,1.81-.11,3.37-.88,3.49s-1.62-1.25-1.9-3.06.11-3.37.88-3.49S536.7,406.7,537,408.51Z"/><path class="cls-22" d="M539.71,411c-1.53,1.18-3.16,1.68-3.65,1.13s.36-2,1.89-3.14,3.17-1.69,3.65-1.13S541.24,409.79,539.71,411Z"/><path class="cls-22" d="M538.78,414.46c-1.84-.61-3.1-1.66-2.83-2.34s2-.74,3.82-.13,3.1,1.67,2.83,2.35S540.61,415.08,538.78,414.46Z"/><path class="cls-22" d="M535.1,415.55c-.33-1.8,0-3.37.78-3.51s1.66,1.21,2,3,0,3.38-.79,3.51S535.43,417.35,535.1,415.55Z"/><path class="cls-22" d="M532.3,413.16c1.5-1.22,3.12-1.76,3.62-1.22s-.31,2-1.81,3.19-3.12,1.75-3.62,1.21S530.8,414.37,532.3,413.16Z"/><path class="cls-22" d="M533.14,409.64c1.85.57,3.15,1.59,2.89,2.28s-2,.79-3.82.22-3.14-1.59-2.89-2.28S531.29,409.07,533.14,409.64Z"/><path class="cls-23" d="M537.23,411.68a1.15,1.15,0,1,1-1.29-.88A1.11,1.11,0,0,1,537.23,411.68Z"/><path class="cls-22" d="M588.71,400.45c.29,1.81-.11,3.38-.87,3.5s-1.62-1.25-1.9-3.06.11-3.38.87-3.5S588.43,398.64,588.71,400.45Z"/><path class="cls-22" d="M591.44,402.91c-1.53,1.18-3.16,1.69-3.64,1.13s.36-2,1.89-3.14,3.16-1.68,3.65-1.13S593,401.74,591.44,402.91Z"/><path class="cls-22" d="M590.51,406.41c-1.83-.61-3.1-1.67-2.82-2.35s2-.74,3.82-.12,3.1,1.66,2.82,2.34S592.35,407,590.51,406.41Z"/><path class="cls-22" d="M586.83,407.5c-.33-1.81,0-3.38.79-3.52s1.65,1.22,2,3,0,3.37-.78,3.51S587.17,409.3,586.83,407.5Z"/><path class="cls-22" d="M584,405.1c1.49-1.21,3.12-1.76,3.62-1.21s-.31,2-1.81,3.18-3.12,1.76-3.62,1.21S582.54,406.32,584,405.1Z"/><path class="cls-22" d="M584.87,401.59c1.86.57,3.15,1.59,2.89,2.28s-2,.78-3.81.21-3.15-1.59-2.89-2.28S583,401,584.87,401.59Z"/><path class="cls-23" d="M589,403.63a1.14,1.14,0,0,1-2.25.35,1.14,1.14,0,0,1,2.25-.35Z"/><path class="cls-22" d="M588.9,461.72c.28,1.81-.11,3.38-.88,3.5s-1.61-1.25-1.9-3.06.12-3.38.88-3.5S588.62,459.91,588.9,461.72Z"/><path class="cls-22" d="M591.63,464.18c-1.53,1.18-3.16,1.69-3.65,1.13s.37-2,1.9-3.14,3.16-1.68,3.65-1.13S593.16,463,591.63,464.18Z"/><path class="cls-22" d="M590.7,467.68c-1.83-.61-3.1-1.67-2.82-2.35s2-.74,3.82-.12,3.09,1.66,2.82,2.35S592.53,468.29,590.7,467.68Z"/><path class="cls-22" d="M587,468.77c-.33-1.81,0-3.38.79-3.52s1.65,1.22,2,3,0,3.37-.78,3.51S587.35,470.57,587,468.77Z"/><path class="cls-22" d="M584.22,466.37c1.5-1.21,3.12-1.76,3.62-1.21s-.31,2-1.8,3.18-3.12,1.76-3.62,1.22S582.73,467.59,584.22,466.37Z"/><path class="cls-22" d="M585.06,462.86c1.85.57,3.15,1.59,2.89,2.28s-2,.78-3.82.21-3.14-1.59-2.89-2.28S583.21,462.29,585.06,462.86Z"/><path class="cls-23" d="M589.15,464.9a1.15,1.15,0,0,1-2.26.35,1.15,1.15,0,0,1,2.26-.35Z"/><path class="cls-22" d="M555.74,469c.28,1.81-.11,3.38-.88,3.5s-1.61-1.25-1.9-3.06.12-3.38.88-3.5S555.46,467.15,555.74,469Z"/><path class="cls-22" d="M558.47,471.43c-1.53,1.17-3.16,1.68-3.65,1.12s.37-2,1.9-3.14,3.16-1.68,3.65-1.13S560,470.25,558.47,471.43Z"/><path class="cls-22" d="M557.54,474.92c-1.83-.61-3.1-1.67-2.82-2.35s2-.74,3.82-.12,3.1,1.66,2.82,2.35S559.38,475.53,557.54,474.92Z"/><path class="cls-22" d="M553.86,476c-.33-1.81,0-3.38.79-3.52s1.65,1.22,2,3,0,3.37-.78,3.51S554.19,477.81,553.86,476Z"/><path class="cls-22" d="M551.06,473.61c1.5-1.21,3.12-1.76,3.62-1.21s-.3,2-1.8,3.18-3.12,1.76-3.62,1.22S549.57,474.83,551.06,473.61Z"/><path class="cls-22" d="M551.9,470.1c1.85.57,3.15,1.59,2.89,2.28s-2,.78-3.82.21-3.14-1.59-2.88-2.28S550.05,469.53,551.9,470.1Z"/><path class="cls-23" d="M556,472.14a1.14,1.14,0,1,1-1.29-.88A1.11,1.11,0,0,1,556,472.14Z"/><path class="cls-24" d="M702.87,553.89s81.87-43.75,71.7-103.16c-11.55-67.37-74-42-69.88.08S732.48,516.25,702.87,553.89Z"/><path class="cls-25" d="M710.55,542.39c64.46-22.9,31.36-111.27,27.62-133.17-18.25.75-35.71,18.69-33.48,41.59C708.35,488.43,727.68,511.1,710.55,542.39Z"/><g class="cls-26"><path class="cls-27" d="M733.42,404.65c0,2.18,2.5,5.9,3.26,7.8q2.07,5.15,3.83,10.39a171.24,171.24,0,0,1,5.89,22.26,137,137,0,0,1,.91,48.29,112.86,112.86,0,0,1-6,22.19c-2.83,7.29-7,12.88-12.35,18.51-9.66,10.16-20,20.57-34.09,23.93-.75.18-.43,1.34.32,1.16,13.77-3.28,24-13.17,33.53-23.1,4.57-4.77,8.93-9.48,11.79-15.51a99.3,99.3,0,0,0,7.11-22.33,134.22,134.22,0,0,0,1.15-46.19,164.1,164.1,0,0,0-5.68-25.14c-1.27-4.11-2.69-8.18-4.23-12.2-.67-1.72-1.36-3.44-2.07-5.14-.48-1.16-2.17-3.68-2.17-4.92a.6.6,0,0,0-1.2,0Z"/><path class="cls-27" d="M701.32,432.89c-3.56,4.51-6.83,9.73-3.56,15.37,3.14,5.42,9.89,7.81,15.73,8.58,7.57,1,16-.47,22.23-5,5.74-4.14,8.26-10.51,9.78-17.19l-1.1.15a17.91,17.91,0,0,0,24.25,6c10-5.75,12.58-17.73,9.28-28.13-.24-.74-1.4-.42-1.16.31,3,9.38,1.11,20.17-7.46,26a16.76,16.76,0,0,1-23.87-4.76.61.61,0,0,0-1.1.14c-1.21,5.31-3,10.77-7,14.64-4.47,4.27-10.78,6.43-16.87,6.88-5.54.4-11.43-.45-16.29-3.22-2.73-1.55-5.49-4.1-6.32-7.26-1.17-4.46,1.78-8.37,4.35-11.63.48-.61-.37-1.46-.85-.85Z"/><path class="cls-27" d="M699.8,470.34c.24,5.62,3.46,9.75,8,12.87,5.42,3.76,12.44,7.38,19.08,8.05,11.5,1.16,21.39-7.17,23.39-18.29l-1.18-.16c-.2,9.8,11.3,15.27,19.82,12.72,11.49-3.44,15.43-15.71,14.62-26.57,0-.77-1.25-.77-1.2,0,.67,9-1.56,18.72-9.81,23.66-8,4.82-22.46,1.41-22.23-9.81,0-.66-1.06-.84-1.18-.16-1.79,10-10.34,18-20.83,17.51-9.93-.48-26.76-8.54-27.25-19.82,0-.77-1.24-.77-1.2,0Z"/><path class="cls-27" d="M710.06,500.7c-4.92,8-.27,17.87,8.29,20.72,10.82,3.61,19.76-3,26-11.2l-1.11-.31c.3,5.15,2.89,9.55,8.22,10.64,6,1.23,11.33-2.36,15.54-6.28.57-.53-.28-1.37-.85-.85-3.12,2.91-6.6,5.58-11,6-6.27.65-10.37-3.49-10.73-9.53a.61.61,0,0,0-1.12-.3c-5.29,6.92-12,12.57-21.3,11.38s-16.37-10.9-10.95-19.68c.41-.66-.63-1.27-1-.61Z"/><path class="cls-27" d="M706.19,532.54c-.91,4.17,1.68,7.61,5.65,8.81,5.53,1.68,11.61-.41,16.06-3.73.61-.46,0-1.5-.61-1a19.27,19.27,0,0,1-9.62,4c-4.7.52-11.72-1.33-10.32-7.69.17-.75-1-1.07-1.16-.32Z"/></g><circle class="cls-28" cx="817.29" cy="467.06" r="34.71" transform="translate(-108.06 294.34) rotate(-19.17)"/><circle class="cls-28" cx="647.89" cy="271.62" r="21.17" transform="translate(163.13 780.1) rotate(-69.11)"/><path class="cls-28" d="M692.4,274.15a8.87,8.87,0,1,1-7.71-9.9A8.87,8.87,0,0,1,692.4,274.15Z"/><path class="cls-28" d="M669.49,285A8.44,8.44,0,1,1,667,296.63,8.44,8.44,0,0,1,669.49,285Z"/><circle class="cls-29" cx="811.46" cy="452.17" r="13.29" transform="translate(-106.31 595.78) rotate(-38.02)"/><path class="cls-22" d="M791.09,399.07c-.84,6.78-3.86,12-6.73,11.64s-4.53-6.15-3.69-12.94,3.85-12,6.73-11.64S791.93,392.28,791.09,399.07Z"/><path class="cls-22" d="M798.37,410.7c-6.7,2.66-13.08,2.81-14.26.31s3.31-6.67,10-9.34,13.09-2.8,14.26-.31S805.07,408,798.37,410.7Z"/><path class="cls-22" d="M791.45,422.29c-6-4.08-9.43-9.15-7.74-11.32s7.88-.62,13.84,3.46,9.42,9.15,7.74,11.32S797.4,426.38,791.45,422.29Z"/><path class="cls-22" d="M777.13,422.43c.66-6.81,3.53-12.1,6.41-11.81s4.69,6,4,12.85-3.53,12.1-6.41,11.81S776.48,429.24,777.13,422.43Z"/><path class="cls-22" d="M769.53,411c6.63-2.83,13-3.12,14.24-.66s-3.12,6.76-9.75,9.58-13,3.12-14.23.66S762.91,413.79,769.53,411Z"/><path class="cls-22" d="M776.14,399.21c6.07,3.94,9.66,8.93,8,11.14s-7.86.81-13.93-3.13-9.66-8.93-8-11.15S770.07,395.26,776.14,399.21Z"/><path class="cls-23" d="M788.73,410.71a4.27,4.27,0,1,1-3.74-4.47A4.13,4.13,0,0,1,788.73,410.71Z"/><path class="cls-22" d="M776.45,371.43c-.44,3.55-2,6.27-3.51,6.08s-2.37-3.21-1.93-6.76,2-6.27,3.52-6.08S776.89,367.88,776.45,371.43Z"/><path class="cls-22" d="M780.26,377.51c-3.5,1.39-6.84,1.46-7.45.16s1.73-3.49,5.23-4.88,6.84-1.47,7.45-.16S783.76,376.11,780.26,377.51Z"/><path class="cls-22" d="M776.64,383.56c-3.11-2.13-4.92-4.78-4-5.91s4.12-.33,7.23,1.81,4.93,4.78,4,5.91S779.76,385.7,776.64,383.56Z"/><path class="cls-22" d="M769.16,383.63c.34-3.55,1.84-6.32,3.35-6.16s2.45,3.15,2.11,6.71-1.84,6.32-3.35,6.17S768.82,387.19,769.16,383.63Z"/><path class="cls-22" d="M765.19,377.65c3.46-1.48,6.79-1.63,7.44-.35s-1.63,3.53-5.09,5-6.79,1.63-7.44.34S761.73,379.12,765.19,377.65Z"/><path class="cls-22" d="M768.64,371.5c3.17,2.06,5.05,4.67,4.2,5.82s-4.1.43-7.27-1.63-5.05-4.67-4.2-5.83S765.48,369.44,768.64,371.5Z"/><path class="cls-23" d="M775.23,377.51a2.24,2.24,0,1,1-2-2.33A2.17,2.17,0,0,1,775.23,377.51Z"/><path class="cls-12" d="M529.6,582.48S647.51,710,778.89,597C778.89,597,669,656.22,529.6,582.48Z"/><path class="cls-30" d="M772.63,289.12l-6.88,3.3a146.36,146.36,0,0,1,6.53,15.76l7.25-2.4A151.38,151.38,0,0,0,772.63,289.12Z"/><path class="cls-30" d="M759.31,266l-6.3,4.31a163,163,0,0,1,8.92,14.65l6.71-3.63A170.25,170.25,0,0,0,759.31,266Z"/><path class="cls-30" d="M742.12,245.2l-5.19,5.61a127.64,127.64,0,0,1,11.16,12.71l6-4.67A136,136,0,0,0,742.12,245.2Z"/><path class="cls-30" d="M720.75,228.61l-3.63,6.76a96.23,96.23,0,0,1,13.7,9.85l4.72-6A103.38,103.38,0,0,0,720.75,228.61Z"/><path class="cls-30" d="M695.72,218.44l-1.84,7.48a84.24,84.24,0,0,1,15.91,5.62l3.07-7.06A91.1,91.1,0,0,0,695.72,218.44Z"/><path class="cls-30" d="M668.79,216.18l.09,7.67a89.73,89.73,0,0,1,16.87.57l1.21-7.6A97.69,97.69,0,0,0,668.79,216.18Z"/><path class="cls-30" d="M642.17,221l2,7.37c2.66-1,5.45-1.44,8.18-2.13a75.26,75.26,0,0,1,8.3-1.53l-.73-7.62a84.33,84.33,0,0,0-8.95,1.63C648,219.42,645,220,642.17,221Z"/><path class="cls-30" d="M617.16,231.24l3.72,6.67,7.57-3.8,7.87-3.18-2.62-7.17c-2.8,1.13-5.62,2.22-8.4,3.4Z"/><path class="cls-30" d="M595.67,248l5.62,5.17a26.41,26.41,0,0,1,2.92-3l3-2.84c2.13-1.79,4.42-3.41,6.62-5.13L609.55,236c-2.42,1.88-4.92,3.65-7.27,5.63l-3.37,3.14A31.45,31.45,0,0,0,595.67,248Z"/><path class="cls-30" d="M581.11,271.25l7.11,2.77,1.69-3.8.84-1.9c.32-.62.68-1.21,1-1.81l2-3.61c.73-1.18,1.59-2.27,2.37-3.41L590,255c-.87,1.27-1.82,2.5-2.63,3.81l-2.29,4c-.37.68-.77,1.34-1.12,2L583,267Z"/><path class="cls-30" d="M575.49,297.91l7.62.46c.31-2.79.38-5.62.94-8.37.23-1.37.43-2.76.69-4.13l1-4.07-7.38-1.95-1.1,4.46c-.29,1.5-.51,3-.77,4.52C575.91,291.84,575.81,294.88,575.49,297.91Z"/><path class="cls-30" d="M577,324.8l7.54-1.2a130.68,130.68,0,0,1-1.54-17l-7.63.16A136.51,136.51,0,0,0,577,324.8Z"/><path class="cls-30" d="M583.3,350.76l7.27-2.34a169.17,169.17,0,0,1-4.48-16.58l-7.46,1.61C579.86,339.32,581.5,345.07,583.3,350.76Z"/><path class="cls-30" d="M593.06,375.52l6.9-3.26c-2.44-5.19-4.65-10.5-6.65-15.88L586.15,359C588.23,364.61,590.52,370.11,593.06,375.52Z"/><path id="SVGID-6" data-name="SVGID" class="cls-2" d="M722,408.41s-17.76-91.12,34.73-120.73c59.54-33.58,79.28,30.85,44.06,54.24S732.45,361.69,722,408.41Z"/><g class="cls-31"><path class="cls-2" d="M722,408.41s-17.76-91.12,34.73-120.73c59.54-33.58,79.28,30.85,44.06,54.24S732.45,361.69,722,408.41Z"/><circle class="cls-32" cx="757.48" cy="299.52" r="40.41" transform="translate(67.38 732.24) rotate(-53.66)"/><circle class="cls-6" cx="757.79" cy="298.16" r="25.63" transform="translate(-10.78 567.31) rotate(-40.78)"/><path class="cls-33" d="M769.45,289a15.54,15.54,0,1,1-21.15-6A15.53,15.53,0,0,1,769.45,289Z"/><path class="cls-34" d="M735,359.48a54.45,54.45,0,0,1-14.15-10.88c-4.56,30.67,1.12,59.81,1.12,59.81,5.34-23.76,16.52-34.5,30.85-42.39A72.25,72.25,0,0,1,735,359.48Z"/></g><path class="cls-18" d="M490.29,356.31s1.85-3.52,5.91-1.52a3.32,3.32,0,0,1,1.56,4.24,35.52,35.52,0,0,1-22.58,20.51,3.22,3.22,0,0,1-3.43-1c-1-1.28-1.8-3.42.18-6.46Z"/><path class="cls-18" d="M453.92,308.78s17.65-11.63,42.54,14L486.3,334.89Z"/><path class="cls-18" d="M480.14,317.39A52.63,52.63,0,0,0,456,307.76a13.74,13.74,0,0,0-2.09,1l32.38,26.11,5.17-6.18A57.32,57.32,0,0,0,480.14,317.39Z"/><path class="cls-18" d="M428.61,332.94s-12.45,17.08,12,43.14l12.59-9.58Z"/><path class="cls-18" d="M436,359.53A52.49,52.49,0,0,1,427.49,335a12.88,12.88,0,0,1,1.12-2l24.55,33.56-6.41,4.88A57.21,57.21,0,0,1,436,359.53Z"/><path class="cls-35" d="M426.34,305.73s-7.2,29.95,18.84,55.82,41.3,7.22,41.3,7.22,19.34-14.37-5.27-41.59S426.34,305.73,426.34,305.73Z"/><path class="cls-36" d="M470.71,317.65c8.14,9.45,13.18,21.67,11.15,33.17-1.53,8.69-9.37,17.85-18.74,22.94,15,5.25,23.36-5,23.36-5s19.34-14.37-5.27-41.59A70.8,70.8,0,0,0,470.71,317.65Z"/><path class="cls-18" d="M450.32,307.6c-13.57-3.85-24-1.87-24-1.87s-2.72,11.38,1.27,26.17C438.7,327.38,447.09,318.63,450.32,307.6Z"/><path class="cls-18" d="M466,330a11.73,11.73,0,1,1-16.59-.39A11.74,11.74,0,0,1,466,330Z"/><path class="cls-37" d="M463.08,332.73a7.71,7.71,0,1,1-10.9-.26A7.72,7.72,0,0,1,463.08,332.73Z"/><path class="cls-38" d="M453.6,341a5.34,5.34,0,0,1,.89-4.63,16.71,16.71,0,0,0,1.85-2.72,4.3,4.3,0,0,0,.25-1.32,5.2,5.2,0,1,0-2.07,10.18A3.59,3.59,0,0,1,453.6,341Z"/><path class="cls-39" d="M442.73,315.62a2.07,2.07,0,0,1-2.92-.06,2.09,2.09,0,0,1,.07-2.93"/><path class="cls-39" d="M451.34,330.09a1,1,0,0,1,0,1.47,1,1,0,1,1,0-1.47Z"/><path class="cls-39" d="M457.47,327.43a1,1,0,1,1-1.48,0A1,1,0,0,1,457.47,327.43Z"/><path class="cls-39" d="M465.18,330a1,1,0,0,1,0,1.47,1,1,0,1,1-1.44-1.51A1,1,0,0,1,465.18,330Z"/><path class="cls-39" d="M468.1,338a1,1,0,1,1-1.48,0A1,1,0,0,1,468.1,338Z"/><path class="cls-39" d="M465.19,344.6a1,1,0,0,1,0,1.47,1,1,0,1,1,0-1.47Z"/><path class="cls-39" d="M457.61,347.24a1,1,0,0,1-1.52,1.44,1,1,0,0,1,0-1.47A1.05,1.05,0,0,1,457.61,347.24Z"/><path class="cls-39" d="M451.7,345a1,1,0,1,1-1.51,1.44A1,1,0,0,1,451.7,345Z"/><path class="cls-39" d="M448.58,337.35a1,1,0,1,1-1.51,1.44,1,1,0,0,1,0-1.47A1,1,0,0,1,448.58,337.35Z"/><path class="cls-18" d="M496.59,358.67c3.24,1.33,5.44,3.47,4.9,4.77s-3.59,1.26-6.83-.08-5.44-3.47-4.9-4.76S493.35,357.33,496.59,358.67Z"/><path class="cls-18" d="M490.5,369c2.42,2.54,3.56,5.38,2.54,6.35s-3.8-.31-6.22-2.84-3.55-5.38-2.54-6.35S488.08,366.43,490.5,369Z"/><path class="cls-18" d="M475.55,378.75c1.18,3.3,3.21,5.59,4.53,5.11s1.43-3.53.25-6.83-3.21-5.59-4.53-5.11S474.37,375.45,475.55,378.75Z"/><polygon class="cls-20" points="826.04 390.82 829.57 397.99 837.49 399.14 831.76 404.72 833.11 412.59 826.04 408.87 818.96 412.59 820.31 404.72 814.59 399.14 822.5 397.99 826.04 390.82"/><polygon class="cls-20" points="853.39 498.31 854.61 500.79 857.34 501.19 855.36 503.11 855.83 505.83 853.39 504.55 850.94 505.83 851.41 503.11 849.43 501.19 852.16 500.79 853.39 498.31"/><polygon class="cls-20" points="487.28 545.07 490.82 552.23 498.73 553.38 493 558.96 494.36 566.84 487.28 563.12 480.2 566.84 481.56 558.96 475.83 553.38 483.74 552.23 487.28 545.07"/><polygon class="cls-20" points="497.64 535.37 498.68 537.49 501.02 537.83 499.33 539.48 499.73 541.8 497.64 540.71 495.55 541.8 495.94 539.48 494.25 537.83 496.59 537.49 497.64 535.37"/><polygon class="cls-20" points="489.88 577.37 491.23 580.11 494.25 580.55 492.07 582.67 492.58 585.68 489.88 584.26 487.18 585.68 487.7 582.67 485.51 580.55 488.53 580.11 489.88 577.37"/><polygon class="cls-20" points="691.04 477.67 692.65 480.94 696.26 481.47 693.65 484.01 694.27 487.61 691.04 485.91 687.81 487.61 688.43 484.01 685.82 481.47 689.42 480.94 691.04 477.67"/><polygon class="cls-20" points="711.53 308.87 715.07 316.04 722.98 317.19 717.26 322.77 718.61 330.65 711.53 326.93 704.46 330.65 705.81 322.77 700.08 317.19 708 316.04 711.53 308.87"/><polygon class="cls-20" points="681.38 238.89 683.43 243.06 688.04 243.72 684.71 246.97 685.49 251.55 681.38 249.39 677.26 251.55 678.05 246.97 674.72 243.72 679.32 243.06 681.38 238.89"/><path class="cls-7" d="M864.31,433.29a3.49,3.49,0,1,1-3.48-3.49A3.48,3.48,0,0,1,864.31,433.29Z"/><path class="cls-7" d="M869.6,407.59a4.39,4.39,0,1,1-4.39-4.38A4.39,4.39,0,0,1,869.6,407.59Z"/><path class="cls-7" d="M572.05,287.31a3.49,3.49,0,1,1-3.48-3.48A3.48,3.48,0,0,1,572.05,287.31Z"/><path class="cls-7" d="M577.34,261.62a4.39,4.39,0,1,1-4.39-4.38A4.39,4.39,0,0,1,577.34,261.62Z"/><circle class="cls-7" cx="844.66" cy="373.99" r="4.73"/><circle class="cls-7" cx="867.14" cy="474.28" r="2.83"/><path class="cls-7" d="M474.6,485.62a5.22,5.22,0,1,1-5.22-5.22A5.22,5.22,0,0,1,474.6,485.62Z"/><path class="cls-7" d="M682.78,497.59a4.48,4.48,0,1,1-4.48-4.48A4.48,4.48,0,0,1,682.78,497.59Z"/><path class="cls-7" d="M783.37,564a2.55,2.55,0,1,1-2.55-2.54A2.55,2.55,0,0,1,783.37,564Z"/><path class="cls-7" d="M584.59,573.36a5.71,5.71,0,1,1-5.71-5.7A5.71,5.71,0,0,1,584.59,573.36Z"/><path class="cls-10" d="M834.64,371.19A5.24,5.24,0,1,1,829.4,366,5.25,5.25,0,0,1,834.64,371.19Z"/><circle class="cls-7" cx="621.77" cy="322.51" r="4.73"/><path class="cls-10" d="M611.75,319.71a5.24,5.24,0,1,1-5.24-5.24A5.25,5.25,0,0,1,611.75,319.71Z"/><path class="cls-10" d="M852,413a3.67,3.67,0,1,1-3.67-3.68A3.67,3.67,0,0,1,852,413Z"/><polygon class="cls-20" points="562.37 326.39 558.83 333.55 550.92 334.7 556.64 340.28 555.29 348.16 562.37 344.44 569.44 348.16 568.09 340.28 573.81 334.7 565.9 333.55 562.37 326.39"/><path class="cls-7" d="M518.81,343.16a4.38,4.38,0,1,0,4.38-4.38A4.39,4.39,0,0,0,518.81,343.16Z"/><path class="cls-7" d="M539,309.56a4.73,4.73,0,1,0,4.72-4.73A4.72,4.72,0,0,0,539,309.56Z"/><path class="cls-10" d="M553.76,306.76a5.25,5.25,0,1,0,5.24-5.24A5.25,5.25,0,0,0,553.76,306.76Z"/><circle class="cls-10" cx="540.07" cy="348.54" r="3.67"/><path class="cls-10" d="M781.36,510.58a3.34,3.34,0,1,1-3.33-3.33A3.33,3.33,0,0,1,781.36,510.58Z"/><path class="cls-10" d="M698.86,504.72a4.17,4.17,0,1,1-4.17-4.17A4.18,4.18,0,0,1,698.86,504.72Z"/><path class="cls-10" d="M496.83,510.38a3.48,3.48,0,1,1-3.47-3.47A3.47,3.47,0,0,1,496.83,510.38Z"/><path class="cls-10" d="M875.36,494a2.88,2.88,0,1,1-2.88-2.88A2.88,2.88,0,0,1,875.36,494Z"/><circle class="cls-40" cx="669.32" cy="384.55" r="58.48" transform="translate(-26.57 50.47) rotate(-4.23)"/><path class="cls-41" d="M709.69,342.48c11.31,30.11,0,66.28-33.32,80.08a71,71,0,0,1-50.5,1.14,58.42,58.42,0,1,0,83.82-81.22Z"/><path class="cls-42" d="M667.34,363.91a15.74,15.74,0,1,1-13.69-17.56A15.74,15.74,0,0,1,667.34,363.91Z"/><path class="cls-43" d="M663.07,361.83A12.78,12.78,0,1,1,652,347.58,12.79,12.79,0,0,1,663.07,361.83Z"/><path class="cls-42" d="M703.45,394.34a13.11,13.11,0,1,1-11.4-14.62A13.11,13.11,0,0,1,703.45,394.34Z"/><path class="cls-43" d="M700.52,392.25c-.67,5.45-5.95,9.29-11.78,8.56s-10-5.73-9.34-11.18,6-9.29,11.79-8.56S701.2,386.8,700.52,392.25Z"/><path class="cls-42" d="M658.66,413.21a8.86,8.86,0,1,1-7.7-9.87A8.86,8.86,0,0,1,658.66,413.21Z"/><path class="cls-43" d="M656.64,412.09a7.18,7.18,0,1,1-6.25-8A7.19,7.19,0,0,1,656.64,412.09Z"/><path class="cls-42" d="M708.38,356.34a5.76,5.76,0,1,1-5-6.43A5.76,5.76,0,0,1,708.38,356.34Z"/><path class="cls-43" d="M707.07,355.61a4.68,4.68,0,1,1-4.07-5.22A4.67,4.67,0,0,1,707.07,355.61Z"/><path class="cls-42" d="M675.86,342.92a1.46,1.46,0,1,1-1.27-1.62A1.45,1.45,0,0,1,675.86,342.92Z"/><path class="cls-42" d="M687.49,359a3,3,0,1,1-2.56-3.29A2.95,2.95,0,0,1,687.49,359Z"/><path class="cls-42" d="M622.45,383.28a2.67,2.67,0,1,1-2.32-3A2.68,2.68,0,0,1,622.45,383.28Z"/><path class="cls-42" d="M635.77,388.5a.88.88,0,1,1-1.74-.22.89.89,0,0,1,1-.76A.88.88,0,0,1,635.77,388.5Z"/><path class="cls-42" d="M671.14,417.07a1.67,1.67,0,0,1-1.88,1.47,1.69,1.69,0,1,1,1.88-1.47Z"/><path class="cls-42" d="M674.26,428.32a1,1,0,1,1-.9-1.15A1,1,0,0,1,674.26,428.32Z"/><path class="cls-42" d="M628.4,403.3a1.93,1.93,0,1,1-1.68-2.16A1.94,1.94,0,0,1,628.4,403.3Z"/><path class="cls-42" d="M719.39,389a1.41,1.41,0,0,1-1.57,1.22,1.39,1.39,0,0,1-1.22-1.56,1.41,1.41,0,1,1,2.79.34Z"/><path class="cls-42" d="M700.16,373.35a.84.84,0,1,1-.73-.93A.84.84,0,0,1,700.16,373.35Z"/><path class="cls-42" d="M693.32,338.7a2.16,2.16,0,1,1-1.87-2.4A2.15,2.15,0,0,1,693.32,338.7Z"/><path class="cls-42" d="M659.93,332.74a.35.35,0,0,1-.38.31.36.36,0,0,1-.31-.39.35.35,0,0,1,.39-.3A.34.34,0,0,1,659.93,332.74Z"/><path class="cls-44" d="M589.23,566c-.18-.66-.34-1.33-.47-2A30.18,30.18,0,0,1,648,552.48c.14.69.24,1.37.33,2l11.25-2.18c-.09-.68-.21-1.36-.34-2.05a41.63,41.63,0,1,0-81.73,15.85c.14.68.29,1.36.45,2Z"/><path class="cls-45" d="M580.17,567.75c-.14-.59-.27-1.18-.38-1.77a39.8,39.8,0,1,1,78.15-15.16c.11.6.21,1.2.3,1.79l11.24-2.18c-.09-.59-.19-1.19-.31-1.79a51.25,51.25,0,0,0-100.62,19.51c.12.6.24,1.19.38,1.78Z"/><path class="cls-46" d="M569.76,569.77l-.18-.84c-5.46-28.17,12.1-55.35,39.14-60.59s53.48,13.4,58.94,41.57l.15.85,11.24-2.18c0-.28-.1-.57-.16-.85-6.66-34.36-39.12-57.07-72.35-50.63s-54.86,39.64-48.19,74c0,.29.11.57.17.85Z"/><path class="cls-47" d="M562.31,571.21c-.19-.78-.36-1.57-.52-2.36-6-31,15-61.21,46.83-67.38s62.61,14,68.61,45c.16.8.29,1.6.41,2.39l11.25-2.18c-.13-.79-.26-1.59-.42-2.39-7.21-37.17-44-61.42-82-54s-63.09,43.62-55.88,80.8c.15.79.32,1.58.5,2.36Z"/><path class="cls-48" d="M611.33,571a12.83,12.83,0,0,0-20.44-12,20.53,20.53,0,0,0-33.33,2,12.84,12.84,0,0,0-21,10.57c-11.27,2.28-19.31,8.26-19.09,15,.27,8.32,12.94,14.66,28.31,14.16,1.55-.05,3.07-.17,4.55-.35a8.13,8.13,0,0,0,1.48,1.86,8.33,8.33,0,0,0,10.89.43c.19.19.36.39.56.57a12.85,12.85,0,0,0,18.16-.58,12.49,12.49,0,0,0,.89-1.06,8.33,8.33,0,0,0,11.39-.71,8.66,8.66,0,0,0,1.27-1.78l1.91,0c15.37-.49,27.61-7.63,27.34-15.95C624,577.88,618.91,573.43,611.33,571Z"/><path class="cls-49" d="M611.33,571A12.8,12.8,0,0,0,608,560.5a24,24,0,0,1-2.11,10c1.2,6.26-.59,13.46-5.54,17.74a22.94,22.94,0,0,1-18.82,5.1c-.38-.08-.75-.16-1.11-.26a19.46,19.46,0,0,1-12.06,4.25,22.47,22.47,0,0,1-13.93-4.29,18.93,18.93,0,0,1-11-2.18c-6.67-3.61-10.82-10.68-11.67-18.11-8.68,2.82-14.5,8-14.31,13.75.27,8.32,12.94,14.66,28.31,14.16,1.55-.05,3.07-.17,4.55-.35a8.13,8.13,0,0,0,1.48,1.86,8.33,8.33,0,0,0,10.89.43c.19.19.36.39.56.57a12.85,12.85,0,0,0,18.16-.58,12.49,12.49,0,0,0,.89-1.06,8.33,8.33,0,0,0,11.39-.71,8.66,8.66,0,0,0,1.27-1.78l1.91,0c15.37-.49,27.61-7.63,27.34-15.95C624,577.88,618.91,573.43,611.33,571Z"/><path class="cls-48" d="M720,557.11a12.83,12.83,0,0,0-20.43-12,20.54,20.54,0,0,0-33.34,2,12.82,12.82,0,0,0-21,10.57c-11.27,2.27-19.32,8.25-19.1,15,.27,8.31,13,14.65,28.32,14.16,1.55-.05,3.06-.18,4.54-.35a8.42,8.42,0,0,0,1.48,1.85,8.33,8.33,0,0,0,10.9.43c.18.19.36.39.55.58a12.86,12.86,0,0,0,18.17-.59,11,11,0,0,0,.88-1.06,8.32,8.32,0,0,0,11.39-.71,8.05,8.05,0,0,0,1.27-1.78c.63,0,1.27,0,1.91,0,15.37-.5,27.61-7.64,27.35-16C732.63,564,727.54,559.57,720,557.11Z"/><path class="cls-49" d="M720,557.11a12.81,12.81,0,0,0-3.33-10.47,24,24,0,0,1-2.12,10.05c1.2,6.27-.59,13.47-5.53,17.74a22.93,22.93,0,0,1-18.83,5.1c-.38-.07-.74-.16-1.1-.26A19.42,19.42,0,0,1,677,583.52,22.45,22.45,0,0,1,663,579.23a18.88,18.88,0,0,1-11-2.18c-6.67-3.6-10.83-10.68-11.68-18.1-8.68,2.81-14.49,8-14.31,13.75.27,8.31,13,14.65,28.32,14.16,1.55-.05,3.06-.18,4.54-.35a8.42,8.42,0,0,0,1.48,1.85,8.33,8.33,0,0,0,10.9.43c.18.19.36.39.55.58a12.86,12.86,0,0,0,18.17-.59,11,11,0,0,0,.88-1.06,8.32,8.32,0,0,0,11.39-.71,8.05,8.05,0,0,0,1.27-1.78c.63,0,1.27,0,1.91,0,15.37-.5,27.61-7.64,27.35-16C732.63,564,727.54,559.57,720,557.11Z"/><path class="cls-50" d="M740.69,529.68c.42-.92,1.72-1.32,3.59-.6,7,2.72,19.66,9,37.14,20.7s28.18,20.89,33.38,26.34c1.39,1.45,1.52,2.8.83,3.55l9.45,6.3c0-.06.11-.11.15-.17,4.45-6.67-25.09-28.91-41.33-39.74s-48.13-29.56-52.58-22.89a1.21,1.21,0,0,0-.09.2Z"/><path class="cls-51" d="M750.8,535.25a33.6,33.6,0,1,0,46.59-9.31A33.59,33.59,0,0,0,750.8,535.25Z"/><path class="cls-52" d="M802.69,530.31c-4.83,5.05-1.5,13.48-4,20-1.79,4.79-5.48,4.44-9.74,3.51-3.61-.79-15-2.73-12.54,3.84,1.32,3.44,4.82,5.76,6,9.4,2.51,7.91-8.2,9.38-13.61,8.57a41.28,41.28,0,0,1-21.71-10.58,33.58,33.58,0,1,0,55.58-34.78Z"/><path class="cls-50" d="M825.39,582.62l-12.23-8.17c.59.59,1.15,1.15,1.64,1.67,2.57,2.67,1,5.1-2.51,3.77-7-2.71-19.65-9-37.15-20.7S747,538.31,741.77,532.86c-2.57-2.68-.95-5.11,2.51-3.78.67.26,1.41.56,2.18.89l-12.26-8.18a3.59,3.59,0,0,0-2.88,1.38c-4.44,6.66,25.09,28.91,41.34,39.74s48.12,29.56,52.57,22.89A3.54,3.54,0,0,0,825.39,582.62Z"/><polygon class="cls-20" points="819.56 613.42 822.07 618.5 827.67 619.31 823.62 623.26 824.57 628.84 819.56 626.21 814.55 628.84 815.51 623.26 811.46 619.31 817.06 618.5 819.56 613.42"/><path class="cls-53" d="M267.46,566.74s-45.26,43-65,35.32,3.35,93.38,93.28-28Z"/><path class="cls-54" d="M316.85,516.06c45.78,32.57,22.36,48.19,14.43,59.46s-29.65,32.58-66.08-10.81"/><path class="cls-53" d="M318.7,517.72c-65.39-57.84-74.47-169.16-74.47-169.16L95.62,511.91s107.24,1.9,171.84,54.83C310.13,561.64,317.31,523,318.7,517.72Z"/><path class="cls-55" d="M267.46,566.74c15.3-1.86,26-8,33.51-15.37-33.18-17.41-85-95.05-85-95.05l-76.64,60C176.4,522.09,229.3,535.47,267.46,566.74Z"/><path class="cls-56" d="M95.62,511.91s26.44-.37,60.88,6.08c61.76-32.92,88.56-77.74,100-107.79-10-34.44-12.29-61.64-12.29-61.64Z"/><path class="cls-54" d="M196.61,455.08c-42.33,46.54-90.47,71.68-107.51,56.17s3.39-65.83,45.7-112.37,90.46-71.64,107.55-56.11S238.92,408.54,196.61,455.08Z"/><path class="cls-53" d="M184.24,443.84c-34.63,38.08-72.51,60-84.6,49s6.15-50.81,40.82-88.88,72.49-60,84.59-49S218.86,405.78,184.24,443.84Z"/><path class="cls-57" d="M333.35,550.71c-2.68,2.93-8.08,2.31-12.09-1.36s-5.19-9-2.53-11.91,8.07-2.29,12.1,1.38S336,547.81,333.35,550.71Z"/><path class="cls-54" d="M148.21,409A27.3,27.3,0,0,0,150,447.6l16,14.55c6.08-5.58,12.22-11.66,18.25-18.31a277.24,277.24,0,0,0,18.33-22.32l-15.76-14.33A27.29,27.29,0,0,0,148.21,409Z"/><path class="cls-57" d="M176.07,419a5.3,5.3,0,0,1-7.48.37l-4.53-4.09a5.33,5.33,0,0,1-.34-7.51h0a5.35,5.35,0,0,1,7.52-.35l4.48,4.1a5.28,5.28,0,0,1,.35,7.48Z"/><path class="cls-56" d="M151.8,449.24,166,462.15c6.08-5.58,12.22-11.66,18.25-18.31a277.24,277.24,0,0,0,18.33-22.32l-12.45-11.33C185.35,424.3,173.84,448.57,151.8,449.24Z"/><polygon class="cls-58" points="258.54 563.04 203.81 606.25 203.31 610.01 227.86 625.55 268.51 593.1 263.46 566.43 258.54 563.04"/><path class="cls-9" d="M259.73,580.08h0a11.62,11.62,0,0,1-16.37.4l-26.27-25a11.61,11.61,0,0,1-.41-16.37h0a11.6,11.6,0,0,1,16.37-.4l26.27,25A11.62,11.62,0,0,1,259.73,580.08Z"/><path class="cls-9" d="M244.08,596.52h0a11.62,11.62,0,0,1-16.38.41l-26.27-25a11.62,11.62,0,0,1-.4-16.37h0a11.61,11.61,0,0,1,16.37-.41l26.27,25A11.61,11.61,0,0,1,244.08,596.52Z"/><path class="cls-9" d="M229.1,612.85h0a11.63,11.63,0,0,1-16.38.4l-26.27-25a11.63,11.63,0,0,1-.4-16.38h0a11.61,11.61,0,0,1,16.37-.4l26.27,25A11.62,11.62,0,0,1,229.1,612.85Z"/><path class="cls-9" d="M278.87,633.37s56-59-6.24-81.67c0,0-40.25-12.93-16.83,13.18,15.39,17.17,22.12,36.39-20.4,66.44C235.4,631.32,245.46,662.21,278.87,633.37Z"/></svg>