<svg id="Layer_1" data-name="Layer 1" xmlns="http://www.w3.org/2000/svg" xmlns:xlink="http://www.w3.org/1999/xlink" viewBox="0 0 600 400"><defs><style>.cls-1,.cls-2,.cls-3,.cls-31,.cls-39{fill:none;}.cls-2{stroke:#00d9cd;}.cls-2,.cls-3,.cls-31,.cls-39{stroke-miterlimit:10;}.cls-3,.cls-39{stroke:#d4d4d4;}.cls-38,.cls-4{fill:#d4d4d4;}.cls-5{fill:#00c4b4;}.cls-6{clip-path:url(#clip-path);}.cls-7{fill:#333;}.cls-8{fill:#00d9cd;}.cls-9{fill:#111;}.cls-10{clip-path:url(#clip-path-2);}.cls-11{fill:#e01c1b;}.cls-12{fill:#00eadc;}.cls-13{fill:#00a08c;}.cls-14{fill:#005e50;}.cls-15{fill:#0080bb;}.cls-16{fill:#0091cb;}.cls-17{fill:#00b09c;}.cls-18,.cls-28{fill:#ffa65f;}.cls-19{fill:#ffcb00;}.cls-20{fill:#005b75;}.cls-21{fill:#004d61;}.cls-22{fill:#00001b;}.cls-23{fill:#000133;}.cls-24{fill:#ffdc37;}.cls-25{fill:#ffe677;}.cls-26{fill:#ff80cc;}.cls-27{fill:#f8e391;}.cls-28,.cls-29{fill-rule:evenodd;}.cls-29{fill:#f48e48;}.cls-30{font-size:16.8px;font-family:SFProDisplay-Black, SF Pro Display;}.cls-30,.cls-34{fill:#fff;}.cls-31{stroke:#b4b4b4;stroke-linecap:round;stroke-width:4px;stroke-dasharray:3.97 7.94;}.cls-32{fill:#b4b4b4;}.cls-33{clip-path:url(#clip-path-3);}.cls-35{fill:#cafffa;}.cls-36{clip-path:url(#clip-path-4);}.cls-37{clip-path:url(#clip-path-5);}.cls-38{font-size:32px;font-family:SFProDisplay-Regular, SF Pro Display;}.cls-39{stroke-width:2px;}</style><clipPath id="clip-path"><circle id="SVGID" class="cls-1" cx="446.97" cy="157.36" r="40"/></clipPath><clipPath id="clip-path-2"><path id="SVGID-2" data-name="SVGID" class="cls-1" d="M449.92,175.27a10,10,0,0,1-8.52-1.37l-.12-.08c-4-2.78-8.7,3.49-3.91,8.12S450.21,187,454.28,183C457.83,179.48,455.6,173.68,449.92,175.27Z"/></clipPath><clipPath id="clip-path-3"><rect class="cls-2" x="2" y="2" width="323.88" height="226.68" rx="8" ry="8"/></clipPath><clipPath id="clip-path-4"><circle id="SVGID-3" data-name="SVGID" class="cls-1" cx="60.37" cy="61.93" r="40"/></clipPath><clipPath id="clip-path-5"><path id="SVGID-4" data-name="SVGID" class="cls-1" d="M63.31,79.83a10.06,10.06,0,0,1-8.52-1.36l-.12-.09c-4-2.78-8.69,3.49-3.91,8.12s12.84,5,16.91,1C71.23,84,69,78.24,63.31,79.83Z"/></clipPath></defs><title>how-writer-1</title><rect class="cls-3" x="383.67" y="81.93" width="213.33" height="315.51" rx="8" ry="8"/><rect class="cls-4" x="399.38" y="287.73" width="181.9" height="4.49"/><rect class="cls-4" x="399.38" y="302.39" width="181.9" height="4.48"/><rect class="cls-4" x="399.38" y="317.04" width="181.9" height="4.48"/><rect class="cls-4" x="399.38" y="244.32" width="181.9" height="4.49"/><rect class="cls-4" x="399.38" y="258.97" width="181.9" height="4.48"/><rect class="cls-4" x="399.38" y="273.62" width="181.9" height="4.48"/><rect class="cls-4" x="399.38" y="214.28" width="181.9" height="4.48"/><rect class="cls-4" x="399.38" y="228.93" width="181.9" height="4.48"/><path class="cls-5" d="M453.37,339.5h74.06c2.64,0,4.78,2.58,4.78,5.75v18.89c0,3.18-2.14,5.75-4.78,5.75H453.37c-2.64,0-4.77-2.57-4.77-5.75V345.25C448.6,342.08,450.73,339.5,453.37,339.5Z"/><g class="cls-6"><rect class="cls-7" x="386.24" y="100.22" width="117.71" height="117.71"/><path class="cls-5" d="M395.63,182.16c8,4.17,19.39,3,21,2.8l-.69-5.77c-4.7.56-17.69.66-21.28-5.44-2.67-4.54,0-12.54,7.66-23.15l-4.71-3.4c-9.39,13-12,22.63-7.95,29.5A14.57,14.57,0,0,0,395.63,182.16Z"/><path class="cls-5" d="M497.7,195.1c-6.19-6.43-18.35-7.85-20.09-8l-2,6.43c5.05.51,18.34,3.48,19.13,10.95.59,5.57-5.85,13.64-18.63,23.33l3.2,4.81c15.64-11.86,22.81-21.73,21.91-30.15A12.32,12.32,0,0,0,497.7,195.1Z"/><path class="cls-8" d="M483.18,238.91c2.18-50.21-9.13-74.31-19.61-85.81l0,0a26.62,26.62,0,0,1-10.75,4.4,33.09,33.09,0,0,1-10.4-.67c-4.71-.87-9.72-2.46-13-5.79l-.33.29c-19.7,18-27,59.42-29.51,80.55a28.36,28.36,0,0,0,9.79,25c19.27,16.31,41,12.87,55.68,7.26A28.31,28.31,0,0,0,483.18,238.91Z"/><path class="cls-5" d="M483.18,238.91c1.06-24.5-1.09-42.77-4.78-56.41,0,1.36-.11,2.7-.18,4.05C477.34,202,475.69,217.71,467,231c-4,6.18-9.16,11.28-16,14.24a45.69,45.69,0,0,1-20.53,3.22c-6.36-.33-12.69-1.81-18-5.38a31,31,0,0,1-10.33-12.24c-.71-1.44-1.34-2.9-1.91-4.39-.27,1.93-.5,3.76-.71,5.46a28.36,28.36,0,0,0,9.79,25c19.27,16.31,41,12.87,55.68,7.26A28.31,28.31,0,0,0,483.18,238.91Z"/><path class="cls-9" d="M439.45,168.64c-.25,2-.9,3.57-1.46,3.5s-.82-1.75-.57-3.75.9-3.57,1.46-3.5S439.7,166.64,439.45,168.64Z"/><path class="cls-9" d="M454.47,170.5c-.25,2-.91,3.57-1.47,3.5s-.81-1.75-.56-3.75.9-3.57,1.46-3.5S454.72,168.5,454.47,170.5Z"/><path class="cls-9" d="M449.92,175.27a10,10,0,0,1-8.52-1.37l-.12-.08c-4-2.78-8.7,3.49-3.91,8.12S450.21,187,454.28,183C457.83,179.48,455.6,173.68,449.92,175.27Z"/><g class="cls-10"><path class="cls-11" d="M437.34,182.12s.09-5.05,7.51-.16c0,0,7-3.15,8.28,2.1C453.13,184.06,446,189.63,437.34,182.12Z"/></g><path class="cls-5" d="M472.72,180.7a7.92,7.92,0,1,1-6.52-8.36A7.93,7.93,0,0,1,472.72,180.7Z"/><path class="cls-5" d="M434.84,176a7.92,7.92,0,1,1-6.52-8.36A7.93,7.93,0,0,1,434.84,176Z"/><path class="cls-12" d="M443.08,187.56c0,.35.54.7,1.31.8s1.42-.11,1.46-.45-.55-.7-1.31-.79S443.12,187.22,443.08,187.56Z"/><path class="cls-13" d="M429.36,151.06s13-6.09,34.21,2C463.57,153.1,448.4,166.72,429.36,151.06Z"/><path class="cls-14" d="M431.17,152.33s9.54-4.89,30.92,1.78C462.09,154.11,450.64,164.48,431.17,152.33Z"/><circle class="cls-15" cx="468.95" cy="135.15" r="4.79" transform="translate(-18.37 161.52) rotate(-19.17)"/><circle class="cls-15" cx="445.59" cy="108.2" r="2.92" transform="translate(185.63 485.93) rotate(-69.11)"/><path class="cls-15" d="M451.73,108.55a1.23,1.23,0,0,1-1.37,1.06,1.22,1.22,0,1,1,.3-2.42A1.22,1.22,0,0,1,451.73,108.55Z"/><path class="cls-15" d="M448.57,110a1.16,1.16,0,1,1-.34,1.61A1.15,1.15,0,0,1,448.57,110Z"/><circle class="cls-16" cx="468.14" cy="133.1" r="1.83" transform="translate(17.36 316.6) rotate(-38.02)"/><path class="cls-12" d="M429.27,151.07s16.26,17.59,34.38,2C463.65,153.08,448.5,161.24,429.27,151.07Z"/><path class="cls-17" d="M392.47,149.47s.33-2.47,4.95-8.07l6.24,7.6S398.86,154.45,392.47,149.47Z"/><path class="cls-5" d="M395.94,153.12s10.88,2.74,9.4-6.27c0,0-1.16-5.71-2.72-1.13-1,3-2.88,5.12-9.36,2C393.26,147.75,390.22,151.05,395.94,153.12Z"/><path class="cls-5" d="M400.12,146.59h0a1.59,1.59,0,0,1-1.15-1.94l1.23-4.85a1.6,1.6,0,0,1,1.94-1.15h0a1.61,1.61,0,0,1,1.16,1.94l-1.24,4.85A1.59,1.59,0,0,1,400.12,146.59Z"/><path class="cls-18" d="M462.79,110.61l-1,.46a20.28,20.28,0,0,1,.9,2.17l1-.33A22.21,22.21,0,0,0,462.79,110.61Z"/><path class="cls-18" d="M461,107.42l-.87.6a19.78,19.78,0,0,1,1.23,2l.93-.5A23.94,23.94,0,0,0,461,107.42Z"/><path class="cls-18" d="M458.58,104.56l-.72.77a18.19,18.19,0,0,1,1.54,1.75l.84-.64A18.45,18.45,0,0,0,458.58,104.56Z"/><path class="cls-18" d="M455.63,102.27l-.5.93a12.77,12.77,0,0,1,1.89,1.36l.65-.83A14,14,0,0,0,455.63,102.27Z"/><path class="cls-18" d="M452.18,100.87l-.25,1a11.85,11.85,0,0,1,2.19.77l.43-1A12.58,12.58,0,0,0,452.18,100.87Z"/><path class="cls-18" d="M448.47,100.56v1a12.94,12.94,0,0,1,2.33.08l.16-1A13.94,13.94,0,0,0,448.47,100.56Z"/><path class="cls-18" d="M444.8,101.22l.28,1a10.83,10.83,0,0,1,1.12-.29,11.08,11.08,0,0,1,1.15-.21l-.1-1a10.38,10.38,0,0,0-1.24.22C445.61,101,445.19,101.08,444.8,101.22Z"/><path class="cls-18" d="M441.35,102.63l.51.92,1.05-.52,1.08-.44-.36-1-1.16.47Z"/><path class="cls-18" d="M438.39,105l.77.71a3.87,3.87,0,0,1,.4-.41l.42-.39c.3-.25.61-.47.92-.71l-.6-.87c-.33.26-.68.51-1,.78l-.47.43A3.19,3.19,0,0,0,438.39,105Z"/><path class="cls-18" d="M436.38,108.15l1,.38.23-.52.12-.26a2,2,0,0,1,.14-.25l.28-.5c.1-.16.22-.31.33-.47l-.86-.62c-.12.18-.25.35-.36.53l-.32.56a2.49,2.49,0,0,0-.15.28l-.13.29Z"/><path class="cls-18" d="M435.6,111.83l1,.06c.05-.38.06-.77.13-1.15,0-.19.06-.39.1-.57l.14-.56-1-.27-.15.61c0,.21-.07.42-.11.63C435.66,111,435.65,111.41,435.6,111.83Z"/><path class="cls-18" d="M435.81,115.54l1-.17a16.81,16.81,0,0,1-.21-2.34l-1.06,0A18.74,18.74,0,0,0,435.81,115.54Z"/><path class="cls-18" d="M436.68,119.11l1-.32c-.24-.75-.45-1.51-.62-2.28l-1,.22A21.4,21.4,0,0,0,436.68,119.11Z"/><path class="cls-18" d="M438,122.53l1-.45c-.34-.72-.64-1.45-.92-2.19l-1,.37C437.36,121,437.67,121.78,438,122.53Z"/><path class="cls-5" d="M397.09,145.82h0a1.6,1.6,0,0,1-1.16-1.94l1.24-4.85a1.59,1.59,0,0,1,1.94-1.15h0a1.6,1.6,0,0,1,1.15,1.94L399,144.67A1.6,1.6,0,0,1,397.09,145.82Z"/><path class="cls-19" d="M451.68,145.94a1.4,1.4,0,0,1,2,.23,1.11,1.11,0,0,1,0,1.5,11.81,11.81,0,0,1-9.43,3.67,1.09,1.09,0,0,1-.95-.71,1.69,1.69,0,0,1,.82-2Z"/><path class="cls-19" d="M446.05,126.89s6.85-1.51,11.52,9.38L453,138.83Z"/><path class="cls-19" d="M453.15,132.67a17.35,17.35,0,0,0-6.34-5.84,4,4,0,0,0-.76.06L453,138.83l2.34-1.3A19.11,19.11,0,0,0,453.15,132.67Z"/><path class="cls-19" d="M435.34,131.37s-5.89,3.82-1.42,14.79l5-1.47Z"/><path class="cls-19" d="M434.46,140.49a17.43,17.43,0,0,1,.29-8.62,4,4,0,0,1,.59-.5L439,144.69l-2.57.75A19.14,19.14,0,0,1,434.46,140.49Z"/><path class="cls-20" d="M437.86,122.68s-5.78,8.42-.78,19.53S449,149.35,449,149.35s7.69-2.16,3.3-13.52S437.86,122.68,437.86,122.68Z"/><path class="cls-21" d="M450.2,131.63c1.4,3.9,1.51,8.28-.48,11.61-1.51,2.51-5,4.41-8.53,4.88a7,7,0,0,0,7.83,1.23s7.69-2.16,3.3-13.52A23.87,23.87,0,0,0,450.2,131.63Z"/><path class="cls-19" d="M445.07,126.1a19,19,0,0,0-7.21-3.42,19.26,19.26,0,0,0-2.71,8.25A12.61,12.61,0,0,0,445.07,126.1Z"/><path class="cls-19" d="M447.27,134.89a3.89,3.89,0,1,1-5.09-2.09A3.88,3.88,0,0,1,447.27,134.89Z"/><path class="cls-22" d="M446,135.4a2.56,2.56,0,1,1-3.35-1.37A2.56,2.56,0,0,1,446,135.4Z"/><path class="cls-23" d="M442.13,136.82a1.8,1.8,0,0,1,.82-1.33,5.13,5.13,0,0,0,.9-.62,1.28,1.28,0,0,0,.23-.38,1.73,1.73,0,0,0-2.57,2.09,1.71,1.71,0,0,0,.72.82A1.28,1.28,0,0,1,442.13,136.82Z"/><path class="cls-24" d="M441.77,127.69a.69.69,0,0,1-.53-1.27"/><path class="cls-24" d="M442.72,133.19a.35.35,0,0,1-.64.27.36.36,0,0,1,.19-.46A.35.35,0,0,1,442.72,133.19Z"/><path class="cls-24" d="M444.93,133.09a.35.35,0,0,1-.18.46.36.36,0,0,1-.46-.19.34.34,0,0,1,.19-.45A.34.34,0,0,1,444.93,133.09Z"/><path class="cls-24" d="M447,134.8a.36.36,0,0,1-.19.46.35.35,0,1,1,.19-.46Z"/><path class="cls-24" d="M447,137.63a.34.34,0,0,1-.18.45.35.35,0,0,1-.46-.18.36.36,0,0,1,.19-.46A.34.34,0,0,1,447,137.63Z"/><path class="cls-24" d="M445.29,139.33a.34.34,0,0,1-.19.45.34.34,0,0,1-.45-.18.35.35,0,0,1,.18-.46A.36.36,0,0,1,445.29,139.33Z"/><path class="cls-24" d="M442.62,139.25a.34.34,0,0,1-.18.45.35.35,0,0,1-.46-.18.36.36,0,0,1,.19-.46A.34.34,0,0,1,442.62,139.25Z"/><path class="cls-24" d="M441.06,137.85a.34.34,0,0,1-.18.45.35.35,0,0,1-.46-.18.36.36,0,0,1,.19-.46A.34.34,0,0,1,441.06,137.85Z"/><path class="cls-24" d="M441,135.11a.36.36,0,0,1-.19.46.35.35,0,0,1-.45-.19.35.35,0,0,1,.64-.27Z"/><path class="cls-19" d="M453.35,147.42c.84.8,1.27,1.72.95,2.06s-1.26,0-2.11-.84-1.27-1.72-.95-2.06S452.5,146.62,453.35,147.42Z"/><path class="cls-19" d="M450.24,149.88c.45,1.08.46,2.09,0,2.27s-1.14-.54-1.59-1.62-.46-2.08,0-2.26S449.79,148.81,450.24,149.88Z"/><path class="cls-19" d="M444.44,151.14c0,1.16.34,2.11.8,2.12s.86-.92.89-2.08-.33-2.12-.8-2.13S444.47,150,444.44,151.14Z"/><polygon class="cls-25" points="470.15 124.64 470.64 125.63 471.73 125.79 470.94 126.56 471.13 127.64 470.15 127.13 469.18 127.64 469.36 126.56 468.57 125.79 469.67 125.63 470.15 124.64"/><polygon class="cls-25" points="473.93 139.46 474.09 139.8 474.47 139.86 474.2 140.13 474.26 140.5 473.93 140.32 473.59 140.5 473.65 140.13 473.38 139.86 473.76 139.8 473.93 139.46"/><polygon class="cls-25" points="423.44 145.91 423.93 146.9 425.02 147.06 424.23 147.83 424.41 148.91 423.44 148.4 422.46 148.91 422.65 147.83 421.86 147.06 422.95 146.9 423.44 145.91"/><polygon class="cls-25" points="424.87 144.57 425.01 144.87 425.33 144.91 425.1 145.14 425.15 145.46 424.87 145.31 424.58 145.46 424.63 145.14 424.4 144.91 424.72 144.87 424.87 144.57"/><polygon class="cls-25" points="423.8 150.37 423.98 150.74 424.4 150.8 424.1 151.1 424.17 151.51 423.8 151.32 423.43 151.51 423.5 151.1 423.19 150.8 423.61 150.74 423.8 150.37"/><polygon class="cls-25" points="451.54 136.62 451.76 137.07 452.26 137.14 451.9 137.49 451.98 137.99 451.54 137.75 451.09 137.99 451.18 137.49 450.82 137.14 451.31 137.07 451.54 136.62"/><polygon class="cls-25" points="454.36 113.34 454.85 114.33 455.94 114.49 455.15 115.25 455.34 116.34 454.36 115.83 453.39 116.34 453.57 115.25 452.78 114.49 453.88 114.33 454.36 113.34"/><polygon class="cls-25" points="450.2 103.69 450.49 104.26 451.12 104.36 450.66 104.8 450.77 105.43 450.2 105.14 449.64 105.43 449.75 104.8 449.29 104.36 449.92 104.26 450.2 103.69"/><path class="cls-26" d="M475.43,130.5a.48.48,0,0,1-.48.48.49.49,0,1,1,.48-.48Z"/><path class="cls-26" d="M476.16,127a.61.61,0,1,1-.6-.6A.6.6,0,0,1,476.16,127Z"/><path class="cls-26" d="M435.13,110.37a.49.49,0,0,1-.48.48.48.48,0,0,1-.48-.48.47.47,0,0,1,.48-.48A.48.48,0,0,1,435.13,110.37Z"/><path class="cls-26" d="M435.86,106.82a.61.61,0,1,1-.61-.6A.61.61,0,0,1,435.86,106.82Z"/><circle class="cls-26" cx="472.72" cy="122.32" r="0.65"/><circle class="cls-26" cx="475.82" cy="136.15" r="0.39"/><path class="cls-26" d="M421.69,137.71A.72.72,0,1,1,421,137,.72.72,0,0,1,421.69,137.71Z"/><path class="cls-26" d="M450.4,139.36a.62.62,0,1,1-.62-.61A.62.62,0,0,1,450.4,139.36Z"/><path class="cls-26" d="M464.27,148.52a.36.36,0,0,1-.35.36.36.36,0,0,1,0-.71A.35.35,0,0,1,464.27,148.52Z"/><path class="cls-26" d="M436.86,149.81a.79.79,0,1,1-.79-.78A.79.79,0,0,1,436.86,149.81Z"/><path class="cls-8" d="M471.34,121.93a.73.73,0,0,1-.72.73.73.73,0,0,1-.73-.73.73.73,0,0,1,.73-.72A.72.72,0,0,1,471.34,121.93Z"/><circle class="cls-26" cx="441.98" cy="115.22" r="0.65"/><path class="cls-8" d="M440.6,114.83a.72.72,0,1,1-1.44,0,.72.72,0,0,1,1.44,0Z"/><path class="cls-8" d="M473.73,127.69a.5.5,0,0,1-.5.51.51.51,0,1,1,0-1A.5.5,0,0,1,473.73,127.69Z"/><polygon class="cls-25" points="433.79 115.75 433.3 116.74 432.21 116.9 433 117.67 432.82 118.76 433.79 118.24 434.77 118.76 434.58 117.67 435.37 116.9 434.28 116.74 433.79 115.75"/><path class="cls-26" d="M427.79,118.07a.6.6,0,1,0,.6-.61A.6.6,0,0,0,427.79,118.07Z"/><path class="cls-26" d="M430.57,113.43a.65.65,0,0,0,.65.65.65.65,0,1,0,0-1.3A.65.65,0,0,0,430.57,113.43Z"/><path class="cls-8" d="M432.61,113.05a.72.72,0,0,0,1.44,0,.72.72,0,1,0-1.44,0Z"/><circle class="cls-8" cx="430.72" cy="118.81" r="0.51"/><path class="cls-8" d="M464,141.16a.46.46,0,0,1-.46.46.47.47,0,0,1-.46-.46.46.46,0,0,1,.46-.46A.45.45,0,0,1,464,141.16Z"/><path class="cls-8" d="M452.62,140.35a.57.57,0,0,1-.58.57.56.56,0,0,1-.57-.57.57.57,0,0,1,.57-.58A.58.58,0,0,1,452.62,140.35Z"/><path class="cls-8" d="M424.75,141.13a.48.48,0,1,1-.47-.48A.47.47,0,0,1,424.75,141.13Z"/><path class="cls-8" d="M477,138.87a.4.4,0,1,1-.8,0,.4.4,0,0,1,.8,0Z"/><path class="cls-5" d="M394.11,145.12h0a1.59,1.59,0,0,1-1.15-1.94l1.23-4.85a1.6,1.6,0,0,1,1.94-1.15h0a1.61,1.61,0,0,1,1.16,1.94L396.05,144A1.59,1.59,0,0,1,394.11,145.12Z"/><path class="cls-27" d="M458.38,143.79c.06-.13.24-.18.5-.08a28.26,28.26,0,0,1,5.12,2.85,28.63,28.63,0,0,1,4.6,3.63c.2.2.21.39.12.49l1.3.87,0,0c.62-.92-3.46-4-5.7-5.48s-6.63-4.08-7.25-3.16c0,0,0,0,0,0Z"/><path class="cls-28" d="M459.78,144.56a4.63,4.63,0,1,0,6.42-1.29A4.62,4.62,0,0,0,459.78,144.56Z"/><path class="cls-29" d="M466.93,143.88c-.66.69-.2,1.86-.54,2.76-.25.66-.76.61-1.34.48s-2.08-.37-1.73.53c.18.48.66.8.82,1.3.35,1.09-1.13,1.29-1.88,1.18a5.7,5.7,0,0,1-3-1.46,4.63,4.63,0,1,0,7.66-4.79Z"/><path class="cls-27" d="M470.07,151.09,468.38,150l.22.23c.36.37.13.71-.34.52a28.58,28.58,0,0,1-5.13-2.85,29.12,29.12,0,0,1-4.6-3.63c-.35-.37-.13-.71.35-.52l.3.12-1.69-1.13a.55.55,0,0,0-.4.19c-.61.92,3.46,4,5.7,5.48s6.64,4.08,7.25,3.16A.51.51,0,0,0,470.07,151.09Z"/><polygon class="cls-25" points="469.26 155.34 469.61 156.04 470.38 156.15 469.82 156.69 469.95 157.46 469.26 157.1 468.57 157.46 468.7 156.69 468.14 156.15 468.92 156.04 469.26 155.34"/></g><rect class="cls-7" x="395.64" y="92.77" width="23.15" height="23.15" rx="8" ry="8"/><text class="cls-30" transform="translate(399.52 109.88)">M</text><path class="cls-31" d="M372.86,346.79c-18.33-.92-50.1-4.4-77-17C204.78,287,177.34,195.69,177.34,195.69"/><polygon class="cls-32" points="370.02 334.81 389.98 347.87 368.68 358.63 370.02 334.81"/><g class="cls-33"><rect class="cls-34" x="-17.76" y="-4.92" width="363.41" height="253.72"/><rect class="cls-35" x="2" y="2" width="118.54" height="416.73"/><g class="cls-36"><rect class="cls-7" x="-0.37" y="4.78" width="117.71" height="117.71"/><path class="cls-5" d="M9,86.72c8,4.17,19.39,3,21,2.8l-.68-5.77c-4.71.56-17.7.67-21.29-5.43C5.4,73.77,8,65.77,15.72,55.17L11,51.76c-9.39,13-12,22.63-7.95,29.51A14.62,14.62,0,0,0,9,86.72Z"/><path class="cls-5" d="M111.09,99.67c-6.19-6.43-18.35-7.86-20.09-8l-2,6.42c5,.52,18.34,3.48,19.13,11,.59,5.56-5.85,13.63-18.62,23.32l3.19,4.82c15.65-11.87,22.81-21.74,21.91-30.16A12.3,12.3,0,0,0,111.09,99.67Z"/><path class="cls-8" d="M96.57,143.47C98.75,93.26,87.44,69.16,77,57.66l0,0a26.56,26.56,0,0,1-10.75,4.4,33.09,33.09,0,0,1-10.4-.67c-4.71-.87-9.72-2.46-13-5.79l-.33.29c-19.7,18-27,59.43-29.5,80.55a28.33,28.33,0,0,0,9.79,25c19.26,16.31,41,12.87,55.68,7.27A28.33,28.33,0,0,0,96.57,143.47Z"/><path class="cls-5" d="M96.57,143.47c1.06-24.49-1.08-42.77-4.78-56.4-.05,1.35-.11,2.7-.18,4-.88,15.44-2.53,31.16-11.18,44.44-4,6.18-9.16,11.29-16,14.25A45.82,45.82,0,0,1,43.9,153c-6.35-.33-12.69-1.81-18-5.37a31.16,31.16,0,0,1-10.33-12.25c-.71-1.44-1.34-2.9-1.91-4.39-.27,1.93-.5,3.76-.7,5.46a28.33,28.33,0,0,0,9.79,25c19.26,16.31,41,12.87,55.68,7.27A28.33,28.33,0,0,0,96.57,143.47Z"/><path class="cls-9" d="M52.84,73.21c-.25,2-.9,3.56-1.46,3.49S50.56,75,50.81,73s.91-3.57,1.47-3.5S53.09,71.2,52.84,73.21Z"/><path class="cls-9" d="M67.86,75.07c-.25,2-.9,3.56-1.47,3.5s-.81-1.75-.56-3.76.9-3.56,1.46-3.49S68.11,73.06,67.86,75.07Z"/><path class="cls-9" d="M63.31,79.83a10.06,10.06,0,0,1-8.52-1.36l-.12-.09c-4-2.78-8.69,3.49-3.91,8.12s12.84,5,16.91,1C71.23,84,69,78.24,63.31,79.83Z"/><g class="cls-37"><path class="cls-11" d="M50.73,86.69s.09-5.06,7.51-.17c0,0,7-3.15,8.28,2.1C66.52,88.62,59.4,94.19,50.73,86.69Z"/></g><path class="cls-5" d="M86.11,85.26a7.92,7.92,0,1,1-6.52-8.36A7.92,7.92,0,0,1,86.11,85.26Z"/><path class="cls-5" d="M48.23,80.56a7.92,7.92,0,1,1-6.52-8.36A7.92,7.92,0,0,1,48.23,80.56Z"/><path class="cls-12" d="M56.47,92.13c0,.34.54.69,1.31.79s1.42-.11,1.46-.45-.54-.7-1.31-.79S56.51,91.78,56.47,92.13Z"/><path class="cls-13" d="M42.75,55.62s13-6.09,34.21,2C77,57.66,61.79,71.28,42.75,55.62Z"/><path class="cls-14" d="M44.56,56.89S54.1,52,75.48,58.67C75.48,58.67,64,69,44.56,56.89Z"/><circle class="cls-15" cx="82.34" cy="39.72" r="4.79" transform="translate(-8.48 29.25) rotate(-19.17)"/><circle class="cls-15" cx="58.98" cy="12.76" r="2.92" transform="translate(26.03 63.32) rotate(-69.11)"/><path class="cls-15" d="M65.12,13.11a1.24,1.24,0,0,1-1.37,1.07,1.23,1.23,0,0,1-1.06-1.37,1.21,1.21,0,0,1,1.36-1.06A1.22,1.22,0,0,1,65.12,13.11Z"/><path class="cls-15" d="M62,14.6a1.16,1.16,0,1,1-.34,1.61A1.16,1.16,0,0,1,62,14.6Z"/><circle class="cls-16" cx="81.54" cy="37.66" r="1.83" transform="translate(-5.89 58.21) rotate(-38.02)"/><path class="cls-12" d="M42.67,55.63s16.26,17.59,34.37,2C77,57.64,61.89,65.8,42.67,55.63Z"/><path class="cls-17" d="M5.86,54s.33-2.47,5-8.07l6.24,7.6S12.25,59,5.86,54Z"/><path class="cls-5" d="M9.34,57.68s10.87,2.75,9.39-6.27c0,0-1.16-5.71-2.72-1.13-1,3-2.88,5.12-9.36,2C6.65,52.31,3.61,55.61,9.34,57.68Z"/><path class="cls-5" d="M13.51,51.16h0a1.6,1.6,0,0,1-1.15-1.95l1.23-4.84a1.61,1.61,0,0,1,1.94-1.16h0a1.6,1.6,0,0,1,1.16,1.94L15.45,50A1.61,1.61,0,0,1,13.51,51.16Z"/><path class="cls-18" d="M76.18,15.18l-1,.45a19.14,19.14,0,0,1,.9,2.17l1-.33A19.33,19.33,0,0,0,76.18,15.18Z"/><path class="cls-18" d="M74.34,12l-.86.6a23,23,0,0,1,1.22,2l.93-.5A21.78,21.78,0,0,0,74.34,12Z"/><path class="cls-18" d="M72,9.12l-.71.77a20,20,0,0,1,1.54,1.76l.83-.65A18.45,18.45,0,0,0,72,9.12Z"/><path class="cls-18" d="M69,6.83l-.51.93a14.26,14.26,0,0,1,1.9,1.36l.65-.83A15.19,15.19,0,0,0,69,6.83Z"/><path class="cls-18" d="M65.57,5.43l-.25,1a11.52,11.52,0,0,1,2.2.78l.42-1A12.34,12.34,0,0,0,65.57,5.43Z"/><path class="cls-18" d="M61.86,5.12V6.18a12.08,12.08,0,0,1,2.33.07l.17-1A13.15,13.15,0,0,0,61.86,5.12Z"/><path class="cls-18" d="M58.19,5.78l.28,1c.36-.13.75-.19,1.12-.29a11.58,11.58,0,0,1,1.15-.21l-.1-1a10.75,10.75,0,0,0-1.24.22C59,5.57,58.58,5.64,58.19,5.78Z"/><path class="cls-18" d="M54.74,7.2l.51.91,1-.52,1.08-.44-.36-1-1.16.47Z"/><path class="cls-18" d="M51.78,9.51l.77.71a3.87,3.87,0,0,1,.4-.41l.43-.39c.29-.25.6-.47.91-.71l-.6-.87c-.33.26-.68.51-1,.78l-.47.43A4.78,4.78,0,0,0,51.78,9.51Z"/><path class="cls-18" d="M49.77,12.71l1,.38.23-.52.12-.26a2,2,0,0,1,.14-.25l.28-.5c.1-.16.22-.31.33-.47L51,10.48c-.12.17-.25.34-.36.52l-.32.56-.15.28-.13.29Z"/><path class="cls-18" d="M49,16.39l1,.06c.05-.38.06-.77.13-1.15,0-.19.06-.38.1-.57l.14-.56-1-.27-.15.61c0,.21-.07.42-.11.63C49.05,15.55,49,16,49,16.39Z"/><path class="cls-18" d="M49.2,20.1l1-.17A16.68,16.68,0,0,1,50,17.59l-1.05,0A17.18,17.18,0,0,0,49.2,20.1Z"/><path class="cls-18" d="M50.07,23.68l1-.33a22.54,22.54,0,0,1-.61-2.28l-1,.22C49.6,22.1,49.82,22.89,50.07,23.68Z"/><path class="cls-18" d="M51.42,27.09l.95-.45c-.34-.71-.64-1.45-.92-2.19l-1,.37C50.75,25.59,51.07,26.35,51.42,27.09Z"/><path class="cls-5" d="M10.48,50.38h0a1.61,1.61,0,0,1-1.16-1.94l1.24-4.85a1.59,1.59,0,0,1,1.94-1.15h0a1.6,1.6,0,0,1,1.15,1.94l-1.23,4.85A1.6,1.6,0,0,1,10.48,50.38Z"/><path class="cls-19" d="M65.07,50.5a1.4,1.4,0,0,1,2,.23,1.1,1.1,0,0,1,0,1.5,11.78,11.78,0,0,1-9.43,3.68,1.1,1.1,0,0,1-1-.72,1.68,1.68,0,0,1,.83-2Z"/><path class="cls-19" d="M59.44,31.46S66.29,30,71,40.84l-4.59,2.55Z"/><path class="cls-19" d="M66.54,37.24a17.43,17.43,0,0,0-6.33-5.85,4.5,4.5,0,0,0-.77.07l6.93,11.93,2.34-1.3A19,19,0,0,0,66.54,37.24Z"/><path class="cls-19" d="M48.73,35.94s-5.89,3.81-1.42,14.78l5-1.47Z"/><path class="cls-19" d="M47.86,45.05a17.43,17.43,0,0,1,.28-8.62,5.06,5.06,0,0,1,.59-.49l3.62,13.31L49.79,50A18.45,18.45,0,0,1,47.86,45.05Z"/><path class="cls-20" d="M51.25,27.24s-5.78,8.42-.78,19.53,11.94,7.14,11.94,7.14,7.7-2.16,3.3-13.52S51.25,27.24,51.25,27.24Z"/><path class="cls-21" d="M63.59,36.2c1.4,3.89,1.51,8.28-.48,11.6-1.51,2.51-5,4.42-8.53,4.88a7,7,0,0,0,7.83,1.23s7.7-2.16,3.3-13.52A23.43,23.43,0,0,0,63.59,36.2Z"/><path class="cls-19" d="M58.46,30.66a19,19,0,0,0-7.21-3.42,19.27,19.27,0,0,0-2.71,8.26A12.63,12.63,0,0,0,58.46,30.66Z"/><path class="cls-19" d="M60.67,39.45a3.9,3.9,0,1,1-5.1-2.09A3.9,3.9,0,0,1,60.67,39.45Z"/><path class="cls-22" d="M59.43,40a2.56,2.56,0,1,1-3.34-1.37A2.55,2.55,0,0,1,59.43,40Z"/><path class="cls-23" d="M55.52,41.39a1.77,1.77,0,0,1,.83-1.33,6.21,6.21,0,0,0,.89-.63,1.38,1.38,0,0,0,.24-.38,1.75,1.75,0,0,0-1.65-.17,1.73,1.73,0,0,0-.92,2.27,1.68,1.68,0,0,0,.72.81A1.14,1.14,0,0,1,55.52,41.39Z"/><path class="cls-24" d="M55.16,32.25A.69.69,0,0,1,54.63,31"/><path class="cls-24" d="M56.11,37.75a.35.35,0,0,1-.18.46.36.36,0,0,1-.46-.19.35.35,0,0,1,.64-.27Z"/><path class="cls-24" d="M58.32,37.65a.35.35,0,0,1-.18.46.34.34,0,0,1-.45-.19.33.33,0,0,1,.18-.45A.34.34,0,0,1,58.32,37.65Z"/><path class="cls-24" d="M60.41,39.37a.35.35,0,1,1-.45-.19A.35.35,0,0,1,60.41,39.37Z"/><path class="cls-24" d="M60.36,42.19a.34.34,0,1,1-.45-.18A.33.33,0,0,1,60.36,42.19Z"/><path class="cls-24" d="M58.68,43.89a.35.35,0,0,1-.64.27.36.36,0,0,1,.19-.46A.35.35,0,0,1,58.68,43.89Z"/><path class="cls-24" d="M56,43.81a.34.34,0,0,1-.19.45.33.33,0,0,1-.45-.18.34.34,0,0,1,.18-.45A.34.34,0,0,1,56,43.81Z"/><path class="cls-24" d="M54.45,42.41a.34.34,0,0,1-.18.45.35.35,0,0,1-.46-.18.36.36,0,0,1,.19-.46A.34.34,0,0,1,54.45,42.41Z"/><path class="cls-24" d="M54.39,39.67a.35.35,0,0,1-.18.46.36.36,0,0,1-.46-.19.35.35,0,0,1,.19-.45A.34.34,0,0,1,54.39,39.67Z"/><path class="cls-19" d="M66.74,52c.85.8,1.27,1.72,1,2.06s-1.26,0-2.11-.84-1.27-1.72-1-2.05S65.89,51.18,66.74,52Z"/><path class="cls-19" d="M63.63,54.45c.45,1.07.46,2.08,0,2.26s-1.15-.54-1.59-1.61-.47-2.09,0-2.27S63.18,53.37,63.63,54.45Z"/><path class="cls-19" d="M57.84,55.7c0,1.17.33,2.12.79,2.13s.87-.93.89-2.09-.33-2.11-.8-2.12S57.86,54.54,57.84,55.7Z"/><polygon class="cls-25" points="83.55 29.2 84.03 30.19 85.12 30.35 84.33 31.12 84.52 32.2 83.55 31.69 82.57 32.2 82.76 31.12 81.97 30.35 83.06 30.19 83.55 29.2"/><polygon class="cls-25" points="87.32 44.02 87.49 44.37 87.86 44.42 87.59 44.69 87.65 45.06 87.32 44.88 86.98 45.06 87.04 44.69 86.77 44.42 87.15 44.37 87.32 44.02"/><polygon class="cls-25" points="36.83 50.47 37.32 51.46 38.41 51.62 37.62 52.39 37.8 53.48 36.83 52.96 35.85 53.48 36.04 52.39 35.25 51.62 36.34 51.46 36.83 50.47"/><polygon class="cls-25" points="38.26 49.13 38.4 49.43 38.73 49.47 38.49 49.7 38.55 50.02 38.26 49.87 37.97 50.02 38.02 49.7 37.79 49.47 38.11 49.43 38.26 49.13"/><polygon class="cls-25" points="37.19 54.93 37.38 55.3 37.79 55.37 37.49 55.66 37.56 56.07 37.19 55.88 36.82 56.07 36.89 55.66 36.59 55.37 37 55.3 37.19 54.93"/><polygon class="cls-25" points="64.93 41.18 65.15 41.63 65.65 41.7 65.29 42.05 65.37 42.55 64.93 42.31 64.48 42.55 64.57 42.05 64.21 41.7 64.71 41.63 64.93 41.18"/><polygon class="cls-25" points="67.75 17.9 68.24 18.89 69.33 19.05 68.54 19.82 68.73 20.9 67.75 20.39 66.78 20.9 66.97 19.82 66.18 19.05 67.27 18.89 67.75 17.9"/><polygon class="cls-25" points="63.6 8.25 63.88 8.82 64.52 8.92 64.06 9.36 64.16 10 63.6 9.7 63.03 10 63.14 9.36 62.68 8.92 63.31 8.82 63.6 8.25"/><path class="cls-26" d="M88.82,35.06a.48.48,0,0,1-.48.48.49.49,0,0,1-.48-.48.48.48,0,0,1,.48-.48A.47.47,0,0,1,88.82,35.06Z"/><path class="cls-26" d="M89.55,31.51a.61.61,0,1,1-.6-.6A.6.6,0,0,1,89.55,31.51Z"/><path class="cls-26" d="M48.52,14.93a.48.48,0,0,1-1,0,.48.48,0,0,1,1,0Z"/><path class="cls-26" d="M49.25,11.38a.61.61,0,1,1-.61-.6A.61.61,0,0,1,49.25,11.38Z"/><circle class="cls-26" cx="86.11" cy="26.88" r="0.65"/><circle class="cls-26" cx="89.21" cy="40.71" r="0.39"/><path class="cls-26" d="M35.08,42.27a.72.72,0,1,1-.72-.72A.72.72,0,0,1,35.08,42.27Z"/><path class="cls-26" d="M63.79,43.93a.62.62,0,1,1-.62-.62A.61.61,0,0,1,63.79,43.93Z"/><path class="cls-26" d="M77.66,53.09a.35.35,0,1,1-.7,0,.35.35,0,0,1,.7,0Z"/><path class="cls-8" d="M50.25,54.37a.79.79,0,1,1-.79-.78A.79.79,0,0,1,50.25,54.37Z"/><path class="cls-8" d="M84.73,26.49a.72.72,0,1,1-.72-.72A.73.73,0,0,1,84.73,26.49Z"/><circle class="cls-26" cx="55.38" cy="19.78" r="0.65"/><path class="cls-8" d="M54,19.39a.72.72,0,1,1-.72-.72A.73.73,0,0,1,54,19.39Z"/><path class="cls-8" d="M87.13,32.26a.51.51,0,0,1-1,0,.51.51,0,0,1,1,0Z"/><polygon class="cls-25" points="47.18 20.32 46.7 21.3 45.6 21.46 46.4 22.23 46.21 23.32 47.18 22.81 48.16 23.32 47.97 22.23 48.76 21.46 47.67 21.3 47.18 20.32"/><path class="cls-26" d="M41.18,22.63a.61.61,0,0,0,1.21,0,.61.61,0,1,0-1.21,0Z"/><path class="cls-26" d="M44,18a.66.66,0,0,0,.66.65.66.66,0,0,0,0-1.31A.67.67,0,0,0,44,18Z"/><path class="cls-8" d="M46,17.61a.72.72,0,1,0,.72-.72A.72.72,0,0,0,46,17.61Z"/><circle class="cls-8" cx="44.11" cy="23.37" r="0.51"/><path class="cls-8" d="M77.38,45.72a.46.46,0,0,1-.46.46.47.47,0,0,1-.46-.46.46.46,0,0,1,.46-.46A.45.45,0,0,1,77.38,45.72Z"/><path class="cls-8" d="M66,44.91a.57.57,0,0,1-.58.57.56.56,0,0,1-.57-.57.57.57,0,0,1,.57-.58A.58.58,0,0,1,66,44.91Z"/><path class="cls-8" d="M38.15,45.69a.49.49,0,0,1-.48.48.48.48,0,0,1-.48-.48.47.47,0,0,1,.48-.48A.48.48,0,0,1,38.15,45.69Z"/><path class="cls-8" d="M90.35,43.43A.4.4,0,1,1,90,43,.4.4,0,0,1,90.35,43.43Z"/><path class="cls-5" d="M7.5,49.68h0a1.59,1.59,0,0,1-1.15-1.94L7.58,42.9a1.6,1.6,0,0,1,1.94-1.16h0a1.6,1.6,0,0,1,1.16,1.94L9.45,48.53A1.6,1.6,0,0,1,7.5,49.68Z"/><path class="cls-27" d="M71.78,48.35c0-.13.23-.18.49-.08a28.26,28.26,0,0,1,5.12,2.85A28.86,28.86,0,0,1,82,54.75c.19.2.21.39.11.49l1.3.87,0,0c.62-.92-3.46-4-5.7-5.48s-6.63-4.08-7.25-3.16a0,0,0,0,1,0,0Z"/><path class="cls-28" d="M73.17,49.12a4.63,4.63,0,1,0,6.43-1.29A4.62,4.62,0,0,0,73.17,49.12Z"/><path class="cls-29" d="M80.33,48.44c-.67.69-.21,1.86-.55,2.76-.25.66-.75.61-1.34.48s-2.08-.37-1.73.53c.18.48.66.8.82,1.3.35,1.09-1.13,1.3-1.88,1.18a5.7,5.7,0,0,1-3-1.46,4.56,4.56,0,0,0,1.79,2.31,4.63,4.63,0,0,0,5.88-7.1Z"/><path class="cls-27" d="M83.46,55.65l-1.69-1.12.23.22c.35.37.13.71-.35.53a29.19,29.19,0,0,1-5.12-2.86,29.35,29.35,0,0,1-4.61-3.63c-.35-.37-.13-.71.35-.52l.3.12-1.69-1.13a.55.55,0,0,0-.4.19c-.61.92,3.46,4,5.7,5.48s6.64,4.08,7.25,3.16A.51.51,0,0,0,83.46,55.65Z"/><polygon class="cls-25" points="82.65 59.9 83 60.6 83.77 60.71 83.21 61.26 83.34 62.03 82.65 61.66 81.96 62.03 82.09 61.26 81.53 60.71 82.31 60.6 82.65 59.9"/></g><text class="cls-38" transform="translate(206.78 124.27)">+</text><circle class="cls-39" cx="216.54" cy="115.34" r="23.45"/></g><rect class="cls-2" x="2" y="2" width="323.88" height="226.68" rx="8" ry="8"/></svg>