<svg id="Layer_2" data-name="Layer 2" xmlns="http://www.w3.org/2000/svg" xmlns:xlink="http://www.w3.org/1999/xlink" viewBox="0 0 600 400"><defs><style>.cls-1,.cls-2{fill:none;}.cls-1{stroke:#00d9cd;stroke-miterlimit:10;}.cls-3{clip-path:url(#clip-path);}.cls-4{fill:#fff;}.cls-5{fill:#e0fcf9;}.cls-6{clip-path:url(#clip-path-2);}.cls-7{fill:#333;}.cls-8{fill:#00c4b4;}.cls-9{fill:#00d9cd;}.cls-10{fill:#111;}.cls-11{clip-path:url(#clip-path-3);}.cls-12{fill:#e01c1b;}.cls-13{fill:#00eadc;}.cls-14{fill:#00a08c;}.cls-15{fill:#005e50;}.cls-16{fill:#0080bb;}.cls-17{fill:#0091cb;}.cls-18{fill:#00b09c;}.cls-19,.cls-29{fill:#ffa65f;}.cls-20{fill:#ffcb00;}.cls-21{fill:#005b75;}.cls-22{fill:#004d61;}.cls-23{fill:#00001b;}.cls-24{fill:#000133;}.cls-25{fill:#ffdc37;}.cls-26{fill:#ffe677;}.cls-27{fill:#ff80cc;}.cls-28{fill:#f8e391;}.cls-29,.cls-30{fill-rule:evenodd;}.cls-30{fill:#f48e48;}.cls-31{clip-path:url(#clip-path-4);}.cls-32{fill:#ffeea4;}.cls-33{fill:#963a38;}.cls-34{fill:#e5b267;}.cls-35{fill:#c9862f;opacity:0.34;}.cls-36{clip-path:url(#clip-path-5);}.cls-37{fill:#f7c786;}.cls-38{clip-path:url(#clip-path-6);}.cls-39{fill:#f7941e;}.cls-40{fill:#d37a1a;}.cls-41{clip-path:url(#clip-path-7);}.cls-42{fill:#ef4440;}.cls-43{fill:#e21414;}.cls-44{clip-path:url(#clip-path-8);}.cls-45{fill:#ea6a0c;}.cls-46{fill:#dd4137;}.cls-47{clip-path:url(#clip-path-9);}.cls-48{fill:#fbb040;}.cls-49{clip-path:url(#clip-path-10);}.cls-50{fill:#ff960b;}.cls-51{fill:#ffa50a;}.cls-52{fill:#fffbca;}.cls-53{fill:#5dc8dd;}.cls-54{fill:#1e0e00;}.cls-55{fill:#965028;}.cls-56{clip-path:url(#clip-path-11);}.cls-57{fill:#c8e6eb;}.cls-58{fill:#f5415f;}.cls-59{fill:#55c7a6;}.cls-60{clip-path:url(#clip-path-12);}.cls-61{clip-path:url(#clip-path-13);}.cls-62{fill:#ffcd62;}.cls-63{fill:#630;}.cls-64{clip-path:url(#clip-path-14);}.cls-65{fill:#ffd7db;}.cls-66{fill:#defaff;}.cls-67{fill:#d1384c;}.cls-68{fill:#ff526e;}.cls-69{fill:#9bff42;}.cls-70{clip-path:url(#clip-path-15);}.cls-71{fill:#7c2836;}.cls-72{fill:#f59196;}.cls-73{fill:#933;}</style><clipPath id="clip-path"><rect id="SVGID" class="cls-1" x="76.46" y="14.27" width="447.08" height="371.47" rx="8" ry="8"/></clipPath><clipPath id="clip-path-2"><circle id="SVGID-2" data-name="SVGID" class="cls-2" cx="301.82" cy="83.48" r="40"/></clipPath><clipPath id="clip-path-3"><path id="SVGID-3" data-name="SVGID" class="cls-2" d="M304.76,101.39a10.06,10.06,0,0,1-8.52-1.37l-.12-.08c-4-2.78-8.69,3.49-3.91,8.12s12.84,5,16.91,1C312.68,105.6,310.44,99.8,304.76,101.39Z"/></clipPath><clipPath id="clip-path-4"><circle id="SVGID-4" data-name="SVGID" class="cls-2" cx="153.73" cy="210.56" r="25.78"/></clipPath><clipPath id="clip-path-5"><path id="SVGID-5" data-name="SVGID" class="cls-2" d="M162.74,202.46s16.35,7.49,15.32-13.09c0,0,10.23,25.45-13.37,23.23Z"/></clipPath><clipPath id="clip-path-6"><path id="SVGID-6" data-name="SVGID" class="cls-2" d="M143.06,202.46s-16.35,7.49-15.31-13.09c0,0-10.23,25.45,13.36,23.23Z"/></clipPath><clipPath id="clip-path-7"><path id="SVGID-7" data-name="SVGID" class="cls-2" d="M151.26,215.37a6.68,6.68,0,0,0,6.61-.47l.1-.06c3.22-2.14,6.41,3.89,2.43,7.62s-10.17,3.37-13-.57C144.92,218.44,147,213.45,151.26,215.37Z"/></clipPath><clipPath id="clip-path-8"><path id="SVGID-8" data-name="SVGID" class="cls-2" d="M151.26,215.37a6.71,6.71,0,0,0,6.61-.47l.1-.07c3.22-2.14,6.41,3.9,2.43,7.62s-10.17,3.38-13-.56C144.92,218.44,147,213.44,151.26,215.37Z"/></clipPath><clipPath id="clip-path-9"><path id="SVGID-9" data-name="SVGID" class="cls-2" d="M139.13,202.68l15.43-26L167.63,203S155.85,197.32,139.13,202.68Z"/></clipPath><clipPath id="clip-path-10"><circle id="SVGID-10" data-name="SVGID" class="cls-2" cx="219.86" cy="210.56" r="25.78"/></clipPath><clipPath id="clip-path-11"><circle id="SVGID-11" data-name="SVGID" class="cls-2" cx="286" cy="210.56" r="25.78"/></clipPath><clipPath id="clip-path-12"><circle id="SVGID-12" data-name="SVGID" class="cls-2" cx="352.13" cy="210.56" r="25.78"/></clipPath><clipPath id="clip-path-13"><path id="SVGID-13" data-name="SVGID" class="cls-2" d="M342.28,213v0c0,5.84,4.39,10.57,9.81,10.57s9.81-4.73,9.81-10.57v0Z"/></clipPath><clipPath id="clip-path-14"><circle id="SVGID-14" data-name="SVGID" class="cls-2" cx="153.73" cy="324.9" r="25.78"/></clipPath><clipPath id="clip-path-15"><circle id="SVGID-15" data-name="SVGID" class="cls-2" cx="220.3" cy="324.9" r="25.78"/></clipPath></defs><title>how-youtuber-2</title><g class="cls-3"><rect class="cls-4" x="96.9" y="20.72" width="363.41" height="253.72"/><rect class="cls-5" x="76.46" y="14.27" width="447.08" height="371.47"/><g class="cls-6"><rect class="cls-7" x="241.08" y="26.34" width="117.71" height="117.71"/><path class="cls-8" d="M250.47,108.28c8,4.17,19.39,3,21,2.8l-.68-5.77c-4.71.56-17.7.66-21.29-5.44-2.66-4.54,0-12.54,7.66-23.15l-4.71-3.4c-9.39,13-12,22.63-8,29.5A14.57,14.57,0,0,0,250.47,108.28Z"/><path class="cls-8" d="M352.54,121.22c-6.19-6.43-18.35-7.85-20.09-8l-2,6.43c5.05.51,18.34,3.48,19.13,10.95.59,5.57-5.85,13.63-18.62,23.33l3.19,4.81C349.8,146.84,357,137,356.06,128.56A12.32,12.32,0,0,0,352.54,121.22Z"/><path class="cls-9" d="M338,165c2.18-50.21-9.13-74.31-19.61-85.81l0,0a26.56,26.56,0,0,1-10.75,4.4,33.09,33.09,0,0,1-10.4-.67c-4.71-.88-9.72-2.46-13-5.79l-.33.29c-19.7,18-27,59.42-29.5,80.55a28.33,28.33,0,0,0,9.79,25c19.26,16.31,41,12.87,55.68,7.26A28.32,28.32,0,0,0,338,165Z"/><path class="cls-8" d="M338,165c1.06-24.5-1.08-42.77-4.78-56.41q-.08,2-.18,4c-.88,15.43-2.53,31.16-11.18,44.44-4,6.18-9.16,11.28-16,14.24a45.69,45.69,0,0,1-20.53,3.22c-6.35-.34-12.69-1.81-18-5.38A31.13,31.13,0,0,1,257,157c-.71-1.44-1.34-2.91-1.91-4.4-.27,1.94-.5,3.77-.7,5.47a28.33,28.33,0,0,0,9.79,25c19.26,16.31,41,12.87,55.68,7.26A28.32,28.32,0,0,0,338,165Z"/><path class="cls-10" d="M294.29,94.76c-.25,2-.9,3.57-1.46,3.5s-.82-1.75-.57-3.75.91-3.57,1.47-3.5S294.54,92.76,294.29,94.76Z"/><path class="cls-10" d="M309.31,96.62c-.25,2-.9,3.57-1.47,3.5s-.81-1.75-.56-3.75.9-3.57,1.46-3.5S309.56,94.62,309.31,96.62Z"/><path class="cls-10" d="M304.76,101.39a10.06,10.06,0,0,1-8.52-1.37l-.12-.08c-4-2.78-8.69,3.49-3.91,8.12s12.84,5,16.91,1C312.68,105.6,310.44,99.8,304.76,101.39Z"/><g class="cls-11"><path class="cls-12" d="M292.18,108.24s.09-5,7.51-.16c0,0,7-3.15,8.28,2.1C308,110.18,300.85,115.75,292.18,108.24Z"/></g><path class="cls-8" d="M327.56,106.82A7.92,7.92,0,1,1,321,98.45,7.92,7.92,0,0,1,327.56,106.82Z"/><path class="cls-8" d="M289.68,102.12a7.92,7.92,0,1,1-6.52-8.36A7.92,7.92,0,0,1,289.68,102.12Z"/><path class="cls-13" d="M297.92,113.68c0,.35.54.7,1.31.8s1.42-.11,1.46-.45-.54-.7-1.31-.8S298,113.34,297.92,113.68Z"/><path class="cls-14" d="M284.2,77.18s13-6.09,34.21,2C318.41,79.22,303.24,92.84,284.2,77.18Z"/><path class="cls-15" d="M286,78.45s9.54-4.9,30.92,1.78C316.93,80.23,305.48,90.6,286,78.45Z"/><circle class="cls-16" cx="323.79" cy="61.27" r="4.79" transform="translate(-2.16 109.75) rotate(-19.17)"/><circle class="cls-16" cx="300.43" cy="34.32" r="2.92" transform="translate(161.25 302.77) rotate(-69.11)"/><path class="cls-16" d="M306.57,34.67a1.23,1.23,0,0,1-1.37,1.06,1.21,1.21,0,0,1-1.06-1.36,1.22,1.22,0,0,1,1.36-1.07A1.24,1.24,0,0,1,306.57,34.67Z"/><path class="cls-16" d="M303.41,36.16a1.16,1.16,0,1,1-.34,1.61A1.16,1.16,0,0,1,303.41,36.16Z"/><circle class="cls-17" cx="322.98" cy="59.22" r="1.83" transform="translate(32.07 211.51) rotate(-38.02)"/><path class="cls-13" d="M284.12,77.19s16.26,17.59,34.37,2C318.49,79.2,303.34,87.36,284.12,77.19Z"/><path class="cls-18" d="M247.31,75.59s.33-2.47,4.95-8.07l6.24,7.6S253.7,80.56,247.31,75.59Z"/><path class="cls-8" d="M250.79,79.24S261.66,82,260.18,73c0,0-1.16-5.71-2.72-1.13-1,3-2.88,5.12-9.36,2C248.1,73.87,245.06,77.17,250.79,79.24Z"/><path class="cls-8" d="M255,72.71h0a1.59,1.59,0,0,1-1.15-1.94L255,65.92A1.6,1.6,0,0,1,257,64.77h0a1.6,1.6,0,0,1,1.16,1.94l-1.24,4.85A1.59,1.59,0,0,1,255,72.71Z"/><path class="cls-19" d="M317.63,36.73l-.95.46a18.41,18.41,0,0,1,.9,2.17l1-.33A20.2,20.2,0,0,0,317.63,36.73Z"/><path class="cls-19" d="M315.79,33.54l-.86.6a20.43,20.43,0,0,1,1.22,2l.93-.5A21.78,21.78,0,0,0,315.79,33.54Z"/><path class="cls-19" d="M313.42,30.68l-.71.77a21.41,21.41,0,0,1,1.54,1.75l.83-.64A18.45,18.45,0,0,0,313.42,30.68Z"/><path class="cls-19" d="M310.48,28.39l-.51.93a13.41,13.41,0,0,1,1.9,1.36l.65-.83A15.19,15.19,0,0,0,310.48,28.39Z"/><path class="cls-19" d="M307,27l-.25,1a12.21,12.21,0,0,1,2.2.77l.42-1A12.34,12.34,0,0,0,307,27Z"/><path class="cls-19" d="M303.31,26.68v1.05a12.94,12.94,0,0,1,2.33.08l.17-1A13.15,13.15,0,0,0,303.31,26.68Z"/><path class="cls-19" d="M299.64,27.34l.28,1a10.83,10.83,0,0,1,1.12-.29,11.58,11.58,0,0,1,1.15-.21l-.1-1.05a10.75,10.75,0,0,0-1.24.22C300.45,27.12,300,27.2,299.64,27.34Z"/><path class="cls-19" d="M296.19,28.75l.51.92,1.05-.52,1.08-.44-.36-1-1.16.47Z"/><path class="cls-19" d="M293.23,31.07l.77.71a3.87,3.87,0,0,1,.4-.41l.43-.39c.29-.25.6-.47.91-.71l-.6-.87c-.33.26-.68.51-1,.78l-.47.43A3.84,3.84,0,0,0,293.23,31.07Z"/><path class="cls-19" d="M291.22,34.27l1,.38.23-.52.12-.26a2,2,0,0,1,.14-.25l.28-.5c.1-.16.22-.32.33-.47l-.86-.62c-.12.18-.25.35-.36.53l-.32.56-.15.27-.13.3Z"/><path class="cls-19" d="M290.44,38l1.05.06c.05-.39.06-.78.13-1.15,0-.19.06-.39.1-.57l.14-.56-1-.27-.15.61c0,.21-.07.42-.11.62C290.5,37.11,290.49,37.53,290.44,38Z"/><path class="cls-19" d="M290.65,41.65l1-.16a16.81,16.81,0,0,1-.21-2.34l-1.05,0A17.06,17.06,0,0,0,290.65,41.65Z"/><path class="cls-19" d="M291.52,45.23l1-.32a22.54,22.54,0,0,1-.61-2.28l-1,.22A23.82,23.82,0,0,0,291.52,45.23Z"/><path class="cls-19" d="M292.87,48.65l.95-.45c-.34-.72-.64-1.45-.92-2.19l-1,.36C292.2,47.15,292.52,47.9,292.87,48.65Z"/><path class="cls-8" d="M251.93,71.94h0A1.61,1.61,0,0,1,250.77,70L252,65.15A1.59,1.59,0,0,1,254,64h0a1.59,1.59,0,0,1,1.15,1.94l-1.23,4.85A1.6,1.6,0,0,1,251.93,71.94Z"/><path class="cls-20" d="M306.52,72.06a1.39,1.39,0,0,1,2,.23,1.1,1.1,0,0,1,0,1.5,11.81,11.81,0,0,1-9.43,3.67,1.09,1.09,0,0,1-.95-.71,1.69,1.69,0,0,1,.83-2Z"/><path class="cls-20" d="M300.89,53s6.85-1.51,11.52,9.38L307.82,65Z"/><path class="cls-20" d="M308,58.79A17.32,17.32,0,0,0,301.66,53a4.06,4.06,0,0,0-.77.06L307.82,65l2.34-1.3A19.11,19.11,0,0,0,308,58.79Z"/><path class="cls-20" d="M290.18,57.49s-5.89,3.82-1.42,14.79l5-1.47Z"/><path class="cls-20" d="M289.31,66.61a17.43,17.43,0,0,1,.28-8.62,4.69,4.69,0,0,1,.59-.5l3.62,13.32-2.56.75A18.45,18.45,0,0,1,289.31,66.61Z"/><path class="cls-21" d="M292.7,48.79s-5.78,8.43-.78,19.54,11.94,7.14,11.94,7.14,7.7-2.16,3.3-13.52S292.7,48.79,292.7,48.79Z"/><path class="cls-22" d="M305,57.75c1.4,3.9,1.51,8.28-.48,11.61-1.51,2.51-5,4.41-8.53,4.88a7,7,0,0,0,7.83,1.23s7.7-2.16,3.3-13.52A23.2,23.2,0,0,0,305,57.75Z"/><path class="cls-20" d="M299.91,52.22a19.11,19.11,0,0,0-7.21-3.43A19.34,19.34,0,0,0,290,57.05,12.63,12.63,0,0,0,299.91,52.22Z"/><path class="cls-20" d="M302.12,61a3.9,3.9,0,1,1-5.1-2.09A3.9,3.9,0,0,1,302.12,61Z"/><path class="cls-23" d="M300.88,61.52a2.56,2.56,0,1,1-3.34-1.37A2.56,2.56,0,0,1,300.88,61.52Z"/><path class="cls-24" d="M297,62.94a1.77,1.77,0,0,1,.83-1.33,5.45,5.45,0,0,0,.89-.62,1.55,1.55,0,0,0,.24-.38,1.75,1.75,0,0,0-1.65-.17,1.72,1.72,0,0,0-.92,2.26,1.71,1.71,0,0,0,.72.82A1.16,1.16,0,0,1,297,62.94Z"/><path class="cls-25" d="M296.61,53.81a.69.69,0,0,1-.53-1.27"/><path class="cls-25" d="M297.56,59.31a.34.34,0,0,1-.18.45.35.35,0,0,1-.46-.18.36.36,0,0,1,.19-.46A.35.35,0,0,1,297.56,59.31Z"/><path class="cls-25" d="M299.77,59.21a.35.35,0,0,1-.18.46.34.34,0,0,1-.45-.19.33.33,0,0,1,.18-.45A.34.34,0,0,1,299.77,59.21Z"/><path class="cls-25" d="M301.86,60.92a.36.36,0,0,1-.19.46.35.35,0,0,1-.45-.19.35.35,0,0,1,.64-.27Z"/><path class="cls-25" d="M301.81,63.75a.33.33,0,0,1-.18.45.34.34,0,0,1-.45-.18.34.34,0,1,1,.63-.27Z"/><path class="cls-25" d="M300.13,65.45a.35.35,0,0,1-.19.45.34.34,0,0,1-.45-.18.36.36,0,0,1,.19-.46A.35.35,0,0,1,300.13,65.45Z"/><path class="cls-25" d="M297.47,65.37a.34.34,0,0,1-.19.45.34.34,0,0,1-.45-.18.35.35,0,0,1,.18-.46A.36.36,0,0,1,297.47,65.37Z"/><path class="cls-25" d="M295.9,64a.34.34,0,0,1-.18.45.36.36,0,0,1-.46-.19.35.35,0,0,1,.19-.45A.34.34,0,0,1,295.9,64Z"/><path class="cls-25" d="M295.84,61.23a.35.35,0,0,1-.18.46.36.36,0,0,1-.46-.19.34.34,0,0,1,.19-.45A.34.34,0,0,1,295.84,61.23Z"/><path class="cls-20" d="M308.19,73.54c.85.79,1.27,1.72.95,2s-1.26,0-2.11-.83-1.27-1.72-.95-2.06S307.34,72.74,308.19,73.54Z"/><path class="cls-20" d="M305.08,76c.45,1.08.46,2.09,0,2.27s-1.15-.54-1.59-1.62-.47-2.09,0-2.27S304.63,74.93,305.08,76Z"/><path class="cls-20" d="M299.29,77.26c0,1.16.33,2.11.79,2.12s.87-.92.89-2.08-.33-2.12-.8-2.13S299.31,76.1,299.29,77.26Z"/><polygon class="cls-26" points="325 50.76 325.48 51.75 326.57 51.91 325.79 52.67 325.97 53.76 325 53.25 324.02 53.76 324.21 52.67 323.42 51.91 324.51 51.75 325 50.76"/><polygon class="cls-26" points="328.77 65.58 328.94 65.92 329.31 65.98 329.04 66.25 329.1 66.62 328.77 66.44 328.43 66.62 328.49 66.25 328.22 65.98 328.6 65.92 328.77 65.58"/><polygon class="cls-26" points="278.28 72.03 278.77 73.02 279.86 73.18 279.07 73.95 279.25 75.03 278.28 74.52 277.3 75.03 277.49 73.95 276.7 73.18 277.79 73.02 278.28 72.03"/><polygon class="cls-26" points="279.71 70.69 279.85 70.98 280.18 71.03 279.94 71.26 280 71.58 279.71 71.43 279.42 71.58 279.47 71.26 279.24 71.03 279.56 70.98 279.71 70.69"/><polygon class="cls-26" points="278.64 76.48 278.82 76.86 279.24 76.92 278.94 77.22 279.01 77.63 278.64 77.44 278.27 77.63 278.34 77.22 278.04 76.92 278.45 76.86 278.64 76.48"/><polygon class="cls-26" points="306.38 62.74 306.6 63.19 307.1 63.26 306.74 63.61 306.82 64.11 306.38 63.87 305.93 64.11 306.02 63.61 305.66 63.26 306.16 63.19 306.38 62.74"/><polygon class="cls-26" points="309.2 39.46 309.69 40.45 310.78 40.6 309.99 41.38 310.18 42.46 309.2 41.95 308.23 42.46 308.42 41.38 307.63 40.6 308.72 40.45 309.2 39.46"/><polygon class="cls-26" points="305.05 29.81 305.33 30.38 305.96 30.47 305.5 30.92 305.61 31.55 305.05 31.25 304.48 31.55 304.59 30.92 304.13 30.47 304.76 30.38 305.05 29.81"/><path class="cls-27" d="M330.27,56.62a.48.48,0,0,1-.48.48.49.49,0,1,1,.48-.48Z"/><path class="cls-27" d="M331,53.07a.61.61,0,1,1-.6-.6A.6.6,0,0,1,331,53.07Z"/><path class="cls-27" d="M290,36.49a.48.48,0,1,1-.48-.49A.48.48,0,0,1,290,36.49Z"/><path class="cls-27" d="M290.7,32.94a.61.61,0,1,1-.61-.6A.61.61,0,0,1,290.7,32.94Z"/><circle class="cls-27" cx="327.56" cy="48.44" r="0.65"/><circle class="cls-27" cx="330.66" cy="62.27" r="0.39"/><path class="cls-27" d="M276.53,63.83a.72.72,0,1,1-.72-.72A.72.72,0,0,1,276.53,63.83Z"/><path class="cls-27" d="M305.24,65.48a.62.62,0,1,1-1.24,0,.62.62,0,0,1,1.24,0Z"/><path class="cls-27" d="M319.11,74.64a.35.35,0,1,1-.35-.35A.36.36,0,0,1,319.11,74.64Z"/><path class="cls-9" d="M291.7,75.93a.79.79,0,1,1-.79-.78A.79.79,0,0,1,291.7,75.93Z"/><path class="cls-9" d="M326.18,48.05a.72.72,0,1,1-.72-.72A.72.72,0,0,1,326.18,48.05Z"/><circle class="cls-27" cx="296.83" cy="41.34" r="0.65"/><path class="cls-9" d="M295.44,41A.72.72,0,1,1,294,41a.72.72,0,0,1,1.44,0Z"/><path class="cls-9" d="M328.58,53.81a.51.51,0,0,1-1,0,.51.51,0,0,1,1,0Z"/><polygon class="cls-26" points="288.63 41.87 288.15 42.86 287.06 43.02 287.85 43.79 287.66 44.88 288.63 44.36 289.61 44.88 289.42 43.79 290.21 43.02 289.12 42.86 288.63 41.87"/><path class="cls-27" d="M282.63,44.19a.61.61,0,1,0,.6-.61A.6.6,0,0,0,282.63,44.19Z"/><path class="cls-27" d="M285.41,39.55a.66.66,0,0,0,.66.65.65.65,0,0,0,0-1.3A.66.66,0,0,0,285.41,39.55Z"/><path class="cls-9" d="M287.45,39.17a.72.72,0,0,0,1.44,0,.72.72,0,1,0-1.44,0Z"/><circle class="cls-9" cx="285.56" cy="44.93" r="0.51"/><path class="cls-9" d="M318.83,67.27a.45.45,0,0,1-.46.46.46.46,0,0,1-.46-.46.47.47,0,0,1,.46-.46A.46.46,0,0,1,318.83,67.27Z"/><path class="cls-9" d="M307.46,66.47a.58.58,0,0,1-.58.57.58.58,0,0,1,0-1.15A.58.58,0,0,1,307.46,66.47Z"/><path class="cls-9" d="M279.6,67.25a.49.49,0,0,1-.48.48.48.48,0,0,1-.48-.48.47.47,0,0,1,.48-.48A.48.48,0,0,1,279.6,67.25Z"/><path class="cls-9" d="M331.8,65a.4.4,0,1,1-.4-.4A.4.4,0,0,1,331.8,65Z"/><path class="cls-8" d="M249,71.24h0a1.6,1.6,0,0,1-1.15-1.94L249,64.45A1.6,1.6,0,0,1,251,63.3h0a1.6,1.6,0,0,1,1.16,1.94l-1.23,4.85A1.6,1.6,0,0,1,249,71.24Z"/><path class="cls-28" d="M313.23,69.91c0-.13.23-.18.49-.08a28.26,28.26,0,0,1,5.12,2.85,29.35,29.35,0,0,1,4.61,3.63c.19.2.21.39.11.49l1.3.87,0,0c.62-.92-3.46-4-5.7-5.48s-6.63-4.08-7.25-3.16a0,0,0,0,1,0,0Z"/><path class="cls-29" d="M314.62,70.68a4.63,4.63,0,1,0,6.43-1.29A4.63,4.63,0,0,0,314.62,70.68Z"/><path class="cls-30" d="M321.78,70c-.67.7-.21,1.86-.55,2.77-.25.66-.75.61-1.34.48s-2.08-.37-1.73.53c.18.48.66.8.82,1.3.35,1.09-1.13,1.29-1.88,1.18a5.7,5.7,0,0,1-3-1.46,4.63,4.63,0,1,0,7.67-4.8Z"/><path class="cls-28" d="M324.91,77.21l-1.69-1.13.23.23c.35.37.13.71-.35.52A28.26,28.26,0,0,1,318,74a29.35,29.35,0,0,1-4.61-3.63c-.35-.37-.13-.71.35-.52a2.34,2.34,0,0,1,.3.12l-1.69-1.13a.48.48,0,0,0-.4.19c-.61.92,3.46,4,5.7,5.48s6.64,4.08,7.25,3.16A.51.51,0,0,0,324.91,77.21Z"/><polygon class="cls-26" points="324.1 81.46 324.45 82.16 325.22 82.27 324.66 82.81 324.79 83.58 324.1 83.22 323.41 83.58 323.54 82.81 322.99 82.27 323.76 82.16 324.1 81.46"/></g></g><rect id="SVGID-16" data-name="SVGID" class="cls-1" x="76.46" y="14.27" width="447.08" height="371.47" rx="8" ry="8"/><g class="cls-31"><rect class="cls-32" x="114.58" y="173.73" width="75.87" height="75.87"/><path class="cls-33" d="M139.13,202.68s15-6.73,28.5.32C167.63,203,150.27,207.1,139.13,202.68Z"/><path class="cls-34" d="M162.74,202.46s16.35,7.49,15.32-13.09c0,0,10.23,25.45-13.37,23.23Z"/><path class="cls-35" d="M178.26,204.62c-3.89,2.53-11.41,2.73-15.28-.62l1.65,8.6c11,1,14.62-3.91,15.4-9.49A9.38,9.38,0,0,1,178.26,204.62Z"/><g class="cls-36"><path class="cls-37" d="M166.68,201.06s-3.19,9.19,3.5,14.52l.72-.48s-6-4.57-3.52-14Z"/><path class="cls-37" d="M171.07,199.32s-1.87,9.55,5.5,13.89l.65-.57s-6.59-3.68-5.46-13.42Z"/><path class="cls-37" d="M173.81,195.42s.85,9.69,9.13,11.83l.47-.73s-7.35-1.71-9-11.38Z"/><path class="cls-37" d="M174.28,189.67s2.53,9.39,11.06,10l.33-.8s-7.54-.4-10.81-9.64Z"/></g><path class="cls-34" d="M143.06,202.46s-16.35,7.49-15.31-13.09c0,0-10.23,25.45,13.36,23.23Z"/><path class="cls-35" d="M127.55,204.62c3.89,2.53,11.41,2.73,15.28-.62l-1.65,8.6c-11,1-14.62-3.91-15.4-9.49A9.08,9.08,0,0,0,127.55,204.62Z"/><g class="cls-38"><path class="cls-37" d="M139.13,201.06s3.18,9.19-3.5,14.52l-.73-.48s6-4.57,3.53-14Z"/><path class="cls-37" d="M134.74,199.32s1.86,9.55-5.5,13.89l-.65-.57s6.59-3.68,5.46-13.42Z"/><path class="cls-37" d="M132,195.42s-.84,9.69-9.12,11.83l-.47-.73s7.35-1.71,8.95-11.38Z"/><path class="cls-37" d="M131.53,189.67s-2.53,9.39-11.06,10l-.33-.8s7.54-.4,10.81-9.64Z"/></g><path class="cls-39" d="M149.1,198.63s-1.86-1.91-.52-1.79a5.52,5.52,0,0,1,2.42.89s-1.86-2.06-.56-2.13,3.36,2,3.36,2,2.9-2.92,3.42-2.53-1.45,2.88-1.45,2.88,2.76-1.48,2.91-.2-1.77,1.87-1.77,1.87,3.86-.57,10,4.09c0,0,.77,1-.45,1.12,0,0,10.14,10.8,8.65,12.2,0,0-.6.08-.7,0s15.82,54.57-5,49.59c0,0,.61,1,.09,1.11s-1.7-.78-1.7-.78.06.39-.2.43-.43-.43-.43-.43.5.84-.11,1-1.55-.52-1.55-.52l-17.77.43a.78.78,0,0,1-1,.67,14.24,14.24,0,0,1-1.81-.88c0,.08-1.4,1.15-2.07.93s-1.14-1.35-1.14-1.35-21.51,8.61-7.65-47.87c0,0-1.4,1.55-1.39,0,0-.66,3.68-15.55,9.84-17.83C142.43,201.56,139,200.57,149.1,198.63Z"/><path class="cls-40" d="M178.27,234c-.07.51-.14,1-.24,1.53-.34,1.78-2.07,6.9-4.3,5.59.06,2.59-.66,5.84-3.59,5.22.09,2.36-1.31,5.07-3.77,4.08-.79,3.11-3.61,3.41-6.4,2.42-.62,2.16-1.38,3.95-4,3.93s-5.52-1.1-6.93-3.37c-3.2,3.81-9-.22-10.06-4.36-1.88,1.06-4.22,2.68-6.34,1.85s-2.76-3.39-3.12-5.59c-1.92,27.62,12.12,22,12.12,22s.47,1.14,1.14,1.35,2-.85,2.07-.93a14.24,14.24,0,0,0,1.81.88.78.78,0,0,0,1-.67l17.77-.43s.93.7,1.55.52c.42-.12.31-.56.2-.81.08.12.19.25.34.23s.2-.43.2-.43,1.18.92,1.7.78-.09-1.11-.09-1.11C182.41,269.76,181.09,249.52,178.27,234Z"/><path class="cls-10" d="M151.26,215.37a6.68,6.68,0,0,0,6.61-.47l.1-.06c3.22-2.14,6.41,3.89,2.43,7.62s-10.17,3.37-13-.57C144.92,218.44,147,213.45,151.26,215.37Z"/><g class="cls-41"><path class="cls-42" d="M160.42,222.62s.27-4.53-5.74-.81c0,0-5.14-3.44-6.48,1.15C148.2,223,153.27,228.57,160.42,222.62Z"/><path class="cls-43" d="M154.83,223.7a.74.74,0,0,1-.88-.11,10.75,10.75,0,0,0-4.35-2.65,3.27,3.27,0,0,0-1.4,2s4.48,5,11,.61C158.25,222.12,155.94,222.92,154.83,223.7Z"/></g><g class="cls-44"><path class="cls-4" d="M150.74,214.42s.5,2.17-.27,2.72a2.87,2.87,0,0,1-1.94.06c-.83-.69-.74-2.84-.74-2.84S150.33,212.84,150.74,214.42Z"/><path class="cls-4" d="M153.44,214.81s.5,2.17-.27,2.72a3,3,0,0,1-1.94.06c-.83-.7-.74-2.84-.74-2.84S153,213.22,153.44,214.81Z"/><path class="cls-4" d="M156.86,214.81s.5,2.17-.27,2.72a3,3,0,0,1-1.94.06c-.83-.7-.74-2.84-.74-2.84S156.45,213.22,156.86,214.81Z"/><path class="cls-4" d="M159.5,214.42s.51,2.17-.27,2.72a2.84,2.84,0,0,1-1.93.06c-.84-.69-.75-2.84-.75-2.84S159.09,212.84,159.5,214.42Z"/></g><ellipse class="cls-10" cx="160.01" cy="212.24" rx="0.94" ry="1.36"/><ellipse class="cls-10" cx="148.13" cy="212.24" rx="0.94" ry="1.36"/><circle class="cls-40" cx="165.67" cy="214.28" r="3.34"/><path class="cls-40" d="M139.72,214.75a3.35,3.35,0,1,0,3.34-3.34A3.34,3.34,0,0,0,139.72,214.75Z"/><path class="cls-45" d="M166.25,243.92s.42,2.34-2.55,2.73a.58.58,0,0,1-.5-1,5.32,5.32,0,0,1,1.62-1s-3,1.27-3.13.43,2.7-1.07,2.7-1.07-2.77.05-2.71-.65,2.82-.21,2.82-.21-1.69-.4-1.52-1.2S166.48,241.51,166.25,243.92Z"/><path class="cls-45" d="M183.84,228.68c-1.08-2.35-4.86-2.94-7.21-2.73.11.48.22,1,.34,1.52a8.24,8.24,0,0,1,3.19.38,3.93,3.93,0,0,1,2,1.23,2.58,2.58,0,0,1,.28,2.39,12.65,12.65,0,0,1-3.89,5.95,21.79,21.79,0,0,1-12.63,5.94c-1,.1-1,1.66,0,1.55a23.3,23.3,0,0,0,15.71-8.56C183.08,234.46,185,231.16,183.84,228.68Z"/><path class="cls-45" d="M142.5,245.54s-.43,2.34,2.55,2.73a.58.58,0,0,0,.5-1,5.53,5.53,0,0,0-1.62-1s3,1.27,3.13.44-2.7-1.08-2.7-1.08,2.77.06,2.71-.65-2.82-.21-2.82-.21,1.69-.4,1.52-1.2S142.27,243.13,142.5,245.54Z"/><path class="cls-45" d="M124.9,230.3c1.09-2.35,4.87-2.94,7.22-2.73-.11.48-.19,1-.31,1.54a8.57,8.57,0,0,0-3.22.36,4,4,0,0,0-2,1.23,2.58,2.58,0,0,0-.28,2.39,12.6,12.6,0,0,0,3.89,5.95A21.73,21.73,0,0,0,142.86,245c1,.11,1,1.66,0,1.55A23.26,23.26,0,0,1,127.15,238C125.67,236.08,123.76,232.78,124.9,230.3Z"/><path class="cls-46" d="M139.13,202.68l15.43-26L167.63,203S155.85,197.32,139.13,202.68Z"/><path class="cls-33" d="M155.51,176.94a1.54,1.54,0,0,1-1.73.15c-.94-.53-2.23-1.39-1.52-1.83,1.05-.66,2,1.14,2,1.14s-.36-2.27.35-2,.28,2,.28,2,.16-1.77,1.5-1.37C157.28,175.3,156.33,176.29,155.51,176.94Z"/><g class="cls-47"><polygon class="cls-48" points="151.77 183.24 152.92 185.58 155.5 185.96 153.64 187.78 154.08 190.34 151.77 189.13 149.46 190.34 149.9 187.78 148.04 185.96 150.62 185.58 151.77 183.24"/><polygon class="cls-48" points="153.12 193.03 153.94 194.69 155.78 194.96 154.45 196.26 154.77 198.1 153.12 197.23 151.47 198.1 151.79 196.26 150.45 194.96 152.29 194.69 153.12 193.03"/><polygon class="cls-48" points="158.61 187.1 159.66 189.24 162.02 189.58 160.32 191.24 160.72 193.58 158.61 192.48 156.51 193.58 156.91 191.24 155.21 189.58 157.56 189.24 158.61 187.1"/><polygon class="cls-48" points="162.02 197.18 162.32 197.78 162.99 197.88 162.5 198.35 162.62 199.02 162.02 198.7 161.42 199.02 161.53 198.35 161.05 197.88 161.72 197.78 162.02 197.18"/><polygon class="cls-48" points="145.17 197.18 145.67 198.18 146.77 198.34 145.97 199.12 146.16 200.22 145.17 199.7 144.18 200.22 144.37 199.12 143.57 198.34 144.68 198.18 145.17 197.18"/><polygon class="cls-48" points="154.49 180.13 154.91 180.98 155.86 181.12 155.17 181.79 155.33 182.73 154.49 182.28 153.64 182.73 153.8 181.79 153.12 181.12 154.06 180.98 154.49 180.13"/></g></g><g class="cls-49"><rect class="cls-32" x="180.72" y="173.73" width="75.87" height="75.87"/><path class="cls-50" d="M219.72,189.86a1.87,1.87,0,0,0-1.87,1.87,1.82,1.82,0,0,0,.37,1.12,5.78,5.78,0,0,1,1,3.13v3.71a.54.54,0,0,0,1.07,0V196a5.69,5.69,0,0,1,1-3.13,1.87,1.87,0,0,0-1.5-3Z"/><path class="cls-50" d="M209.57,192.64a1.87,1.87,0,0,0,.19,3.34,5.7,5.7,0,0,1,2.4,2.23l1.86,3.21a.54.54,0,0,0,.93-.53l-1.86-3.22a5.68,5.68,0,0,1-.73-3.19,1.83,1.83,0,0,0-.24-1.15A1.87,1.87,0,0,0,209.57,192.64Z"/><path class="cls-50" d="M202.2,200.12a1.88,1.88,0,0,0,.69,2.56,1.81,1.81,0,0,0,1.15.23,5.86,5.86,0,0,1,3.19.73l3.22,1.86a.54.54,0,1,0,.53-.93l-3.21-1.86a5.68,5.68,0,0,1-2.23-2.39,1.84,1.84,0,0,0-.78-.88A1.88,1.88,0,0,0,202.2,200.12Z"/><path class="cls-50" d="M230.12,192.64a1.88,1.88,0,0,1,.69,2.56,1.84,1.84,0,0,1-.88.78,5.7,5.7,0,0,0-2.4,2.23l-1.85,3.21a.54.54,0,1,1-.93-.53l1.85-3.22a5.68,5.68,0,0,0,.73-3.19,1.89,1.89,0,0,1,.24-1.15A1.87,1.87,0,0,1,230.12,192.64Z"/><path class="cls-50" d="M237.52,200.12a1.88,1.88,0,0,1-.68,2.56,1.82,1.82,0,0,1-1.15.23,5.86,5.86,0,0,0-3.19.73l-3.22,1.86a.53.53,0,0,1-.73-.2.54.54,0,0,1,.19-.73l3.22-1.86a5.82,5.82,0,0,0,2.23-2.39,1.79,1.79,0,0,1,.78-.88A1.86,1.86,0,0,1,237.52,200.12Z"/><path class="cls-50" d="M218.38,234.21a2.12,2.12,0,0,1-2.12,2.13h0a2.13,2.13,0,0,1-2.13-2.13v-5.68a2.12,2.12,0,0,1,2.13-2.12h0a2.12,2.12,0,0,1,2.12,2.12Z"/><path class="cls-50" d="M224.88,234.21a2.12,2.12,0,0,1-2.12,2.13h0a2.13,2.13,0,0,1-2.13-2.13v-5.68a2.12,2.12,0,0,1,2.13-2.12h0a2.12,2.12,0,0,1,2.12,2.12Z"/><path class="cls-51" d="M234.56,227.94c0,11.84-6.59,21.43-14.71,21.43h0c-8.13,0-14.72-9.59-14.72-21.43v-9.77c0-11.84,6.59-21.44,14.72-21.44h0c8.12,0,14.71,9.6,14.71,21.44Z"/><path class="cls-52" d="M227.88,210.16a8,8,0,1,1-8-8A8,8,0,0,1,227.88,210.16Z"/><path class="cls-53" d="M223.27,210.16a3.43,3.43,0,1,1-3.42-3.43A3.43,3.43,0,0,1,223.27,210.16Z"/><path class="cls-54" d="M221.39,210.16a1.55,1.55,0,1,1-1.54-1.55A1.55,1.55,0,0,1,221.39,210.16Z"/><path class="cls-55" d="M219.72,221.28a7.75,7.75,0,0,1-2.65-.43,2.65,2.65,0,0,0,5.29,0A7.73,7.73,0,0,1,219.72,221.28Z"/></g><g class="cls-56"><rect class="cls-32" x="246.85" y="173.73" width="75.87" height="75.87"/><path class="cls-57" d="M306.38,240.86c0,.91-8.89,1.65-19.85,1.65s-19.86-.74-19.86-1.65,8.89-1.65,19.86-1.65S306.38,240,306.38,240.86Z"/><path class="cls-57" d="M279.84,196.49c1.09,2.1.6,3.51-.58,4.12s-2.6.19-3.69-1.91-1.61-5.47-.43-6.08S278.76,194.4,279.84,196.49Z"/><path class="cls-57" d="M291.8,196.49c-1.08,2.1-.59,3.51.59,4.12s2.6.19,3.69-1.91,1.61-5.47.43-6.08S292.89,194.4,291.8,196.49Z"/><path class="cls-46" d="M284.78,196.26s-4.2-7.4-2.44-6.34,2.06,4,2.06,4-.69-6.52,1.06-5.91,0,5.92,0,5.92,2.45-3.48,3.06-2.87S284.78,196.26,284.78,196.26Z"/><path class="cls-40" d="M302.74,221c1.84,2,4.74,3.45,5.72,2.53s-.33-3.9-2.18-5.86-3.52-2.16-4.5-1.24S300.89,219.08,302.74,221Z"/><path class="cls-58" d="M276.87,236.41c-.74,2.59-2.64,5.23-3.93,4.86s-1.49-3.62-.75-6.21,2.15-3.52,3.44-3.15S277.61,233.82,276.87,236.41Z"/><path class="cls-40" d="M268.91,221c-1.84,2-4.74,3.45-5.72,2.53s.33-3.9,2.18-5.86,3.52-2.16,4.5-1.24S270.76,219.08,268.91,221Z"/><path class="cls-58" d="M294.78,236.41c.74,2.59,2.64,5.23,3.93,4.86s1.49-3.62.75-6.21-2.15-3.52-3.44-3.15S294,233.82,294.78,236.41Z"/><path class="cls-51" d="M304.33,221.18c0,12.25-8.29,17.75-18.51,17.75s-18.5-5.5-18.5-17.75,8.29-26.61,18.5-26.61S304.33,208.93,304.33,221.18Z"/><path class="cls-40" d="M285.82,235.2c-9.69,0-17.64-5-18.43-15.92,0,.64-.07,1.27-.07,1.9,0,12.25,8.29,17.75,18.5,17.75s18.51-5.5,18.51-17.75c0-.63,0-1.26-.07-1.9C303.47,230.24,295.52,235.2,285.82,235.2Z"/><path class="cls-4" d="M279.66,212c0,2.18-1.07,3.95-2.4,3.95s-2.4-1.77-2.4-3.95,1.07-4,2.4-4S279.66,209.81,279.66,212Z"/><path class="cls-59" d="M278.28,212a1,1,0,1,1-1-1A1,1,0,0,1,278.28,212Z"/><path class="cls-4" d="M292,212c0,2.18,1.07,3.95,2.4,3.95s2.4-1.77,2.4-3.95-1.07-4-2.4-4S292,209.81,292,212Z"/><circle class="cls-59" cx="294.39" cy="211.99" r="1.02"/><path class="cls-55" d="M285.46,220.12c-8.21,0-14.64-2.38-14.64-5.43h.44c0,2.7,6.5,5,14.2,5s14.21-2.28,14.21-5h.44C300.11,217.74,293.68,220.12,285.46,220.12Z"/><circle class="cls-40" cx="297.23" cy="231.67" r="1.82"/><path class="cls-40" d="M289.71,232.32a.49.49,0,0,1-.49.5.5.5,0,1,1,0-1A.49.49,0,0,1,289.71,232.32Z"/><circle class="cls-40" cx="275.06" cy="226.77" r="0.59"/><path class="cls-40" d="M278.28,233.44a1.61,1.61,0,1,1-1.61-1.61A1.61,1.61,0,0,1,278.28,233.44Z"/></g><g class="cls-60"><rect class="cls-32" x="312.98" y="173.73" width="75.87" height="75.87"/><path class="cls-50" d="M365.09,222.13a8,8,0,0,1-3.5-.84c-5.32-2.62-4.91-8.77-4.89-9a1.84,1.84,0,0,1,2-1.74,1.88,1.88,0,0,1,1.68,2c0,.18-.2,3.82,2.81,5.3a4.1,4.1,0,0,0,4.81-.76c1.68-1.6,3.06-5.15,1.4-9.89a1.92,1.92,0,0,1,1.09-2.44,1.82,1.82,0,0,1,2.35,1.14c1.88,5.36.94,10.86-2.38,14A7.72,7.72,0,0,1,365.09,222.13Z"/><path class="cls-50" d="M338.41,222.13a7.07,7.07,0,0,1-5-2.23c-3.13-3.14-4-8.64-2.24-14a1.68,1.68,0,0,1,2.21-1.14,2,2,0,0,1,1,2.44c-1.57,4.74-.27,8.29,1.32,9.89a3.69,3.69,0,0,0,4.54.76c2.89-1.51,2.65-5.25,2.65-5.29a1.84,1.84,0,0,1,1.58-2,1.78,1.78,0,0,1,1.86,1.74c0,.26.4,6.41-4.61,9A7.19,7.19,0,0,1,338.41,222.13Z"/><path class="cls-51" d="M363.57,234h-23c-3.54-12.35-4.91-28.35-2.87-39.87,1.15-.29,3.35,6.75,4.51,6.53a50.08,50.08,0,0,1,19.7.09c1.16.2,3.5-6.87,4.67-6.62C368.49,206.82,367.63,222.68,363.57,234Z"/><path class="cls-50" d="M357.13,228.37h-9.84a8.66,8.66,0,0,1-8.46-6.84,90.51,90.51,0,0,1-2.08-15.74c-.36,9.15,1.23,23.92,3.94,33.35h23c3-8.3,4.07-22.4,3.75-31.6a71.51,71.51,0,0,1-1.89,14.16A8.66,8.66,0,0,1,357.13,228.37Z"/><path class="cls-55" d="M342.28,213v0c0,5.84,4.39,10.57,9.81,10.57s9.81-4.73,9.81-10.57v0Z"/><ellipse cx="346.13" cy="209.92" rx="0.97" ry="1.47"/><ellipse cx="358.36" cy="209.92" rx="0.97" ry="1.47"/><path class="cls-4" d="M345.11,213s-.6,3.14,0,3.84,2.18-3.84,2.18-3.84Z"/><path class="cls-4" d="M359.07,213s.6,3.14,0,3.84S356.9,213,356.9,213Z"/><g class="cls-61"><path class="cls-4" d="M348.08,223s.37-2.84.83-2.94,1.25,4.13,1.25,4.13Z"/><path class="cls-4" d="M356.11,223s-.37-2.84-.83-2.94-1.25,4.13-1.25,4.13Z"/></g></g><path class="cls-62" d="M403.55,155.38H127.65a8.92,8.92,0,1,0,.13,17.84h275.9a8.92,8.92,0,1,0-.13-17.84Z"/><path class="cls-62" d="M127.62,151.55a12.75,12.75,0,1,0,12.84,12.66A12.74,12.74,0,0,0,127.62,151.55Z"/><path class="cls-4" d="M135,164.25a7.33,7.33,0,1,1-7.38-7.28A7.33,7.33,0,0,1,135,164.25Z"/><path class="cls-63" d="M441.46,161.19c4.82,1.09,7.33,3,7.33,6.87,0,4.45-3.64,7.12-8.7,7.42v2.83h-1.76v-2.82c-5-.24-8.64-2.84-8.77-7.26h4.7c.29,1.83,1.6,3.08,4.07,3.31v-6.4l-1.3-.3c-4.6-1-7.12-3.09-7.12-6.89,0-4.24,3.52-7,8.42-7.24v-2.83h1.76v2.85c5,.31,8.19,3.06,8.35,7.26h-4.67c-.25-2-1.64-3.06-3.68-3.31v6.21Zm-3.13-6.53c-2.28.23-3.49,1.39-3.49,2.83s1,2.34,3.49,3Zm1.76,16.88c2.55-.21,3.8-1.32,3.8-2.94s-1-2.37-3.8-3Z"/><path class="cls-63" d="M464.75,161.19c4.82,1.09,7.33,3,7.33,6.87,0,4.45-3.63,7.12-8.7,7.42v2.83h-1.76v-2.82c-5-.24-8.64-2.84-8.77-7.26h4.7c.3,1.83,1.6,3.08,4.07,3.31v-6.4l-1.3-.3c-4.6-1-7.11-3.09-7.11-6.89,0-4.24,3.51-7,8.41-7.24v-2.83h1.76v2.85c5,.31,8.19,3.06,8.35,7.26h-4.67c-.25-2-1.64-3.06-3.68-3.31v6.21Zm-3.13-6.53c-2.28.23-3.49,1.39-3.49,2.83s1,2.34,3.49,3Zm1.76,16.88c2.55-.21,3.8-1.32,3.8-2.94s-1-2.37-3.8-3Z"/><path class="cls-63" d="M488,161.19c4.82,1.09,7.33,3,7.33,6.87,0,4.45-3.63,7.12-8.7,7.42v2.83h-1.75v-2.82c-5-.24-8.65-2.84-8.78-7.26h4.7c.3,1.83,1.6,3.08,4.08,3.31v-6.4l-1.3-.3c-4.61-1-7.12-3.09-7.12-6.89,0-4.24,3.51-7,8.42-7.24v-2.83h1.75v2.85c5,.31,8.2,3.06,8.35,7.26h-4.67c-.25-2-1.64-3.06-3.68-3.31v6.21Zm-3.12-6.53c-2.29.23-3.5,1.39-3.5,2.83s1,2.34,3.5,3Zm1.75,16.88c2.55-.21,3.8-1.32,3.8-2.94s-1-2.37-3.8-3Z"/><g class="cls-64"><rect class="cls-65" x="114.58" y="288.07" width="75.87" height="75.87"/><path class="cls-66" d="M144.11,317.62s-5.77-6.63-7.41-5.24,3.19,9,3.19,9Z"/><path class="cls-66" d="M163.1,317.62s5.77-6.63,7.41-5.24-3.19,9-3.19,9Z"/><path class="cls-67" d="M140.62,342.27c-1,3.5-3.12,6-4.74,5.5s-2.12-3.67-1.12-7.18,3.12-6,4.74-5.5S141.62,338.76,140.62,342.27Z"/><path class="cls-67" d="M166.84,342.27c1,3.5,3.12,6,4.74,5.5s2.12-3.67,1.12-7.18-3.12-6-4.74-5.5S165.84,338.76,166.84,342.27Z"/><path class="cls-67" d="M160.67,352.94a3.85,3.85,0,0,0,2.47,4h0c1.64.52,3.58-1,3.77-3.53a23.21,23.21,0,0,0-1.15-9.17c-.8-2.36-3.07-3.39-4.53-2.48h0a3.84,3.84,0,0,0-1.4,4.49A16.86,16.86,0,0,1,160.67,352.94Z"/><path class="cls-67" d="M146.74,352.94a3.88,3.88,0,0,1-2.47,4h0c-1.64.52-3.58-1-3.77-3.53a23,23,0,0,1,1.15-9.17c.8-2.36,3.06-3.39,4.53-2.48h0a3.87,3.87,0,0,1,1.4,4.49A16.68,16.68,0,0,0,146.74,352.94Z"/><path class="cls-68" d="M170.44,335.6c-2.19,10.85-8.82,18.86-16.72,18.81h0c-7.9,0-14.52-8-16.72-18.81-.43-2.9-.8-5.77-1-8.56-.45-5.25,2.49-8.57,5.93-9.77a39.49,39.49,0,0,0,5.64-3.19,13.29,13.29,0,0,1,6.13-2.28h0c4.19.13,8.23,4.13,11.78,5.47s6.37,4.52,5.92,9.77C171.25,329.83,170.87,332.7,170.44,335.6Z"/><path class="cls-52" d="M163.75,326.84a2.56,2.56,0,1,1-2.56-2.56A2.55,2.55,0,0,1,163.75,326.84Z"/><path class="cls-69" d="M162.29,326.84a1.1,1.1,0,1,1-1.1-1.09A1.1,1.1,0,0,1,162.29,326.84Z"/><path class="cls-54" d="M161.69,326.84a.5.5,0,1,1-.5-.49A.5.5,0,0,1,161.69,326.84Z"/><path class="cls-52" d="M148.68,326.84a2.56,2.56,0,1,1-2.56-2.56A2.56,2.56,0,0,1,148.68,326.84Z"/><path class="cls-69" d="M147.21,326.84a1.1,1.1,0,1,1-1.09-1.09A1.09,1.09,0,0,1,147.21,326.84Z"/><path class="cls-54" d="M146.61,326.84a.49.49,0,0,1-.49.5.5.5,0,1,1,0-1A.49.49,0,0,1,146.61,326.84Z"/><path class="cls-67" d="M158.48,331.85a8.6,8.6,0,0,1-.27,1.28,4.67,4.67,0,0,1-4.49,2.81h0a4.66,4.66,0,0,1-4.48-2.81,10,10,0,0,1-.26-1.28c-.1-.67.46-1.13,1.21-1.36l.38-.1a5.8,5.8,0,0,1,1-.11c.45,0,.92,0,1.4,0h1.4c.47,0,.92,0,1.36,0a6.66,6.66,0,0,1,1.13.11l.29.07C158,330.68,158.58,331.15,158.48,331.85Z"/><path class="cls-68" d="M162.27,308.15c-2.72-2.11-5.87.43-6,2,0,0,.56-5.62-2.57-6.63h0c-3.13,1-2.56,6.63-2.56,6.63-.11-1.53-3.26-4.07-6-2-2.2,1.7-.28,4.16.49,3s2.69-1.24,3.06.34c.48,2-3.39,4.06-3.39,4.06l8.39.6h0l8.4-.6s-3.87-2-3.39-4.06c.37-1.58,2.23-1.61,3.05-.34S164.47,309.85,162.27,308.15Z"/><path class="cls-4" d="M151.61,330.52c0,.62-.32,1.12-.71,1.12s-.72-.5-.72-1.12v0l.38-.1a5.8,5.8,0,0,1,1-.11A.93.93,0,0,1,151.61,330.52Z"/><path class="cls-4" d="M154.41,330.52c0,.62-.32,1.12-.72,1.12s-.72-.5-.72-1.12a1.64,1.64,0,0,1,0-.23h1.4A1.64,1.64,0,0,1,154.41,330.52Z"/><path class="cls-4" d="M157.17,330.52c0,.62-.32,1.12-.72,1.12s-.72-.5-.72-1.12a1.79,1.79,0,0,1,0-.24,6.66,6.66,0,0,1,1.13.11l.29.07Z"/></g><g class="cls-70"><rect class="cls-65" x="181.16" y="288.07" width="75.87" height="75.87"/><ellipse class="cls-57" cx="220.3" cy="349.14" rx="26.02" ry="1.35"/><path class="cls-68" d="M239.55,348.64s-5.82-.62-8.08,0-5.49,3.2-11.2,3.2-8.84-2.52-11.74-3.2-8.3,0-8.3,0c3.17-3.55,4.27-12.52,4.18-24.62a15.85,15.85,0,0,1,15.85-15.85h0A15.85,15.85,0,0,1,236.11,324C236.22,335.07,236.21,343.22,239.55,348.64Z"/><path class="cls-4" d="M213.4,320.89a6.5,6.5,0,0,0,13,0Z"/><circle class="cls-59" cx="219.89" cy="321.56" r="1.92"/><path class="cls-67" d="M227.81,321.56a7.94,7.94,0,0,0-15.84,0Z"/><path class="cls-71" d="M210.24,328.55a.32.32,0,0,1,.13,0l2.72.94a10,10,0,0,0,3.26.54h7.94a10.23,10.23,0,0,0,3.29-.55l2.66-.93a.38.38,0,1,1,.25.71l-2.66.93a11,11,0,0,1-3.54.59h-7.94a10.77,10.77,0,0,1-3.51-.58l-2.72-.94a.37.37,0,0,1-.23-.48A.36.36,0,0,1,210.24,328.55Z"/><path class="cls-67" d="M222.21,334.28H218.4a1.55,1.55,0,0,1-1.55-1.55h6.91A1.55,1.55,0,0,1,222.21,334.28Z"/><path class="cls-67" d="M234.87,341.11a2,2,0,1,1-2-2A2,2,0,0,1,234.87,341.11Z"/><circle class="cls-67" cx="223.54" cy="344.33" r="0.99"/><path class="cls-67" d="M211.11,343.08a.82.82,0,1,1-.82-.81A.81.81,0,0,1,211.11,343.08Z"/></g><path class="cls-72" d="M265.67,271H127.39a8.93,8.93,0,1,0,.13,17.85H265.79a8.93,8.93,0,0,0-.12-17.85Z"/><path class="cls-72" d="M127.37,267.15A12.75,12.75,0,1,0,140.2,279.8,12.75,12.75,0,0,0,127.37,267.15Z"/><path class="cls-4" d="M134.79,279.84a7.33,7.33,0,1,1-7.39-7.27A7.34,7.34,0,0,1,134.79,279.84Z"/><path class="cls-73" d="M299.88,277.62c4.82,1.09,7.33,3,7.33,6.87,0,4.45-3.63,7.12-8.7,7.42v2.83h-1.76v-2.81c-5-.25-8.64-2.85-8.77-7.26h4.7c.3,1.83,1.6,3.07,4.07,3.3v-6.4l-1.3-.29c-4.6-1-7.12-3.1-7.12-6.9,0-4.23,3.52-7,8.42-7.24v-2.83h1.76v2.85c5,.32,8.19,3.06,8.35,7.26h-4.67c-.25-1.95-1.64-3.06-3.68-3.31v6.21Zm-3.13-6.52c-2.28.23-3.49,1.39-3.49,2.83s1,2.34,3.49,3ZM298.51,288c2.55-.21,3.8-1.32,3.8-2.93s-1-2.38-3.8-3.06Z"/><path class="cls-73" d="M323.17,277.62c4.82,1.09,7.33,3,7.33,6.87,0,4.45-3.63,7.12-8.7,7.42v2.83h-1.75v-2.81c-5-.25-8.65-2.85-8.78-7.26H316c.3,1.83,1.6,3.07,4.08,3.3v-6.4l-1.3-.29c-4.61-1-7.12-3.1-7.12-6.9,0-4.23,3.51-7,8.42-7.24v-2.83h1.75v2.85c5,.32,8.2,3.06,8.35,7.26h-4.67c-.25-1.95-1.64-3.06-3.68-3.31v6.21Zm-3.12-6.52c-2.29.23-3.5,1.39-3.5,2.83s1,2.34,3.5,3ZM321.8,288c2.55-.21,3.8-1.32,3.8-2.93s-1-2.38-3.8-3.06Z"/></svg>