<svg id="Layer_3" data-name="Layer 3" xmlns="http://www.w3.org/2000/svg" xmlns:xlink="http://www.w3.org/1999/xlink" viewBox="0 0 600 400"><defs><style>.cls-1{fill:none;}.cls-2{fill:#d8e2e8;}.cls-3{fill:#ff4d43;}.cls-4{fill:#fff;}.cls-5{fill:#ffcd62;}.cls-6{fill:#00c4b4;}.cls-7{fill:#630;}.cls-8{clip-path:url(#clip-path);}.cls-9{fill:#ffeea4;}.cls-10{fill:#ff960b;}.cls-11{fill:#ffa50a;}.cls-12{fill:#fffbca;}.cls-13{fill:#5dc8dd;}.cls-14{fill:#1e0e00;}.cls-15{fill:#965028;}.cls-16{clip-path:url(#clip-path-2);}.cls-17{fill:#c8e6eb;}.cls-18{fill:#dd4137;}.cls-19{fill:#d37a1a;}.cls-20{fill:#f5415f;}.cls-21{fill:#55c7a6;}.cls-22{clip-path:url(#clip-path-3);}.cls-23{clip-path:url(#clip-path-4);}.cls-24{clip-path:url(#clip-path-5);}.cls-25{fill:#963a38;}.cls-26{fill:#e5b267;}.cls-27{fill:#c9862f;opacity:0.34;}.cls-28{clip-path:url(#clip-path-6);}.cls-29{fill:#f7c786;}.cls-30{clip-path:url(#clip-path-7);}.cls-31{fill:#f7941e;}.cls-32{fill:#111;}.cls-33{clip-path:url(#clip-path-8);}.cls-34{fill:#ef4440;}.cls-35{fill:#e21414;}.cls-36{clip-path:url(#clip-path-9);}.cls-37{fill:#ea6a0c;}.cls-38{clip-path:url(#clip-path-10);}.cls-39{fill:#fbb040;}</style><clipPath id="clip-path"><circle id="SVGID" class="cls-1" cx="429.74" cy="361.71" r="25.78"/></clipPath><clipPath id="clip-path-2"><circle id="SVGID-2" data-name="SVGID" class="cls-1" cx="495.87" cy="361.71" r="25.78"/></clipPath><clipPath id="clip-path-3"><circle id="SVGID-3" data-name="SVGID" class="cls-1" cx="562.01" cy="361.71" r="25.78"/></clipPath><clipPath id="clip-path-4"><path id="SVGID-4" data-name="SVGID" class="cls-1" d="M552.16,364.1v0c0,5.83,4.39,10.56,9.81,10.56s9.81-4.73,9.81-10.56v0Z"/></clipPath><clipPath id="clip-path-5"><circle id="SVGID-5" data-name="SVGID" class="cls-1" cx="363.61" cy="361.71" r="25.78"/></clipPath><clipPath id="clip-path-6"><path id="SVGID-6" data-name="SVGID" class="cls-1" d="M372.62,353.62s16.35,7.48,15.31-13.1c0,0,10.24,25.45-13.36,23.24Z"/></clipPath><clipPath id="clip-path-7"><path id="SVGID-7" data-name="SVGID" class="cls-1" d="M352.94,353.62s-16.35,7.48-15.31-13.1c0,0-10.23,25.45,13.36,23.24Z"/></clipPath><clipPath id="clip-path-8"><path id="SVGID-8" data-name="SVGID" class="cls-1" d="M361.14,366.53a6.71,6.71,0,0,0,6.61-.47l.1-.07c3.22-2.13,6.41,3.9,2.43,7.62s-10.17,3.38-13-.56C354.79,369.6,356.9,364.6,361.14,366.53Z"/></clipPath><clipPath id="clip-path-9"><path id="SVGID-9" data-name="SVGID" class="cls-1" d="M361.14,366.52a6.71,6.71,0,0,0,6.61-.47l.1-.06c3.22-2.14,6.41,3.89,2.43,7.61s-10.17,3.38-13-.56C354.79,369.59,356.9,364.59,361.14,366.52Z"/></clipPath><clipPath id="clip-path-10"><path id="SVGID-10" data-name="SVGID" class="cls-1" d="M349,353.84l15.43-26,13.07,26.29S365.72,348.47,349,353.84Z"/></clipPath></defs><title>how-youtuber-3</title><rect class="cls-2" x="106.91" y="82.23" width="385.64" height="229.87"/><circle class="cls-3" cx="299.72" cy="197.17" r="54.91" transform="translate(-51.63 269.68) rotate(-45)"/><polygon class="cls-4" points="285.17 168.03 285.17 226.3 329.14 197.17 285.17 168.03"/><path class="cls-5" d="M302.15,37.43H25.48a8.92,8.92,0,1,0,.13,17.84H302.28a8.92,8.92,0,1,0-.13-17.84Z"/><path class="cls-5" d="M25.46,33.61A12.75,12.75,0,1,0,38.29,46.26,12.74,12.74,0,0,0,25.46,33.61Z"/><path class="cls-4" d="M32.88,46.3A7.33,7.33,0,1,1,25.5,39,7.33,7.33,0,0,1,32.88,46.3Z"/><path class="cls-6" d="M63,8.51A3.1,3.1,0,0,1,62,10.79L30.77,42l-4.56,4.55a3.24,3.24,0,0,1-4.56,0L17.1,42,5,29.9A3.1,3.1,0,0,1,4,27.62,3.07,3.07,0,0,1,5,25.34l4.55-4.56a3.24,3.24,0,0,1,4.56,0l9.85,9.89,29-29a3.22,3.22,0,0,1,4.55,0L62,6.23A3.07,3.07,0,0,1,63,8.51Z"/><path class="cls-7" d="M342.28,42.24c4.81,1.09,7.33,3,7.33,6.87,0,4.45-3.64,7.12-8.7,7.42v2.83h-1.76V56.55c-5-.25-8.65-2.85-8.77-7.26h4.69c.3,1.83,1.6,3.07,4.08,3.3v-6.4l-1.3-.3c-4.61-1-7.12-3.09-7.12-6.89,0-4.23,3.51-7,8.42-7.24V28.93h1.76v2.85c4.95.32,8.19,3.06,8.34,7.26h-4.67c-.25-1.95-1.64-3.06-3.67-3.31v6.21Zm-3.13-6.52c-2.29.23-3.5,1.39-3.5,2.83s1,2.33,3.5,3Zm1.76,16.87c2.54-.21,3.79-1.32,3.79-2.93s-1-2.38-3.79-3.06Z"/><path class="cls-7" d="M365.57,42.24c4.81,1.09,7.33,3,7.33,6.87,0,4.45-3.64,7.12-8.7,7.42v2.83h-1.76V56.55c-5-.25-8.65-2.85-8.77-7.26h4.69c.3,1.83,1.6,3.07,4.08,3.3v-6.4l-1.3-.3c-4.61-1-7.12-3.09-7.12-6.89,0-4.23,3.51-7,8.42-7.24V28.93h1.76v2.85c4.95.32,8.19,3.06,8.35,7.26h-4.68c-.25-1.95-1.63-3.06-3.67-3.31v6.21Zm-3.13-6.52c-2.29.23-3.5,1.39-3.5,2.83s1,2.33,3.5,3Zm1.76,16.87c2.55-.21,3.79-1.32,3.79-2.93s-1-2.38-3.79-3.06Z"/><path class="cls-7" d="M388.86,42.24c4.81,1.09,7.33,3,7.33,6.87,0,4.45-3.64,7.12-8.7,7.42v2.83h-1.76V56.55c-5-.25-8.65-2.85-8.77-7.26h4.69c.3,1.83,1.6,3.07,4.08,3.3v-6.4l-1.3-.3c-4.61-1-7.12-3.09-7.12-6.89,0-4.23,3.52-7,8.42-7.24V28.93h1.76v2.85c4.95.32,8.19,3.06,8.35,7.26h-4.68c-.24-1.95-1.63-3.06-3.67-3.31v6.21Zm-3.13-6.52c-2.29.23-3.5,1.39-3.5,2.83s1,2.33,3.5,3Zm1.76,16.87c2.55-.21,3.79-1.32,3.79-2.93s-1-2.38-3.79-3.06Z"/><g class="cls-8"><rect class="cls-9" x="390.59" y="324.88" width="75.87" height="75.87"/><path class="cls-10" d="M429.59,341a1.87,1.87,0,0,0-1.5,3,5.69,5.69,0,0,1,1,3.13v3.71a.54.54,0,1,0,1.07,0v-3.71a5.78,5.78,0,0,1,1-3.13,1.82,1.82,0,0,0,.37-1.12A1.87,1.87,0,0,0,429.59,341Z"/><path class="cls-10" d="M419.45,343.8a1.87,1.87,0,0,0,.19,3.34,5.73,5.73,0,0,1,2.4,2.22l1.85,3.22a.55.55,0,0,0,.74.19.54.54,0,0,0,.19-.73L423,348.83a5.73,5.73,0,0,1-.73-3.2,1.91,1.91,0,0,0-.24-1.15A1.87,1.87,0,0,0,419.45,343.8Z"/><path class="cls-10" d="M412.08,351.27a1.88,1.88,0,0,0,1.84,2.8,5.71,5.71,0,0,1,3.19.73l3.21,1.85a.54.54,0,1,0,.54-.93l-3.22-1.85a5.73,5.73,0,0,1-2.22-2.4,1.9,1.9,0,0,0-.78-.88A1.88,1.88,0,0,0,412.08,351.27Z"/><path class="cls-10" d="M440,343.8a1.86,1.86,0,0,1,.68,2.55,1.84,1.84,0,0,1-.87.79,5.73,5.73,0,0,0-2.4,2.22l-1.86,3.22a.54.54,0,0,1-.73.19.53.53,0,0,1-.2-.73l1.86-3.21a5.73,5.73,0,0,0,.73-3.2,1.84,1.84,0,0,1,.24-1.15A1.86,1.86,0,0,1,440,343.8Z"/><path class="cls-10" d="M447.4,351.27a1.88,1.88,0,0,1-1.84,2.8,5.71,5.71,0,0,0-3.19.73l-3.21,1.85a.54.54,0,1,1-.54-.93l3.22-1.85a5.73,5.73,0,0,0,2.22-2.4,1.9,1.9,0,0,1,.78-.88A1.88,1.88,0,0,1,447.4,351.27Z"/><path class="cls-10" d="M428.26,385.37a2.12,2.12,0,0,1-2.13,2.12h0a2.12,2.12,0,0,1-2.12-2.12v-5.68a2.12,2.12,0,0,1,2.12-2.13h0a2.13,2.13,0,0,1,2.13,2.13Z"/><path class="cls-10" d="M434.76,385.37a2.12,2.12,0,0,1-2.13,2.12h0a2.12,2.12,0,0,1-2.12-2.12v-5.68a2.12,2.12,0,0,1,2.12-2.13h0a2.13,2.13,0,0,1,2.13,2.13Z"/><path class="cls-11" d="M444.44,379.09c0,11.84-6.59,21.44-14.72,21.44h0c-8.12,0-14.71-9.6-14.71-21.44v-9.77c0-11.84,6.59-21.43,14.71-21.43h0c8.13,0,14.72,9.59,14.72,21.43Z"/><path class="cls-12" d="M437.76,361.31a8,8,0,1,1-8-8A8,8,0,0,1,437.76,361.31Z"/><path class="cls-13" d="M433.15,361.31a3.43,3.43,0,1,1-3.43-3.43A3.43,3.43,0,0,1,433.15,361.31Z"/><path class="cls-14" d="M431.27,361.31a1.55,1.55,0,1,1-1.55-1.55A1.54,1.54,0,0,1,431.27,361.31Z"/><path class="cls-15" d="M429.59,372.44A8,8,0,0,1,427,372a2.65,2.65,0,0,0,5.29,0A8,8,0,0,1,429.59,372.44Z"/></g><g class="cls-16"><rect class="cls-9" x="456.73" y="324.88" width="75.87" height="75.87"/><path class="cls-17" d="M516.26,392c0,.91-8.89,1.65-19.85,1.65s-19.86-.74-19.86-1.65,8.89-1.66,19.86-1.66S516.26,391.1,516.26,392Z"/><path class="cls-17" d="M489.72,347.65c1.08,2.09.6,3.5-.58,4.11s-2.61.19-3.69-1.9-1.62-5.48-.44-6.09S488.64,345.55,489.72,347.65Z"/><path class="cls-17" d="M501.68,347.65c-1.08,2.09-.6,3.5.58,4.11s2.61.19,3.69-1.9,1.62-5.48.44-6.09S502.77,345.55,501.68,347.65Z"/><path class="cls-18" d="M494.65,347.41s-4.19-7.4-2.44-6.33,2.06,4,2.06,4-.69-6.52,1.07-5.91,0,5.92,0,5.92,2.44-3.48,3.05-2.87S494.65,347.41,494.65,347.41Z"/><path class="cls-19" d="M512.61,372.2c1.85,2,4.74,3.45,5.72,2.52s-.33-3.9-2.17-5.86-3.52-2.15-4.5-1.23S510.77,370.24,512.61,372.2Z"/><path class="cls-20" d="M486.75,387.56c-.75,2.59-2.64,5.24-3.93,4.86s-1.5-3.62-.75-6.2,2.15-3.53,3.44-3.16S487.49,385,486.75,387.56Z"/><path class="cls-19" d="M478.79,372.2c-1.84,2-4.74,3.45-5.72,2.52s.33-3.9,2.17-5.86,3.53-2.15,4.51-1.23S480.63,370.24,478.79,372.2Z"/><path class="cls-20" d="M504.66,387.56c.74,2.59,2.63,5.24,3.93,4.86s1.49-3.62.75-6.2-2.15-3.53-3.45-3.16S503.91,385,504.66,387.56Z"/><path class="cls-11" d="M514.2,372.34c0,12.25-8.28,17.75-18.5,17.75s-18.5-5.5-18.5-17.75,8.28-26.62,18.5-26.62S514.2,360.09,514.2,372.34Z"/><path class="cls-19" d="M495.7,386.35c-9.69,0-17.64-5-18.43-15.92,0,.64-.07,1.28-.07,1.91,0,12.25,8.28,17.75,18.5,17.75s18.5-5.5,18.5-17.75c0-.63,0-1.27-.07-1.91C513.34,381.4,505.39,386.35,495.7,386.35Z"/><path class="cls-4" d="M489.54,363.15c0,2.18-1.08,4-2.4,4s-2.41-1.77-2.41-4,1.08-3.95,2.41-3.95S489.54,361,489.54,363.15Z"/><path class="cls-21" d="M488.16,363.15a1,1,0,1,1-1-1A1,1,0,0,1,488.16,363.15Z"/><path class="cls-4" d="M501.86,363.15c0,2.18,1.08,4,2.41,4s2.4-1.77,2.4-4-1.08-3.95-2.4-3.95S501.86,361,501.86,363.15Z"/><circle class="cls-21" cx="504.27" cy="363.15" r="1.02"/><path class="cls-15" d="M495.34,371.27c-8.21,0-14.65-2.38-14.65-5.42h.45c0,2.7,6.5,5,14.2,5s14.21-2.28,14.21-5H510C510,368.89,503.55,371.27,495.34,371.27Z"/><circle class="cls-19" cx="507.1" cy="382.82" r="1.82"/><path class="cls-19" d="M499.59,383.48a.5.5,0,1,1-.49-.5A.49.49,0,0,1,499.59,383.48Z"/><circle class="cls-19" cx="484.94" cy="377.93" r="0.59"/><path class="cls-19" d="M488.16,384.6a1.61,1.61,0,1,1-1.61-1.61A1.61,1.61,0,0,1,488.16,384.6Z"/></g><g class="cls-22"><rect class="cls-9" x="522.86" y="324.88" width="75.87" height="75.87"/><path class="cls-10" d="M575,373.28a7.92,7.92,0,0,1-3.49-.84c-5.32-2.62-4.92-8.77-4.9-9a1.83,1.83,0,1,1,3.65.3c0,.17-.19,3.81,2.81,5.29a4.06,4.06,0,0,0,4.81-.76c1.69-1.59,3.07-5.14,1.41-9.89a1.92,1.92,0,0,1,1.09-2.44,1.82,1.82,0,0,1,2.35,1.14c1.87,5.36.94,10.86-2.38,14A7.68,7.68,0,0,1,575,373.28Z"/><path class="cls-10" d="M548.28,373.28a7.06,7.06,0,0,1-5-2.23c-3.13-3.14-4-8.64-2.24-14a1.69,1.69,0,0,1,2.22-1.14,2,2,0,0,1,1,2.44c-1.57,4.75-.27,8.3,1.32,9.89a3.68,3.68,0,0,0,4.54.76c2.88-1.51,2.65-5.25,2.65-5.28a1.85,1.85,0,0,1,1.58-2.05,1.79,1.79,0,0,1,1.86,1.74c0,.26.4,6.41-4.62,9A7.16,7.16,0,0,1,548.28,373.28Z"/><path class="cls-11" d="M573.44,385.15h-23c-3.54-12.34-4.91-28.35-2.87-39.86,1.15-.3,3.34,6.74,4.51,6.53,7.07-1.32,12.18-1.21,19.7.08,1.16.2,3.49-6.87,4.67-6.61C578.36,358,577.5,373.84,573.44,385.15Z"/><path class="cls-10" d="M567,379.53h-9.84a8.67,8.67,0,0,1-8.46-6.84,89.79,89.79,0,0,1-2.08-15.75,125.24,125.24,0,0,0,3.93,33.36h23c3-8.31,4.07-22.41,3.75-31.61a71.51,71.51,0,0,1-1.89,14.17A8.68,8.68,0,0,1,567,379.53Z"/><path class="cls-15" d="M552.16,364.1v0c0,5.83,4.39,10.56,9.81,10.56s9.81-4.73,9.81-10.56v0Z"/><ellipse cx="556.01" cy="361.08" rx="0.97" ry="1.47"/><ellipse cx="568.23" cy="361.08" rx="0.97" ry="1.47"/><path class="cls-4" d="M555,364.1s-.6,3.14,0,3.84,2.18-3.84,2.18-3.84Z"/><path class="cls-4" d="M569,364.1s.6,3.14,0,3.84-2.18-3.84-2.18-3.84Z"/><g class="cls-23"><path class="cls-4" d="M558,374.12s.37-2.84.84-2.94,1.25,4.14,1.25,4.14Z"/><path class="cls-4" d="M566,374.12s-.37-2.84-.84-2.94-1.25,4.14-1.25,4.14Z"/></g></g><rect class="cls-2" x="270.34" y="354.01" width="12.14" height="24.98" rx="2.44" ry="2.44"/><path class="cls-2" d="M312.78,359.38h-.44a3.86,3.86,0,1,0,0-7.72H300c1.52-2.41,3.6-6.25,3.6-9.38,0-5-2.72-7.72-4.5-8a3,3,0,0,0-3.58,2.13c-.51,1.5.39,4.33,0,5.35-.54,1.56-3.27,3.65-7,8.4a14.26,14.26,0,0,0-2.83,9.26v16.9a2.41,2.41,0,0,0,2.4,2.4h23a2.8,2.8,0,1,0,0-5.59h.39a3.43,3.43,0,1,0,0-6.86h1.27a3.43,3.43,0,0,0,0-6.85Z"/><g class="cls-24"><rect class="cls-9" x="324.46" y="324.88" width="75.87" height="75.87"/><path class="cls-25" d="M349,353.84s15-6.74,28.5.31C377.51,354.15,360.15,358.25,349,353.84Z"/><path class="cls-26" d="M372.62,353.62s16.35,7.48,15.31-13.1c0,0,10.24,25.45-13.36,23.24Z"/><path class="cls-27" d="M388.14,355.77c-3.89,2.53-11.42,2.73-15.29-.61l1.66,8.6c11,1,14.62-3.91,15.4-9.5A9,9,0,0,1,388.14,355.77Z"/><g class="cls-28"><path class="cls-29" d="M376.56,352.21s-3.19,9.19,3.5,14.52l.72-.47s-6-4.57-3.52-14.05Z"/><path class="cls-29" d="M380.94,350.47s-1.86,9.55,5.51,13.89l.65-.57s-6.59-3.68-5.46-13.41Z"/><path class="cls-29" d="M383.69,346.58s.85,9.69,9.13,11.82l.47-.73s-7.36-1.71-9-11.38Z"/><path class="cls-29" d="M384.16,340.82s2.53,9.39,11,10l.34-.8s-7.54-.39-10.82-9.63Z"/></g><path class="cls-26" d="M352.94,353.62s-16.35,7.48-15.31-13.1c0,0-10.23,25.45,13.36,23.24Z"/><path class="cls-27" d="M337.42,355.77c3.89,2.53,11.42,2.73,15.29-.61l-1.66,8.6c-11,1-14.62-3.91-15.4-9.5A9,9,0,0,0,337.42,355.77Z"/><g class="cls-30"><path class="cls-29" d="M349,352.21s3.19,9.19-3.49,14.52l-.73-.47s6-4.57,3.52-14.05Z"/><path class="cls-29" d="M344.62,350.47s1.86,9.55-5.51,13.89l-.65-.57s6.6-3.68,5.47-13.41Z"/><path class="cls-29" d="M341.87,346.58s-.85,9.69-9.13,11.82l-.46-.73s7.35-1.71,9-11.38Z"/><path class="cls-29" d="M341.4,340.82s-2.53,9.39-11,10l-.34-.8s7.54-.39,10.82-9.63Z"/></g><path class="cls-31" d="M359,349.78s-1.87-1.9-.52-1.79a5.46,5.46,0,0,1,2.42.9s-1.87-2.06-.56-2.14,3.35,2,3.35,2,2.91-2.91,3.43-2.53-1.45,2.88-1.45,2.88,2.76-1.48,2.91-.19-1.78,1.86-1.78,1.86,3.86-.57,10,4.1c0,0,.77,1-.44,1.11,0,0,10.13,10.8,8.64,12.2,0,0-.59.08-.69,0s15.82,54.57-5,49.6c0,0,.61,1,.09,1.1s-1.7-.77-1.7-.77.06.39-.2.42-.43-.42-.43-.42.5.83-.12,1-1.54-.53-1.54-.53l-17.77.43a.78.78,0,0,1-1,.67,12.27,12.27,0,0,1-1.81-.88c0,.08-1.41,1.15-2.08.94s-1.14-1.35-1.14-1.35-21.5,8.6-7.64-47.88c0,0-1.4,1.56-1.39,0,0-.66,3.67-15.55,9.84-17.83C352.31,352.71,348.9,351.72,359,349.78Z"/><path class="cls-19" d="M388.15,385.11c-.07.51-.15,1-.24,1.53-.34,1.79-2.07,6.9-4.3,5.59.06,2.6-.67,5.85-3.59,5.22.09,2.36-1.31,5.08-3.78,4.09-.79,3.1-3.6,3.4-6.39,2.41-.62,2.16-1.38,3.95-4,3.93s-5.52-1.09-6.93-3.37c-3.2,3.81-9-.22-10.06-4.35-1.88,1-4.22,2.68-6.34,1.85s-2.76-3.39-3.13-5.59c-1.91,27.61,12.12,22,12.12,22s.47,1.13,1.14,1.35,2-.86,2.08-.94a12.27,12.27,0,0,0,1.81.88.78.78,0,0,0,1-.67l17.77-.43s.93.7,1.54.53c.43-.12.32-.56.21-.82.08.12.19.26.34.23s.2-.42.2-.42,1.17.91,1.7.77-.09-1.1-.09-1.1C392.29,420.91,391,400.67,388.15,385.11Z"/><path class="cls-32" d="M361.14,366.53a6.71,6.71,0,0,0,6.61-.47l.1-.07c3.22-2.13,6.41,3.9,2.43,7.62s-10.17,3.38-13-.56C354.79,369.6,356.9,364.6,361.14,366.53Z"/><g class="cls-33"><path class="cls-34" d="M370.29,373.78s.28-4.54-5.73-.82c0,0-5.15-3.44-6.48,1.15C358.08,374.11,363.15,379.73,370.29,373.78Z"/><path class="cls-35" d="M364.7,374.85a.73.73,0,0,1-.87-.11,11,11,0,0,0-4.35-2.65,3.26,3.26,0,0,0-1.4,2s4.48,5,10.95.62C368.13,373.27,365.82,374.07,364.7,374.85Z"/></g><g class="cls-36"><path class="cls-4" d="M360.62,365.58s.5,2.16-.27,2.72a3,3,0,0,1-1.94.06c-.84-.7-.74-2.85-.74-2.85S360.21,364,360.62,365.58Z"/><path class="cls-4" d="M363.32,366s.5,2.17-.27,2.72a2.93,2.93,0,0,1-1.94.06c-.84-.7-.74-2.84-.74-2.84S362.91,364.38,363.32,366Z"/><path class="cls-4" d="M366.74,366s.5,2.17-.27,2.72a2.93,2.93,0,0,1-1.94.06c-.84-.7-.74-2.84-.74-2.84S366.33,364.38,366.74,366Z"/><path class="cls-4" d="M369.38,365.58s.5,2.16-.27,2.72a3,3,0,0,1-1.94.06c-.83-.7-.74-2.85-.74-2.85S369,364,369.38,365.58Z"/></g><ellipse class="cls-32" cx="369.89" cy="363.39" rx="0.94" ry="1.36"/><ellipse class="cls-32" cx="358.01" cy="363.39" rx="0.94" ry="1.36"/><circle class="cls-19" cx="375.55" cy="365.44" r="3.34"/><path class="cls-19" d="M349.6,365.9a3.34,3.34,0,1,0,3.34-3.34A3.35,3.35,0,0,0,349.6,365.9Z"/><path class="cls-37" d="M376.13,395.07s.42,2.34-2.56,2.73a.59.59,0,0,1-.5-1,5.68,5.68,0,0,1,1.62-1s-3,1.27-3.12.44,2.7-1.08,2.7-1.08-2.78.06-2.71-.65,2.82-.21,2.82-.21-1.7-.4-1.52-1.2S376.36,392.66,376.13,395.07Z"/><path class="cls-37" d="M393.72,379.83c-1.08-2.35-4.86-2.94-7.21-2.73.11.48.22,1,.34,1.53A8.23,8.23,0,0,1,390,379a4,4,0,0,1,2,1.23,2.58,2.58,0,0,1,.28,2.39,12.67,12.67,0,0,1-3.89,5.95,21.73,21.73,0,0,1-12.64,5.94c-1,.11-1,1.66,0,1.55a23.24,23.24,0,0,0,15.71-8.56C393,385.61,394.87,382.31,393.72,379.83Z"/><path class="cls-37" d="M352.38,396.7s-.43,2.34,2.55,2.73a.59.59,0,0,0,.5-1,5.51,5.51,0,0,0-1.62-1s3,1.28,3.12.44-2.69-1.08-2.69-1.08,2.77.06,2.7-.64-2.82-.21-2.82-.21,1.7-.4,1.52-1.2S352.15,394.28,352.38,396.7Z"/><path class="cls-37" d="M334.78,381.45c1.09-2.34,4.87-2.94,7.22-2.73-.11.49-.2,1-.32,1.55a8.34,8.34,0,0,0-3.21.35,4.07,4.07,0,0,0-2,1.23,2.6,2.6,0,0,0-.27,2.4,12.63,12.63,0,0,0,3.88,5.95,21.84,21.84,0,0,0,12.64,5.93c1,.11,1,1.67,0,1.56A23.31,23.31,0,0,1,337,389.12C335.55,387.23,333.63,383.93,334.78,381.45Z"/><path class="cls-18" d="M349,353.84l15.43-26,13.07,26.29S365.72,348.47,349,353.84Z"/><path class="cls-25" d="M365.39,328.1a1.54,1.54,0,0,1-1.74.14c-.93-.52-2.22-1.39-1.52-1.83,1.05-.65,2,1.14,2,1.14s-.37-2.27.34-2,.29,2,.29,2,.16-1.76,1.5-1.37C367.16,326.46,366.2,327.45,365.39,328.1Z"/><g class="cls-38"><polygon class="cls-39" points="361.65 334.4 362.8 336.74 365.38 337.11 363.51 338.93 363.95 341.5 361.65 340.29 359.34 341.5 359.78 338.93 357.91 337.11 360.49 336.74 361.65 334.4"/><polygon class="cls-39" points="363 344.18 363.82 345.85 365.66 346.12 364.33 347.42 364.64 349.25 363 348.38 361.35 349.25 361.66 347.42 360.33 346.12 362.17 345.85 363 344.18"/><polygon class="cls-39" points="368.49 338.26 369.54 340.39 371.9 340.73 370.19 342.39 370.6 344.74 368.49 343.63 366.38 344.74 366.79 342.39 365.08 340.73 367.44 340.39 368.49 338.26"/><polygon class="cls-39" points="371.9 348.33 372.2 348.94 372.87 349.03 372.38 349.5 372.5 350.17 371.9 349.86 371.3 350.17 371.41 349.5 370.93 349.03 371.6 348.94 371.9 348.33"/><polygon class="cls-39" points="355.05 348.33 355.54 349.33 356.65 349.49 355.85 350.27 356.04 351.38 355.05 350.85 354.06 351.38 354.25 350.27 353.45 349.49 354.55 349.33 355.05 348.33"/><polygon class="cls-39" points="364.36 331.28 364.79 332.14 365.73 332.27 365.05 332.94 365.21 333.88 364.36 333.44 363.52 333.88 363.68 332.94 363 332.27 363.94 332.14 364.36 331.28"/></g></g></svg>