<svg id="Layer_1" data-name="Layer 1" xmlns="http://www.w3.org/2000/svg" xmlns:xlink="http://www.w3.org/1999/xlink" viewBox="0 0 600 400"><defs><style>.cls-1,.cls-3,.cls-32{fill:none;}.cls-2{fill:#ebebeb;}.cls-3{stroke:#d4d4d4;}.cls-3,.cls-32,.cls-34{stroke-miterlimit:10;}.cls-4{fill:#d4d4d4;}.cls-5{fill:#630;}.cls-6{clip-path:url(#clip-path);}.cls-7{fill:#333;}.cls-8{fill:#00c4b4;}.cls-9{fill:#00d9cd;}.cls-10{fill:#111;}.cls-11{clip-path:url(#clip-path-2);}.cls-12{fill:#e01c1b;}.cls-13{fill:#00eadc;}.cls-14{fill:#00a08c;}.cls-15{fill:#005e50;}.cls-16{fill:#0080bb;}.cls-17{fill:#0091cb;}.cls-18{fill:#00b09c;}.cls-19,.cls-29{fill:#ffa65f;}.cls-20{fill:#ffcb00;}.cls-21{fill:#005b75;}.cls-22{fill:#004d61;}.cls-23{fill:#00001b;}.cls-24{fill:#000133;}.cls-25{fill:#ffdc37;}.cls-26{fill:#ffe677;}.cls-27{fill:#ff80cc;}.cls-28{fill:#f8e391;}.cls-29,.cls-30{fill-rule:evenodd;}.cls-30{fill:#f48e48;}.cls-31{fill:#fff;}.cls-32{stroke:#b4b4b4;stroke-linecap:round;stroke-width:4px;stroke-dasharray:3.97 7.94;}.cls-33{fill:#b4b4b4;}.cls-34{fill:#ffe9c2;stroke:#ffcd62;}.cls-35{fill:#ffa50a;}.cls-36{clip-path:url(#clip-path-3);}.cls-37{fill:#963a38;}.cls-38{fill:#e5b267;}.cls-39{fill:#c9862f;opacity:0.34;}.cls-40{clip-path:url(#clip-path-4);}.cls-41{fill:#f7c786;}.cls-42{clip-path:url(#clip-path-5);}.cls-43{fill:#d37a1a;}.cls-44{clip-path:url(#clip-path-6);}.cls-45{fill:#ef4440;}.cls-46{fill:#e21414;}.cls-47{clip-path:url(#clip-path-7);}.cls-48{fill:#ea6a0c;}.cls-49{fill:#dd4137;}.cls-50{clip-path:url(#clip-path-8);}.cls-51{fill:#fbb040;}</style><clipPath id="clip-path"><circle id="SVGID" class="cls-1" cx="446.97" cy="157.36" r="40"/></clipPath><clipPath id="clip-path-2"><path id="SVGID-2" data-name="SVGID" class="cls-1" d="M449.92,175.27a10,10,0,0,1-8.52-1.37l-.12-.08c-4-2.78-8.7,3.49-3.91,8.12S450.21,187,454.28,183C457.83,179.48,455.6,173.68,449.92,175.27Z"/></clipPath><clipPath id="clip-path-3"><circle id="SVGID-3" data-name="SVGID" class="cls-1" cx="64.1" cy="142.28" r="40"/></clipPath><clipPath id="clip-path-4"><path id="SVGID-4" data-name="SVGID" class="cls-1" d="M78.09,129.71s25.36,11.62,23.76-20.31c0,0,15.87,39.48-20.74,36Z"/></clipPath><clipPath id="clip-path-5"><path id="SVGID-5" data-name="SVGID" class="cls-1" d="M47.56,129.71S22.19,141.33,23.8,109.4c0,0-15.88,39.48,20.73,36Z"/></clipPath><clipPath id="clip-path-6"><path id="SVGID-6" data-name="SVGID" class="cls-1" d="M60.27,149.75A10.43,10.43,0,0,0,70.53,149l.15-.1c5-3.32,9.95,6,3.78,11.81s-15.78,5.25-20.18-.87C50.43,154.51,53.7,146.75,60.27,149.75Z"/></clipPath><clipPath id="clip-path-7"><path id="SVGID-7" data-name="SVGID" class="cls-1" d="M60.27,149.74A10.43,10.43,0,0,0,70.53,149l.15-.1c5-3.32,9.95,6,3.78,11.81s-15.78,5.25-20.18-.87C50.43,154.5,53.7,146.74,60.27,149.74Z"/></clipPath><clipPath id="clip-path-8"><path id="SVGID-8" data-name="SVGID" class="cls-1" d="M41.45,130.05l23.94-40.3,20.28,40.79S67.39,121.73,41.45,130.05Z"/></clipPath></defs><title>how-reader-1</title><path class="cls-2" d="M383.67,309.82H597a0,0,0,0,1,0,0v79.62a8,8,0,0,1-8,8H391.67a8,8,0,0,1-8-8V309.82A0,0,0,0,1,383.67,309.82Z"/><rect class="cls-3" x="383.67" y="81.93" width="213.33" height="315.51" rx="8" ry="8"/><rect class="cls-4" x="399.38" y="244.32" width="181.9" height="4.49"/><rect class="cls-4" x="399.38" y="258.97" width="181.9" height="4.48"/><rect class="cls-4" x="399.38" y="273.62" width="181.9" height="4.48"/><rect class="cls-4" x="399.38" y="214.28" width="181.9" height="4.48"/><rect class="cls-4" x="399.38" y="228.93" width="181.9" height="4.48"/><rect class="cls-5" x="399.38" y="359.16" width="181.9" height="4.48"/><rect class="cls-5" x="399.38" y="344.16" width="181.9" height="4.48"/><g class="cls-6"><rect class="cls-7" x="386.24" y="100.22" width="117.71" height="117.71"/><path class="cls-8" d="M395.63,182.16c8,4.17,19.39,3,21,2.8l-.69-5.77c-4.7.56-17.69.66-21.28-5.44-2.67-4.54,0-12.54,7.66-23.15l-4.71-3.4c-9.39,13-12,22.63-7.95,29.5A14.57,14.57,0,0,0,395.63,182.16Z"/><path class="cls-8" d="M497.7,195.1c-6.19-6.43-18.35-7.85-20.09-8l-2,6.43c5.05.51,18.34,3.48,19.13,10.95.59,5.57-5.85,13.64-18.63,23.33l3.2,4.81c15.64-11.86,22.81-21.73,21.91-30.15A12.32,12.32,0,0,0,497.7,195.1Z"/><path class="cls-9" d="M483.18,238.91c2.18-50.21-9.13-74.31-19.61-85.81l0,0a26.62,26.62,0,0,1-10.75,4.4,33.09,33.09,0,0,1-10.4-.67c-4.71-.87-9.72-2.46-13-5.79l-.33.29c-19.7,18-27,59.42-29.51,80.55a28.36,28.36,0,0,0,9.79,25c19.27,16.31,41,12.87,55.68,7.26A28.31,28.31,0,0,0,483.18,238.91Z"/><path class="cls-8" d="M483.18,238.91c1.06-24.5-1.09-42.77-4.78-56.41,0,1.36-.11,2.7-.18,4.05C477.34,202,475.69,217.71,467,231c-4,6.18-9.16,11.28-16,14.24a45.69,45.69,0,0,1-20.53,3.22c-6.36-.33-12.69-1.81-18-5.38a31,31,0,0,1-10.33-12.24c-.71-1.44-1.34-2.9-1.91-4.39-.27,1.93-.5,3.76-.71,5.46a28.36,28.36,0,0,0,9.79,25c19.27,16.31,41,12.87,55.68,7.26A28.31,28.31,0,0,0,483.18,238.91Z"/><path class="cls-10" d="M439.45,168.64c-.25,2-.9,3.57-1.46,3.5s-.82-1.75-.57-3.75.9-3.57,1.46-3.5S439.7,166.64,439.45,168.64Z"/><path class="cls-10" d="M454.47,170.5c-.25,2-.91,3.57-1.47,3.5s-.81-1.75-.56-3.75.9-3.57,1.46-3.5S454.72,168.5,454.47,170.5Z"/><path class="cls-10" d="M449.92,175.27a10,10,0,0,1-8.52-1.37l-.12-.08c-4-2.78-8.7,3.49-3.91,8.12S450.21,187,454.28,183C457.83,179.48,455.6,173.68,449.92,175.27Z"/><g class="cls-11"><path class="cls-12" d="M437.34,182.12s.09-5.05,7.51-.16c0,0,7-3.15,8.28,2.1C453.13,184.06,446,189.63,437.34,182.12Z"/></g><path class="cls-8" d="M472.72,180.7a7.92,7.92,0,1,1-6.52-8.36A7.93,7.93,0,0,1,472.72,180.7Z"/><path class="cls-8" d="M434.84,176a7.92,7.92,0,1,1-6.52-8.36A7.93,7.93,0,0,1,434.84,176Z"/><path class="cls-13" d="M443.08,187.56c0,.35.54.7,1.31.8s1.42-.11,1.46-.45-.55-.7-1.31-.79S443.12,187.22,443.08,187.56Z"/><path class="cls-14" d="M429.36,151.06s13-6.09,34.21,2C463.57,153.1,448.4,166.72,429.36,151.06Z"/><path class="cls-15" d="M431.17,152.33s9.54-4.89,30.92,1.78C462.09,154.11,450.64,164.48,431.17,152.33Z"/><circle class="cls-16" cx="468.95" cy="135.15" r="4.79" transform="translate(-18.37 161.52) rotate(-19.17)"/><circle class="cls-16" cx="445.59" cy="108.2" r="2.92" transform="translate(185.63 485.93) rotate(-69.11)"/><path class="cls-16" d="M451.73,108.55a1.23,1.23,0,0,1-1.37,1.06,1.22,1.22,0,1,1,.3-2.42A1.22,1.22,0,0,1,451.73,108.55Z"/><path class="cls-16" d="M448.57,110a1.16,1.16,0,1,1-.34,1.61A1.15,1.15,0,0,1,448.57,110Z"/><circle class="cls-17" cx="468.14" cy="133.1" r="1.83" transform="translate(17.36 316.6) rotate(-38.02)"/><path class="cls-13" d="M429.27,151.07s16.26,17.59,34.38,2C463.65,153.08,448.5,161.24,429.27,151.07Z"/><path class="cls-18" d="M392.47,149.47s.33-2.47,4.95-8.07l6.24,7.6S398.86,154.45,392.47,149.47Z"/><path class="cls-8" d="M395.94,153.12s10.88,2.74,9.4-6.27c0,0-1.16-5.71-2.72-1.13-1,3-2.88,5.12-9.36,2C393.26,147.75,390.22,151.05,395.94,153.12Z"/><path class="cls-8" d="M400.12,146.59h0a1.59,1.59,0,0,1-1.15-1.94l1.23-4.85a1.6,1.6,0,0,1,1.94-1.15h0a1.61,1.61,0,0,1,1.16,1.94l-1.24,4.85A1.59,1.59,0,0,1,400.12,146.59Z"/><path class="cls-19" d="M462.79,110.61l-1,.46a20.28,20.28,0,0,1,.9,2.17l1-.33A22.21,22.21,0,0,0,462.79,110.61Z"/><path class="cls-19" d="M461,107.42l-.87.6a19.78,19.78,0,0,1,1.23,2l.93-.5A23.94,23.94,0,0,0,461,107.42Z"/><path class="cls-19" d="M458.58,104.56l-.72.77a18.19,18.19,0,0,1,1.54,1.75l.84-.64A18.45,18.45,0,0,0,458.58,104.56Z"/><path class="cls-19" d="M455.63,102.27l-.5.93a12.77,12.77,0,0,1,1.89,1.36l.65-.83A14,14,0,0,0,455.63,102.27Z"/><path class="cls-19" d="M452.18,100.87l-.25,1a11.85,11.85,0,0,1,2.19.77l.43-1A12.58,12.58,0,0,0,452.18,100.87Z"/><path class="cls-19" d="M448.47,100.56v1a12.94,12.94,0,0,1,2.33.08l.16-1A13.94,13.94,0,0,0,448.47,100.56Z"/><path class="cls-19" d="M444.8,101.22l.28,1a10.83,10.83,0,0,1,1.12-.29,11.08,11.08,0,0,1,1.15-.21l-.1-1a10.38,10.38,0,0,0-1.24.22C445.61,101,445.19,101.08,444.8,101.22Z"/><path class="cls-19" d="M441.35,102.63l.51.92,1.05-.52,1.08-.44-.36-1-1.16.47Z"/><path class="cls-19" d="M438.39,105l.77.71a3.87,3.87,0,0,1,.4-.41l.42-.39c.3-.25.61-.47.92-.71l-.6-.87c-.33.26-.68.51-1,.78l-.47.43A3.19,3.19,0,0,0,438.39,105Z"/><path class="cls-19" d="M436.38,108.15l1,.38.23-.52.12-.26a2,2,0,0,1,.14-.25l.28-.5c.1-.16.22-.31.33-.47l-.86-.62c-.12.18-.25.35-.36.53l-.32.56a2.49,2.49,0,0,0-.15.28l-.13.29Z"/><path class="cls-19" d="M435.6,111.83l1,.06c.05-.38.06-.77.13-1.15,0-.19.06-.39.1-.57l.14-.56-1-.27-.15.61c0,.21-.07.42-.11.63C435.66,111,435.65,111.41,435.6,111.83Z"/><path class="cls-19" d="M435.81,115.54l1-.17a16.81,16.81,0,0,1-.21-2.34l-1.06,0A18.74,18.74,0,0,0,435.81,115.54Z"/><path class="cls-19" d="M436.68,119.11l1-.32c-.24-.75-.45-1.51-.62-2.28l-1,.22A21.4,21.4,0,0,0,436.68,119.11Z"/><path class="cls-19" d="M438,122.53l1-.45c-.34-.72-.64-1.45-.92-2.19l-1,.37C437.36,121,437.67,121.78,438,122.53Z"/><path class="cls-8" d="M397.09,145.82h0a1.6,1.6,0,0,1-1.16-1.94l1.24-4.85a1.59,1.59,0,0,1,1.94-1.15h0a1.6,1.6,0,0,1,1.15,1.94L399,144.67A1.6,1.6,0,0,1,397.09,145.82Z"/><path class="cls-20" d="M451.68,145.94a1.4,1.4,0,0,1,2,.23,1.11,1.11,0,0,1,0,1.5,11.81,11.81,0,0,1-9.43,3.67,1.09,1.09,0,0,1-.95-.71,1.69,1.69,0,0,1,.82-2Z"/><path class="cls-20" d="M446.05,126.89s6.85-1.51,11.52,9.38L453,138.83Z"/><path class="cls-20" d="M453.15,132.67a17.35,17.35,0,0,0-6.34-5.84,4,4,0,0,0-.76.06L453,138.83l2.34-1.3A19.11,19.11,0,0,0,453.15,132.67Z"/><path class="cls-20" d="M435.34,131.37s-5.89,3.82-1.42,14.79l5-1.47Z"/><path class="cls-20" d="M434.46,140.49a17.43,17.43,0,0,1,.29-8.62,4,4,0,0,1,.59-.5L439,144.69l-2.57.75A19.14,19.14,0,0,1,434.46,140.49Z"/><path class="cls-21" d="M437.86,122.68s-5.78,8.42-.78,19.53S449,149.35,449,149.35s7.69-2.16,3.3-13.52S437.86,122.68,437.86,122.68Z"/><path class="cls-22" d="M450.2,131.63c1.4,3.9,1.51,8.28-.48,11.61-1.51,2.51-5,4.41-8.53,4.88a7,7,0,0,0,7.83,1.23s7.69-2.16,3.3-13.52A23.87,23.87,0,0,0,450.2,131.63Z"/><path class="cls-20" d="M445.07,126.1a19,19,0,0,0-7.21-3.42,19.26,19.26,0,0,0-2.71,8.25A12.61,12.61,0,0,0,445.07,126.1Z"/><path class="cls-20" d="M447.27,134.89a3.89,3.89,0,1,1-5.09-2.09A3.88,3.88,0,0,1,447.27,134.89Z"/><path class="cls-23" d="M446,135.4a2.56,2.56,0,1,1-3.35-1.37A2.56,2.56,0,0,1,446,135.4Z"/><path class="cls-24" d="M442.13,136.82a1.8,1.8,0,0,1,.82-1.33,5.13,5.13,0,0,0,.9-.62,1.28,1.28,0,0,0,.23-.38,1.73,1.73,0,0,0-2.57,2.09,1.71,1.71,0,0,0,.72.82A1.28,1.28,0,0,1,442.13,136.82Z"/><path class="cls-25" d="M441.77,127.69a.69.69,0,0,1-.53-1.27"/><path class="cls-25" d="M442.72,133.19a.35.35,0,0,1-.64.27.36.36,0,0,1,.19-.46A.35.35,0,0,1,442.72,133.19Z"/><path class="cls-25" d="M444.93,133.09a.35.35,0,0,1-.18.46.36.36,0,0,1-.46-.19.34.34,0,0,1,.19-.45A.34.34,0,0,1,444.93,133.09Z"/><path class="cls-25" d="M447,134.8a.36.36,0,0,1-.19.46.35.35,0,1,1,.19-.46Z"/><path class="cls-25" d="M447,137.63a.34.34,0,0,1-.18.45.35.35,0,0,1-.46-.18.36.36,0,0,1,.19-.46A.34.34,0,0,1,447,137.63Z"/><path class="cls-25" d="M445.29,139.33a.34.34,0,0,1-.19.45.34.34,0,0,1-.45-.18.35.35,0,0,1,.18-.46A.36.36,0,0,1,445.29,139.33Z"/><path class="cls-25" d="M442.62,139.25a.34.34,0,0,1-.18.45.35.35,0,0,1-.46-.18.36.36,0,0,1,.19-.46A.34.34,0,0,1,442.62,139.25Z"/><path class="cls-25" d="M441.06,137.85a.34.34,0,0,1-.18.45.35.35,0,0,1-.46-.18.36.36,0,0,1,.19-.46A.34.34,0,0,1,441.06,137.85Z"/><path class="cls-25" d="M441,135.11a.36.36,0,0,1-.19.46.35.35,0,0,1-.45-.19.35.35,0,0,1,.64-.27Z"/><path class="cls-20" d="M453.35,147.42c.84.8,1.27,1.72.95,2.06s-1.26,0-2.11-.84-1.27-1.72-.95-2.06S452.5,146.62,453.35,147.42Z"/><path class="cls-20" d="M450.24,149.88c.45,1.08.46,2.09,0,2.27s-1.14-.54-1.59-1.62-.46-2.08,0-2.26S449.79,148.81,450.24,149.88Z"/><path class="cls-20" d="M444.44,151.14c0,1.16.34,2.11.8,2.12s.86-.92.89-2.08-.33-2.12-.8-2.13S444.47,150,444.44,151.14Z"/><polygon class="cls-26" points="470.15 124.64 470.64 125.63 471.73 125.79 470.94 126.56 471.13 127.64 470.15 127.13 469.18 127.64 469.36 126.56 468.57 125.79 469.67 125.63 470.15 124.64"/><polygon class="cls-26" points="473.93 139.46 474.09 139.8 474.47 139.86 474.2 140.13 474.26 140.5 473.93 140.32 473.59 140.5 473.65 140.13 473.38 139.86 473.76 139.8 473.93 139.46"/><polygon class="cls-26" points="423.44 145.91 423.93 146.9 425.02 147.06 424.23 147.83 424.41 148.91 423.44 148.4 422.46 148.91 422.65 147.83 421.86 147.06 422.95 146.9 423.44 145.91"/><polygon class="cls-26" points="424.87 144.57 425.01 144.87 425.33 144.91 425.1 145.14 425.15 145.46 424.87 145.31 424.58 145.46 424.63 145.14 424.4 144.91 424.72 144.87 424.87 144.57"/><polygon class="cls-26" points="423.8 150.37 423.98 150.74 424.4 150.8 424.1 151.1 424.17 151.51 423.8 151.32 423.43 151.51 423.5 151.1 423.19 150.8 423.61 150.74 423.8 150.37"/><polygon class="cls-26" points="451.54 136.62 451.76 137.07 452.26 137.14 451.9 137.49 451.98 137.99 451.54 137.75 451.09 137.99 451.18 137.49 450.82 137.14 451.31 137.07 451.54 136.62"/><polygon class="cls-26" points="454.36 113.34 454.85 114.33 455.94 114.49 455.15 115.25 455.34 116.34 454.36 115.83 453.39 116.34 453.57 115.25 452.78 114.49 453.88 114.33 454.36 113.34"/><polygon class="cls-26" points="450.2 103.69 450.49 104.26 451.12 104.36 450.66 104.8 450.77 105.43 450.2 105.14 449.64 105.43 449.75 104.8 449.29 104.36 449.92 104.26 450.2 103.69"/><path class="cls-27" d="M475.43,130.5a.48.48,0,0,1-.48.48.49.49,0,1,1,.48-.48Z"/><path class="cls-27" d="M476.16,127a.61.61,0,1,1-.6-.6A.6.6,0,0,1,476.16,127Z"/><path class="cls-27" d="M435.13,110.37a.49.49,0,0,1-.48.48.48.48,0,0,1-.48-.48.47.47,0,0,1,.48-.48A.48.48,0,0,1,435.13,110.37Z"/><path class="cls-27" d="M435.86,106.82a.61.61,0,1,1-.61-.6A.61.61,0,0,1,435.86,106.82Z"/><circle class="cls-27" cx="472.72" cy="122.32" r="0.65"/><circle class="cls-27" cx="475.82" cy="136.15" r="0.39"/><path class="cls-27" d="M421.69,137.71A.72.72,0,1,1,421,137,.72.72,0,0,1,421.69,137.71Z"/><path class="cls-27" d="M450.4,139.36a.62.62,0,1,1-.62-.61A.62.62,0,0,1,450.4,139.36Z"/><path class="cls-27" d="M464.27,148.52a.36.36,0,0,1-.35.36.36.36,0,0,1,0-.71A.35.35,0,0,1,464.27,148.52Z"/><path class="cls-27" d="M436.86,149.81a.79.79,0,1,1-.79-.78A.79.79,0,0,1,436.86,149.81Z"/><path class="cls-9" d="M471.34,121.93a.73.73,0,0,1-.72.73.73.73,0,0,1-.73-.73.73.73,0,0,1,.73-.72A.72.72,0,0,1,471.34,121.93Z"/><circle class="cls-27" cx="441.98" cy="115.22" r="0.65"/><path class="cls-9" d="M440.6,114.83a.72.72,0,1,1-1.44,0,.72.72,0,0,1,1.44,0Z"/><path class="cls-9" d="M473.73,127.69a.5.5,0,0,1-.5.51.51.51,0,1,1,0-1A.5.5,0,0,1,473.73,127.69Z"/><polygon class="cls-26" points="433.79 115.75 433.3 116.74 432.21 116.9 433 117.67 432.82 118.76 433.79 118.24 434.77 118.76 434.58 117.67 435.37 116.9 434.28 116.74 433.79 115.75"/><path class="cls-27" d="M427.79,118.07a.6.6,0,1,0,.6-.61A.6.6,0,0,0,427.79,118.07Z"/><path class="cls-27" d="M430.57,113.43a.65.65,0,0,0,.65.65.65.65,0,1,0,0-1.3A.65.65,0,0,0,430.57,113.43Z"/><path class="cls-9" d="M432.61,113.05a.72.72,0,0,0,1.44,0,.72.72,0,1,0-1.44,0Z"/><circle class="cls-9" cx="430.72" cy="118.81" r="0.51"/><path class="cls-9" d="M464,141.16a.46.46,0,0,1-.46.46.47.47,0,0,1-.46-.46.46.46,0,0,1,.46-.46A.45.45,0,0,1,464,141.16Z"/><path class="cls-9" d="M452.62,140.35a.57.57,0,0,1-.58.57.56.56,0,0,1-.57-.57.57.57,0,0,1,.57-.58A.58.58,0,0,1,452.62,140.35Z"/><path class="cls-9" d="M424.75,141.13a.48.48,0,1,1-.47-.48A.47.47,0,0,1,424.75,141.13Z"/><path class="cls-9" d="M477,138.87a.4.4,0,1,1-.8,0,.4.4,0,0,1,.8,0Z"/><path class="cls-8" d="M394.11,145.12h0a1.59,1.59,0,0,1-1.15-1.94l1.23-4.85a1.6,1.6,0,0,1,1.94-1.15h0a1.61,1.61,0,0,1,1.16,1.94L396.05,144A1.59,1.59,0,0,1,394.11,145.12Z"/><path class="cls-28" d="M458.38,143.79c.06-.13.24-.18.5-.08a28.26,28.26,0,0,1,5.12,2.85,28.63,28.63,0,0,1,4.6,3.63c.2.2.21.39.12.49l1.3.87,0,0c.62-.92-3.46-4-5.7-5.48s-6.63-4.08-7.25-3.16c0,0,0,0,0,0Z"/><path class="cls-29" d="M459.78,144.56a4.63,4.63,0,1,0,6.42-1.29A4.62,4.62,0,0,0,459.78,144.56Z"/><path class="cls-30" d="M466.93,143.88c-.66.69-.2,1.86-.54,2.76-.25.66-.76.61-1.34.48s-2.08-.37-1.73.53c.18.48.66.8.82,1.3.35,1.09-1.13,1.29-1.88,1.18a5.7,5.7,0,0,1-3-1.46,4.63,4.63,0,1,0,7.66-4.79Z"/><path class="cls-28" d="M470.07,151.09,468.38,150l.22.23c.36.37.13.71-.34.52a28.58,28.58,0,0,1-5.13-2.85,29.12,29.12,0,0,1-4.6-3.63c-.35-.37-.13-.71.35-.52l.3.12-1.69-1.13a.55.55,0,0,0-.4.19c-.61.92,3.46,4,5.7,5.48s6.64,4.08,7.25,3.16A.51.51,0,0,0,470.07,151.09Z"/><polygon class="cls-26" points="469.26 155.34 469.61 156.04 470.38 156.15 469.82 156.69 469.95 157.46 469.26 157.1 468.57 157.46 468.7 156.69 468.14 156.15 468.92 156.04 469.26 155.34"/></g><rect class="cls-7" x="395.64" y="92.77" width="23.15" height="23.15" rx="8" ry="8"/><path class="cls-31" d="M410.71,109.88V103h-.07L408,109.88h-1.87L403.44,103h-.06v6.86h-3V98h4l2.66,7h.06l2.64-7h4v11.84Z"/><path class="cls-32" d="M365.86,350.79c-18.33-.92-50.1-4.4-77-17C197.78,291,170.34,199.69,170.34,199.69"/><polygon class="cls-33" points="363.02 338.81 382.98 351.87 361.68 362.63 363.02 338.81"/><rect class="cls-34" x="2" y="2.99" width="319.18" height="202.72" rx="8" ry="8"/><rect class="cls-5" x="122.37" y="126.23" width="177.95" height="4.48"/><rect class="cls-5" x="122.37" y="156.23" width="177.95" height="4.48"/><rect class="cls-5" x="122.37" y="141.23" width="177.95" height="4.48"/><path class="cls-35" d="M91.05,37.5H50.89a13.84,13.84,0,1,0,.2,27.68H91.25a13.84,13.84,0,1,0-.2-27.68Z"/><path class="cls-35" d="M50.85,31.56A19.78,19.78,0,1,0,70.76,51.2,19.78,19.78,0,0,0,50.85,31.56Z"/><path class="cls-31" d="M62.36,51.26A11.38,11.38,0,1,1,50.91,40,11.37,11.37,0,0,1,62.36,51.26Z"/><path class="cls-5" d="M130.32,49.73c4.28,1,6.51,2.69,6.51,6.11,0,3.95-3.23,6.33-7.73,6.59V65h-1.57v-2.5c-4.45-.22-7.68-2.53-7.79-6.46h4.17c.26,1.63,1.42,2.74,3.62,2.94V53.24L126.38,53c-4.1-.92-6.33-2.75-6.33-6.13,0-3.76,3.12-6.2,7.48-6.43V37.9h1.57v2.53c4.4.28,7.28,2.72,7.42,6.45h-4.16A3.34,3.34,0,0,0,129.1,44v5.51Zm-2.79-5.8c-2,.2-3.11,1.24-3.11,2.52s.93,2.08,3.11,2.65Zm1.57,15c2.26-.19,3.37-1.17,3.37-2.61s-.86-2.11-3.37-2.72Z"/><path class="cls-5" d="M145.72,49.43h2.52c2.36,0,3.89-1.28,3.89-3.12s-1.27-3-3.52-3-3.76,1.19-3.9,3.14h-4.33c.23-4.12,3.51-6.76,8.23-6.76s8,2.36,8,6c0,2.88-2,4.74-4.71,5.29V51c3.35.31,5.53,2.3,5.53,5.39,0,4.09-3.54,6.81-8.78,6.81-5.09,0-8.56-2.75-8.76-6.89h4.5c.15,1.85,1.78,3.1,4.26,3.1s4-1.32,4-3.22c0-2.19-1.6-3.41-4.33-3.41h-2.58Z"/><g class="cls-36"><rect class="cls-7" x="3.37" y="85.13" width="117.71" height="117.71"/><path class="cls-37" d="M41.45,130.05s23.32-10.44,44.22.49C85.67,130.54,58.74,136.91,41.45,130.05Z"/><path class="cls-38" d="M78.09,129.71s25.36,11.62,23.76-20.31c0,0,15.87,39.48-20.74,36Z"/><path class="cls-39" d="M102.16,133.05c-6,3.94-17.71,4.25-23.71-1L81,145.45c17,1.59,22.68-6.07,23.89-14.74A14,14,0,0,1,102.16,133.05Z"/><g class="cls-40"><path class="cls-41" d="M84.2,127.53s-5,14.26,5.42,22.53l1.13-.73s-9.33-7.09-5.47-21.8Z"/><path class="cls-41" d="M91,124.84s-2.89,14.81,8.54,21.54l1-.88s-10.23-5.71-8.48-20.81Z"/><path class="cls-41" d="M95.26,118.79s1.32,15,14.16,18.35l.73-1.13s-11.41-2.66-13.9-17.66Z"/><path class="cls-41" d="M96,109.86s3.94,14.57,17.16,15.58l.52-1.24s-11.7-.62-16.78-15Z"/></g><path class="cls-38" d="M47.56,129.71S22.19,141.33,23.8,109.4c0,0-15.88,39.48,20.73,36Z"/><path class="cls-39" d="M23.48,133.05c6,3.94,17.71,4.25,23.71-1l-2.56,13.35c-17,1.59-22.69-6.07-23.9-14.74A14,14,0,0,0,23.48,133.05Z"/><g class="cls-42"><path class="cls-41" d="M41.44,127.53s5,14.26-5.42,22.53l-1.13-.73s9.33-7.09,5.47-21.8Z"/><path class="cls-41" d="M34.64,124.84s2.89,14.81-8.54,21.54l-1-.88s10.23-5.71,8.48-20.81Z"/><path class="cls-41" d="M30.38,118.79s-1.32,15-14.16,18.35L15.49,136s11.41-2.66,13.9-17.66Z"/><path class="cls-41" d="M29.66,109.86s-3.93,14.57-17.16,15.58L12,124.2s11.7-.62,16.78-15Z"/></g><path class="cls-35" d="M56.92,123.76s-2.89-3-.81-2.77a8.51,8.51,0,0,1,3.76,1.38S57,119.18,59,119.06s5.21,3.14,5.21,3.14,4.51-4.53,5.32-3.92-2.26,4.46-2.26,4.46,4.28-2.29,4.51-.3S69,125.33,69,125.33s6-.88,15.47,6.35c0,0,1.2,1.57-.69,1.73,0,0,15.72,16.77,13.41,18.94a3.22,3.22,0,0,1-1.08,0s24.55,84.66-7.78,76.94c0,0,.94,1.51.13,1.72s-2.63-1.21-2.63-1.21.09.61-.32.67-.66-.67-.66-.67.78,1.3-.18,1.57-2.4-.81-2.4-.81l-27.57.66a1.22,1.22,0,0,1-1.61,1.05,23.12,23.12,0,0,1-2.81-1.37c-.06.12-2.18,1.78-3.22,1.45s-1.77-2.09-1.77-2.09S12,243.6,33.46,156c0,0-2.16,2.41-2.16,0,0-1,5.71-24.14,15.27-27.67C46.57,128.31,41.29,126.78,56.92,123.76Z"/><path class="cls-43" d="M102.18,178.58c-.11.79-.23,1.59-.37,2.37-.53,2.77-3.22,10.7-6.67,8.68.09,4-1,9.07-5.57,8.09.13,3.66-2,7.88-5.86,6.34-1.23,4.82-5.59,5.29-9.92,3.75-1,3.35-2.14,6.13-6.23,6.1s-8.56-1.7-10.75-5.23c-5,5.91-13.93-.34-15.61-6.76-2.91,1.64-6.54,4.16-9.84,2.87-3.14-1.23-4.27-5.26-4.84-8.67-3,42.84,18.8,34.14,18.8,34.14s.73,1.75,1.77,2.09,3.16-1.33,3.22-1.45a23.12,23.12,0,0,0,2.81,1.37,1.22,1.22,0,0,0,1.61-1.05l27.57-.66s1.45,1.08,2.4.81c.67-.19.49-.87.32-1.27.12.19.3.4.52.37.41-.06.32-.67.32-.67s1.82,1.42,2.63,1.21-.13-1.72-.13-1.72C108.61,234.12,106.54,202.72,102.18,178.58Z"/><path class="cls-10" d="M60.27,149.75A10.43,10.43,0,0,0,70.53,149l.15-.1c5-3.32,9.95,6,3.78,11.81s-15.78,5.25-20.18-.87C50.43,154.51,53.7,146.75,60.27,149.75Z"/><g class="cls-44"><path class="cls-45" d="M74.48,161s.43-7-8.9-1.26c0,0-8-5.34-10,1.78C55.53,161.51,63.39,170.23,74.48,161Z"/><path class="cls-46" d="M65.8,162.66a1.13,1.13,0,0,1-1.35-.17,17.08,17.08,0,0,0-6.75-4.11,5,5,0,0,0-2.17,3.13s6.94,7.7,17,1C71.11,160.21,67.53,161.45,65.8,162.66Z"/></g><g class="cls-47"><path class="cls-31" d="M59.47,148.27s.77,3.36-.43,4.22c-.39.28-2.53.49-3,.09-1.3-1.08-1.15-4.41-1.15-4.41S58.83,145.81,59.47,148.27Z"/><path class="cls-31" d="M63.66,148.87s.77,3.36-.43,4.22a4.59,4.59,0,0,1-3,.09c-1.3-1.08-1.16-4.41-1.16-4.41S63,146.41,63.66,148.87Z"/><path class="cls-31" d="M69,148.87s.78,3.36-.42,4.22a4.62,4.62,0,0,1-3,.09c-1.29-1.08-1.15-4.41-1.15-4.41S68.32,146.41,69,148.87Z"/><path class="cls-31" d="M73.06,148.27s.78,3.36-.42,4.22c-.39.28-2.54.49-3,.09-1.3-1.08-1.16-4.41-1.16-4.41S72.42,145.81,73.06,148.27Z"/></g><ellipse class="cls-10" cx="73.85" cy="144.88" rx="1.46" ry="2.11"/><ellipse class="cls-10" cx="55.41" cy="144.88" rx="1.46" ry="2.11"/><circle class="cls-43" cx="82.63" cy="148.05" r="5.19"/><path class="cls-43" d="M42.37,148.78a5.19,5.19,0,1,0,5.19-5.19A5.18,5.18,0,0,0,42.37,148.78Z"/><path class="cls-48" d="M83.53,194s.66,3.63-4,4.24a.91.91,0,0,1-.77-1.54,8.58,8.58,0,0,1,2.51-1.49s-4.61,2-4.84.68,4.18-1.67,4.18-1.67-4.3.09-4.2-1,4.38-.32,4.38-.32-2.63-.62-2.36-1.87S83.88,190.29,83.53,194Z"/><path class="cls-48" d="M110.83,170.39c-1.69-3.65-7.55-4.57-11.2-4.24.17.75.35,1.54.53,2.37a12.81,12.81,0,0,1,5,.58,6.21,6.21,0,0,1,3.06,1.9c.88,1.18.75,2.29.43,3.71-.83,3.64-3.4,6.71-6,9.24A33.82,33.82,0,0,1,83,193.16c-1.52.17-1.54,2.58,0,2.41a36.11,36.11,0,0,0,24.38-13.29C109.64,179.35,112.61,174.23,110.83,170.39Z"/><path class="cls-48" d="M46.68,196.55s-.66,3.63,4,4.24a.91.91,0,0,0,.77-1.54,8.44,8.44,0,0,0-2.51-1.49s4.62,2,4.85.68-4.19-1.67-4.19-1.67,4.3.09,4.2-1-4.37-.32-4.37-.32,2.63-.62,2.36-1.87S46.32,192.81,46.68,196.55Z"/><path class="cls-48" d="M19.38,172.9c1.68-3.64,7.55-4.56,11.19-4.23-.17.75-.3,1.56-.48,2.39a13,13,0,0,0-5,.56,6.16,6.16,0,0,0-3.06,1.9c-.89,1.18-.76,2.29-.43,3.71.83,3.64,3.4,6.71,6,9.24a33.8,33.8,0,0,0,19.6,9.21c1.53.17,1.55,2.58,0,2.41A36.07,36.07,0,0,1,22.87,184.8C20.57,181.87,17.6,176.75,19.38,172.9Z"/><path class="cls-49" d="M41.45,130.05l23.94-40.3,20.28,40.79S67.39,121.73,41.45,130.05Z"/><path class="cls-37" d="M66.87,90.12a2.41,2.41,0,0,1-2.69.23c-1.46-.82-3.45-2.16-2.36-2.84,1.63-1,3.14,1.76,3.14,1.76s-.57-3.52.53-3.07.45,3.1.45,3.1.24-2.73,2.32-2.12C69.61,87.58,68.13,89.11,66.87,90.12Z"/><g class="cls-50"><polygon class="cls-51" points="61.06 99.89 62.85 103.52 66.85 104.1 63.96 106.92 64.64 110.91 61.06 109.03 57.48 110.91 58.17 106.92 55.27 104.1 59.27 103.52 61.06 99.89"/><polygon class="cls-51" points="63.16 115.07 64.43 117.66 67.29 118.08 65.22 120.09 65.71 122.94 63.16 121.59 60.6 122.94 61.09 120.09 59.02 118.08 61.88 117.66 63.16 115.07"/><polygon class="cls-51" points="71.68 105.88 73.31 109.19 76.96 109.72 74.32 112.3 74.94 115.94 71.68 114.22 68.41 115.94 69.04 112.3 66.39 109.72 70.05 109.19 71.68 105.88"/><polygon class="cls-51" points="76.96 121.51 77.43 122.45 78.47 122.6 77.72 123.33 77.89 124.37 76.96 123.88 76.03 124.37 76.21 123.33 75.46 122.6 76.5 122.45 76.96 121.51"/><polygon class="cls-51" points="50.82 121.51 51.59 123.06 53.31 123.31 52.07 124.53 52.36 126.23 50.82 125.43 49.29 126.23 49.58 124.53 48.34 123.31 50.06 123.06 50.82 121.51"/><polygon class="cls-51" points="65.28 95.06 65.93 96.39 67.4 96.6 66.34 97.64 66.59 99.1 65.28 98.41 63.97 99.1 64.22 97.64 63.16 96.6 64.62 96.39 65.28 95.06"/></g></g></svg>