<svg id="Layer_1" data-name="Layer 1" xmlns="http://www.w3.org/2000/svg" xmlns:xlink="http://www.w3.org/1999/xlink" viewBox="0 0 600 400"><defs><style>.cls-1,.cls-2,.cls-3{fill:none;}.cls-2{stroke:#fff;stroke-width:4px;}.cls-2,.cls-3{stroke-miterlimit:10;}.cls-3{stroke:#d4d4d4;}.cls-4{fill:#d4d4d4;}.cls-5{clip-path:url(#clip-path);}.cls-6{fill:#333;}.cls-7{fill:#00c4b4;}.cls-8{fill:#00d9cd;}.cls-9{fill:#111;}.cls-10{clip-path:url(#clip-path-2);}.cls-11{fill:#e01c1b;}.cls-12{fill:#00eadc;}.cls-13{fill:#00a08c;}.cls-14{fill:#005e50;}.cls-15{fill:#0080bb;}.cls-16{fill:#0091cb;}.cls-17{fill:#00b09c;}.cls-18,.cls-28{fill:#ffa65f;}.cls-19{fill:#ffcb00;}.cls-20{fill:#005b75;}.cls-21{fill:#004d61;}.cls-22{fill:#00001b;}.cls-23{fill:#000133;}.cls-24{fill:#ffdc37;}.cls-25{fill:#ffe677;}.cls-26{fill:#ff80cc;}.cls-27{fill:#f8e391;}.cls-28,.cls-29{fill-rule:evenodd;}.cls-29{fill:#f48e48;}.cls-30{font-size:16.8px;font-family:SFProDisplay-Black, SF Pro Display;}.cls-30,.cls-51{fill:#fff;}.cls-31{clip-path:url(#clip-path-3);}.cls-32{fill:#ffeea4;}.cls-33{fill:#ff960b;}.cls-34{fill:#ffa50a;}.cls-35{fill:#fffbca;}.cls-36{fill:#5dc8dd;}.cls-37{fill:#1e0e00;}.cls-38{fill:#965028;}.cls-39{clip-path:url(#clip-path-4);}.cls-40{fill:#963a38;}.cls-41{fill:#e5b267;}.cls-42{fill:#c9862f;opacity:0.34;}.cls-43{clip-path:url(#clip-path-5);}.cls-44{fill:#f7c786;}.cls-45{clip-path:url(#clip-path-6);}.cls-46{fill:#d37a1a;}.cls-47{clip-path:url(#clip-path-7);}.cls-48{fill:#ef4440;}.cls-49{fill:#e21414;}.cls-50{clip-path:url(#clip-path-8);}.cls-52{fill:#ea6a0c;}.cls-53{fill:#dd4137;}.cls-54{clip-path:url(#clip-path-9);}.cls-55{fill:#fbb040;}.cls-56{clip-path:url(#clip-path-10);}.cls-57{fill:#c8e6eb;}.cls-58{fill:#f5415f;}.cls-59{fill:#55c7a6;}.cls-60{clip-path:url(#clip-path-11);}.cls-61{clip-path:url(#clip-path-12);}.cls-62{font-size:160px;fill:#c33;}.cls-62,.cls-63{font-family:SFProDisplay-Bold, SF Pro Display;font-weight:700;}.cls-63{font-size:32px;fill:#630;}</style><clipPath id="clip-path"><circle id="SVGID" class="cls-1" cx="174.32" cy="154.37" r="40"/></clipPath><clipPath id="clip-path-2"><path id="SVGID-2" data-name="SVGID" class="cls-1" d="M177.26,172.27a10.06,10.06,0,0,1-8.52-1.36l-.12-.09c-4-2.78-8.69,3.49-3.91,8.12S177.55,184,181.62,180C185.18,176.48,182.94,170.68,177.26,172.27Z"/></clipPath><clipPath id="clip-path-3"><circle id="SVGID-3" data-name="SVGID" class="cls-2" cx="311.88" cy="337.04" r="40"/></clipPath><clipPath id="clip-path-4"><circle id="SVGID-4" data-name="SVGID" class="cls-2" cx="213.89" cy="337.04" r="40"/></clipPath><clipPath id="clip-path-5"><path id="SVGID-5" data-name="SVGID" class="cls-1" d="M227.88,324.48s25.36,11.61,23.76-20.32c0,0,15.87,39.49-20.74,36Z"/></clipPath><clipPath id="clip-path-6"><path id="SVGID-6" data-name="SVGID" class="cls-1" d="M197.35,324.48S172,336.09,173.59,304.16c0,0-15.88,39.49,20.73,36Z"/></clipPath><clipPath id="clip-path-7"><path id="SVGID-7" data-name="SVGID" class="cls-1" d="M210.06,344.51a10.43,10.43,0,0,0,10.26-.73l.15-.1c5-3.32,9.95,6,3.78,11.82s-15.78,5.24-20.18-.88C200.22,349.27,203.49,341.52,210.06,344.51Z"/></clipPath><clipPath id="clip-path-8"><path id="SVGID-8" data-name="SVGID" class="cls-1" d="M210.06,344.5a10.43,10.43,0,0,0,10.26-.73l.15-.1c5-3.32,9.95,6,3.78,11.82s-15.78,5.24-20.18-.88C200.22,349.26,203.49,341.51,210.06,344.5Z"/></clipPath><clipPath id="clip-path-9"><path id="SVGID-9" data-name="SVGID" class="cls-1" d="M191.24,324.82l23.94-40.31,20.28,40.8S217.18,316.49,191.24,324.82Z"/></clipPath><clipPath id="clip-path-10"><circle id="SVGID-10" data-name="SVGID" class="cls-2" cx="414.93" cy="337.04" r="40"/></clipPath><clipPath id="clip-path-11"><circle id="SVGID-11" data-name="SVGID" class="cls-2" cx="518.89" cy="337.04" r="40"/></clipPath><clipPath id="clip-path-12"><path id="SVGID-12" data-name="SVGID" class="cls-1" d="M503.61,340.75v.07c0,9.05,6.82,16.38,15.22,16.38s15.22-7.33,15.22-16.38v-.07Z"/></clipPath></defs><title>how-reader-3</title><rect class="cls-3" x="111.01" y="78.93" width="213.33" height="315.51" rx="8" ry="8"/><rect class="cls-4" x="126.73" y="241.32" width="181.9" height="4.49"/><rect class="cls-4" x="126.73" y="255.97" width="181.9" height="4.48"/><rect class="cls-4" x="126.73" y="270.63" width="181.9" height="4.48"/><rect class="cls-4" x="126.73" y="211.28" width="181.9" height="4.48"/><rect class="cls-4" x="126.73" y="225.93" width="181.9" height="4.48"/><g class="cls-5"><rect class="cls-6" x="113.58" y="97.22" width="117.71" height="117.71"/><path class="cls-7" d="M123,179.16c8,4.17,19.39,3,21,2.8l-.69-5.77c-4.71.56-17.7.67-21.29-5.43-2.66-4.55,0-12.55,7.66-23.15L125,144.2c-9.39,13-12,22.63-7.95,29.51A14.62,14.62,0,0,0,123,179.16Z"/><path class="cls-7" d="M225,192.1c-6.18-6.42-18.34-7.85-20.09-8l-2,6.42c5.06.51,18.34,3.48,19.14,11,.59,5.56-5.86,13.63-18.63,23.32l3.2,4.82c15.64-11.87,22.8-21.74,21.9-30.16A12.3,12.3,0,0,0,225,192.1Z"/><path class="cls-8" d="M210.52,235.91c2.18-50.21-9.13-74.31-19.61-85.81l0,0a26.5,26.5,0,0,1-10.75,4.4,33.11,33.11,0,0,1-10.4-.67c-4.71-.87-9.72-2.46-13-5.79l-.33.29c-19.7,18-27,59.43-29.5,80.55a28.33,28.33,0,0,0,9.79,25c19.26,16.31,41,12.87,55.68,7.27A28.32,28.32,0,0,0,210.52,235.91Z"/><path class="cls-7" d="M210.52,235.91c1.07-24.49-1.08-42.77-4.78-56.4,0,1.35-.1,2.7-.18,4C204.68,199,203,214.71,194.38,228c-4,6.18-9.16,11.28-16,14.24a45.69,45.69,0,0,1-20.53,3.22c-6.35-.33-12.68-1.81-18-5.37a31.23,31.23,0,0,1-10.33-12.25c-.71-1.44-1.34-2.9-1.91-4.39-.27,1.93-.5,3.76-.7,5.46a28.33,28.33,0,0,0,9.79,25c19.26,16.31,41,12.87,55.68,7.27A28.32,28.32,0,0,0,210.52,235.91Z"/><path class="cls-9" d="M166.79,165.64c-.24,2-.9,3.57-1.46,3.5s-.81-1.74-.57-3.75.91-3.57,1.47-3.5S167,163.64,166.79,165.64Z"/><path class="cls-9" d="M181.81,167.51c-.25,2-.9,3.56-1.46,3.49s-.82-1.74-.57-3.75.9-3.56,1.46-3.5S182.06,165.5,181.81,167.51Z"/><path class="cls-9" d="M177.26,172.27a10.06,10.06,0,0,1-8.52-1.36l-.12-.09c-4-2.78-8.69,3.49-3.91,8.12S177.55,184,181.62,180C185.18,176.48,182.94,170.68,177.26,172.27Z"/><g class="cls-10"><path class="cls-11" d="M164.68,179.13s.09-5.06,7.51-.17c0,0,7-3.15,8.28,2.1C180.47,181.06,173.35,186.63,164.68,179.13Z"/></g><path class="cls-7" d="M200.06,177.7a7.92,7.92,0,1,1-6.52-8.36A7.92,7.92,0,0,1,200.06,177.7Z"/><path class="cls-7" d="M162.18,173a7.91,7.91,0,1,1-6.51-8.36A7.92,7.92,0,0,1,162.18,173Z"/><path class="cls-12" d="M170.42,184.57c0,.34.54.69,1.31.79s1.42-.11,1.46-.45-.54-.7-1.31-.79S170.46,184.22,170.42,184.57Z"/><path class="cls-13" d="M156.7,148.06s13-6.09,34.21,2C190.91,150.1,175.74,163.72,156.7,148.06Z"/><path class="cls-14" d="M158.51,149.33s9.54-4.89,30.92,1.78C189.43,151.11,178,161.48,158.51,149.33Z"/><circle class="cls-15" cx="196.29" cy="132.16" r="4.79" transform="translate(-32.52 71.8) rotate(-19.17)"/><circle class="cls-15" cx="172.93" cy="105.2" r="2.92" transform="translate(12.99 229.26) rotate(-69.11)"/><path class="cls-15" d="M179.07,105.55a1.22,1.22,0,1,1-2.43-.3,1.22,1.22,0,0,1,2.43.3Z"/><path class="cls-15" d="M175.91,107a1.16,1.16,0,1,1-.34,1.61A1.16,1.16,0,0,1,175.91,107Z"/><circle class="cls-16" cx="195.49" cy="130.1" r="1.83" transform="translate(-38.65 148.02) rotate(-38.02)"/><path class="cls-12" d="M156.62,148.07s16.26,17.59,34.38,2C191,150.08,175.85,158.24,156.62,148.07Z"/><path class="cls-17" d="M119.81,146.47s.34-2.47,5-8.07L131,146S126.2,151.45,119.81,146.47Z"/><path class="cls-7" d="M123.29,150.12s10.87,2.75,9.4-6.27c0,0-1.17-5.71-2.72-1.13-1,3-2.89,5.12-9.37,2C120.6,144.75,117.56,148.05,123.29,150.12Z"/><path class="cls-7" d="M127.46,143.6h0a1.61,1.61,0,0,1-1.15-1.95l1.23-4.84a1.61,1.61,0,0,1,2-1.16h0a1.6,1.6,0,0,1,1.15,1.94l-1.23,4.85A1.62,1.62,0,0,1,127.46,143.6Z"/><path class="cls-18" d="M190.13,107.62l-.95.45a19.14,19.14,0,0,1,.9,2.17l1-.33A19.33,19.33,0,0,0,190.13,107.62Z"/><path class="cls-18" d="M188.3,104.42l-.87.6c.44.65.85,1.33,1.23,2l.92-.5A21.69,21.69,0,0,0,188.3,104.42Z"/><path class="cls-18" d="M185.92,101.56l-.71.77a18.48,18.48,0,0,1,1.54,1.76l.83-.65A18.45,18.45,0,0,0,185.92,101.56Z"/><path class="cls-18" d="M183,99.27l-.5.93a14.83,14.83,0,0,1,1.89,1.36l.65-.83A14.58,14.58,0,0,0,183,99.27Z"/><path class="cls-18" d="M179.53,97.87l-.26,1a11.52,11.52,0,0,1,2.2.78l.42-1A12.48,12.48,0,0,0,179.53,97.87Z"/><path class="cls-18" d="M175.81,97.56l0,1.06a12,12,0,0,1,2.32.07l.17-1A13.15,13.15,0,0,0,175.81,97.56Z"/><path class="cls-18" d="M172.14,98.22l.28,1c.37-.13.75-.19,1.13-.29a10.89,10.89,0,0,1,1.14-.21l-.1-1a10.22,10.22,0,0,0-1.23.22C173,98,172.54,98.08,172.14,98.22Z"/><path class="cls-18" d="M168.69,99.63l.52.92,1-.52,1.08-.44-.36-1-1.16.47Z"/><path class="cls-18" d="M165.73,102l.77.71a3.18,3.18,0,0,1,.41-.41l.42-.39c.29-.25.61-.47.91-.71l-.6-.87c-.33.26-.68.51-1,.78l-.46.43A3.9,3.9,0,0,0,165.73,102Z"/><path class="cls-18" d="M163.72,105.15l1,.38.23-.52.12-.26a2,2,0,0,1,.14-.25l.28-.5c.1-.16.22-.31.33-.47l-.86-.61c-.12.17-.25.34-.36.52l-.32.56-.15.28-.13.29Z"/><path class="cls-18" d="M163,108.83l1.05.06a11.24,11.24,0,0,1,.13-1.15l.09-.57.14-.56-1-.27-.15.61c0,.21-.07.42-.1.63A10.39,10.39,0,0,0,163,108.83Z"/><path class="cls-18" d="M163.15,112.54l1-.17A18.49,18.49,0,0,1,164,110l-1,0A18.73,18.73,0,0,0,163.15,112.54Z"/><path class="cls-18" d="M164,116.12l1-.33c-.23-.75-.45-1.51-.61-2.28l-1,.22C163.55,114.54,163.77,115.33,164,116.12Z"/><path class="cls-18" d="M165.37,119.53l.95-.45c-.34-.71-.64-1.45-.92-2.19l-1,.37C164.7,118,165,118.79,165.37,119.53Z"/><path class="cls-7" d="M124.43,142.82h0a1.59,1.59,0,0,1-1.15-1.94l1.23-4.85a1.6,1.6,0,0,1,1.94-1.15h0a1.6,1.6,0,0,1,1.15,1.94l-1.23,4.85A1.6,1.6,0,0,1,124.43,142.82Z"/><path class="cls-19" d="M179,142.94a1.4,1.4,0,0,1,2,.23,1.1,1.1,0,0,1,0,1.5,11.8,11.8,0,0,1-9.43,3.68,1.07,1.07,0,0,1-.94-.72,1.67,1.67,0,0,1,.82-2Z"/><path class="cls-19" d="M173.39,123.9s6.85-1.51,11.52,9.37l-4.59,2.56Z"/><path class="cls-19" d="M180.49,129.68a17.43,17.43,0,0,0-6.33-5.85,4.5,4.5,0,0,0-.77.07l6.93,11.93,2.34-1.3A19,19,0,0,0,180.49,129.68Z"/><path class="cls-19" d="M162.68,128.38s-5.89,3.81-1.42,14.78l5-1.47Z"/><path class="cls-19" d="M161.81,137.49a17.43,17.43,0,0,1,.28-8.62,5.06,5.06,0,0,1,.59-.49l3.62,13.31-2.56.75A18.79,18.79,0,0,1,161.81,137.49Z"/><path class="cls-20" d="M165.2,119.68s-5.78,8.42-.78,19.53,11.94,7.14,11.94,7.14,7.7-2.16,3.3-13.52A20.74,20.74,0,0,0,165.2,119.68Z"/><path class="cls-21" d="M177.54,128.64c1.4,3.89,1.51,8.28-.48,11.6-1.51,2.51-5,4.42-8.53,4.88a7,7,0,0,0,7.83,1.23s7.7-2.16,3.3-13.52A23.43,23.43,0,0,0,177.54,128.64Z"/><path class="cls-19" d="M172.42,123.1a19,19,0,0,0-7.22-3.42,19.19,19.19,0,0,0-2.7,8.26A12.66,12.66,0,0,0,172.42,123.1Z"/><path class="cls-19" d="M174.62,131.89a3.9,3.9,0,1,1-5.1-2.09A3.89,3.89,0,0,1,174.62,131.89Z"/><path class="cls-22" d="M173.38,132.4A2.56,2.56,0,1,1,170,131,2.55,2.55,0,0,1,173.38,132.4Z"/><path class="cls-23" d="M169.47,133.83a1.77,1.77,0,0,1,.83-1.33,6.21,6.21,0,0,0,.89-.63,1.38,1.38,0,0,0,.24-.38,1.73,1.73,0,1,0-1.85,2.91A1.14,1.14,0,0,1,169.47,133.83Z"/><path class="cls-24" d="M169.11,124.69a.69.69,0,0,1-.53-1.27"/><path class="cls-24" d="M170.06,130.19a.35.35,0,0,1-.18.46.36.36,0,0,1-.46-.19.34.34,0,0,1,.19-.45A.34.34,0,0,1,170.06,130.19Z"/><path class="cls-24" d="M172.28,130.09a.36.36,0,0,1-.19.46.34.34,0,0,1-.45-.19.34.34,0,0,1,.18-.45A.35.35,0,0,1,172.28,130.09Z"/><path class="cls-24" d="M174.36,131.81a.34.34,0,0,1-.18.45.36.36,0,0,1-.46-.19.35.35,0,0,1,.64-.26Z"/><path class="cls-24" d="M174.32,134.63a.34.34,0,0,1-.19.45.34.34,0,0,1-.45-.18.35.35,0,0,1,.18-.46A.36.36,0,0,1,174.32,134.63Z"/><path class="cls-24" d="M172.63,136.33a.35.35,0,0,1-.64.27.36.36,0,0,1,.19-.46A.35.35,0,0,1,172.63,136.33Z"/><path class="cls-24" d="M170,136.25a.34.34,0,0,1-.19.45.34.34,0,0,1-.45-.18.35.35,0,0,1,.18-.46A.36.36,0,0,1,170,136.25Z"/><path class="cls-24" d="M168.41,134.85a.34.34,0,0,1-.19.45.34.34,0,0,1-.45-.18.35.35,0,0,1,.18-.46A.36.36,0,0,1,168.41,134.85Z"/><path class="cls-24" d="M168.34,132.11a.35.35,0,0,1-.18.46.36.36,0,0,1-.46-.19.34.34,0,0,1,.19-.45A.34.34,0,0,1,168.34,132.11Z"/><path class="cls-19" d="M180.69,144.42c.85.8,1.27,1.72.95,2.06s-1.26,0-2.1-.84-1.28-1.72-1-2.06S179.85,143.62,180.69,144.42Z"/><path class="cls-19" d="M177.58,146.88c.45,1.08.47,2.09,0,2.27s-1.14-.54-1.59-1.62-.47-2.08,0-2.26S177.13,145.81,177.58,146.88Z"/><path class="cls-19" d="M171.79,148.14c0,1.17.33,2.12.79,2.13s.87-.93.89-2.09-.33-2.11-.79-2.12S171.81,147,171.79,148.14Z"/><polygon class="cls-25" points="197.5 121.64 197.99 122.63 199.08 122.79 198.29 123.56 198.47 124.64 197.5 124.13 196.52 124.64 196.71 123.56 195.92 122.79 197.01 122.63 197.5 121.64"/><polygon class="cls-25" points="201.27 136.47 201.44 136.81 201.81 136.86 201.54 137.13 201.61 137.5 201.27 137.32 200.93 137.5 201 137.13 200.72 136.86 201.1 136.81 201.27 136.47"/><polygon class="cls-25" points="150.78 142.91 151.27 143.9 152.36 144.06 151.57 144.83 151.76 145.91 150.78 145.4 149.81 145.91 149.99 144.83 149.2 144.06 150.29 143.9 150.78 142.91"/><polygon class="cls-25" points="152.21 141.57 152.35 141.87 152.68 141.91 152.44 142.14 152.5 142.46 152.21 142.31 151.92 142.46 151.98 142.14 151.74 141.91 152.06 141.87 152.21 141.57"/><polygon class="cls-25" points="151.14 147.37 151.33 147.75 151.74 147.81 151.44 148.1 151.51 148.51 151.14 148.32 150.77 148.51 150.84 148.1 150.54 147.81 150.95 147.75 151.14 147.37"/><polygon class="cls-25" points="178.88 133.62 179.1 134.07 179.6 134.14 179.24 134.49 179.33 134.99 178.88 134.75 178.44 134.99 178.52 134.49 178.16 134.14 178.66 134.07 178.88 133.62"/><polygon class="cls-25" points="181.71 110.34 182.19 111.33 183.28 111.49 182.5 112.26 182.68 113.34 181.71 112.83 180.73 113.34 180.92 112.26 180.13 111.49 181.22 111.33 181.71 110.34"/><polygon class="cls-25" points="177.55 100.69 177.83 101.26 178.47 101.36 178.01 101.8 178.12 102.44 177.55 102.14 176.98 102.44 177.09 101.8 176.63 101.36 177.26 101.26 177.55 100.69"/><path class="cls-26" d="M202.78,127.5a.49.49,0,0,1-1,0,.49.49,0,0,1,1,0Z"/><path class="cls-26" d="M203.5,124a.6.6,0,0,1-.6.61.61.61,0,1,1,0-1.21A.6.6,0,0,1,203.5,124Z"/><path class="cls-26" d="M162.47,107.37a.48.48,0,0,1-.48.48.49.49,0,0,1-.48-.48.48.48,0,0,1,.48-.48A.47.47,0,0,1,162.47,107.37Z"/><path class="cls-26" d="M163.2,103.82a.61.61,0,1,1-.6-.6A.6.6,0,0,1,163.2,103.82Z"/><circle class="cls-26" cx="200.06" cy="119.32" r="0.65"/><circle class="cls-26" cx="203.17" cy="133.15" r="0.39"/><path class="cls-26" d="M149,134.71a.72.72,0,1,1-.72-.72A.72.72,0,0,1,149,134.71Z"/><path class="cls-26" d="M177.74,136.37a.61.61,0,0,1-.62.61.62.62,0,0,1,0-1.23A.62.62,0,0,1,177.74,136.37Z"/><path class="cls-26" d="M191.61,145.53a.35.35,0,0,1-.35.35.35.35,0,0,1-.35-.35.35.35,0,0,1,.35-.35A.34.34,0,0,1,191.61,145.53Z"/><path class="cls-26" d="M164.2,146.81a.79.79,0,1,1-.79-.78A.79.79,0,0,1,164.2,146.81Z"/><path class="cls-8" d="M198.68,118.93a.72.72,0,1,1-1.44,0,.72.72,0,1,1,1.44,0Z"/><circle class="cls-26" cx="169.33" cy="112.22" r="0.65"/><path class="cls-8" d="M168,111.83a.73.73,0,0,1-.73.73.73.73,0,1,1,.73-.73Z"/><path class="cls-8" d="M201.08,124.7a.51.51,0,0,1-1,0,.51.51,0,0,1,1,0Z"/><polygon class="cls-25" points="161.14 112.75 160.65 113.74 159.56 113.9 160.35 114.67 160.16 115.76 161.14 115.25 162.11 115.76 161.93 114.67 162.72 113.9 161.62 113.74 161.14 112.75"/><path class="cls-26" d="M155.13,115.07a.61.61,0,0,0,1.21,0,.61.61,0,1,0-1.21,0Z"/><path class="cls-26" d="M157.92,110.43a.65.65,0,1,0,1.3,0,.65.65,0,0,0-1.3,0Z"/><path class="cls-8" d="M160,110.05a.72.72,0,0,0,.72.72.72.72,0,1,0,0-1.44A.72.72,0,0,0,160,110.05Z"/><circle class="cls-8" cx="158.06" cy="115.81" r="0.51"/><path class="cls-8" d="M191.34,138.16a.47.47,0,0,1-.46.46.46.46,0,0,1-.46-.46.45.45,0,0,1,.46-.46A.46.46,0,0,1,191.34,138.16Z"/><path class="cls-8" d="M180,137.35a.58.58,0,0,1-1.15,0,.58.58,0,1,1,1.15,0Z"/><path class="cls-8" d="M152.1,138.13a.49.49,0,0,1-.48.48.48.48,0,0,1-.48-.48.47.47,0,0,1,.48-.48A.48.48,0,0,1,152.1,138.13Z"/><path class="cls-8" d="M204.3,135.87a.4.4,0,1,1-.4-.39A.4.4,0,0,1,204.3,135.87Z"/><path class="cls-7" d="M121.46,142.12h0a1.59,1.59,0,0,1-1.16-1.94l1.23-4.85a1.61,1.61,0,0,1,2-1.15h0a1.6,1.6,0,0,1,1.15,1.94L123.4,141A1.6,1.6,0,0,1,121.46,142.12Z"/><path class="cls-27" d="M185.73,140.79c.06-.13.24-.18.49-.08a28.26,28.26,0,0,1,5.12,2.85,28.86,28.86,0,0,1,4.61,3.63c.19.2.21.39.11.49l1.31.87s0,0,0,0c.61-.92-3.46-4-5.7-5.48s-6.64-4.08-7.25-3.16l0,0Z"/><path class="cls-28" d="M187.12,141.56a4.63,4.63,0,1,0,6.43-1.29A4.63,4.63,0,0,0,187.12,141.56Z"/><path class="cls-29" d="M194.28,140.88c-.67.69-.21,1.86-.55,2.76-.24.66-.75.61-1.34.48s-2.08-.37-1.73.53c.18.48.66.8.82,1.3.35,1.09-1.13,1.29-1.87,1.18a5.69,5.69,0,0,1-3-1.46A4.56,4.56,0,0,0,188.4,148a4.63,4.63,0,0,0,5.88-7.1Z"/><path class="cls-27" d="M197.41,148.09,195.72,147l.23.23c.35.37.13.71-.35.53a29.19,29.19,0,0,1-5.12-2.86,28.63,28.63,0,0,1-4.6-3.63c-.36-.37-.13-.71.34-.52l.3.12-1.69-1.13a.51.51,0,0,0-.39.19c-.62.92,3.46,4,5.7,5.48s6.63,4.08,7.25,3.16A.51.51,0,0,0,197.41,148.09Z"/><polygon class="cls-25" points="196.6 152.34 196.95 153.04 197.72 153.15 197.16 153.7 197.29 154.47 196.6 154.1 195.91 154.47 196.05 153.7 195.49 153.15 196.26 153.04 196.6 152.34"/></g><rect class="cls-6" x="122.99" y="89.78" width="23.15" height="23.15" rx="8" ry="8"/><text class="cls-30" transform="translate(126.86 106.89)">M</text><g class="cls-31"><rect class="cls-32" x="251.14" y="279.9" width="117.71" height="117.71"/><path class="cls-33" d="M311.65,304.92a2.9,2.9,0,0,0-2.32,4.64,8.92,8.92,0,0,1,1.49,4.85v5.76a.83.83,0,0,0,.83.83.84.84,0,0,0,.84-.83v-5.76a8.92,8.92,0,0,1,1.49-4.85,2.9,2.9,0,0,0-2.33-4.64Z"/><path class="cls-33" d="M295.91,309.24a2.9,2.9,0,0,0,.3,5.18,9,9,0,0,1,3.72,3.46l2.88,5a.83.83,0,1,0,1.44-.83l-2.88-5a8.91,8.91,0,0,1-1.13-5,2.83,2.83,0,0,0-.37-1.78A2.9,2.9,0,0,0,295.91,309.24Z"/><path class="cls-33" d="M284.48,320.84a2.9,2.9,0,0,0,2.85,4.34,8.91,8.91,0,0,1,4.95,1.13l5,2.88a.84.84,0,0,0,1.14-.31.82.82,0,0,0-.31-1.13l-5-2.88a8.87,8.87,0,0,1-3.45-3.73,2.9,2.9,0,0,0-5.18-.3Z"/><path class="cls-33" d="M327.8,309.24a2.9,2.9,0,0,1-.3,5.18,9,9,0,0,0-3.72,3.46l-2.88,5a.83.83,0,1,1-1.44-.83l2.88-5a8.91,8.91,0,0,0,1.13-5,2.83,2.83,0,0,1,.37-1.78A2.9,2.9,0,0,1,327.8,309.24Z"/><path class="cls-33" d="M339.28,320.84a2.9,2.9,0,0,1-2.85,4.34,8.91,8.91,0,0,0-4.95,1.13l-5,2.88a.84.84,0,0,1-1.14-.31.82.82,0,0,1,.31-1.13l5-2.88a8.87,8.87,0,0,0,3.45-3.73,2.9,2.9,0,0,1,5.18-.3Z"/><path class="cls-33" d="M309.58,373.74a3.3,3.3,0,0,1-3.3,3.3h0a3.29,3.29,0,0,1-3.29-3.3v-8.81a3.29,3.29,0,0,1,3.29-3.3h0a3.29,3.29,0,0,1,3.3,3.3Z"/><path class="cls-33" d="M319.67,373.74a3.3,3.3,0,0,1-3.3,3.3h0a3.3,3.3,0,0,1-3.3-3.3v-8.81a3.3,3.3,0,0,1,3.3-3.3h0a3.3,3.3,0,0,1,3.3,3.3Z"/><path class="cls-34" d="M334.69,364c0,18.37-10.23,33.26-22.84,33.26h0C299.24,397.26,289,382.37,289,364V348.85c0-18.37,10.22-33.26,22.83-33.26h0c12.61,0,22.84,14.89,22.84,33.26Z"/><path class="cls-35" d="M324.32,336.42A12.47,12.47,0,1,1,311.85,324,12.46,12.46,0,0,1,324.32,336.42Z"/><path class="cls-36" d="M317.17,336.42a5.32,5.32,0,1,1-5.32-5.32A5.32,5.32,0,0,1,317.17,336.42Z"/><path class="cls-37" d="M314.26,336.42a2.41,2.41,0,1,1-2.41-2.41A2.41,2.41,0,0,1,314.26,336.42Z"/><path class="cls-38" d="M311.65,353.68a12.36,12.36,0,0,1-4.1-.67,4.11,4.11,0,0,0,8.21,0A12.38,12.38,0,0,1,311.65,353.68Z"/></g><circle id="SVGID-13" data-name="SVGID" class="cls-2" cx="311.88" cy="337.04" r="40"/><g class="cls-39"><rect class="cls-32" x="153.16" y="279.9" width="117.71" height="117.71"/><path class="cls-40" d="M191.24,324.82s23.33-10.45,44.22.49C235.46,325.31,208.53,331.67,191.24,324.82Z"/><path class="cls-41" d="M227.88,324.48s25.36,11.61,23.76-20.32c0,0,15.87,39.49-20.74,36Z"/><path class="cls-42" d="M252,327.82c-6,3.93-17.71,4.24-23.71-.95l2.57,13.34c17,1.6,22.68-6.07,23.89-14.73A14,14,0,0,1,252,327.82Z"/><g class="cls-43"><path class="cls-44" d="M234,322.29s-5,14.26,5.42,22.53l1.13-.73s-9.33-7.09-5.47-21.8Z"/><path class="cls-44" d="M240.79,319.6s-2.89,14.81,8.54,21.54l1-.88s-10.23-5.71-8.48-20.81Z"/><path class="cls-44" d="M245.05,313.56s1.32,15,14.16,18.34l.73-1.13s-11.41-2.66-13.9-17.66Z"/><path class="cls-44" d="M245.78,304.63s3.93,14.57,17.15,15.57l.52-1.24s-11.7-.61-16.78-14.94Z"/></g><path class="cls-41" d="M197.35,324.48S172,336.09,173.59,304.16c0,0-15.88,39.49,20.73,36Z"/><path class="cls-42" d="M173.27,327.82c6,3.93,17.71,4.24,23.71-.95l-2.56,13.34c-17,1.6-22.69-6.07-23.9-14.73A14,14,0,0,0,173.27,327.82Z"/><g class="cls-45"><path class="cls-44" d="M191.24,322.29s4.94,14.26-5.43,22.53l-1.13-.73s9.33-7.09,5.47-21.8Z"/><path class="cls-44" d="M184.43,319.6s2.89,14.81-8.54,21.54l-1-.88s10.23-5.71,8.48-20.81Z"/><path class="cls-44" d="M180.17,313.56s-1.31,15-14.16,18.34l-.73-1.13s11.41-2.66,13.9-17.66Z"/><path class="cls-44" d="M179.45,304.63s-3.93,14.57-17.16,15.57l-.52-1.24s11.7-.61,16.78-14.94Z"/></g><path class="cls-34" d="M206.71,318.53s-2.89-3-.81-2.78a8.46,8.46,0,0,1,3.76,1.39s-2.89-3.2-.87-3.32S214,317,214,317s4.51-4.52,5.32-3.92-2.26,4.46-2.26,4.46,4.28-2.29,4.51-.3-2.75,2.89-2.75,2.89,6-.88,15.47,6.36c0,0,1.2,1.56-.69,1.72,0,0,15.73,16.77,13.41,18.94a3.22,3.22,0,0,1-1.08,0s24.55,84.66-7.78,76.94c0,0,.94,1.51.13,1.72s-2.63-1.2-2.63-1.2.09.6-.32.66-.66-.66-.66-.66.78,1.29-.18,1.56-2.4-.81-2.4-.81l-27.57.66a1.22,1.22,0,0,1-1.61,1,21.58,21.58,0,0,1-2.81-1.37c-.06.12-2.18,1.78-3.22,1.45s-1.77-2.09-1.77-2.09-33.36,13.34-11.86-74.28c0,0-2.16,2.41-2.15,0,0-1,5.7-24.13,15.26-27.67C196.36,323.07,191.08,321.54,206.71,318.53Z"/><path class="cls-46" d="M252,373.34c-.11.8-.23,1.59-.37,2.37-.53,2.77-3.22,10.71-6.67,8.68.09,4-1,9.07-5.57,8.1.13,3.66-2,7.87-5.86,6.34-1.23,4.82-5.59,5.28-9.92,3.74-1,3.35-2.14,6.13-6.23,6.1s-8.56-1.7-10.75-5.23c-5,5.91-13.93-.34-15.61-6.75-2.91,1.64-6.54,4.15-9.84,2.86-3.14-1.23-4.27-5.25-4.84-8.67-3,42.84,18.8,34.14,18.8,34.14s.73,1.76,1.77,2.09,3.16-1.33,3.22-1.45a21.58,21.58,0,0,0,2.81,1.37,1.22,1.22,0,0,0,1.61-1l27.57-.66s1.45,1.09,2.4.81c.67-.18.49-.87.32-1.27.12.2.3.4.52.37.41-.06.32-.66.32-.66s1.82,1.41,2.63,1.2-.13-1.72-.13-1.72C258.4,428.89,256.34,397.49,252,373.34Z"/><path class="cls-9" d="M210.06,344.51a10.43,10.43,0,0,0,10.26-.73l.15-.1c5-3.32,9.95,6,3.78,11.82s-15.78,5.24-20.18-.88C200.22,349.27,203.49,341.52,210.06,344.51Z"/><g class="cls-47"><path class="cls-48" d="M224.27,355.76s.43-7-8.9-1.27c0,0-8-5.33-10.05,1.78C205.32,356.27,213.18,365,224.27,355.76Z"/><path class="cls-49" d="M215.59,357.43a1.14,1.14,0,0,1-1.35-.18,17,17,0,0,0-6.75-4.11,5,5,0,0,0-2.17,3.13s7,7.7,17,1C220.91,355,217.32,356.21,215.59,357.43Z"/></g><g class="cls-50"><path class="cls-51" d="M209.26,343s.77,3.37-.42,4.22a4.56,4.56,0,0,1-3,.1c-1.3-1.09-1.15-4.42-1.15-4.42S208.62,340.57,209.26,343Z"/><path class="cls-51" d="M213.45,343.63s.77,3.36-.43,4.22a4.59,4.59,0,0,1-3,.1c-1.3-1.09-1.15-4.42-1.15-4.42S212.81,341.17,213.45,343.63Z"/><path class="cls-51" d="M218.75,343.63s.78,3.36-.42,4.22c-.39.28-2.54.49-3,.1-1.3-1.09-1.16-4.42-1.16-4.42S218.11,341.17,218.75,343.63Z"/><path class="cls-51" d="M222.85,343s.78,3.37-.42,4.22a4.53,4.53,0,0,1-3,.1c-1.3-1.09-1.16-4.42-1.16-4.42S222.22,340.57,222.85,343Z"/></g><ellipse class="cls-9" cx="223.64" cy="339.64" rx="1.46" ry="2.11"/><ellipse class="cls-9" cx="205.2" cy="339.64" rx="1.46" ry="2.11"/><circle class="cls-46" cx="232.42" cy="342.82" r="5.19"/><path class="cls-46" d="M192.16,343.54a5.19,5.19,0,1,0,5.19-5.18A5.19,5.19,0,0,0,192.16,343.54Z"/><path class="cls-52" d="M233.32,388.8s.66,3.62-4,4.23a.9.9,0,0,1-.77-1.53,8.55,8.55,0,0,1,2.51-1.5s-4.61,2-4.84.68,4.18-1.67,4.18-1.67-4.3.09-4.2-1,4.38-.32,4.38-.32-2.63-.62-2.36-1.86S233.68,385.05,233.32,388.8Z"/><path class="cls-52" d="M260.62,365.15c-1.69-3.64-7.55-4.56-11.2-4.24.17.75.35,1.54.53,2.37a12.81,12.81,0,0,1,5,.58,6.22,6.22,0,0,1,3.06,1.91c.88,1.17.75,2.28.43,3.71-.83,3.64-3.4,6.71-6,9.23a33.76,33.76,0,0,1-19.61,9.21c-1.52.17-1.54,2.58,0,2.42a36.19,36.19,0,0,0,24.38-13.29C259.43,374.11,262.4,369,260.62,365.15Z"/><path class="cls-52" d="M196.47,391.32s-.66,3.62,4,4.23a.9.9,0,0,0,.77-1.53,8.41,8.41,0,0,0-2.51-1.5s4.62,2,4.85.68-4.19-1.67-4.19-1.67,4.3.09,4.2-1-4.37-.32-4.37-.32,2.63-.62,2.36-1.86S196.11,387.57,196.47,391.32Z"/><path class="cls-52" d="M169.17,367.67c1.68-3.64,7.55-4.56,11.19-4.24-.17.75-.3,1.57-.48,2.39a13,13,0,0,0-5,.56,6.18,6.18,0,0,0-3.06,1.91c-.89,1.17-.76,2.28-.43,3.71.83,3.64,3.4,6.71,6,9.23a33.76,33.76,0,0,0,19.6,9.21c1.53.17,1.55,2.58,0,2.41a36.1,36.1,0,0,1-24.37-13.28C170.36,376.63,167.39,371.51,169.17,367.67Z"/><path class="cls-53" d="M191.24,324.82l23.94-40.31,20.28,40.8S217.18,316.49,191.24,324.82Z"/><path class="cls-40" d="M216.66,284.88a2.41,2.41,0,0,1-2.69.23c-1.46-.82-3.45-2.16-2.36-2.84,1.63-1,3.14,1.76,3.14,1.76s-.57-3.51.53-3.07.45,3.11.45,3.11.24-2.74,2.32-2.13C219.4,282.34,217.92,283.88,216.66,284.88Z"/><g class="cls-54"><polygon class="cls-55" points="210.85 294.66 212.64 298.28 216.65 298.87 213.75 301.69 214.43 305.67 210.85 303.79 207.27 305.67 207.96 301.69 205.06 298.87 209.06 298.28 210.85 294.66"/><polygon class="cls-55" points="212.94 309.83 214.22 312.43 217.08 312.84 215.01 314.86 215.5 317.7 212.94 316.36 210.39 317.7 210.88 314.86 208.81 312.84 211.67 312.43 212.94 309.83"/><polygon class="cls-55" points="221.47 300.65 223.1 303.96 226.75 304.49 224.11 307.06 224.74 310.7 221.47 308.98 218.2 310.7 218.83 307.06 216.18 304.49 219.84 303.96 221.47 300.65"/><polygon class="cls-55" points="226.75 316.27 227.22 317.21 228.26 317.37 227.51 318.1 227.68 319.13 226.75 318.64 225.82 319.13 226 318.1 225.25 317.37 226.29 317.21 226.75 316.27"/><polygon class="cls-55" points="200.62 316.27 201.38 317.83 203.1 318.08 201.86 319.29 202.15 321 200.62 320.19 199.08 321 199.37 319.29 198.13 318.08 199.85 317.83 200.62 316.27"/><polygon class="cls-55" points="215.07 289.82 215.72 291.15 217.19 291.36 216.13 292.4 216.38 293.86 215.07 293.17 213.76 293.86 214.01 292.4 212.94 291.36 214.41 291.15 215.07 289.82"/></g></g><circle id="SVGID-14" data-name="SVGID" class="cls-2" cx="213.89" cy="337.04" r="40"/><g class="cls-56"><rect class="cls-32" x="354.19" y="279.9" width="117.71" height="117.71"/><path class="cls-57" d="M446.56,384.05c0,1.42-13.79,2.57-30.8,2.57S385,385.47,385,384.05s13.79-2.56,30.81-2.56S446.56,382.64,446.56,384.05Z"/><path class="cls-57" d="M405.39,315.22c1.68,3.25.92,5.43-.91,6.38s-4,.29-5.72-3-2.51-8.49-.68-9.44S403.7,312,405.39,315.22Z"/><path class="cls-57" d="M423.94,315.22c-1.68,3.25-.93,5.43.9,6.38s4.05.29,5.73-3,2.51-8.49.68-9.44S425.62,312,423.94,315.22Z"/><path class="cls-53" d="M413,314.85s-6.51-11.49-3.79-9.83,3.2,6.21,3.2,6.21-1.07-10.12,1.65-9.17,0,9.19,0,9.19,3.79-5.4,4.74-4.45S413,314.85,413,314.85Z"/><path class="cls-46" d="M440.9,353.31c2.86,3,7.36,5.34,8.88,3.91s-.51-6.05-3.37-9.09-5.47-3.35-7-1.92S438,350.26,440.9,353.31Z"/><path class="cls-58" d="M400.77,377.15c-1.15,4-4.09,8.11-6.1,7.54s-2.31-5.62-1.16-9.63,3.33-5.48,5.34-4.9S401.92,373.13,400.77,377.15Z"/><path class="cls-46" d="M388.42,353.31c-2.86,3-7.35,5.34-8.87,3.91s.51-6.05,3.37-9.09,5.47-3.35,7-1.92S391.28,350.26,388.42,353.31Z"/><path class="cls-58" d="M428.56,377.15c1.15,4,4.09,8.11,6.1,7.54s2.31-5.62,1.16-9.63-3.34-5.48-5.34-4.9S427.4,373.13,428.56,377.15Z"/><path class="cls-34" d="M443.37,353.52c0,19-12.85,27.54-28.71,27.54S386,372.53,386,353.52s12.85-41.29,28.7-41.29S443.37,334.51,443.37,353.52Z"/><path class="cls-46" d="M414.66,375.26c-15,0-27.37-7.68-28.6-24.7-.06,1-.1,2-.1,3,0,19,12.85,27.54,28.7,27.54s28.71-8.53,28.71-27.54c0-1,0-2-.11-3C442,367.58,429.7,375.26,414.66,375.26Z"/><path class="cls-51" d="M405.11,339.26c0,3.39-1.68,6.13-3.74,6.13s-3.73-2.74-3.73-6.13,1.67-6.13,3.73-6.13S405.11,335.88,405.11,339.26Z"/><path class="cls-59" d="M403,339.26a1.59,1.59,0,1,1-1.59-1.58A1.59,1.59,0,0,1,403,339.26Z"/><path class="cls-51" d="M424.22,339.26c0,3.39,1.67,6.13,3.73,6.13s3.73-2.74,3.73-6.13-1.67-6.13-3.73-6.13S424.22,335.88,424.22,339.26Z"/><circle class="cls-59" cx="427.95" cy="339.26" r="1.58"/><path class="cls-38" d="M414.1,351.87c-12.74,0-22.72-3.7-22.72-8.42h.69c0,4.19,10.09,7.73,22,7.73s22-3.54,22-7.73h.69C436.83,348.17,426.85,351.87,414.1,351.87Z"/><circle class="cls-46" cx="432.36" cy="369.79" r="2.82"/><path class="cls-46" d="M420.7,370.81a.77.77,0,1,1-.77-.77A.78.78,0,0,1,420.7,370.81Z"/><circle class="cls-46" cx="397.96" cy="362.19" r="0.92"/><path class="cls-46" d="M403,372.54a2.5,2.5,0,1,1-2.5-2.5A2.5,2.5,0,0,1,403,372.54Z"/></g><circle id="SVGID-15" data-name="SVGID" class="cls-2" cx="414.93" cy="337.04" r="40"/><g class="cls-60"><rect class="cls-32" x="458.15" y="279.9" width="117.71" height="117.71"/><path class="cls-33" d="M539,355a12.2,12.2,0,0,1-5.42-1.31c-8.26-4.06-7.62-13.6-7.59-14a2.86,2.86,0,0,1,3-2.71,2.92,2.92,0,0,1,2.61,3.16c0,.27-.31,5.92,4.36,8.22a6.33,6.33,0,0,0,7.46-1.18c2.62-2.48,4.75-8,2.18-15.35a3,3,0,0,1,1.69-3.78A2.8,2.8,0,0,1,551,329.8c2.92,8.32,1.47,16.85-3.68,21.73A12,12,0,0,1,539,355Z"/><path class="cls-33" d="M497.6,355a11,11,0,0,1-7.82-3.46c-4.86-4.88-6.22-13.41-3.48-21.73a2.62,2.62,0,0,1,3.44-1.76,3,3,0,0,1,1.6,3.78c-2.44,7.37-.42,12.87,2.05,15.35a5.7,5.7,0,0,0,7,1.17c4.48-2.33,4.11-8.13,4.11-8.19A2.87,2.87,0,0,1,507,337a2.78,2.78,0,0,1,2.89,2.71c0,.4.62,9.94-7.16,14A11,11,0,0,1,497.6,355Z"/><path class="cls-34" d="M536.64,373.4h-35.7c-5.49-19.15-7.61-44-4.45-61.85,1.79-.46,5.19,10.47,7,10.13,11-2,18.9-1.87,30.56.13,1.8.31,5.42-10.65,7.24-10.26C544.27,331.24,542.93,355.85,536.64,373.4Z"/><path class="cls-33" d="M526.65,364.68H511.38a13.46,13.46,0,0,1-13.13-10.62A140.79,140.79,0,0,1,495,329.64c-.57,14.2,1.91,37.11,6.1,51.75h35.7c4.63-12.89,6.31-34.77,5.81-49a111.19,111.19,0,0,1-2.92,22A13.47,13.47,0,0,1,526.65,364.68Z"/><path class="cls-38" d="M503.61,340.75v.07c0,9.05,6.82,16.38,15.22,16.38s15.22-7.33,15.22-16.38v-.07Z"/><ellipse cx="509.58" cy="336.05" rx="1.51" ry="2.28"/><ellipse cx="528.55" cy="336.05" rx="1.51" ry="2.28"/><path class="cls-51" d="M508,340.75s-.93,4.87,0,5.95,3.38-5.95,3.38-5.95Z"/><path class="cls-51" d="M529.66,340.75s.94,4.87,0,5.95-3.37-5.95-3.37-5.95Z"/><g class="cls-61"><path class="cls-51" d="M512.6,356.29s.58-4.41,1.29-4.56,1.94,6.42,1.94,6.42Z"/><path class="cls-51" d="M525.06,356.29s-.57-4.41-1.29-4.56-1.94,6.42-1.94,6.42Z"/></g></g><circle id="SVGID-16" data-name="SVGID" class="cls-2" cx="518.89" cy="337.04" r="40"/><text class="cls-62" transform="translate(36.69 106.89) rotate(16.76)">!</text><text class="cls-63" transform="matrix(0.99, -0.12, 0.12, 0.99, 233.77, 170.93)">+ $175</text></svg>