<svg id="Layer_1" data-name="Layer 1" xmlns="http://www.w3.org/2000/svg" xmlns:xlink="http://www.w3.org/1999/xlink" viewBox="0 0 600 400"><defs><style>.cls-1,.cls-2,.cls-3,.cls-4{fill:none;}.cls-2{stroke:#fff;stroke-width:4px;}.cls-2,.cls-3,.cls-4{stroke-miterlimit:10;}.cls-3{stroke:#00d9cd;}.cls-4{stroke:#d4d4d4;}.cls-5{fill:#d4d4d4;}.cls-6{clip-path:url(#clip-path);}.cls-7{fill:#333;}.cls-8{fill:#00c4b4;}.cls-9{fill:#00d9cd;}.cls-10{fill:#111;}.cls-11{clip-path:url(#clip-path-2);}.cls-12{fill:#e01c1b;}.cls-13{fill:#00eadc;}.cls-14{fill:#00a08c;}.cls-15{fill:#005e50;}.cls-16{fill:#0080bb;}.cls-17{fill:#0091cb;}.cls-18{fill:#00b09c;}.cls-19,.cls-29{fill:#ffa65f;}.cls-20{fill:#ffcb00;}.cls-21{fill:#005b75;}.cls-22{fill:#004d61;}.cls-23{fill:#00001b;}.cls-24{fill:#000133;}.cls-25{fill:#ffdc37;}.cls-26{fill:#ffe677;}.cls-27{fill:#ff80cc;}.cls-28{fill:#f8e391;}.cls-29,.cls-30{fill-rule:evenodd;}.cls-30{fill:#f48e48;}.cls-31{font-size:16.8px;font-family:SFProDisplay-Black, SF Pro Display;}.cls-31,.cls-52,.cls-69{fill:#fff;}.cls-32{clip-path:url(#clip-path-3);}.cls-33{fill:#ffeea4;}.cls-34{fill:#ff960b;}.cls-35{fill:#ffa50a;}.cls-36{fill:#fffbca;}.cls-37{fill:#5dc8dd;}.cls-38{fill:#1e0e00;}.cls-39{fill:#965028;}.cls-40{clip-path:url(#clip-path-4);}.cls-41{fill:#963a38;}.cls-42{fill:#e5b267;}.cls-43{fill:#c9862f;opacity:0.34;}.cls-44{clip-path:url(#clip-path-5);}.cls-45{fill:#f7c786;}.cls-46{clip-path:url(#clip-path-6);}.cls-47{fill:#d37a1a;}.cls-48{clip-path:url(#clip-path-7);}.cls-49{fill:#ef4440;}.cls-50{fill:#e21414;}.cls-51{clip-path:url(#clip-path-8);}.cls-53{fill:#ea6a0c;}.cls-54{fill:#dd4137;}.cls-55{clip-path:url(#clip-path-9);}.cls-56{fill:#fbb040;}.cls-57{clip-path:url(#clip-path-10);}.cls-58{fill:#c8e6eb;}.cls-59{fill:#f5415f;}.cls-60{fill:#55c7a6;}.cls-61{clip-path:url(#clip-path-11);}.cls-62{clip-path:url(#clip-path-12);}.cls-63{font-size:32px;fill:#630;font-family:SFProDisplay-Bold, SF Pro Display;font-weight:700;}.cls-64{clip-path:url(#clip-path-13);}.cls-65{fill:#cafffa;}.cls-66{clip-path:url(#clip-path-14);}.cls-67{clip-path:url(#clip-path-15);}.cls-68{fill:#ffcd62;}.cls-69{font-size:24px;font-family:SFProDisplay-Regular, SF Pro Display;}.cls-70{fill:#ffae18;}.cls-71{fill:#d71558;}.cls-72{fill:#f8df9c;}.cls-73{fill:#fcc198;}.cls-74{fill:#34312f;}</style><clipPath id="clip-path"><circle id="SVGID" class="cls-1" cx="79.03" cy="157" r="40"/></clipPath><clipPath id="clip-path-2"><path id="SVGID-2" data-name="SVGID" class="cls-1" d="M82,174.91a10.1,10.1,0,0,1-8.52-1.37l-.12-.09c-4-2.78-8.69,3.49-3.9,8.13s12.83,5,16.9,1C89.89,179.12,87.65,173.31,82,174.91Z"/></clipPath><clipPath id="clip-path-3"><circle id="SVGID-3" data-name="SVGID" class="cls-2" cx="198.07" cy="337.04" r="40"/></clipPath><clipPath id="clip-path-4"><circle id="SVGID-4" data-name="SVGID" class="cls-2" cx="100.09" cy="337.04" r="40"/></clipPath><clipPath id="clip-path-5"><path id="SVGID-5" data-name="SVGID" class="cls-1" d="M114.07,324.48s25.37,11.61,23.76-20.32c0,0,15.88,39.49-20.73,36Z"/></clipPath><clipPath id="clip-path-6"><path id="SVGID-6" data-name="SVGID" class="cls-1" d="M83.54,324.48s-25.37,11.61-23.76-20.32c0,0-15.88,39.49,20.73,36Z"/></clipPath><clipPath id="clip-path-7"><path id="SVGID-7" data-name="SVGID" class="cls-1" d="M96.26,344.51a10.43,10.43,0,0,0,10.26-.73l.15-.1c5-3.32,10,6,3.77,11.82s-15.78,5.24-20.18-.88C86.41,349.27,89.68,341.52,96.26,344.51Z"/></clipPath><clipPath id="clip-path-8"><path id="SVGID-8" data-name="SVGID" class="cls-1" d="M96.26,344.5a10.43,10.43,0,0,0,10.26-.73l.15-.1c5-3.32,10,6,3.77,11.82s-15.78,5.24-20.18-.88C86.41,349.26,89.68,341.51,96.26,344.5Z"/></clipPath><clipPath id="clip-path-9"><path id="SVGID-9" data-name="SVGID" class="cls-1" d="M77.44,324.82l23.93-40.31,20.28,40.8S103.37,316.49,77.44,324.82Z"/></clipPath><clipPath id="clip-path-10"><circle id="SVGID-10" data-name="SVGID" class="cls-2" cx="301.12" cy="337.04" r="40"/></clipPath><clipPath id="clip-path-11"><circle id="SVGID-11" data-name="SVGID" class="cls-2" cx="405.08" cy="337.04" r="40"/></clipPath><clipPath id="clip-path-12"><path id="SVGID-12" data-name="SVGID" class="cls-1" d="M389.81,340.75v.07c0,9.05,6.81,16.38,15.22,16.38s15.22-7.33,15.22-16.38v-.07Z"/></clipPath><clipPath id="clip-path-13"><rect class="cls-3" x="138.8" y="3.33" width="458.29" height="215.53" rx="8" ry="8"/></clipPath><clipPath id="clip-path-14"><circle id="SVGID-13" data-name="SVGID" class="cls-1" cx="197.17" cy="63.26" r="40"/></clipPath><clipPath id="clip-path-15"><path id="SVGID-14" data-name="SVGID" class="cls-1" d="M200.11,81.17a10.1,10.1,0,0,1-8.52-1.37l-.12-.09c-4-2.78-8.69,3.49-3.91,8.13s12.84,5,16.91,1C208,85.38,205.79,79.57,200.11,81.17Z"/></clipPath></defs><title>how-writer-3</title><rect class="cls-4" x="15.72" y="81.56" width="213.33" height="315.51" rx="8" ry="8"/><rect class="cls-5" x="31.44" y="243.95" width="181.9" height="4.49"/><rect class="cls-5" x="31.44" y="258.6" width="181.9" height="4.48"/><rect class="cls-5" x="31.44" y="273.26" width="181.9" height="4.48"/><rect class="cls-5" x="31.44" y="213.91" width="181.9" height="4.48"/><rect class="cls-5" x="31.44" y="228.57" width="181.9" height="4.48"/><g class="cls-6"><rect class="cls-7" x="18.29" y="99.86" width="117.71" height="117.71"/><path class="cls-8" d="M27.69,181.79c8,4.17,19.39,3,21,2.8L48,178.83c-4.71.55-17.7.66-21.28-5.44-2.67-4.54,0-12.55,7.65-23.15l-4.7-3.41c-9.4,13-12,22.63-8,29.51A14.58,14.58,0,0,0,27.69,181.79Z"/><path class="cls-8" d="M129.75,194.74c-6.18-6.43-18.34-7.86-20.09-8l-2,6.42c5,.52,18.33,3.48,19.13,11,.59,5.56-5.85,13.63-18.63,23.32l3.2,4.82c15.64-11.87,22.8-21.73,21.9-30.16A12.27,12.27,0,0,0,129.75,194.74Z"/><path class="cls-9" d="M115.24,238.54c2.17-50.21-9.14-74.3-19.62-85.81l0,0a26.62,26.62,0,0,1-10.75,4.4,33.15,33.15,0,0,1-10.41-.67c-4.71-.87-9.72-2.46-13-5.79l-.33.3c-19.7,18-27,59.42-29.5,80.54a28.32,28.32,0,0,0,9.79,25c19.26,16.31,41,12.87,55.68,7.27A28.33,28.33,0,0,0,115.24,238.54Z"/><path class="cls-8" d="M115.24,238.54c1.06-24.49-1.09-42.77-4.79-56.4,0,1.35-.1,2.7-.18,4-.87,15.44-2.52,31.17-11.17,44.44-4,6.19-9.17,11.29-16,14.25a45.8,45.8,0,0,1-20.52,3.21c-6.36-.33-12.69-1.81-18-5.37A30.93,30.93,0,0,1,34.2,230.46a47.42,47.42,0,0,1-1.92-4.39c-.27,1.94-.5,3.77-.7,5.46a28.32,28.32,0,0,0,9.79,25c19.26,16.31,41,12.87,55.68,7.27A28.33,28.33,0,0,0,115.24,238.54Z"/><path class="cls-10" d="M71.51,168.28c-.25,2-.91,3.57-1.47,3.5s-.81-1.75-.56-3.75.9-3.57,1.46-3.5S71.75,166.27,71.51,168.28Z"/><path class="cls-10" d="M86.52,170.14c-.25,2-.9,3.57-1.46,3.5s-.82-1.75-.57-3.75.91-3.57,1.47-3.5S86.77,168.14,86.52,170.14Z"/><path class="cls-10" d="M82,174.91a10.1,10.1,0,0,1-8.52-1.37l-.12-.09c-4-2.78-8.69,3.49-3.9,8.13s12.83,5,16.9,1C89.89,179.12,87.65,173.31,82,174.91Z"/><g class="cls-11"><path class="cls-12" d="M69.39,181.76s.09-5.06,7.51-.17c0,0,7-3.15,8.28,2.1C85.18,183.69,78.06,189.26,69.39,181.76Z"/></g><path class="cls-8" d="M104.77,180.33A7.92,7.92,0,1,1,98.25,172,7.92,7.92,0,0,1,104.77,180.33Z"/><path class="cls-8" d="M66.89,175.64a7.92,7.92,0,1,1-6.51-8.36A7.92,7.92,0,0,1,66.89,175.64Z"/><path class="cls-13" d="M75.13,187.2c0,.34.55.69,1.31.79s1.42-.11,1.46-.45-.54-.7-1.31-.79S75.17,186.86,75.13,187.2Z"/><path class="cls-14" d="M61.41,150.69s13-6.08,34.21,2C95.62,152.73,80.45,166.35,61.41,150.69Z"/><path class="cls-15" d="M63.22,152s9.54-4.89,30.92,1.79C94.14,153.75,82.7,164.11,63.22,152Z"/><circle class="cls-16" cx="101" cy="134.79" r="4.79" transform="translate(-38.67 40.65) rotate(-19.17)"/><circle class="cls-16" cx="77.64" cy="107.84" r="2.92" transform="translate(-50.79 141.93) rotate(-69.11)"/><path class="cls-16" d="M83.78,108.18a1.22,1.22,0,1,1-1.06-1.36A1.22,1.22,0,0,1,83.78,108.18Z"/><path class="cls-16" d="M80.62,109.67a1.16,1.16,0,1,1-.34,1.61A1.17,1.17,0,0,1,80.62,109.67Z"/><circle class="cls-17" cx="100.2" cy="132.73" r="1.83" transform="translate(-60.49 89.89) rotate(-38.02)"/><path class="cls-13" d="M61.33,150.7s16.26,17.59,34.38,2C95.71,152.71,80.56,160.87,61.33,150.7Z"/><path class="cls-18" d="M24.52,149.1s.34-2.47,4.95-8.07l6.24,7.6S30.91,154.08,24.52,149.1Z"/><path class="cls-8" d="M28,152.75s10.87,2.75,9.4-6.26c0,0-1.16-5.72-2.72-1.14-1,3-2.89,5.12-9.37,2C25.31,147.39,22.28,150.68,28,152.75Z"/><path class="cls-8" d="M32.18,146.23h0A1.6,1.6,0,0,1,31,144.29l1.24-4.85a1.61,1.61,0,0,1,1.94-1.16h0a1.6,1.6,0,0,1,1.15,1.95l-1.23,4.84A1.61,1.61,0,0,1,32.18,146.23Z"/><path class="cls-19" d="M94.84,110.25l-1,.45a20.51,20.51,0,0,1,.91,2.18l1-.33A21.38,21.38,0,0,0,94.84,110.25Z"/><path class="cls-19" d="M93,107.06l-.87.59a23.15,23.15,0,0,1,1.23,2l.92-.5A22.79,22.79,0,0,0,93,107.06Z"/><path class="cls-19" d="M90.64,104.19l-.72.78a16.06,16.06,0,0,1,1.54,1.75l.83-.65A20.94,20.94,0,0,0,90.64,104.19Z"/><path class="cls-19" d="M87.69,101.9l-.5.94a13.84,13.84,0,0,1,1.89,1.35l.65-.83A14,14,0,0,0,87.69,101.9Z"/><path class="cls-19" d="M84.24,100.5l-.26,1a11.52,11.52,0,0,1,2.2.78l.42-1A13.23,13.23,0,0,0,84.24,100.5Z"/><path class="cls-19" d="M80.52,100.19l0,1.06a12,12,0,0,1,2.32.08l.17-1A13.15,13.15,0,0,0,80.52,100.19Z"/><path class="cls-19" d="M76.85,100.85l.28,1a11.06,11.06,0,0,1,1.13-.3,10.89,10.89,0,0,1,1.14-.21l-.1-1c-.41.07-.83.12-1.23.23S77.25,100.71,76.85,100.85Z"/><path class="cls-19" d="M73.4,102.27l.52.92,1-.53,1.09-.44-.37-1-1.15.47Z"/><path class="cls-19" d="M70.44,104.58l.78.71a3.09,3.09,0,0,1,.4-.41l.42-.39c.29-.25.61-.47.91-.71l-.6-.86c-.33.25-.67.5-1,.77l-.46.44A3.19,3.19,0,0,0,70.44,104.58Z"/><path class="cls-19" d="M68.43,107.78l1,.39.24-.53.11-.26.14-.25.28-.5c.1-.16.22-.31.33-.47l-.86-.61c-.12.17-.25.34-.36.52l-.31.56a2.54,2.54,0,0,0-.16.28l-.13.29Z"/><path class="cls-19" d="M67.66,111.46l1,.06a11.24,11.24,0,0,1,.13-1.15l.09-.57.14-.56-1-.27-.15.62c0,.2-.07.41-.1.62A10.39,10.39,0,0,0,67.66,111.46Z"/><path class="cls-19" d="M67.86,115.17l1-.17a18.17,18.17,0,0,1-.21-2.33l-1,0A20.58,20.58,0,0,0,67.86,115.17Z"/><path class="cls-19" d="M68.73,118.75l1-.32a23.52,23.52,0,0,1-.62-2.29l-1,.22C68.26,117.17,68.49,118,68.73,118.75Z"/><path class="cls-19" d="M70.08,122.16l1-.45c-.33-.71-.64-1.44-.92-2.19l-1,.37C69.41,120.66,69.73,121.42,70.08,122.16Z"/><path class="cls-8" d="M29.14,145.45h0A1.59,1.59,0,0,1,28,143.51l1.23-4.84a1.6,1.6,0,0,1,1.94-1.16h0a1.61,1.61,0,0,1,1.16,1.94l-1.24,4.85A1.59,1.59,0,0,1,29.14,145.45Z"/><path class="cls-20" d="M83.73,145.57a1.4,1.4,0,0,1,2,.23,1.1,1.1,0,0,1,0,1.5A11.76,11.76,0,0,1,76.29,151a1.07,1.07,0,0,1-.94-.72,1.68,1.68,0,0,1,.82-2Z"/><path class="cls-20" d="M78.1,126.53S85,125,89.62,135.91L85,138.46Z"/><path class="cls-20" d="M85.2,132.31a17.43,17.43,0,0,0-6.33-5.85,4.5,4.5,0,0,0-.77.07L85,138.46l2.33-1.3A19,19,0,0,0,85.2,132.31Z"/><path class="cls-20" d="M67.39,131S61.51,134.82,66,145.8l5-1.48Z"/><path class="cls-20" d="M66.52,140.12a17.39,17.39,0,0,1,.28-8.61,4.69,4.69,0,0,1,.59-.5L71,144.32l-2.57.75A18.79,18.79,0,0,1,66.52,140.12Z"/><path class="cls-21" d="M69.92,122.31s-5.79,8.43-.79,19.53S81.07,149,81.07,149s7.7-2.16,3.3-13.51S69.92,122.31,69.92,122.31Z"/><path class="cls-22" d="M82.25,131.27c1.4,3.89,1.51,8.28-.48,11.6-1.5,2.51-5,4.42-8.53,4.88A7,7,0,0,0,81.07,149s7.7-2.16,3.3-13.51A23.2,23.2,0,0,0,82.25,131.27Z"/><path class="cls-20" d="M77.13,125.74a18.92,18.92,0,0,0-7.21-3.43,19.11,19.11,0,0,0-2.71,8.26A12.64,12.64,0,0,0,77.13,125.74Z"/><path class="cls-20" d="M79.33,134.52a3.9,3.9,0,1,1-5.1-2.09A3.89,3.89,0,0,1,79.33,134.52Z"/><path class="cls-23" d="M78.1,135a2.56,2.56,0,1,1-3.35-1.38A2.55,2.55,0,0,1,78.1,135Z"/><path class="cls-24" d="M74.18,136.46a1.77,1.77,0,0,1,.83-1.33,5.05,5.05,0,0,0,.89-.62,1.3,1.3,0,0,0,.24-.38A1.71,1.71,0,0,0,74.5,134a1.72,1.72,0,0,0-.93,2.26,1.75,1.75,0,0,0,.72.82A1.34,1.34,0,0,1,74.18,136.46Z"/><path class="cls-25" d="M73.82,127.32a.68.68,0,0,1-.53-1.26"/><path class="cls-25" d="M74.77,132.82a.34.34,0,1,1-.63.27.33.33,0,0,1,.18-.45A.34.34,0,0,1,74.77,132.82Z"/><path class="cls-25" d="M77,132.73a.35.35,0,0,1-.19.45.35.35,0,0,1-.27-.64A.36.36,0,0,1,77,132.73Z"/><path class="cls-25" d="M79.07,134.44a.34.34,0,0,1-.18.45.35.35,0,0,1-.46-.18.36.36,0,0,1,.19-.46A.34.34,0,0,1,79.07,134.44Z"/><path class="cls-25" d="M79,137.26a.36.36,0,0,1-.19.46.35.35,0,0,1-.45-.19.34.34,0,0,1,.18-.45A.35.35,0,0,1,79,137.26Z"/><path class="cls-25" d="M77.34,139a.35.35,0,0,1-.18.46.36.36,0,0,1-.46-.19.35.35,0,0,1,.64-.27Z"/><path class="cls-25" d="M74.68,138.88a.36.36,0,0,1-.19.46.35.35,0,0,1-.45-.19.35.35,0,0,1,.64-.27Z"/><path class="cls-25" d="M73.12,137.48a.36.36,0,0,1-.19.46.34.34,0,0,1-.45-.19.34.34,0,0,1,.18-.45A.35.35,0,0,1,73.12,137.48Z"/><path class="cls-25" d="M73.06,134.75a.35.35,0,0,1-.19.45.35.35,0,0,1-.27-.64A.36.36,0,0,1,73.06,134.75Z"/><path class="cls-20" d="M85.4,147.05c.85.8,1.28,1.72,1,2.06s-1.27,0-2.11-.83-1.28-1.72-1-2.06S84.56,146.25,85.4,147.05Z"/><path class="cls-20" d="M82.29,149.52c.45,1.07.47,2.09,0,2.26s-1.14-.54-1.59-1.61-.47-2.09,0-2.27S81.84,148.44,82.29,149.52Z"/><path class="cls-20" d="M76.5,150.77c0,1.17.33,2.12.8,2.13s.86-.93.88-2.09-.33-2.11-.79-2.12S76.52,149.61,76.5,150.77Z"/><polygon class="cls-26" points="102.21 124.27 102.7 125.26 103.79 125.42 103 126.19 103.18 127.28 102.21 126.76 101.23 127.28 101.42 126.19 100.63 125.42 101.72 125.26 102.21 124.27"/><polygon class="cls-26" points="105.98 139.1 106.15 139.44 106.53 139.49 106.25 139.76 106.32 140.13 105.98 139.96 105.64 140.13 105.71 139.76 105.44 139.49 105.81 139.44 105.98 139.1"/><polygon class="cls-26" points="55.49 145.54 55.98 146.53 57.07 146.69 56.28 147.46 56.47 148.55 55.49 148.03 54.52 148.55 54.7 147.46 53.91 146.69 55.01 146.53 55.49 145.54"/><polygon class="cls-26" points="56.92 144.21 57.06 144.5 57.39 144.55 57.16 144.77 57.21 145.09 56.92 144.94 56.63 145.09 56.69 144.77 56.45 144.55 56.78 144.5 56.92 144.21"/><polygon class="cls-26" points="55.85 150 56.04 150.38 56.45 150.44 56.15 150.73 56.22 151.15 55.85 150.95 55.48 151.15 55.55 150.73 55.25 150.44 55.67 150.38 55.85 150"/><polygon class="cls-26" points="83.59 136.25 83.81 136.7 84.31 136.77 83.95 137.13 84.04 137.62 83.59 137.39 83.15 137.62 83.23 137.13 82.87 136.77 83.37 136.7 83.59 136.25"/><polygon class="cls-26" points="86.42 112.97 86.91 113.96 88 114.12 87.21 114.89 87.39 115.98 86.42 115.46 85.44 115.98 85.63 114.89 84.84 114.12 85.93 113.96 86.42 112.97"/><polygon class="cls-26" points="82.26 103.32 82.54 103.9 83.18 103.99 82.72 104.44 82.83 105.07 82.26 104.77 81.69 105.07 81.8 104.44 81.34 103.99 81.98 103.9 82.26 103.32"/><path class="cls-27" d="M107.49,130.13a.49.49,0,0,1-.48.48.48.48,0,0,1-.48-.48.47.47,0,0,1,.48-.48A.48.48,0,0,1,107.49,130.13Z"/><path class="cls-27" d="M108.22,126.59a.61.61,0,0,1-.61.6.61.61,0,0,1,0-1.21A.61.61,0,0,1,108.22,126.59Z"/><path class="cls-27" d="M67.18,110a.48.48,0,0,1-.48.48.49.49,0,0,1-.48-.48.48.48,0,0,1,.48-.48A.47.47,0,0,1,67.18,110Z"/><path class="cls-27" d="M67.91,106.46a.61.61,0,1,1-.6-.61A.6.6,0,0,1,67.91,106.46Z"/><circle class="cls-27" cx="104.78" cy="121.95" r="0.65"/><circle class="cls-27" cx="107.88" cy="135.78" r="0.39"/><path class="cls-27" d="M53.74,137.35a.72.72,0,1,1-.72-.72A.72.72,0,0,1,53.74,137.35Z"/><path class="cls-27" d="M82.45,139a.62.62,0,1,1-.62-.62A.62.62,0,0,1,82.45,139Z"/><path class="cls-27" d="M96.32,148.16a.35.35,0,0,1-.35.35.35.35,0,0,1-.35-.35.35.35,0,0,1,.35-.35A.34.34,0,0,1,96.32,148.16Z"/><path class="cls-27" d="M68.91,149.45a.79.79,0,1,1-.79-.79A.78.78,0,0,1,68.91,149.45Z"/><path class="cls-9" d="M103.39,121.57a.72.72,0,1,1-1.44,0,.72.72,0,1,1,1.44,0Z"/><circle class="cls-27" cx="74.04" cy="114.85" r="0.65"/><path class="cls-9" d="M72.66,114.47a.73.73,0,1,1-.73-.73A.73.73,0,0,1,72.66,114.47Z"/><path class="cls-9" d="M105.79,127.33a.51.51,0,0,1-.51.51.51.51,0,0,1,0-1A.51.51,0,0,1,105.79,127.33Z"/><polygon class="cls-26" points="65.85 115.39 65.36 116.38 64.27 116.53 65.06 117.3 64.87 118.39 65.85 117.88 66.82 118.39 66.64 117.3 67.43 116.53 66.33 116.38 65.85 115.39"/><path class="cls-27" d="M59.84,117.7a.61.61,0,1,0,.6-.6A.6.6,0,0,0,59.84,117.7Z"/><path class="cls-27" d="M62.63,113.07a.65.65,0,1,0,.65-.65A.65.65,0,0,0,62.63,113.07Z"/><path class="cls-9" d="M64.66,112.68a.72.72,0,0,0,.72.72.72.72,0,1,0,0-1.44A.72.72,0,0,0,64.66,112.68Z"/><circle class="cls-9" cx="62.77" cy="118.44" r="0.51"/><path class="cls-9" d="M96.05,140.79a.47.47,0,0,1-.46.46.46.46,0,0,1-.46-.46.45.45,0,0,1,.46-.46A.46.46,0,0,1,96.05,140.79Z"/><path class="cls-9" d="M84.67,140a.58.58,0,1,1-1.15,0,.58.58,0,0,1,1.15,0Z"/><path class="cls-9" d="M56.81,140.76a.47.47,0,0,1-.48.48.48.48,0,0,1-.48-.48.49.49,0,0,1,.48-.48A.48.48,0,0,1,56.81,140.76Z"/><path class="cls-9" d="M109,138.51a.39.39,0,0,1-.4.39.38.38,0,0,1-.39-.39.39.39,0,0,1,.39-.4A.4.4,0,0,1,109,138.51Z"/><path class="cls-8" d="M26.17,144.76h0A1.62,1.62,0,0,1,25,142.81L26.25,138a1.61,1.61,0,0,1,1.94-1.16h0a1.6,1.6,0,0,1,1.15,1.94l-1.23,4.85A1.61,1.61,0,0,1,26.17,144.76Z"/><path class="cls-28" d="M90.44,143.42c.06-.12.24-.18.49-.08a29.26,29.26,0,0,1,5.13,2.85,29,29,0,0,1,4.6,3.64c.19.2.21.38.11.49l1.31.86,0,0c.61-.92-3.46-4-5.7-5.48s-6.64-4.08-7.25-3.16l0,0Z"/><path class="cls-29" d="M91.83,144.19a4.63,4.63,0,1,0,6.43-1.28A4.64,4.64,0,0,0,91.83,144.19Z"/><path class="cls-30" d="M99,143.51c-.67.7-.21,1.86-.55,2.76-.24.66-.75.61-1.34.49s-2.07-.38-1.73.53c.18.47.67.79.83,1.29.34,1.09-1.14,1.3-1.88,1.18a5.75,5.75,0,0,1-3-1.45,4.63,4.63,0,1,0,7.67-4.8Z"/><path class="cls-28" d="M102.12,150.72l-1.69-1.12c.08.08.16.15.23.23.35.37.13.7-.35.52a37,37,0,0,1-9.72-6.49c-.36-.37-.13-.7.34-.52l.3.12-1.69-1.13a.51.51,0,0,0-.39.19c-.62.92,3.46,4,5.7,5.49s6.63,4.07,7.25,3.15A.51.51,0,0,0,102.12,150.72Z"/><polygon class="cls-26" points="101.32 154.97 101.66 155.67 102.43 155.78 101.88 156.33 102.01 157.1 101.32 156.73 100.63 157.1 100.76 156.33 100.2 155.78 100.97 155.67 101.32 154.97"/></g><rect class="cls-7" x="27.7" y="92.41" width="23.15" height="23.15" rx="8" ry="8"/><text class="cls-31" transform="translate(31.58 109.52)">M</text><g class="cls-32"><rect class="cls-33" x="137.34" y="279.9" width="117.71" height="117.71"/><path class="cls-34" d="M197.85,304.92a2.9,2.9,0,0,0-2.9,2.91,2.87,2.87,0,0,0,.57,1.73,8.92,8.92,0,0,1,1.5,4.85v5.76a.83.83,0,0,0,1.66,0v-5.76a8.83,8.83,0,0,1,1.5-4.85,2.87,2.87,0,0,0,.57-1.73A2.9,2.9,0,0,0,197.85,304.92Z"/><path class="cls-34" d="M182.1,309.24a2.9,2.9,0,0,0,.3,5.18,9,9,0,0,1,3.73,3.46l2.87,5a.84.84,0,0,0,1.45-.83l-2.88-5a8.91,8.91,0,0,1-1.13-5,2.91,2.91,0,0,0-4.34-2.85Z"/><path class="cls-34" d="M170.68,320.84a2.9,2.9,0,0,0,2.84,4.34,8.94,8.94,0,0,1,5,1.13l5,2.88a.83.83,0,0,0,.84-1.44l-5-2.88a9,9,0,0,1-3.46-3.73,2.94,2.94,0,0,0-1.21-1.36A2.9,2.9,0,0,0,170.68,320.84Z"/><path class="cls-34" d="M214,309.24a2.9,2.9,0,0,1-.3,5.18,9,9,0,0,0-3.72,3.46l-2.88,5a.83.83,0,1,1-1.44-.83l2.88-5a8.91,8.91,0,0,0,1.13-5,2.91,2.91,0,0,1,4.33-2.85Z"/><path class="cls-34" d="M225.47,320.84a2.9,2.9,0,0,1-2.85,4.34,8.92,8.92,0,0,0-5,1.13l-5,2.88a.83.83,0,0,1-.84-1.44l5-2.88a9,9,0,0,0,3.46-3.73,2.9,2.9,0,0,1,5.17-.3Z"/><path class="cls-34" d="M195.78,373.74a3.3,3.3,0,0,1-3.3,3.3h0a3.3,3.3,0,0,1-3.3-3.3v-8.81a3.3,3.3,0,0,1,3.3-3.3h0a3.3,3.3,0,0,1,3.3,3.3Z"/><path class="cls-34" d="M205.86,373.74a3.3,3.3,0,0,1-3.3,3.3h0a3.3,3.3,0,0,1-3.3-3.3v-8.81a3.3,3.3,0,0,1,3.3-3.3h0a3.29,3.29,0,0,1,3.3,3.3Z"/><path class="cls-35" d="M220.88,364c0,18.37-10.22,33.26-22.83,33.26h0c-12.61,0-22.83-14.89-22.83-33.26V348.85c0-18.37,10.22-33.26,22.83-33.26h0c12.61,0,22.83,14.89,22.83,33.26Z"/><path class="cls-36" d="M210.51,336.42A12.46,12.46,0,1,1,198.05,324,12.46,12.46,0,0,1,210.51,336.42Z"/><path class="cls-37" d="M203.37,336.42a5.32,5.32,0,1,1-5.32-5.32A5.32,5.32,0,0,1,203.37,336.42Z"/><path class="cls-38" d="M200.45,336.42a2.4,2.4,0,1,1-2.4-2.41A2.41,2.41,0,0,1,200.45,336.42Z"/><path class="cls-39" d="M197.85,353.68a12.27,12.27,0,0,1-4.1-.67,4.1,4.1,0,0,0,8.2,0A12.36,12.36,0,0,1,197.85,353.68Z"/></g><circle id="SVGID-15" data-name="SVGID" class="cls-2" cx="198.07" cy="337.04" r="40"/><g class="cls-40"><rect class="cls-33" x="39.35" y="279.9" width="117.71" height="117.71"/><path class="cls-41" d="M77.44,324.82s23.32-10.45,44.21.49C121.65,325.31,94.73,331.67,77.44,324.82Z"/><path class="cls-42" d="M114.07,324.48s25.37,11.61,23.76-20.32c0,0,15.88,39.49-20.73,36Z"/><path class="cls-43" d="M138.15,327.82c-6,3.93-17.71,4.24-23.72-.95L117,340.21c17,1.6,22.68-6.07,23.89-14.73A13.68,13.68,0,0,1,138.15,327.82Z"/><g class="cls-44"><path class="cls-45" d="M120.18,322.29s-4.94,14.26,5.43,22.53l1.12-.73s-9.32-7.09-5.46-21.8Z"/><path class="cls-45" d="M127,319.6s-2.89,14.81,8.54,21.54l1-.88s-10.23-5.71-8.48-20.81Z"/><path class="cls-45" d="M131.25,313.56s1.31,15,14.16,18.34l.72-1.13s-11.4-2.66-13.89-17.66Z"/><path class="cls-45" d="M132,304.63s3.93,14.57,17.16,15.57l.52-1.24S138,318.35,132.87,304Z"/></g><path class="cls-42" d="M83.54,324.48s-25.37,11.61-23.76-20.32c0,0-15.88,39.49,20.73,36Z"/><path class="cls-43" d="M59.46,327.82c6,3.93,17.71,4.24,23.72-.95l-2.57,13.34c-17,1.6-22.68-6.07-23.89-14.73A13.68,13.68,0,0,0,59.46,327.82Z"/><g class="cls-46"><path class="cls-45" d="M77.43,322.29s4.94,14.26-5.43,22.53l-1.12-.73s9.32-7.09,5.46-21.8Z"/><path class="cls-45" d="M70.63,319.6s2.89,14.81-8.54,21.54l-1-.88s10.24-5.71,8.48-20.81Z"/><path class="cls-45" d="M66.36,313.56s-1.31,15-14.16,18.34l-.72-1.13s11.4-2.66,13.89-17.66Z"/><path class="cls-45" d="M65.64,304.63S61.71,319.2,48.48,320.2L48,319s11.69-.61,16.77-14.94Z"/></g><path class="cls-35" d="M92.9,318.53s-2.89-3-.8-2.78a8.39,8.39,0,0,1,3.75,1.39s-2.89-3.2-.86-3.32,5.2,3.14,5.2,3.14,4.51-4.52,5.32-3.92-2.26,4.46-2.26,4.46,4.28-2.29,4.51-.3-2.74,2.89-2.74,2.89,6-.88,15.47,6.36c0,0,1.19,1.56-.7,1.72,0,0,15.73,16.77,13.42,18.94,0,0-.93.12-1.08,0,0,0,24.54,84.66-7.79,76.94,0,0,.94,1.51.14,1.72s-2.64-1.2-2.64-1.2.09.6-.31.66-.67-.66-.67-.66.78,1.29-.17,1.56-2.4-.81-2.4-.81L90.72,426a1.22,1.22,0,0,1-1.61,1,21.31,21.31,0,0,1-2.82-1.37c-.05.12-2.17,1.78-3.21,1.45S81.31,425,81.31,425s-33.37,13.34-11.86-74.28c0,0-2.17,2.41-2.16,0,0-1,5.7-24.13,15.26-27.67C82.55,323.07,77.27,321.54,92.9,318.53Z"/><path class="cls-47" d="M138.16,373.34c-.1.8-.22,1.59-.37,2.37-.52,2.77-3.21,10.71-6.66,8.68.09,4-1,9.07-5.58,8.1.14,3.66-2,7.87-5.86,6.34-1.22,4.82-5.59,5.28-9.92,3.74-1,3.35-2.14,6.13-6.23,6.1S95,407,92.79,403.44c-5,5.91-13.92-.34-15.6-6.75-2.92,1.64-6.55,4.15-9.84,2.86s-4.28-5.25-4.85-8.67C59.54,433.72,81.31,425,81.31,425s.73,1.76,1.77,2.09,3.16-1.33,3.21-1.45A21.31,21.31,0,0,0,89.11,427a1.22,1.22,0,0,0,1.61-1l27.57-.66s1.44,1.09,2.4.81c.66-.18.49-.87.32-1.27.11.2.29.4.52.37.4-.06.31-.66.31-.66s1.83,1.41,2.64,1.2-.14-1.72-.14-1.72C144.59,428.89,142.53,397.49,138.16,373.34Z"/><path class="cls-10" d="M96.26,344.51a10.43,10.43,0,0,0,10.26-.73l.15-.1c5-3.32,10,6,3.77,11.82s-15.78,5.24-20.18-.88C86.41,349.27,89.68,341.52,96.26,344.51Z"/><g class="cls-48"><path class="cls-49" d="M110.46,355.76s.43-7-8.89-1.27c0,0-8-5.33-10.06,1.78C91.51,356.27,99.37,365,110.46,355.76Z"/><path class="cls-50" d="M101.79,357.43a1.15,1.15,0,0,1-1.36-.18,16.94,16.94,0,0,0-6.75-4.11,5,5,0,0,0-2.17,3.13s6.95,7.7,17,1C107.1,355,103.52,356.21,101.79,357.43Z"/></g><g class="cls-51"><path class="cls-52" d="M95.45,343s.78,3.37-.42,4.22a4.56,4.56,0,0,1-3,.1c-1.29-1.09-1.15-4.42-1.15-4.42S94.81,340.57,95.45,343Z"/><path class="cls-52" d="M99.64,343.63s.78,3.36-.42,4.22a4.62,4.62,0,0,1-3,.1c-1.3-1.09-1.15-4.42-1.15-4.42S99,341.17,99.64,343.63Z"/><path class="cls-52" d="M105,343.63s.77,3.36-.43,4.22a4.59,4.59,0,0,1-3,.1c-1.3-1.09-1.15-4.42-1.15-4.42S104.31,341.17,105,343.63Z"/><path class="cls-52" d="M109.05,343s.77,3.37-.42,4.22a4.56,4.56,0,0,1-3,.1c-1.3-1.09-1.15-4.42-1.15-4.42S108.41,340.57,109.05,343Z"/></g><ellipse class="cls-10" cx="109.84" cy="339.64" rx="1.46" ry="2.11"/><ellipse class="cls-10" cx="91.4" cy="339.64" rx="1.46" ry="2.11"/><circle class="cls-47" cx="118.62" cy="342.82" r="5.19"/><path class="cls-47" d="M78.35,343.54a5.19,5.19,0,1,0,5.19-5.18A5.19,5.19,0,0,0,78.35,343.54Z"/><path class="cls-53" d="M119.51,388.8s.66,3.62-4,4.23a.9.9,0,0,1-.77-1.53,8.41,8.41,0,0,1,2.51-1.5s-4.62,2-4.85.68,4.19-1.67,4.19-1.67-4.3.09-4.2-1,4.37-.32,4.37-.32-2.63-.62-2.36-1.86S119.87,385.05,119.51,388.8Z"/><path class="cls-53" d="M146.81,365.15c-1.68-3.64-7.55-4.56-11.19-4.24.17.75.34,1.54.52,2.37a12.79,12.79,0,0,1,5,.58,6.18,6.18,0,0,1,3.06,1.91c.89,1.17.76,2.28.43,3.71-.83,3.64-3.4,6.71-6,9.23a33.76,33.76,0,0,1-19.6,9.21c-1.53.17-1.55,2.58,0,2.42a36.15,36.15,0,0,0,24.37-13.29C145.62,374.11,148.59,369,146.81,365.15Z"/><path class="cls-53" d="M82.66,391.32s-.66,3.62,4,4.23A.9.9,0,0,0,87.4,394a8.55,8.55,0,0,0-2.51-1.5s4.61,2,4.84.68-4.18-1.67-4.18-1.67,4.3.09,4.2-1-4.38-.32-4.38-.32,2.63-.62,2.36-1.86S82.31,387.57,82.66,391.32Z"/><path class="cls-53" d="M55.36,367.67c1.69-3.64,7.55-4.56,11.2-4.24-.17.75-.3,1.57-.48,2.39a13.05,13.05,0,0,0-5,.56A6.22,6.22,0,0,0,58,368.29c-.88,1.17-.75,2.28-.43,3.71.83,3.64,3.4,6.71,6,9.23a33.76,33.76,0,0,0,19.61,9.21c1.52.17,1.54,2.58,0,2.41a36.14,36.14,0,0,1-24.38-13.28C56.55,376.63,53.58,371.51,55.36,367.67Z"/><path class="cls-54" d="M77.44,324.82l23.93-40.31,20.28,40.8S103.37,316.49,77.44,324.82Z"/><path class="cls-41" d="M102.86,284.88a2.43,2.43,0,0,1-2.7.23c-1.45-.82-3.45-2.16-2.36-2.84,1.63-1,3.14,1.76,3.14,1.76s-.56-3.51.54-3.07.44,3.11.44,3.11.25-2.74,2.33-2.13C105.6,282.34,104.12,283.88,102.86,284.88Z"/><g class="cls-55"><polygon class="cls-56" points="97.05 294.66 98.84 298.28 102.84 298.87 99.94 301.69 100.63 305.67 97.05 303.79 93.47 305.67 94.15 301.69 91.26 298.87 95.26 298.28 97.05 294.66"/><polygon class="cls-56" points="99.14 309.83 100.42 312.43 103.28 312.84 101.21 314.86 101.7 317.7 99.14 316.36 96.58 317.7 97.07 314.86 95 312.84 97.86 312.43 99.14 309.83"/><polygon class="cls-56" points="107.66 300.65 109.3 303.96 112.95 304.49 110.31 307.06 110.93 310.7 107.66 308.98 104.4 310.7 105.02 307.06 102.38 304.49 106.03 303.96 107.66 300.65"/><polygon class="cls-56" points="112.95 316.27 113.41 317.21 114.45 317.37 113.7 318.1 113.88 319.13 112.95 318.64 112.02 319.13 112.2 318.1 111.44 317.37 112.48 317.21 112.95 316.27"/><polygon class="cls-56" points="86.81 316.27 87.58 317.83 89.29 318.08 88.05 319.29 88.34 321 86.81 320.19 85.27 321 85.57 319.29 84.32 318.08 86.04 317.83 86.81 316.27"/><polygon class="cls-56" points="101.26 289.82 101.92 291.15 103.39 291.36 102.32 292.4 102.58 293.86 101.26 293.17 99.95 293.86 100.2 292.4 99.14 291.36 100.61 291.15 101.26 289.82"/></g></g><circle id="SVGID-16" data-name="SVGID" class="cls-2" cx="100.09" cy="337.04" r="40"/><g class="cls-57"><rect class="cls-33" x="240.39" y="279.9" width="117.71" height="117.71"/><path class="cls-58" d="M332.76,384.05c0,1.42-13.8,2.57-30.81,2.57s-30.81-1.15-30.81-2.57,13.8-2.56,30.81-2.56S332.76,382.64,332.76,384.05Z"/><path class="cls-58" d="M291.58,315.22c1.68,3.25.93,5.43-.9,6.38s-4.05.29-5.73-3-2.51-8.49-.68-9.44S289.9,312,291.58,315.22Z"/><path class="cls-58" d="M310.14,315.22c-1.69,3.25-.93,5.43.9,6.38s4,.29,5.72-3,2.51-8.49.68-9.44S311.82,312,310.14,315.22Z"/><path class="cls-54" d="M299.23,314.85s-6.51-11.49-3.79-9.83,3.2,6.21,3.2,6.21-1.07-10.12,1.66-9.17,0,9.19,0,9.19,3.79-5.4,4.74-4.45S299.23,314.85,299.23,314.85Z"/><path class="cls-47" d="M327.1,353.31c2.86,3,7.35,5.34,8.87,3.91s-.51-6.05-3.37-9.09-5.47-3.35-7-1.92S324.24,350.26,327.1,353.31Z"/><path class="cls-59" d="M287,377.15c-1.16,4-4.1,8.11-6.1,7.54s-2.32-5.62-1.17-9.63,3.34-5.48,5.34-4.9S288.12,373.13,287,377.15Z"/><path class="cls-47" d="M274.62,353.31c-2.86,3-7.35,5.34-8.87,3.91s.5-6.05,3.36-9.09,5.47-3.35,7-1.92S277.48,350.26,274.62,353.31Z"/><path class="cls-59" d="M314.75,377.15c1.15,4,4.09,8.11,6.1,7.54s2.32-5.62,1.16-9.63-3.33-5.48-5.34-4.9S313.6,373.13,314.75,377.15Z"/><path class="cls-35" d="M329.56,353.52c0,19-12.85,27.54-28.7,27.54s-28.71-8.53-28.71-27.54,12.85-41.29,28.71-41.29S329.56,334.51,329.56,353.52Z"/><path class="cls-47" d="M300.86,375.26c-15,0-27.37-7.68-28.6-24.7-.07,1-.11,2-.11,3,0,19,12.85,27.54,28.71,27.54s28.7-8.53,28.7-27.54c0-1,0-2-.1-3C328.23,367.58,315.9,375.26,300.86,375.26Z"/><path class="cls-52" d="M291.3,339.26c0,3.39-1.67,6.13-3.73,6.13s-3.73-2.74-3.73-6.13,1.67-6.13,3.73-6.13S291.3,335.88,291.3,339.26Z"/><path class="cls-60" d="M289.15,339.26a1.59,1.59,0,1,1-1.58-1.58A1.59,1.59,0,0,1,289.15,339.26Z"/><path class="cls-52" d="M310.42,339.26c0,3.39,1.67,6.13,3.73,6.13s3.73-2.74,3.73-6.13-1.67-6.13-3.73-6.13S310.42,335.88,310.42,339.26Z"/><circle class="cls-60" cx="314.15" cy="339.26" r="1.58"/><path class="cls-39" d="M300.3,351.87c-12.74,0-22.73-3.7-22.73-8.42h.69c0,4.19,10.09,7.73,22,7.73s22-3.54,22-7.73H323C323,348.17,313,351.87,300.3,351.87Z"/><circle class="cls-47" cx="318.55" cy="369.79" r="2.82"/><path class="cls-47" d="M306.89,370.81a.77.77,0,1,1-1.53,0,.77.77,0,1,1,1.53,0Z"/><circle class="cls-47" cx="284.16" cy="362.19" r="0.92"/><path class="cls-47" d="M289.15,372.54a2.5,2.5,0,1,1-2.5-2.5A2.5,2.5,0,0,1,289.15,372.54Z"/></g><circle id="SVGID-17" data-name="SVGID" class="cls-2" cx="301.12" cy="337.04" r="40"/><g class="cls-61"><rect class="cls-33" x="344.35" y="279.9" width="117.71" height="117.71"/><path class="cls-34" d="M425.19,355a12.21,12.21,0,0,1-5.43-1.31c-8.25-4.06-7.62-13.6-7.59-14a2.87,2.87,0,0,1,3.06-2.71,2.91,2.91,0,0,1,2.6,3.16c0,.27-.3,5.92,4.36,8.22a6.35,6.35,0,0,0,7.47-1.18c2.61-2.48,4.75-8,2.17-15.35a3,3,0,0,1,1.7-3.78,2.81,2.81,0,0,1,3.64,1.76c2.91,8.32,1.46,16.85-3.69,21.73A12,12,0,0,1,425.19,355Z"/><path class="cls-34" d="M383.79,355a11,11,0,0,1-7.82-3.46c-4.86-4.88-6.22-13.41-3.47-21.73a2.61,2.61,0,0,1,3.43-1.76,3,3,0,0,1,1.6,3.78c-2.43,7.37-.42,12.87,2.05,15.35a5.7,5.7,0,0,0,7,1.17c4.48-2.33,4.11-8.13,4.11-8.19a2.87,2.87,0,0,1,2.46-3.18,2.77,2.77,0,0,1,2.88,2.71c0,.4.63,9.94-7.16,14A11,11,0,0,1,383.79,355Z"/><path class="cls-35" d="M422.83,373.4h-35.7c-5.48-19.15-7.61-44-4.45-61.85,1.79-.46,5.19,10.47,7,10.13,11-2,18.91-1.87,30.57.13,1.8.31,5.42-10.65,7.24-10.26C430.46,331.24,429.13,355.85,422.83,373.4Z"/><path class="cls-34" d="M412.84,364.68H397.58a13.46,13.46,0,0,1-13.13-10.62,139.85,139.85,0,0,1-3.23-24.42c-.56,14.2,1.91,37.11,6.11,51.75H423c4.62-12.89,6.31-34.77,5.81-49a111.2,111.2,0,0,1-2.93,22A13.46,13.46,0,0,1,412.84,364.68Z"/><path class="cls-39" d="M389.81,340.75v.07c0,9.05,6.81,16.38,15.22,16.38s15.22-7.33,15.22-16.38v-.07Z"/><ellipse cx="395.78" cy="336.05" rx="1.51" ry="2.28"/><ellipse cx="414.74" cy="336.05" rx="1.51" ry="2.28"/><path class="cls-52" d="M394.2,340.75s-.94,4.87,0,5.95,3.37-5.95,3.37-5.95Z"/><path class="cls-52" d="M415.86,340.75s.93,4.87,0,5.95-3.38-5.95-3.38-5.95Z"/><g class="cls-62"><path class="cls-52" d="M398.8,356.29s.57-4.41,1.29-4.56,1.94,6.42,1.94,6.42Z"/><path class="cls-52" d="M411.26,356.29s-.58-4.41-1.29-4.56-1.94,6.42-1.94,6.42Z"/></g></g><circle id="SVGID-18" data-name="SVGID" class="cls-2" cx="405.08" cy="337.04" r="40"/><text class="cls-63" transform="matrix(0.99, -0.12, 0.12, 0.99, 233.77, 170.93)">+ $175</text><g class="cls-64"><rect class="cls-52" x="129.25" y="-12.66" width="478.09" height="276.94"/><rect class="cls-65" x="138.8" y="3.33" width="118.54" height="416.73"/><g class="cls-66"><rect class="cls-7" x="136.43" y="6.12" width="117.71" height="117.71"/><path class="cls-8" d="M145.82,88.05c8,4.17,19.39,3,21,2.8l-.69-5.76c-4.71.55-17.7.66-21.29-5.44-2.66-4.54,0-12.55,7.66-23.15l-4.71-3.41c-9.39,13-12,22.63-7.95,29.51A14.62,14.62,0,0,0,145.82,88.05Z"/><path class="cls-8" d="M247.89,101c-6.19-6.43-18.35-7.86-20.09-8l-2,6.42c5.06.52,18.34,3.48,19.13,11,.6,5.56-5.85,13.63-18.62,23.32l3.19,4.82c15.65-11.87,22.81-21.73,21.91-30.16A12.32,12.32,0,0,0,247.89,101Z"/><path class="cls-9" d="M233.37,144.8c2.18-50.21-9.13-74.3-19.61-85.81l0,0A26.5,26.5,0,0,1,203,63.41a33.11,33.11,0,0,1-10.4-.67c-4.71-.87-9.72-2.46-13-5.79l-.33.3c-19.7,18-27,59.42-29.5,80.54a28.32,28.32,0,0,0,9.79,25c19.26,16.31,41,12.87,55.68,7.27A28.31,28.31,0,0,0,233.37,144.8Z"/><path class="cls-8" d="M233.37,144.8c1.07-24.49-1.08-42.77-4.78-56.4-.05,1.35-.11,2.7-.18,4-.88,15.44-2.53,31.17-11.18,44.44-4,6.19-9.16,11.29-16,14.25a45.82,45.82,0,0,1-20.53,3.21c-6.35-.33-12.68-1.81-18-5.37a31.09,31.09,0,0,1-10.33-12.25c-.71-1.43-1.34-2.9-1.91-4.39-.27,1.94-.5,3.77-.7,5.46a28.32,28.32,0,0,0,9.79,25c19.26,16.31,41,12.87,55.68,7.27A28.31,28.31,0,0,0,233.37,144.8Z"/><path class="cls-10" d="M189.64,74.54c-.25,2-.9,3.57-1.46,3.5s-.82-1.75-.57-3.75.91-3.57,1.47-3.5S189.89,72.53,189.64,74.54Z"/><path class="cls-10" d="M204.66,76.4c-.25,2-.9,3.57-1.46,3.5s-.82-1.75-.57-3.75.9-3.57,1.46-3.5S204.91,74.4,204.66,76.4Z"/><path class="cls-10" d="M200.11,81.17a10.1,10.1,0,0,1-8.52-1.37l-.12-.09c-4-2.78-8.69,3.49-3.91,8.13s12.84,5,16.91,1C208,85.38,205.79,79.57,200.11,81.17Z"/><g class="cls-67"><path class="cls-12" d="M187.53,88s.09-5.06,7.51-.17c0,0,7-3.15,8.28,2.1C203.32,90,196.2,95.52,187.53,88Z"/></g><path class="cls-8" d="M222.91,86.59a7.92,7.92,0,1,1-6.52-8.36A7.92,7.92,0,0,1,222.91,86.59Z"/><path class="cls-8" d="M185,81.9a7.92,7.92,0,1,1-6.51-8.36A7.92,7.92,0,0,1,185,81.9Z"/><path class="cls-13" d="M193.27,93.46c0,.34.54.69,1.31.79s1.42-.11,1.46-.45-.54-.7-1.31-.79S193.31,93.12,193.27,93.46Z"/><path class="cls-14" d="M179.55,57s13-6.08,34.21,2C213.76,59,198.59,72.61,179.55,57Z"/><path class="cls-15" d="M181.36,58.22s9.54-4.89,30.92,1.79C212.28,60,200.83,70.37,181.36,58.22Z"/><circle class="cls-16" cx="219.14" cy="41.05" r="4.79" transform="translate(-1.32 74.25) rotate(-19.17)"/><circle class="cls-16" cx="195.78" cy="14.1" r="2.92" transform="translate(112.81 191.98) rotate(-69.11)"/><path class="cls-16" d="M201.92,14.44a1.23,1.23,0,0,1-1.37,1.07,1.22,1.22,0,1,1,1.37-1.07Z"/><path class="cls-16" d="M198.76,15.93a1.16,1.16,0,1,1-.34,1.61A1.17,1.17,0,0,1,198.76,15.93Z"/><circle class="cls-17" cx="218.34" cy="38.99" r="1.83" transform="translate(22.32 142.76) rotate(-38.02)"/><path class="cls-13" d="M179.47,57s16.26,17.59,34.37,2C213.84,59,198.7,67.13,179.47,57Z"/><path class="cls-18" d="M142.66,55.36s.34-2.47,5-8.07l6.24,7.6S149.05,60.34,142.66,55.36Z"/><path class="cls-8" d="M146.14,59s10.87,2.75,9.4-6.26c0,0-1.17-5.72-2.73-1.14-1,3-2.88,5.12-9.36,2C143.45,53.65,140.41,56.94,146.14,59Z"/><path class="cls-8" d="M150.31,52.49h0a1.6,1.6,0,0,1-1.15-1.94l1.23-4.85a1.61,1.61,0,0,1,1.94-1.16h0a1.6,1.6,0,0,1,1.16,2l-1.23,4.84A1.62,1.62,0,0,1,150.31,52.49Z"/><path class="cls-19" d="M213,16.51,212,17a18.55,18.55,0,0,1,.9,2.18l1-.33A18.8,18.8,0,0,0,213,16.51Z"/><path class="cls-19" d="M211.14,13.32l-.86.59a23,23,0,0,1,1.22,2l.93-.5A22.89,22.89,0,0,0,211.14,13.32Z"/><path class="cls-19" d="M208.77,10.45l-.71.78A18.52,18.52,0,0,1,209.6,13l.83-.65A19.58,19.58,0,0,0,208.77,10.45Z"/><path class="cls-19" d="M205.83,8.16l-.5.94a13.84,13.84,0,0,1,1.89,1.35l.65-.83A15.19,15.19,0,0,0,205.83,8.16Z"/><path class="cls-19" d="M202.37,6.76l-.25,1a11.52,11.52,0,0,1,2.2.78l.42-1A13.05,13.05,0,0,0,202.37,6.76Z"/><path class="cls-19" d="M198.66,6.45V7.51a12.09,12.09,0,0,1,2.33.08l.17-1A13.15,13.15,0,0,0,198.66,6.45Z"/><path class="cls-19" d="M195,7.11l.28,1a10.41,10.41,0,0,1,1.13-.3,10.89,10.89,0,0,1,1.14-.21l-.1-1c-.41.07-.83.12-1.24.23S195.39,7,195,7.11Z"/><path class="cls-19" d="M191.54,8.53l.51.92,1-.53,1.08-.44-.36-1L192.66,8Z"/><path class="cls-19" d="M188.58,10.84l.77.71a3.18,3.18,0,0,1,.41-.41l.42-.39c.29-.25.61-.47.91-.71l-.6-.86c-.33.25-.68.5-1,.77l-.47.44A3.75,3.75,0,0,0,188.58,10.84Z"/><path class="cls-19" d="M186.57,14l1,.39.23-.53.12-.26a2,2,0,0,1,.14-.25l.28-.5c.1-.16.22-.31.33-.47l-.86-.61c-.12.17-.25.34-.36.52l-.32.56-.15.28-.13.29Z"/><path class="cls-19" d="M185.79,17.72l1.06.06c0-.38.05-.77.12-1.15,0-.19.06-.38.1-.57l.14-.56-1-.27-.15.62c0,.2-.07.41-.11.62C185.85,16.88,185.84,17.3,185.79,17.72Z"/><path class="cls-19" d="M186,21.43l1-.17a18.17,18.17,0,0,1-.21-2.33l-1.05,0A17.18,17.18,0,0,0,186,21.43Z"/><path class="cls-19" d="M186.87,25l1-.32a23.45,23.45,0,0,1-.61-2.29l-1,.22C186.4,23.43,186.62,24.22,186.87,25Z"/><path class="cls-19" d="M188.22,28.42l.95-.45c-.34-.71-.64-1.44-.92-2.19l-1,.37C187.55,26.92,187.87,27.68,188.22,28.42Z"/><path class="cls-8" d="M147.28,51.71h0a1.61,1.61,0,0,1-1.16-1.94l1.24-4.84a1.6,1.6,0,0,1,1.94-1.16h0a1.6,1.6,0,0,1,1.15,1.94l-1.23,4.85A1.6,1.6,0,0,1,147.28,51.71Z"/><path class="cls-20" d="M201.87,51.83a1.4,1.4,0,0,1,2,.23,1.1,1.1,0,0,1,0,1.5,11.78,11.78,0,0,1-9.43,3.68,1.06,1.06,0,0,1-.94-.72,1.68,1.68,0,0,1,.82-2Z"/><path class="cls-20" d="M196.24,32.79s6.85-1.51,11.52,9.38l-4.59,2.55Z"/><path class="cls-20" d="M203.34,38.57A17.43,17.43,0,0,0,197,32.72a4.5,4.5,0,0,0-.77.07l6.93,11.93,2.34-1.3A19,19,0,0,0,203.34,38.57Z"/><path class="cls-20" d="M185.53,37.27s-5.89,3.81-1.42,14.79l5-1.48Z"/><path class="cls-20" d="M184.66,46.38a17.39,17.39,0,0,1,.28-8.61,4.69,4.69,0,0,1,.59-.5l3.62,13.31-2.56.75A18.79,18.79,0,0,1,184.66,46.38Z"/><path class="cls-21" d="M188.05,28.57s-5.78,8.43-.78,19.53,11.94,7.14,11.94,7.14,7.7-2.16,3.3-13.51S188.05,28.57,188.05,28.57Z"/><path class="cls-22" d="M200.39,37.53c1.4,3.89,1.51,8.28-.48,11.6-1.51,2.51-5,4.42-8.53,4.88a7,7,0,0,0,7.83,1.23s7.7-2.16,3.3-13.51A23.2,23.2,0,0,0,200.39,37.53Z"/><path class="cls-20" d="M195.26,32a18.85,18.85,0,0,0-7.21-3.43,19.27,19.27,0,0,0-2.71,8.26A12.63,12.63,0,0,0,195.26,32Z"/><path class="cls-20" d="M197.47,40.78a3.9,3.9,0,1,1-5.1-2.09A3.89,3.89,0,0,1,197.47,40.78Z"/><path class="cls-23" d="M196.23,41.3a2.56,2.56,0,1,1-3.34-1.38A2.55,2.55,0,0,1,196.23,41.3Z"/><path class="cls-24" d="M192.32,42.72a1.77,1.77,0,0,1,.83-1.33,5,5,0,0,0,.89-.63,1.32,1.32,0,0,0,.24-.37,1.73,1.73,0,0,0-2.57,2.09,1.75,1.75,0,0,0,.72.82A1.2,1.2,0,0,1,192.32,42.72Z"/><path class="cls-25" d="M192,33.58a.68.68,0,1,1-.53-1.26"/><path class="cls-25" d="M192.91,39.08a.35.35,0,0,1-.18.46.36.36,0,0,1-.46-.19.35.35,0,0,1,.19-.45A.34.34,0,0,1,192.91,39.08Z"/><path class="cls-25" d="M195.13,39a.35.35,0,0,1-.19.45.35.35,0,0,1-.27-.64A.36.36,0,0,1,195.13,39Z"/><path class="cls-25" d="M197.21,40.7a.35.35,0,0,1-.64.27.36.36,0,0,1,.19-.46A.35.35,0,0,1,197.21,40.7Z"/><path class="cls-25" d="M197.17,43.52A.36.36,0,0,1,197,44a.34.34,0,0,1-.45-.19.34.34,0,0,1,.18-.45A.35.35,0,0,1,197.17,43.52Z"/><path class="cls-25" d="M195.48,45.22a.36.36,0,0,1-.19.46.35.35,0,0,1-.45-.19.35.35,0,0,1,.64-.27Z"/><path class="cls-25" d="M192.82,45.14a.36.36,0,0,1-.19.46.34.34,0,0,1-.45-.19.34.34,0,0,1,.18-.45A.35.35,0,0,1,192.82,45.14Z"/><path class="cls-25" d="M191.25,43.74a.34.34,0,1,1-.63.27.33.33,0,0,1,.18-.45A.34.34,0,0,1,191.25,43.74Z"/><path class="cls-25" d="M191.19,41a.34.34,0,0,1-.18.45.36.36,0,0,1-.46-.19.35.35,0,0,1,.19-.45A.34.34,0,0,1,191.19,41Z"/><path class="cls-20" d="M203.54,53.31c.85.8,1.27,1.72,1,2.06s-1.26,0-2.11-.83-1.27-1.72-.95-2.06S202.7,52.51,203.54,53.31Z"/><path class="cls-20" d="M200.43,55.78c.45,1.07.47,2.09,0,2.26s-1.14-.54-1.59-1.61-.47-2.09,0-2.27S200,54.7,200.43,55.78Z"/><path class="cls-20" d="M194.64,57c0,1.17.33,2.12.79,2.13s.87-.93.89-2.09S196,55,195.52,55,194.66,55.87,194.64,57Z"/><polygon class="cls-26" points="220.35 30.53 220.83 31.52 221.93 31.68 221.13 32.45 221.32 33.54 220.35 33.02 219.37 33.54 219.56 32.45 218.77 31.68 219.86 31.52 220.35 30.53"/><polygon class="cls-26" points="224.12 45.36 224.29 45.7 224.66 45.75 224.39 46.02 224.46 46.39 224.12 46.22 223.78 46.39 223.84 46.02 223.57 45.75 223.95 45.7 224.12 45.36"/><polygon class="cls-26" points="173.63 51.8 174.12 52.79 175.21 52.95 174.42 53.72 174.61 54.81 173.63 54.29 172.66 54.81 172.84 53.72 172.05 52.95 173.14 52.79 173.63 51.8"/><polygon class="cls-26" points="175.06 50.47 175.2 50.76 175.53 50.81 175.29 51.03 175.35 51.35 175.06 51.2 174.77 51.35 174.82 51.03 174.59 50.81 174.91 50.76 175.06 50.47"/><polygon class="cls-26" points="173.99 56.26 174.18 56.64 174.59 56.7 174.29 56.99 174.36 57.41 173.99 57.21 173.62 57.41 173.69 56.99 173.39 56.7 173.8 56.64 173.99 56.26"/><polygon class="cls-26" points="201.73 42.51 201.95 42.96 202.45 43.03 202.09 43.38 202.18 43.88 201.73 43.65 201.28 43.88 201.37 43.38 201.01 43.03 201.51 42.96 201.73 42.51"/><polygon class="cls-26" points="204.56 19.23 205.04 20.22 206.13 20.38 205.34 21.15 205.53 22.24 204.56 21.72 203.58 22.24 203.77 21.15 202.98 20.38 204.07 20.22 204.56 19.23"/><polygon class="cls-26" points="200.4 9.58 200.68 10.16 201.31 10.25 200.86 10.7 200.97 11.33 200.4 11.03 199.83 11.33 199.94 10.7 199.48 10.25 200.11 10.16 200.4 9.58"/><path class="cls-27" d="M225.62,36.39a.48.48,0,0,1-.48.48.49.49,0,0,1-.48-.48.48.48,0,0,1,.48-.48A.47.47,0,0,1,225.62,36.39Z"/><path class="cls-27" d="M226.35,32.85a.61.61,0,1,1-.6-.61A.6.6,0,0,1,226.35,32.85Z"/><path class="cls-27" d="M185.32,16.26a.48.48,0,1,1-1,0,.48.48,0,1,1,1,0Z"/><path class="cls-27" d="M186.05,12.72a.61.61,0,1,1-.61-.61A.6.6,0,0,1,186.05,12.72Z"/><circle class="cls-27" cx="222.91" cy="28.21" r="0.65"/><circle class="cls-27" cx="226.01" cy="42.04" r="0.39"/><path class="cls-27" d="M171.88,43.61a.72.72,0,1,1-.72-.72A.72.72,0,0,1,171.88,43.61Z"/><path class="cls-27" d="M200.59,45.26a.62.62,0,1,1-.62-.62A.62.62,0,0,1,200.59,45.26Z"/><path class="cls-27" d="M214.46,54.42a.35.35,0,0,1-.7,0,.35.35,0,1,1,.7,0Z"/><path class="cls-9" d="M187.05,55.71a.79.79,0,1,1-.79-.79A.78.78,0,0,1,187.05,55.71Z"/><path class="cls-9" d="M221.53,27.83a.72.72,0,0,1-1.44,0,.72.72,0,1,1,1.44,0Z"/><circle class="cls-27" cx="192.18" cy="21.11" r="0.65"/><path class="cls-9" d="M190.79,20.73a.72.72,0,0,1-1.44,0,.72.72,0,1,1,1.44,0Z"/><path class="cls-9" d="M223.93,33.59a.51.51,0,1,1-.51-.51A.51.51,0,0,1,223.93,33.59Z"/><polygon class="cls-26" points="183.99 21.65 183.5 22.64 182.41 22.8 183.19 23.56 183.01 24.65 183.99 24.14 184.96 24.65 184.77 23.56 185.56 22.8 184.47 22.64 183.99 21.65"/><path class="cls-27" d="M178,24a.61.61,0,1,0,1.21,0A.61.61,0,0,0,178,24Z"/><path class="cls-27" d="M180.77,19.33a.65.65,0,1,0,.65-.65A.65.65,0,0,0,180.77,19.33Z"/><path class="cls-9" d="M182.8,18.94a.72.72,0,1,0,.72-.72A.72.72,0,0,0,182.8,18.94Z"/><circle class="cls-9" cx="180.91" cy="24.7" r="0.51"/><path class="cls-9" d="M214.19,47.05a.47.47,0,0,1-.46.46.46.46,0,0,1-.46-.46.45.45,0,0,1,.46-.46A.46.46,0,0,1,214.19,47.05Z"/><path class="cls-9" d="M202.81,46.24a.58.58,0,1,1-1.15,0,.58.58,0,0,1,1.15,0Z"/><path class="cls-9" d="M175,47a.48.48,0,0,1-.48.48A.47.47,0,0,1,174,47a.48.48,0,0,1,.48-.48A.49.49,0,0,1,175,47Z"/><path class="cls-9" d="M227.15,44.77a.4.4,0,0,1-.8,0,.4.4,0,1,1,.8,0Z"/><path class="cls-8" d="M144.3,51h0a1.6,1.6,0,0,1-1.15-2l1.23-4.84a1.62,1.62,0,0,1,2-1.16h0A1.6,1.6,0,0,1,147.48,45l-1.23,4.85A1.62,1.62,0,0,1,144.3,51Z"/><path class="cls-28" d="M208.58,49.68c0-.12.23-.18.49-.08a36.61,36.61,0,0,1,9.73,6.49c.19.2.21.38.11.49l1.3.86,0,0c.62-.92-3.46-4-5.69-5.48s-6.64-4.08-7.26-3.16a0,0,0,0,1,0,0Z"/><path class="cls-29" d="M210,50.45a4.63,4.63,0,1,0,6.43-1.28A4.64,4.64,0,0,0,210,50.45Z"/><path class="cls-30" d="M217.13,49.77c-.67.7-.21,1.86-.55,2.76-.25.66-.75.61-1.34.49s-2.08-.38-1.73.53c.18.47.66.79.82,1.29.35,1.09-1.13,1.3-1.87,1.18a5.75,5.75,0,0,1-3-1.45,4.63,4.63,0,1,0,7.67-4.8Z"/><path class="cls-28" d="M220.26,57l-1.69-1.12.23.23c.35.37.13.7-.35.52a29.19,29.19,0,0,1-5.12-2.86,29.35,29.35,0,0,1-4.61-3.63c-.35-.37-.13-.7.35-.52l.3.12-1.69-1.13a.55.55,0,0,0-.4.19c-.61.92,3.47,4,5.7,5.49s6.64,4.07,7.25,3.15A.5.5,0,0,0,220.26,57Z"/><polygon class="cls-26" points="219.45 61.23 219.8 61.93 220.57 62.04 220.01 62.59 220.14 63.36 219.45 62.99 218.76 63.36 218.9 62.59 218.34 62.04 219.11 61.93 219.45 61.23"/></g></g><rect class="cls-3" x="138.8" y="3.33" width="458.29" height="215.53" rx="8" ry="8"/><path class="cls-68" d="M461.33,143.64H303a13.85,13.85,0,0,0,.2,27.69H461.53a13.85,13.85,0,0,0-.2-27.69Z"/><path class="cls-68" d="M303,137.71a19.78,19.78,0,1,0,19.92,19.63A19.78,19.78,0,0,0,303,137.71Z"/><path class="cls-52" d="M314.47,157.4A11.37,11.37,0,1,1,303,146.11,11.37,11.37,0,0,1,314.47,157.4Z"/><text class="cls-63" transform="translate(490.07 169.11)">$175</text><path class="cls-8" d="M340.43,128a2.37,2.37,0,0,1-.72,1.74l-31.56,31.56-3.49,3.49a2.49,2.49,0,0,1-3.5,0l-3.49-3.49-9.29-9.3a2.47,2.47,0,0,1,0-3.49l3.49-3.49a2.47,2.47,0,0,1,3.49,0l7.55,7.57,29.81-29.83a2.49,2.49,0,0,1,3.5,0l3.49,3.49A2.38,2.38,0,0,1,340.43,128Z"/><path class="cls-8" d="M351.64,36.84H552.91c7.17,0,13,4.71,13,10.51V81.9c0,5.8-5.81,10.51-13,10.51H351.64c-7.17,0-13-4.71-13-10.51V47.35C338.66,41.55,344.47,36.84,351.64,36.84Z"/><text class="cls-69" transform="translate(376.33 72.54)">Collect Pledges</text><rect class="cls-70" x="20.8" y="184.3" width="15.63" height="85.47" transform="translate(159.76 414.55) rotate(152.22)"/><path class="cls-71" d="M14.79,183.93s-2.52-6.1-10.13-2.38S1,191.22,1,191.22,14.83,184,14.79,183.93Z"/><rect class="cls-72" x="0.5" y="187.46" width="15.66" height="2.02" transform="translate(103.56 351.33) rotate(152.22)"/><polygon class="cls-73" points="55.44 261.2 54.43 276.78 41.61 268.49 42.56 264.07 46.26 265.22 47.38 261.6 50.7 262.63 51.75 259.23 55.44 261.2"/><polygon class="cls-74" points="54.95 268.94 54.43 276.78 48.14 272.72 50.55 268.93 54.95 268.94"/></svg>