<svg id="Layer_1" data-name="Layer 1" xmlns="http://www.w3.org/2000/svg" xmlns:xlink="http://www.w3.org/1999/xlink" viewBox="0 0 600 400"><defs><style>.cls-1,.cls-2,.cls-3{fill:none;}.cls-1{stroke:#00d9cd;}.cls-1,.cls-3{stroke-miterlimit:10;}.cls-3{stroke:#fff;stroke-width:4px;}.cls-4{clip-path:url(#clip-path);}.cls-5{fill:#cafffa;}.cls-6{clip-path:url(#clip-path-2);}.cls-7{fill:#333;}.cls-8{fill:#00c4b4;}.cls-9{fill:#00d9cd;}.cls-10{fill:#111;}.cls-11{clip-path:url(#clip-path-3);}.cls-12{fill:#e01c1b;}.cls-13{fill:#00eadc;}.cls-14{fill:#00a08c;}.cls-15{fill:#005e50;}.cls-16{fill:#0080bb;}.cls-17{fill:#0091cb;}.cls-18{fill:#00b09c;}.cls-19,.cls-29{fill:#ffa65f;}.cls-20{fill:#ffcb00;}.cls-21{fill:#005b75;}.cls-22{fill:#004d61;}.cls-23{fill:#00001b;}.cls-24{fill:#000133;}.cls-25{fill:#ffdc37;}.cls-26{fill:#ffe677;}.cls-27{fill:#ff80cc;}.cls-28{fill:#f8e391;}.cls-29,.cls-30{fill-rule:evenodd;}.cls-30{fill:#f48e48;}.cls-31{clip-path:url(#clip-path-4);}.cls-32{fill:#ffeea4;}.cls-33{fill:#963a38;}.cls-34{fill:#e5b267;}.cls-35{fill:#c9862f;opacity:0.34;}.cls-36{clip-path:url(#clip-path-5);}.cls-37{fill:#f7c786;}.cls-38{clip-path:url(#clip-path-6);}.cls-39{fill:#f7941e;}.cls-40{fill:#d37a1a;}.cls-41{clip-path:url(#clip-path-7);}.cls-42{fill:#ef4440;}.cls-43{fill:#e21414;}.cls-44{clip-path:url(#clip-path-8);}.cls-45{fill:#fff;}.cls-46{fill:#ea6a0c;}.cls-47{fill:#dd4137;}.cls-48{clip-path:url(#clip-path-9);}.cls-49{fill:#fbb040;}.cls-50{clip-path:url(#clip-path-10);}.cls-51{fill:#ff960b;}.cls-52{fill:#ffa50a;}.cls-53{fill:#fffbca;}.cls-54{fill:#5dc8dd;}.cls-55{fill:#1e0e00;}.cls-56{fill:#965028;}.cls-57{clip-path:url(#clip-path-11);}.cls-58{fill:#c8e6eb;}.cls-59{fill:#f5415f;}.cls-60{fill:#55c7a6;}.cls-61{clip-path:url(#clip-path-12);}.cls-62{clip-path:url(#clip-path-13);}.cls-63{fill:#ffcd62;}.cls-64,.cls-74{font-size:32px;font-family:SFProDisplay-Bold, SF Pro Display;font-weight:700;}.cls-64{fill:#630;}.cls-65{clip-path:url(#clip-path-14);}.cls-66{fill:#ffd7db;}.cls-67{fill:#defaff;}.cls-68{fill:#d1384c;}.cls-69{fill:#ff526e;}.cls-70{fill:#9bff42;}.cls-71{clip-path:url(#clip-path-15);}.cls-72{fill:#7c2836;}.cls-73{fill:#f59196;}.cls-74{fill:#933;}</style><clipPath id="clip-path"><rect class="cls-1" x="4" y="5" width="591.1" height="389.7" rx="8" ry="8"/></clipPath><clipPath id="clip-path-2"><circle id="SVGID" class="cls-2" cx="62.37" cy="64.93" r="40"/></clipPath><clipPath id="clip-path-3"><path id="SVGID-2" data-name="SVGID" class="cls-2" d="M65.31,82.83a10.06,10.06,0,0,1-8.52-1.36l-.12-.09c-4-2.78-8.69,3.49-3.91,8.12s12.84,5,16.91,1C73.23,87,71,81.24,65.31,82.83Z"/></clipPath><clipPath id="clip-path-4"><circle id="SVGID-3" data-name="SVGID" class="cls-3" cx="212.01" cy="147.52" r="40"/></clipPath><clipPath id="clip-path-5"><path id="SVGID-4" data-name="SVGID" class="cls-2" d="M226,135s25.37,11.61,23.76-20.32c0,0,15.88,39.49-20.73,36.05Z"/></clipPath><clipPath id="clip-path-6"><path id="SVGID-5" data-name="SVGID" class="cls-2" d="M195.46,135s-25.37,11.61-23.76-20.32c0,0-15.87,39.49,20.74,36.05Z"/></clipPath><clipPath id="clip-path-7"><path id="SVGID-6" data-name="SVGID" class="cls-2" d="M208.18,155a10.43,10.43,0,0,0,10.26-.73l.15-.1c5-3.32,9.95,6,3.77,11.82s-15.77,5.24-20.18-.88C198.33,159.75,201.61,152,208.18,155Z"/></clipPath><clipPath id="clip-path-8"><path id="SVGID-7" data-name="SVGID" class="cls-2" d="M208.18,155a10.43,10.43,0,0,0,10.26-.73l.15-.1c5-3.32,9.95,6,3.77,11.82s-15.77,5.24-20.18-.88C198.33,159.74,201.61,152,208.18,155Z"/></clipPath><clipPath id="clip-path-9"><path id="SVGID-8" data-name="SVGID" class="cls-2" d="M189.36,135.3,213.3,95l20.28,40.8S215.29,127,189.36,135.3Z"/></clipPath><clipPath id="clip-path-10"><circle id="SVGID-9" data-name="SVGID" class="cls-3" cx="314.62" cy="147.52" r="40"/></clipPath><clipPath id="clip-path-11"><circle id="SVGID-10" data-name="SVGID" class="cls-3" cx="417.22" cy="147.52" r="40"/></clipPath><clipPath id="clip-path-12"><circle id="SVGID-11" data-name="SVGID" class="cls-3" cx="519.83" cy="147.52" r="40"/></clipPath><clipPath id="clip-path-13"><path id="SVGID-12" data-name="SVGID" class="cls-2" d="M504.55,151.23v.06c0,9.06,6.82,16.39,15.22,16.39S535,160.35,535,151.29v-.06Z"/></clipPath><clipPath id="clip-path-14"><circle id="SVGID-13" data-name="SVGID" class="cls-3" cx="212.01" cy="324.92" r="40"/></clipPath><clipPath id="clip-path-15"><circle id="SVGID-14" data-name="SVGID" class="cls-3" cx="315.3" cy="324.92" r="40"/></clipPath></defs><title>how-reader-2</title><g class="cls-4"><rect class="cls-5" x="4" y="5" width="118.54" height="416.73"/><g class="cls-6"><rect class="cls-7" x="1.63" y="7.78" width="117.71" height="117.71"/><path class="cls-8" d="M11,89.72c8,4.17,19.39,3,21,2.8l-.68-5.77c-4.71.56-17.7.67-21.29-5.43-2.66-4.55,0-12.55,7.66-23.15L13,54.76c-9.39,13-12,22.63-7.95,29.51A14.62,14.62,0,0,0,11,89.72Z"/><path class="cls-8" d="M113.09,102.67c-6.19-6.43-18.35-7.86-20.09-8l-2,6.42c5,.52,18.34,3.48,19.13,11,.59,5.56-5.85,13.63-18.62,23.32l3.19,4.82c15.65-11.87,22.81-21.74,21.91-30.16A12.3,12.3,0,0,0,113.09,102.67Z"/><path class="cls-9" d="M98.57,146.47C100.75,96.26,89.44,72.16,79,60.66l0,0a26.56,26.56,0,0,1-10.75,4.4,33.09,33.09,0,0,1-10.4-.67c-4.71-.87-9.72-2.46-13-5.79l-.33.29c-19.7,18-27,59.43-29.5,80.55a28.33,28.33,0,0,0,9.79,25c19.26,16.31,41,12.87,55.68,7.27A28.33,28.33,0,0,0,98.57,146.47Z"/><path class="cls-8" d="M98.57,146.47c1.06-24.49-1.08-42.77-4.78-56.4-.05,1.35-.11,2.7-.18,4-.88,15.44-2.53,31.16-11.18,44.44-4,6.18-9.16,11.29-16,14.25A45.82,45.82,0,0,1,45.9,156c-6.35-.33-12.69-1.81-18-5.37a31.16,31.16,0,0,1-10.33-12.25c-.71-1.44-1.34-2.9-1.91-4.39-.27,1.93-.5,3.76-.7,5.46a28.33,28.33,0,0,0,9.79,25c19.26,16.31,41,12.87,55.68,7.27A28.33,28.33,0,0,0,98.57,146.47Z"/><path class="cls-10" d="M54.84,76.21c-.25,2-.9,3.56-1.46,3.49S52.56,78,52.81,76s.91-3.57,1.47-3.5S55.09,74.2,54.84,76.21Z"/><path class="cls-10" d="M69.86,78.07c-.25,2-.9,3.56-1.47,3.5s-.81-1.75-.56-3.76.9-3.56,1.46-3.49S70.11,76.06,69.86,78.07Z"/><path class="cls-10" d="M65.31,82.83a10.06,10.06,0,0,1-8.52-1.36l-.12-.09c-4-2.78-8.69,3.49-3.91,8.12s12.84,5,16.91,1C73.23,87,71,81.24,65.31,82.83Z"/><g class="cls-11"><path class="cls-12" d="M52.73,89.69s.09-5.06,7.51-.17c0,0,7-3.15,8.28,2.1C68.52,91.62,61.4,97.19,52.73,89.69Z"/></g><path class="cls-8" d="M88.11,88.26a7.92,7.92,0,1,1-6.52-8.36A7.92,7.92,0,0,1,88.11,88.26Z"/><path class="cls-8" d="M50.23,83.56a7.92,7.92,0,1,1-6.52-8.36A7.92,7.92,0,0,1,50.23,83.56Z"/><path class="cls-13" d="M58.47,95.13c0,.34.54.69,1.31.79s1.42-.11,1.46-.45-.54-.7-1.31-.79S58.51,94.78,58.47,95.13Z"/><path class="cls-14" d="M44.75,58.62s13-6.09,34.21,2C79,60.66,63.79,74.28,44.75,58.62Z"/><path class="cls-15" d="M46.56,59.89S56.1,55,77.48,61.67C77.48,61.67,66,72,46.56,59.89Z"/><circle class="cls-16" cx="84.34" cy="42.72" r="4.79" transform="translate(-9.35 30.07) rotate(-19.17)"/><circle class="cls-16" cx="60.98" cy="15.76" r="2.92" transform="translate(24.51 67.11) rotate(-69.11)"/><path class="cls-16" d="M67.12,16.11a1.24,1.24,0,0,1-1.37,1.07,1.23,1.23,0,0,1-1.06-1.37,1.21,1.21,0,0,1,1.36-1.06A1.22,1.22,0,0,1,67.12,16.11Z"/><path class="cls-16" d="M64,17.6a1.16,1.16,0,1,1-.34,1.61A1.16,1.16,0,0,1,64,17.6Z"/><circle class="cls-17" cx="83.54" cy="40.66" r="1.83" transform="translate(-7.32 60.08) rotate(-38.02)"/><path class="cls-13" d="M44.67,58.63s16.26,17.59,34.37,2C79,60.64,63.89,68.8,44.67,58.63Z"/><path class="cls-18" d="M7.86,57s.33-2.47,5-8.07l6.24,7.6S14.25,62,7.86,57Z"/><path class="cls-8" d="M11.34,60.68s10.87,2.75,9.39-6.27c0,0-1.16-5.71-2.72-1.13-1,3-2.88,5.12-9.36,2C8.65,55.31,5.61,58.61,11.34,60.68Z"/><path class="cls-8" d="M15.51,54.16h0a1.6,1.6,0,0,1-1.15-1.95l1.23-4.84a1.61,1.61,0,0,1,1.94-1.16h0a1.6,1.6,0,0,1,1.16,1.94L17.45,53A1.61,1.61,0,0,1,15.51,54.16Z"/><path class="cls-19" d="M78.18,18.18l-1,.45a19.14,19.14,0,0,1,.9,2.17l1-.33A19.33,19.33,0,0,0,78.18,18.18Z"/><path class="cls-19" d="M76.34,15l-.86.6a23,23,0,0,1,1.22,2l.93-.5A21.78,21.78,0,0,0,76.34,15Z"/><path class="cls-19" d="M74,12.12l-.71.77a20,20,0,0,1,1.54,1.76l.83-.65A18.45,18.45,0,0,0,74,12.12Z"/><path class="cls-19" d="M71,9.83l-.51.93a14.26,14.26,0,0,1,1.9,1.36l.65-.83A15.19,15.19,0,0,0,71,9.83Z"/><path class="cls-19" d="M67.57,8.43l-.25,1a11.52,11.52,0,0,1,2.2.78l.42-1A12.34,12.34,0,0,0,67.57,8.43Z"/><path class="cls-19" d="M63.86,8.12V9.18a12.08,12.08,0,0,1,2.33.07l.17-1A13.15,13.15,0,0,0,63.86,8.12Z"/><path class="cls-19" d="M60.19,8.78l.28,1c.36-.13.75-.19,1.12-.29a11.58,11.58,0,0,1,1.15-.21l-.1-1a10.75,10.75,0,0,0-1.24.22C61,8.57,60.58,8.64,60.19,8.78Z"/><path class="cls-19" d="M56.74,10.2l.51.91,1-.52,1.08-.44-.36-1-1.16.47Z"/><path class="cls-19" d="M53.78,12.51l.77.71a3.87,3.87,0,0,1,.4-.41l.43-.39c.29-.25.6-.47.91-.71l-.6-.87c-.33.26-.68.51-1,.78l-.47.43A4.78,4.78,0,0,0,53.78,12.51Z"/><path class="cls-19" d="M51.77,15.71l1,.38.23-.52.12-.26a2,2,0,0,1,.14-.25l.28-.5c.1-.16.22-.31.33-.47L53,13.48c-.12.17-.25.34-.36.52l-.32.56-.15.28-.13.29Z"/><path class="cls-19" d="M51,19.39l1,.06c.05-.38.06-.77.13-1.15,0-.19.06-.38.1-.57l.14-.56-1-.27-.15.61c0,.21-.07.42-.11.63C51.05,18.55,51,19,51,19.39Z"/><path class="cls-19" d="M51.2,23.1l1-.17A16.68,16.68,0,0,1,52,20.59l-1.05,0A17.18,17.18,0,0,0,51.2,23.1Z"/><path class="cls-19" d="M52.07,26.68l1-.33a22.54,22.54,0,0,1-.61-2.28l-1,.22C51.6,25.1,51.82,25.89,52.07,26.68Z"/><path class="cls-19" d="M53.42,30.09l.95-.45c-.34-.71-.64-1.45-.92-2.19l-1,.37C52.75,28.59,53.07,29.35,53.42,30.09Z"/><path class="cls-8" d="M12.48,53.38h0a1.61,1.61,0,0,1-1.16-1.94l1.24-4.85a1.59,1.59,0,0,1,1.94-1.15h0a1.6,1.6,0,0,1,1.15,1.94l-1.23,4.85A1.6,1.6,0,0,1,12.48,53.38Z"/><path class="cls-20" d="M67.07,53.5a1.4,1.4,0,0,1,2,.23,1.1,1.1,0,0,1,0,1.5,11.78,11.78,0,0,1-9.43,3.68,1.1,1.1,0,0,1-1-.72,1.68,1.68,0,0,1,.83-2Z"/><path class="cls-20" d="M61.44,34.46S68.29,33,73,43.84l-4.59,2.55Z"/><path class="cls-20" d="M68.54,40.24a17.43,17.43,0,0,0-6.33-5.85,4.5,4.5,0,0,0-.77.07l6.93,11.93,2.34-1.3A19,19,0,0,0,68.54,40.24Z"/><path class="cls-20" d="M50.73,38.94s-5.89,3.81-1.42,14.78l5-1.47Z"/><path class="cls-20" d="M49.86,48.05a17.43,17.43,0,0,1,.28-8.62,5.06,5.06,0,0,1,.59-.49l3.62,13.31L51.79,53A18.45,18.45,0,0,1,49.86,48.05Z"/><path class="cls-21" d="M53.25,30.24s-5.78,8.42-.78,19.53,11.94,7.14,11.94,7.14,7.7-2.16,3.3-13.52S53.25,30.24,53.25,30.24Z"/><path class="cls-22" d="M65.59,39.2c1.4,3.89,1.51,8.28-.48,11.6-1.51,2.51-5,4.42-8.53,4.88a7,7,0,0,0,7.83,1.23s7.7-2.16,3.3-13.52A23.43,23.43,0,0,0,65.59,39.2Z"/><path class="cls-20" d="M60.46,33.66a19,19,0,0,0-7.21-3.42,19.27,19.27,0,0,0-2.71,8.26A12.63,12.63,0,0,0,60.46,33.66Z"/><path class="cls-20" d="M62.67,42.45a3.9,3.9,0,1,1-5.1-2.09A3.9,3.9,0,0,1,62.67,42.45Z"/><path class="cls-23" d="M61.43,43a2.56,2.56,0,1,1-3.34-1.37A2.55,2.55,0,0,1,61.43,43Z"/><path class="cls-24" d="M57.52,44.39a1.77,1.77,0,0,1,.83-1.33,6.21,6.21,0,0,0,.89-.63,1.38,1.38,0,0,0,.24-.38,1.75,1.75,0,0,0-1.65-.17,1.73,1.73,0,0,0-.92,2.27,1.68,1.68,0,0,0,.72.81A1.14,1.14,0,0,1,57.52,44.39Z"/><path class="cls-25" d="M57.16,35.25A.69.69,0,1,1,56.63,34"/><path class="cls-25" d="M58.11,40.75a.35.35,0,0,1-.18.46.36.36,0,0,1-.46-.19.35.35,0,0,1,.64-.27Z"/><path class="cls-25" d="M60.32,40.65a.35.35,0,0,1-.18.46.34.34,0,0,1-.45-.19.33.33,0,0,1,.18-.45A.34.34,0,0,1,60.32,40.65Z"/><path class="cls-25" d="M62.41,42.37a.35.35,0,1,1-.45-.19A.35.35,0,0,1,62.41,42.37Z"/><path class="cls-25" d="M62.36,45.19a.34.34,0,1,1-.45-.18A.33.33,0,0,1,62.36,45.19Z"/><path class="cls-25" d="M60.68,46.89a.35.35,0,0,1-.64.27.36.36,0,0,1,.19-.46A.35.35,0,0,1,60.68,46.89Z"/><path class="cls-25" d="M58,46.81a.34.34,0,0,1-.19.45.33.33,0,0,1-.45-.18.34.34,0,0,1,.18-.45A.34.34,0,0,1,58,46.81Z"/><path class="cls-25" d="M56.45,45.41a.34.34,0,0,1-.18.45.35.35,0,0,1-.46-.18.36.36,0,0,1,.19-.46A.34.34,0,0,1,56.45,45.41Z"/><path class="cls-25" d="M56.39,42.67a.35.35,0,0,1-.18.46.36.36,0,0,1-.46-.19.35.35,0,0,1,.19-.45A.34.34,0,0,1,56.39,42.67Z"/><path class="cls-20" d="M68.74,55c.85.8,1.27,1.72,1,2.06s-1.26,0-2.11-.84-1.27-1.72-1-2.05S67.89,54.18,68.74,55Z"/><path class="cls-20" d="M65.63,57.45c.45,1.07.46,2.08,0,2.26s-1.15-.54-1.59-1.61-.47-2.09,0-2.27S65.18,56.37,65.63,57.45Z"/><path class="cls-20" d="M59.84,58.7c0,1.17.33,2.12.79,2.13s.87-.93.89-2.09-.33-2.11-.8-2.12S59.86,57.54,59.84,58.7Z"/><polygon class="cls-26" points="85.55 32.2 86.03 33.19 87.12 33.35 86.33 34.12 86.52 35.2 85.55 34.69 84.57 35.2 84.76 34.12 83.97 33.35 85.06 33.19 85.55 32.2"/><polygon class="cls-26" points="89.32 47.02 89.49 47.37 89.86 47.42 89.59 47.69 89.65 48.06 89.32 47.88 88.98 48.06 89.04 47.69 88.77 47.42 89.15 47.37 89.32 47.02"/><polygon class="cls-26" points="38.83 53.47 39.32 54.46 40.41 54.62 39.62 55.39 39.8 56.48 38.83 55.96 37.85 56.48 38.04 55.39 37.25 54.62 38.34 54.46 38.83 53.47"/><polygon class="cls-26" points="40.26 52.13 40.4 52.43 40.73 52.47 40.49 52.7 40.55 53.02 40.26 52.87 39.97 53.02 40.02 52.7 39.79 52.47 40.11 52.43 40.26 52.13"/><polygon class="cls-26" points="39.19 57.93 39.38 58.3 39.79 58.37 39.49 58.66 39.56 59.07 39.19 58.88 38.82 59.07 38.89 58.66 38.59 58.37 39 58.3 39.19 57.93"/><polygon class="cls-26" points="66.93 44.18 67.15 44.63 67.65 44.7 67.29 45.05 67.37 45.55 66.93 45.31 66.48 45.55 66.57 45.05 66.21 44.7 66.71 44.63 66.93 44.18"/><polygon class="cls-26" points="69.75 20.9 70.24 21.89 71.33 22.05 70.54 22.82 70.73 23.9 69.75 23.39 68.78 23.9 68.97 22.82 68.18 22.05 69.27 21.89 69.75 20.9"/><polygon class="cls-26" points="65.6 11.25 65.88 11.82 66.52 11.92 66.06 12.36 66.16 13 65.6 12.7 65.03 13 65.14 12.36 64.68 11.92 65.31 11.82 65.6 11.25"/><path class="cls-27" d="M90.82,38.06a.48.48,0,0,1-.48.48.49.49,0,0,1-.48-.48.48.48,0,0,1,.48-.48A.47.47,0,0,1,90.82,38.06Z"/><path class="cls-27" d="M91.55,34.51a.61.61,0,1,1-.6-.6A.6.6,0,0,1,91.55,34.51Z"/><path class="cls-27" d="M50.52,17.93a.48.48,0,1,1-1,0,.48.48,0,1,1,1,0Z"/><path class="cls-27" d="M51.25,14.38a.61.61,0,1,1-.61-.6A.61.61,0,0,1,51.25,14.38Z"/><circle class="cls-27" cx="88.11" cy="29.88" r="0.65"/><circle class="cls-27" cx="91.21" cy="43.71" r="0.39"/><path class="cls-27" d="M37.08,45.27a.72.72,0,1,1-.72-.72A.72.72,0,0,1,37.08,45.27Z"/><path class="cls-27" d="M65.79,46.93a.62.62,0,1,1-.62-.62A.61.61,0,0,1,65.79,46.93Z"/><path class="cls-27" d="M79.66,56.09a.35.35,0,1,1-.7,0,.35.35,0,0,1,.7,0Z"/><path class="cls-9" d="M52.25,57.37a.79.79,0,1,1-.79-.78A.79.79,0,0,1,52.25,57.37Z"/><path class="cls-9" d="M86.73,29.49a.72.72,0,1,1-.72-.72A.73.73,0,0,1,86.73,29.49Z"/><circle class="cls-27" cx="57.38" cy="22.78" r="0.65"/><path class="cls-9" d="M56,22.39a.72.72,0,1,1-.72-.72A.73.73,0,0,1,56,22.39Z"/><path class="cls-9" d="M89.13,35.26a.51.51,0,0,1-1,0,.51.51,0,0,1,1,0Z"/><polygon class="cls-26" points="49.18 23.32 48.7 24.3 47.6 24.46 48.4 25.23 48.21 26.32 49.18 25.81 50.16 26.32 49.97 25.23 50.76 24.46 49.67 24.3 49.18 23.32"/><path class="cls-27" d="M43.18,25.63a.61.61,0,0,0,1.21,0,.61.61,0,1,0-1.21,0Z"/><path class="cls-27" d="M46,21a.66.66,0,0,0,.66.65.66.66,0,0,0,0-1.31A.67.67,0,0,0,46,21Z"/><path class="cls-9" d="M48,20.61a.72.72,0,1,0,.72-.72A.72.72,0,0,0,48,20.61Z"/><circle class="cls-9" cx="46.11" cy="26.37" r="0.51"/><path class="cls-9" d="M79.38,48.72a.46.46,0,0,1-.46.46.47.47,0,0,1-.46-.46.46.46,0,0,1,.46-.46A.45.45,0,0,1,79.38,48.72Z"/><path class="cls-9" d="M68,47.91a.57.57,0,0,1-.58.57.56.56,0,0,1-.57-.57.57.57,0,0,1,.57-.58A.58.58,0,0,1,68,47.91Z"/><path class="cls-9" d="M40.15,48.69a.49.49,0,0,1-.48.48.48.48,0,0,1-.48-.48.47.47,0,0,1,.48-.48A.48.48,0,0,1,40.15,48.69Z"/><path class="cls-9" d="M92.35,46.43A.4.4,0,1,1,92,46,.4.4,0,0,1,92.35,46.43Z"/><path class="cls-8" d="M9.5,52.68h0a1.59,1.59,0,0,1-1.15-1.94L9.58,45.9a1.6,1.6,0,0,1,1.94-1.16h0a1.6,1.6,0,0,1,1.16,1.94l-1.23,4.85A1.6,1.6,0,0,1,9.5,52.68Z"/><path class="cls-28" d="M73.78,51.35c0-.13.23-.18.49-.08a28.26,28.26,0,0,1,5.12,2.85A28.86,28.86,0,0,1,84,57.75c.19.2.21.39.11.49l1.3.87,0,0c.62-.92-3.46-4-5.7-5.48s-6.63-4.08-7.25-3.16a0,0,0,0,1,0,0Z"/><path class="cls-29" d="M75.17,52.12a4.63,4.63,0,1,0,6.43-1.29A4.62,4.62,0,0,0,75.17,52.12Z"/><path class="cls-30" d="M82.33,51.44c-.67.69-.21,1.86-.55,2.76-.25.66-.75.61-1.34.48s-2.08-.37-1.73.53c.18.48.66.8.82,1.3.35,1.09-1.13,1.3-1.88,1.18a5.7,5.7,0,0,1-3-1.46,4.56,4.56,0,0,0,1.79,2.31,4.63,4.63,0,0,0,5.88-7.1Z"/><path class="cls-28" d="M85.46,58.65l-1.69-1.12.23.22c.35.37.13.71-.35.53a29.19,29.19,0,0,1-5.12-2.86,29.35,29.35,0,0,1-4.61-3.63c-.35-.37-.13-.71.35-.52l.3.12-1.69-1.13a.55.55,0,0,0-.4.19c-.61.92,3.46,4,5.7,5.48s6.64,4.08,7.25,3.16A.51.51,0,0,0,85.46,58.65Z"/><polygon class="cls-26" points="84.65 62.9 85 63.6 85.77 63.71 85.21 64.26 85.34 65.03 84.65 64.66 83.96 65.03 84.09 64.26 83.53 63.71 84.31 63.6 84.65 62.9"/></g></g><rect class="cls-1" x="4" y="5" width="591.1" height="389.7" rx="8" ry="8"/><g class="cls-31"><rect class="cls-32" x="151.27" y="90.37" width="117.71" height="117.71"/><path class="cls-33" d="M189.36,135.3s23.32-10.45,44.22.49C233.58,135.79,206.65,142.15,189.36,135.3Z"/><path class="cls-34" d="M226,135s25.37,11.61,23.76-20.32c0,0,15.88,39.49-20.73,36.05Z"/><path class="cls-35" d="M250.07,138.3c-6,3.93-17.71,4.24-23.71-1l2.56,13.34c17,1.6,22.69-6.07,23.89-14.74A13.72,13.72,0,0,1,250.07,138.3Z"/><g class="cls-36"><path class="cls-37" d="M232.1,132.77s-4.94,14.26,5.43,22.53l1.13-.73s-9.33-7.09-5.47-21.8Z"/><path class="cls-37" d="M238.91,130.08s-2.9,14.81,8.54,21.54l1-.88S238.23,145,240,129.93Z"/><path class="cls-37" d="M243.17,124s1.31,15,14.16,18.35l.73-1.13s-11.41-2.66-13.9-17.66Z"/><path class="cls-37" d="M243.89,115.11s3.93,14.57,17.16,15.57l.52-1.24s-11.7-.61-16.78-15Z"/></g><path class="cls-34" d="M195.46,135s-25.37,11.61-23.76-20.32c0,0-15.87,39.49,20.74,36.05Z"/><path class="cls-35" d="M171.38,138.3c6,3.93,17.72,4.24,23.72-1l-2.57,13.34c-17,1.6-22.68-6.07-23.89-14.74A14,14,0,0,0,171.38,138.3Z"/><g class="cls-38"><path class="cls-37" d="M189.35,132.77s5,14.26-5.43,22.53l-1.12-.73s9.32-7.09,5.47-21.8Z"/><path class="cls-37" d="M182.55,130.08s2.89,14.81-8.54,21.54l-1-.88s10.23-5.71,8.47-20.81Z"/><path class="cls-37" d="M178.28,124s-1.31,15-14.16,18.35l-.72-1.13s11.41-2.66,13.89-17.66Z"/><path class="cls-37" d="M177.56,115.11s-3.93,14.57-17.16,15.57l-.51-1.24s11.69-.61,16.77-15Z"/></g><path class="cls-39" d="M204.83,129s-2.89-3-.81-2.78a8.51,8.51,0,0,1,3.76,1.38s-2.9-3.19-.87-3.31,5.2,3.14,5.2,3.14,4.51-4.52,5.32-3.92-2.25,4.46-2.25,4.46,4.28-2.29,4.51-.3-2.75,2.89-2.75,2.89,6-.88,15.47,6.36c0,0,1.19,1.56-.7,1.72,0,0,15.73,16.77,13.42,18.94,0,0-.93.12-1.08,0s24.54,84.66-7.79,76.94c0,0,1,1.51.14,1.72s-2.63-1.2-2.63-1.2.08.6-.32.66-.67-.66-.67-.66.78,1.29-.17,1.56-2.4-.81-2.4-.81l-27.57.66a1.22,1.22,0,0,1-1.61,1,21.31,21.31,0,0,1-2.82-1.37c-.05.12-2.17,1.78-3.21,1.45s-1.77-2.09-1.77-2.09-33.37,13.34-11.86-74.28c0,0-2.17,2.41-2.16,0,0-1,5.71-24.13,15.27-27.67C194.48,133.55,189.19,132,204.83,129Z"/><path class="cls-40" d="M250.08,183.82c-.1.8-.22,1.59-.37,2.37-.52,2.77-3.21,10.71-6.66,8.68.09,4-1,9.07-5.58,8.1.14,3.65-2,7.87-5.86,6.34-1.22,4.82-5.59,5.28-9.92,3.74-1,3.35-2.14,6.13-6.22,6.1s-8.56-1.7-10.76-5.23c-5,5.91-13.92-.34-15.6-6.75-2.92,1.63-6.55,4.15-9.84,2.86s-4.27-5.25-4.84-8.67c-3,42.84,18.8,34.14,18.8,34.14s.73,1.76,1.77,2.09,3.16-1.33,3.21-1.45a21.31,21.31,0,0,0,2.82,1.37,1.22,1.22,0,0,0,1.61-1l27.57-.66s1.45,1.08,2.4.81c.66-.19.49-.87.32-1.27.12.2.29.4.52.37.4-.06.32-.66.32-.66s1.82,1.41,2.63,1.2-.14-1.72-.14-1.72C256.51,239.37,254.45,208,250.08,183.82Z"/><path class="cls-10" d="M208.18,155a10.43,10.43,0,0,0,10.26-.73l.15-.1c5-3.32,9.95,6,3.77,11.82s-15.77,5.24-20.18-.88C198.33,159.75,201.61,152,208.18,155Z"/><g class="cls-41"><path class="cls-42" d="M222.38,166.24s.44-7-8.89-1.27c0,0-8-5.34-10.06,1.78C203.43,166.75,211.3,175.47,222.38,166.24Z"/><path class="cls-43" d="M213.71,167.9a1.13,1.13,0,0,1-1.36-.17,16.94,16.94,0,0,0-6.75-4.11,5.06,5.06,0,0,0-2.17,3.13s6.95,7.7,17,1C219,165.45,215.44,166.69,213.71,167.9Z"/></g><g class="cls-44"><path class="cls-45" d="M207.37,153.51s.78,3.36-.42,4.22c-.39.28-2.54.49-3,.1-1.3-1.09-1.16-4.42-1.16-4.42S206.73,151.05,207.37,153.51Z"/><path class="cls-45" d="M211.56,154.11s.78,3.36-.42,4.22a4.62,4.62,0,0,1-3,.1C206.84,157.34,207,154,207,154S210.92,151.65,211.56,154.11Z"/><path class="cls-45" d="M216.87,154.11s.78,3.36-.42,4.22c-.4.28-2.54.49-3,.1-1.3-1.09-1.15-4.42-1.15-4.42S216.23,151.65,216.87,154.11Z"/><path class="cls-45" d="M221,153.51s.78,3.36-.42,4.22c-.4.28-2.54.49-3,.1-1.3-1.09-1.15-4.42-1.15-4.42S220.33,151.05,221,153.51Z"/></g><ellipse class="cls-10" cx="221.76" cy="150.12" rx="1.46" ry="2.11"/><ellipse class="cls-10" cx="203.32" cy="150.12" rx="1.46" ry="2.11"/><circle class="cls-40" cx="230.54" cy="153.3" r="5.19"/><path class="cls-40" d="M190.28,154a5.19,5.19,0,1,0,5.18-5.19A5.19,5.19,0,0,0,190.28,154Z"/><path class="cls-46" d="M231.43,199.28s.66,3.62-4,4.23a.9.9,0,0,1-.77-1.53,8.2,8.2,0,0,1,2.51-1.5s-4.61,2-4.85.68,4.19-1.67,4.19-1.67-4.3.09-4.2-1,4.37-.32,4.37-.32-2.63-.62-2.36-1.86S231.79,195.53,231.43,199.28Z"/><path class="cls-46" d="M258.73,175.63c-1.68-3.64-7.54-4.56-11.19-4.24.17.75.34,1.54.53,2.37a12.76,12.76,0,0,1,4.94.58,6.11,6.11,0,0,1,3.06,1.91c.89,1.17.76,2.28.43,3.71-.83,3.64-3.4,6.7-6,9.23a33.74,33.74,0,0,1-19.6,9.21c-1.53.17-1.54,2.58,0,2.41a36.07,36.07,0,0,0,24.37-13.29C257.54,184.59,260.51,179.47,258.73,175.63Z"/><path class="cls-46" d="M194.58,201.8s-.65,3.62,4,4.23a.9.9,0,0,0,.77-1.53,8.2,8.2,0,0,0-2.51-1.5s4.61,2,4.84.68-4.18-1.67-4.18-1.67,4.3.09,4.2-1-4.37-.32-4.37-.32,2.63-.62,2.36-1.86S194.23,198.05,194.58,201.8Z"/><path class="cls-46" d="M167.29,178.15c1.68-3.64,7.54-4.56,11.19-4.24-.17.75-.3,1.56-.48,2.39a13.05,13.05,0,0,0-5,.56,6.15,6.15,0,0,0-3.06,1.91c-.88,1.17-.75,2.28-.43,3.71.83,3.64,3.4,6.7,6,9.23a33.79,33.79,0,0,0,19.61,9.21c1.52.17,1.54,2.58,0,2.41A36.11,36.11,0,0,1,170.77,190C168.47,187.11,165.51,182,167.29,178.15Z"/><path class="cls-47" d="M189.36,135.3,213.3,95l20.28,40.8S215.29,127,189.36,135.3Z"/><path class="cls-33" d="M214.78,95.36a2.42,2.42,0,0,1-2.7.23c-1.45-.82-3.45-2.16-2.36-2.84,1.63-1,3.14,1.76,3.14,1.76s-.56-3.52.54-3.07.44,3.11.44,3.11.25-2.74,2.33-2.13C217.52,92.82,216,94.35,214.78,95.36Z"/><g class="cls-48"><polygon class="cls-49" points="208.97 105.14 210.76 108.76 214.76 109.34 211.86 112.17 212.55 116.15 208.97 114.27 205.39 116.15 206.07 112.17 203.18 109.34 207.18 108.76 208.97 105.14"/><polygon class="cls-49" points="211.06 120.31 212.34 122.9 215.2 123.32 213.13 125.33 213.62 128.18 211.06 126.84 208.5 128.18 208.99 125.33 206.93 123.32 209.78 122.9 211.06 120.31"/><polygon class="cls-49" points="219.59 111.13 221.22 114.44 224.87 114.97 222.23 117.54 222.85 121.18 219.59 119.46 216.32 121.18 216.94 117.54 214.3 114.97 217.95 114.44 219.59 111.13"/><polygon class="cls-49" points="224.87 126.75 225.34 127.69 226.37 127.84 225.62 128.58 225.8 129.61 224.87 129.12 223.94 129.61 224.12 128.58 223.37 127.84 224.41 127.69 224.87 126.75"/><polygon class="cls-49" points="198.73 126.75 199.5 128.31 201.22 128.56 199.97 129.77 200.27 131.48 198.73 130.67 197.19 131.48 197.49 129.77 196.25 128.56 197.96 128.31 198.73 126.75"/><polygon class="cls-49" points="213.18 100.3 213.84 101.63 215.31 101.84 214.25 102.88 214.5 104.34 213.18 103.65 211.87 104.34 212.12 102.88 211.06 101.84 212.53 101.63 213.18 100.3"/></g></g><circle id="SVGID-15" data-name="SVGID" class="cls-3" cx="212.01" cy="147.52" r="40"/><g class="cls-50"><rect class="cls-32" x="253.88" y="90.37" width="117.71" height="117.71"/><path class="cls-51" d="M314.39,115.4a2.91,2.91,0,0,0-2.33,4.64,8.92,8.92,0,0,1,1.5,4.85v5.76a.83.83,0,0,0,1.66,0v-5.76a8.83,8.83,0,0,1,1.5-4.85,2.91,2.91,0,0,0-2.33-4.64Z"/><path class="cls-51" d="M298.64,119.72a2.9,2.9,0,0,0,.31,5.18,8.86,8.86,0,0,1,3.72,3.45l2.88,5a.83.83,0,0,0,1.13.31.84.84,0,0,0,.31-1.14l-2.88-5a8.91,8.91,0,0,1-1.13-5,2.9,2.9,0,0,0-4.34-2.85Z"/><path class="cls-51" d="M287.22,131.32a2.9,2.9,0,0,0,2.85,4.34,8.92,8.92,0,0,1,4.95,1.13l5,2.88a.84.84,0,0,0,.84-1.45l-5-2.88a8.9,8.9,0,0,1-3.46-3.72,2.9,2.9,0,0,0-5.17-.3Z"/><path class="cls-51" d="M330.53,119.72a2.9,2.9,0,0,1-.3,5.18,8.86,8.86,0,0,0-3.72,3.45l-2.88,5a.83.83,0,0,1-1.13.31.84.84,0,0,1-.31-1.14l2.88-5a8.91,8.91,0,0,0,1.13-5,2.94,2.94,0,0,1,.37-1.79A2.91,2.91,0,0,1,330.53,119.72Z"/><path class="cls-51" d="M342,131.32a2.9,2.9,0,0,1-2.85,4.34,8.94,8.94,0,0,0-5,1.13l-5,2.88a.84.84,0,0,1-.84-1.45l5-2.88a8.9,8.9,0,0,0,3.46-3.72,2.94,2.94,0,0,1,1.21-1.36A2.9,2.9,0,0,1,342,131.32Z"/><path class="cls-51" d="M312.32,184.22a3.3,3.3,0,0,1-3.3,3.3h0a3.3,3.3,0,0,1-3.3-3.3V175.4a3.29,3.29,0,0,1,3.3-3.29h0a3.29,3.29,0,0,1,3.3,3.29Z"/><path class="cls-51" d="M322.4,184.22a3.3,3.3,0,0,1-3.3,3.3h0a3.3,3.3,0,0,1-3.3-3.3V175.4a3.29,3.29,0,0,1,3.3-3.29h0a3.29,3.29,0,0,1,3.3,3.29Z"/><path class="cls-52" d="M337.42,174.48c0,18.37-10.22,33.26-22.83,33.26h0c-12.61,0-22.83-14.89-22.83-33.26V159.33c0-18.37,10.22-33.26,22.83-33.26h0c12.61,0,22.83,14.89,22.83,33.26Z"/><path class="cls-53" d="M327.05,146.89a12.46,12.46,0,1,1-12.46-12.46A12.46,12.46,0,0,1,327.05,146.89Z"/><path class="cls-54" d="M319.91,146.89a5.32,5.32,0,1,1-5.32-5.31A5.32,5.32,0,0,1,319.91,146.89Z"/><path class="cls-55" d="M317,146.89a2.4,2.4,0,1,1-2.4-2.4A2.4,2.4,0,0,1,317,146.89Z"/><path class="cls-56" d="M314.39,164.16a12.32,12.32,0,0,1-4.1-.67,4.1,4.1,0,0,0,8.2,0A12.36,12.36,0,0,1,314.39,164.16Z"/></g><circle id="SVGID-16" data-name="SVGID" class="cls-3" cx="314.62" cy="147.52" r="40"/><g class="cls-57"><rect class="cls-32" x="356.49" y="90.37" width="117.71" height="117.71"/><path class="cls-58" d="M448.85,194.53c0,1.42-13.79,2.57-30.8,2.57s-30.81-1.15-30.81-2.57S401,192,418.05,192,448.85,193.12,448.85,194.53Z"/><path class="cls-58" d="M407.68,125.7c1.68,3.25.93,5.43-.9,6.38s-4,.29-5.73-3-2.51-8.49-.68-9.44S406,122.44,407.68,125.7Z"/><path class="cls-58" d="M426.23,125.7c-1.68,3.25-.93,5.43.9,6.38s4.05.29,5.73-3,2.51-8.49.68-9.44S427.91,122.44,426.23,125.7Z"/><path class="cls-47" d="M415.33,125.33s-6.51-11.49-3.79-9.83,3.2,6.21,3.2,6.21-1.07-10.12,1.66-9.17,0,9.18,0,9.18,3.79-5.39,4.73-4.44S415.33,125.33,415.33,125.33Z"/><path class="cls-40" d="M443.19,163.78c2.86,3.05,7.36,5.35,8.88,3.92s-.51-6-3.37-9.09-5.47-3.35-7-1.92S440.33,160.74,443.19,163.78Z"/><path class="cls-59" d="M403.06,187.63c-1.15,4-4.09,8.11-6.1,7.54s-2.31-5.62-1.16-9.63,3.34-5.48,5.34-4.9S404.22,183.61,403.06,187.63Z"/><path class="cls-40" d="M390.72,163.78c-2.86,3.05-7.36,5.35-8.88,3.92s.51-6,3.37-9.09,5.47-3.35,7-1.92S393.58,160.74,390.72,163.78Z"/><path class="cls-59" d="M430.85,187.63c1.15,4,4.09,8.11,6.1,7.54s2.31-5.62,1.16-9.63-3.34-5.48-5.34-4.9S429.69,183.61,430.85,187.63Z"/><path class="cls-52" d="M445.66,164c0,19-12.85,27.54-28.7,27.54S388.25,183,388.25,164,401.1,122.71,417,122.71,445.66,145,445.66,164Z"/><path class="cls-40" d="M417,185.74c-15,0-27.37-7.68-28.6-24.7-.07,1-.11,2-.11,3,0,19,12.85,27.54,28.71,27.54s28.7-8.53,28.7-27.54c0-1,0-2-.11-3C444.33,178.06,432,185.74,417,185.74Z"/><path class="cls-45" d="M407.4,149.74c0,3.39-1.67,6.13-3.73,6.13s-3.73-2.74-3.73-6.13,1.67-6.13,3.73-6.13S407.4,146.36,407.4,149.74Z"/><path class="cls-60" d="M405.25,149.74a1.59,1.59,0,1,1-1.58-1.58A1.59,1.59,0,0,1,405.25,149.74Z"/><path class="cls-45" d="M426.51,149.74c0,3.39,1.67,6.13,3.73,6.13s3.73-2.74,3.73-6.13-1.67-6.13-3.73-6.13S426.51,146.36,426.51,149.74Z"/><circle class="cls-60" cx="430.24" cy="149.74" r="1.58"/><path class="cls-56" d="M416.4,162.35c-12.75,0-22.73-3.7-22.73-8.42h.69c0,4.19,10.09,7.73,22,7.73s22-3.54,22-7.73h.69C439.12,158.65,429.14,162.35,416.4,162.35Z"/><circle class="cls-40" cx="434.65" cy="180.27" r="2.82"/><path class="cls-40" d="M423,181.29a.77.77,0,1,1-.77-.77A.77.77,0,0,1,423,181.29Z"/><circle class="cls-40" cx="400.25" cy="172.67" r="0.92"/><path class="cls-40" d="M405.25,183a2.5,2.5,0,1,1-2.5-2.5A2.5,2.5,0,0,1,405.25,183Z"/></g><circle id="SVGID-17" data-name="SVGID" class="cls-3" cx="417.22" cy="147.52" r="40"/><g class="cls-61"><rect class="cls-32" x="459.09" y="90.37" width="117.71" height="117.71"/><path class="cls-51" d="M539.93,165.47a12.2,12.2,0,0,1-5.42-1.31c-8.26-4.06-7.62-13.6-7.59-14a2.86,2.86,0,0,1,3.05-2.71,2.92,2.92,0,0,1,2.61,3.16c0,.27-.31,5.92,4.36,8.21a6.33,6.33,0,0,0,7.46-1.17c2.62-2.48,4.75-8,2.18-15.35a3,3,0,0,1,1.69-3.78,2.81,2.81,0,0,1,3.64,1.76c2.92,8.32,1.47,16.85-3.68,21.73A12,12,0,0,1,539.93,165.47Z"/><path class="cls-51" d="M498.54,165.47a11,11,0,0,1-7.82-3.46c-4.86-4.88-6.23-13.41-3.48-21.73a2.61,2.61,0,0,1,3.43-1.76,3.05,3.05,0,0,1,1.61,3.78c-2.44,7.37-.42,12.87,2,15.35a5.73,5.73,0,0,0,7.05,1.17c4.48-2.34,4.11-8.13,4.11-8.19a2.87,2.87,0,0,1,2.45-3.18,2.77,2.77,0,0,1,2.88,2.71c0,.4.63,9.94-7.15,14A11,11,0,0,1,498.54,165.47Z"/><path class="cls-52" d="M537.57,183.88H501.88c-5.49-19.15-7.61-44-4.45-61.85,1.79-.46,5.19,10.47,7,10.13,11-2,18.9-1.87,30.56.13,1.8.31,5.42-10.65,7.24-10.26C545.21,141.72,543.87,166.33,537.57,183.88Z"/><path class="cls-51" d="M527.59,175.15H512.32a13.45,13.45,0,0,1-13.13-10.61A140,140,0,0,1,496,140.12c-.57,14.2,1.91,37.1,6.1,51.75h35.7c4.63-12.89,6.31-34.77,5.81-49a110.46,110.46,0,0,1-2.93,22A13.45,13.45,0,0,1,527.59,175.15Z"/><path class="cls-56" d="M504.55,151.23v.06c0,9.06,6.82,16.39,15.22,16.39S535,160.35,535,151.29v-.06Z"/><ellipse cx="510.52" cy="146.53" rx="1.51" ry="2.28"/><ellipse cx="529.49" cy="146.53" rx="1.51" ry="2.28"/><path class="cls-45" d="M508.94,151.23s-.93,4.86,0,6,3.38-6,3.38-6Z"/><path class="cls-45" d="M530.6,151.23s.94,4.86,0,6-3.38-6-3.38-6Z"/><g class="cls-62"><path class="cls-45" d="M513.54,166.77s.58-4.41,1.29-4.57,1.94,6.42,1.94,6.42Z"/><path class="cls-45" d="M526,166.77s-.57-4.41-1.29-4.57-1.94,6.42-1.94,6.42Z"/></g></g><circle id="SVGID-18" data-name="SVGID" class="cls-3" cx="519.83" cy="147.52" r="40"/><path class="cls-63" d="M329.88,61.9H171.55a13.85,13.85,0,0,0,.19,27.69H330.08a13.85,13.85,0,0,0-.2-27.69Z"/><path class="cls-63" d="M171.5,56A19.78,19.78,0,1,0,191.42,75.6,19.77,19.77,0,0,0,171.5,56Z"/><path class="cls-45" d="M183,75.66a11.38,11.38,0,1,1-11.46-11.29A11.38,11.38,0,0,1,183,75.66Z"/><text class="cls-64" transform="translate(358.62 87.37)">$175</text><g class="cls-65"><rect class="cls-66" x="151.27" y="267.77" width="117.71" height="117.71"/><path class="cls-67" d="M197.08,313.62s-9-10.29-11.49-8.13,4.95,14,4.95,14Z"/><path class="cls-67" d="M226.55,313.62s9-10.29,11.5-8.13-5,14-5,14Z"/><path class="cls-68" d="M191.67,351.86c-1.55,5.44-4.84,9.26-7.36,8.55s-3.29-5.71-1.74-11.14,4.85-9.26,7.36-8.54S193.22,346.43,191.67,351.86Z"/><path class="cls-68" d="M232.35,351.86c1.55,5.44,4.84,9.26,7.35,8.55s3.29-5.71,1.74-11.14-4.84-9.26-7.35-8.54S230.8,346.43,232.35,351.86Z"/><path class="cls-68" d="M222.78,368.42a6,6,0,0,0,3.82,6.2h0c2.55.81,5.56-1.61,5.86-5.46a36,36,0,0,0-1.79-14.23c-1.24-3.67-4.76-5.26-7-3.85h0a6,6,0,0,0-2.17,7A26.11,26.11,0,0,1,222.78,368.42Z"/><path class="cls-68" d="M201.16,368.42a6,6,0,0,1-3.83,6.2h0c-2.55.81-5.56-1.61-5.85-5.46a35.78,35.78,0,0,1,1.79-14.23c1.23-3.67,4.75-5.26,7-3.85h0a6,6,0,0,1,2.17,7A26.11,26.11,0,0,0,201.16,368.42Z"/><path class="cls-69" d="M237.94,341.53c-3.41,16.82-13.69,29.25-25.94,29.18h0c-12.26.07-22.54-12.36-25.95-29.18-.66-4.5-1.24-9-1.52-13.3-.69-8.13,3.86-13.29,9.2-15.15,2.75-1,5.69-3.11,8.76-4.95s6.26-3.44,9.51-3.54h0c6.49.21,12.77,6.41,18.26,8.49,5.34,1.86,9.9,7,9.2,15.15C239.19,332.57,238.61,337,237.94,341.53Z"/><path class="cls-53" d="M227.56,327.93a4,4,0,1,1-4-4A4,4,0,0,1,227.56,327.93Z"/><path class="cls-70" d="M225.28,327.93a1.7,1.7,0,1,1-1.69-1.69A1.7,1.7,0,0,1,225.28,327.93Z"/><path class="cls-55" d="M224.35,327.93a.76.76,0,0,1-.76.77.77.77,0,1,1,0-1.53A.76.76,0,0,1,224.35,327.93Z"/><path class="cls-53" d="M204.17,327.93a4,4,0,1,1-4-4A4,4,0,0,1,204.17,327.93Z"/><path class="cls-70" d="M201.89,327.93a1.7,1.7,0,1,1-1.69-1.69A1.69,1.69,0,0,1,201.89,327.93Z"/><path class="cls-55" d="M201,327.93a.76.76,0,0,1-.76.77.77.77,0,1,1,0-1.53A.76.76,0,0,1,201,327.93Z"/><path class="cls-68" d="M219.37,335.7a14.61,14.61,0,0,1-.4,2,7.25,7.25,0,0,1-7,4.35h0a7.22,7.22,0,0,1-6.95-4.35,13.29,13.29,0,0,1-.41-2c-.16-1,.72-1.76,1.88-2.11a5.66,5.66,0,0,1,.59-.15,9.22,9.22,0,0,1,1.6-.18c.7,0,1.43,0,2.18,0H213c.72,0,1.43,0,2.11,0a9.78,9.78,0,0,1,1.75.18l.44.1C218.58,333.88,219.54,334.61,219.37,335.7Z"/><path class="cls-69" d="M225.26,298.93c-4.22-3.27-9.11.66-9.28,3,0,0,.88-8.71-4-10.27v0l0,0,0,0v0c-4.86,1.56-4,10.27-4,10.27-.17-2.37-5.06-6.3-9.29-3-3.41,2.64-.43,6.45.76,4.6s4.17-1.94,4.74.52c.74,3.16-5.26,6.3-5.26,6.3l13,.93H212l13-.93s-6-3.14-5.26-6.3c.57-2.46,3.46-2.5,4.74-.52S228.68,301.57,225.26,298.93Z"/><path class="cls-45" d="M208.72,333.64c0,.95-.49,1.73-1.11,1.73s-1.11-.78-1.11-1.73v-.05a5.66,5.66,0,0,1,.59-.15,9.22,9.22,0,0,1,1.6-.18A2.34,2.34,0,0,1,208.72,333.64Z"/><path class="cls-45" d="M213.06,333.64c0,.95-.5,1.73-1.11,1.73s-1.11-.78-1.11-1.73a2.1,2.1,0,0,1,0-.36H213C213.05,333.4,213.06,333.52,213.06,333.64Z"/><path class="cls-45" d="M217.35,333.64c0,.95-.5,1.73-1.12,1.73s-1.11-.78-1.11-1.73a2.34,2.34,0,0,1,0-.38,9.78,9.78,0,0,1,1.75.18l.44.1A.34.34,0,0,1,217.35,333.64Z"/></g><circle id="SVGID-19" data-name="SVGID" class="cls-3" cx="212.01" cy="324.92" r="40"/><g class="cls-71"><rect class="cls-66" x="254.56" y="267.77" width="117.71" height="117.71"/><ellipse class="cls-58" cx="315.3" cy="362.53" rx="40.36" ry="2.09"/><path class="cls-69" d="M345.15,361.75s-9-1-12.53,0-8.52,5-17.38,5-13.7-3.9-18.21-5-12.87,0-12.87,0c4.91-5.51,6.62-19.43,6.48-38.19A24.59,24.59,0,0,1,315.23,299h0a24.6,24.6,0,0,1,24.6,24.6C340,340.7,340,353.34,345.15,361.75Z"/><path class="cls-45" d="M304.58,318.7a10.1,10.1,0,0,0,20.15,0Z"/><circle class="cls-60" cx="314.66" cy="319.73" r="2.98"/><path class="cls-68" d="M327,319.73a12.32,12.32,0,0,0-24.59,0Z"/><path class="cls-72" d="M299.69,330.58a.63.63,0,0,1,.19,0l4.23,1.46a15.52,15.52,0,0,0,5.06.84h12.31a15.62,15.62,0,0,0,5.11-.86l4.13-1.44a.58.58,0,0,1,.74.36.57.57,0,0,1-.36.74L327,333.15a16.57,16.57,0,0,1-5.49.93H309.17a16.74,16.74,0,0,1-5.44-.91l-4.23-1.46a.57.57,0,0,1-.36-.74A.58.58,0,0,1,299.69,330.58Z"/><path class="cls-68" d="M318.25,339.48h-5.9a2.41,2.41,0,0,1-2.41-2.41h10.72A2.41,2.41,0,0,1,318.25,339.48Z"/><path class="cls-68" d="M337.9,350.07a3.06,3.06,0,1,1-3.06-3.06A3.06,3.06,0,0,1,337.9,350.07Z"/><circle class="cls-68" cx="320.32" cy="355.07" r="1.54"/><path class="cls-68" d="M301,353.13a1.27,1.27,0,1,1-1.27-1.26A1.27,1.27,0,0,1,301,353.13Z"/></g><circle id="SVGID-20" data-name="SVGID" class="cls-3" cx="315.3" cy="324.92" r="40"/><path class="cls-73" d="M272.53,241.25H171.15a13.85,13.85,0,0,0,.19,27.69H272.73a13.85,13.85,0,1,0-.2-27.69Z"/><path class="cls-73" d="M171.1,235.32A19.78,19.78,0,1,0,191,255,19.77,19.77,0,0,0,171.1,235.32Z"/><path class="cls-45" d="M182.62,255a11.38,11.38,0,1,1-11.46-11.29A11.38,11.38,0,0,1,182.62,255Z"/><text class="cls-74" transform="translate(302.62 266.09)">$90</text></svg>