<svg id="Layer_1" data-name="Layer 1" xmlns="http://www.w3.org/2000/svg" xmlns:xlink="http://www.w3.org/1999/xlink" viewBox="0 0 600 400"><defs><style>.cls-1,.cls-2,.cls-6{fill:none;}.cls-1{stroke:#00d9cd;}.cls-1,.cls-6{stroke-miterlimit:10;}.cls-3{fill:#d8e2e8;}.cls-4{fill:#ff4d43;}.cls-5{fill:#fff;}.cls-6{stroke:#b4b4b4;stroke-linecap:round;stroke-width:4px;stroke-dasharray:3.97 7.94;}.cls-7{fill:#b4b4b4;}.cls-8{clip-path:url(#clip-path);}.cls-9{fill:#e0fcf9;}.cls-10{clip-path:url(#clip-path-2);}.cls-11{fill:#333;}.cls-12{fill:#00c4b4;}.cls-13{fill:#00d9cd;}.cls-14{fill:#111;}.cls-15{clip-path:url(#clip-path-3);}.cls-16{fill:#e01c1b;}.cls-17{fill:#00eadc;}.cls-18{fill:#00a08c;}.cls-19{fill:#005e50;}.cls-20{fill:#0080bb;}.cls-21{fill:#0091cb;}.cls-22{fill:#00b09c;}.cls-23,.cls-33{fill:#ffa65f;}.cls-24{fill:#ffcb00;}.cls-25{fill:#005b75;}.cls-26{fill:#004d61;}.cls-27{fill:#00001b;}.cls-28{fill:#000133;}.cls-29{fill:#ffdc37;}.cls-30{fill:#ffe677;}.cls-31{fill:#ff80cc;}.cls-32{fill:#f8e391;}.cls-33,.cls-34{fill-rule:evenodd;}.cls-34{fill:#f48e48;}</style><clipPath id="clip-path"><rect class="cls-1" x="2" y="2" width="366.68" height="344.72" rx="8" ry="8"/></clipPath><clipPath id="clip-path-2"><circle id="SVGID" class="cls-2" cx="187.16" cy="57.84" r="40"/></clipPath><clipPath id="clip-path-3"><path id="SVGID-2" data-name="SVGID" class="cls-2" d="M190.1,75.75a10.06,10.06,0,0,1-8.52-1.37l-.12-.08c-4-2.78-8.69,3.49-3.91,8.12s12.84,5,16.91,1C198,80,195.78,74.16,190.1,75.75Z"/></clipPath></defs><title>how-youtuber-1</title><rect class="cls-3" x="314.26" y="227.8" width="281.92" height="168.05"/><circle class="cls-4" cx="455.22" cy="311.82" r="40.14" transform="translate(-87.16 413.22) rotate(-45)"/><polygon class="cls-5" points="444.58 290.52 444.58 333.12 476.72 311.82 444.58 290.52"/><path class="cls-6" d="M295.7,379.21c-8.19,1.79-22.62,4.07-36,1.73-45.31-7.92-68.38-44.86-68.38-44.86"/><polygon class="cls-7" points="289.73 367.79 312.42 375.15 294.7 391.12 289.73 367.79"/><g class="cls-8"><rect class="cls-5" x="-17.76" y="-4.92" width="363.41" height="253.72"/><rect class="cls-9" x="2" y="2" width="366.68" height="344.72"/><g class="cls-10"><rect class="cls-11" x="126.42" y="0.7" width="117.71" height="117.71"/><path class="cls-12" d="M135.81,82.63c8,4.18,19.39,3,21,2.81l-.69-5.77c-4.71.56-17.7.66-21.28-5.44-2.67-4.54,0-12.54,7.65-23.15l-4.71-3.4c-9.39,13-12,22.63-8,29.5A14.48,14.48,0,0,0,135.81,82.63Z"/><path class="cls-12" d="M237.88,95.58c-6.18-6.43-18.34-7.85-20.09-8l-2,6.43c5.06.51,18.34,3.48,19.14,11,.59,5.57-5.85,13.63-18.63,23.33l3.2,4.81c15.64-11.87,22.8-21.73,21.9-30.15A12.27,12.27,0,0,0,237.88,95.58Z"/><path class="cls-13" d="M223.37,139.39c2.17-50.21-9.14-74.31-19.62-85.81l0,0A26.6,26.6,0,0,1,193,58a33.11,33.11,0,0,1-10.4-.67c-4.71-.88-9.72-2.46-13-5.79l-.33.29c-19.7,18-27,59.42-29.5,80.55a28.3,28.3,0,0,0,9.79,25c19.26,16.32,41,12.88,55.68,7.27A28.33,28.33,0,0,0,223.37,139.39Z"/><path class="cls-12" d="M223.37,139.39c1.06-24.5-1.09-42.77-4.79-56.41q-.06,2-.18,4c-.87,15.43-2.52,31.16-11.17,44.44-4,6.18-9.17,11.28-16,14.24a45.69,45.69,0,0,1-20.53,3.22c-6.35-.34-12.68-1.81-18-5.38a31.13,31.13,0,0,1-10.33-12.24c-.71-1.44-1.34-2.91-1.91-4.4-.27,1.94-.5,3.77-.7,5.47a28.3,28.3,0,0,0,9.79,25c19.26,16.32,41,12.88,55.68,7.27A28.33,28.33,0,0,0,223.37,139.39Z"/><path class="cls-14" d="M179.63,69.12c-.24,2-.9,3.57-1.46,3.5s-.81-1.75-.57-3.75.91-3.57,1.47-3.5S179.88,67.12,179.63,69.12Z"/><path class="cls-14" d="M194.65,71c-.25,2-.9,3.57-1.46,3.5s-.82-1.75-.57-3.75.9-3.57,1.47-3.5S194.9,69,194.65,71Z"/><path class="cls-14" d="M190.1,75.75a10.06,10.06,0,0,1-8.52-1.37l-.12-.08c-4-2.78-8.69,3.49-3.91,8.12s12.84,5,16.91,1C198,80,195.78,74.16,190.1,75.75Z"/><g class="cls-15"><path class="cls-16" d="M177.52,82.6s.09-5,7.51-.17c0,0,7-3.14,8.28,2.11C193.31,84.54,186.19,90.11,177.52,82.6Z"/></g><path class="cls-12" d="M212.9,81.18a7.92,7.92,0,1,1-6.52-8.37A7.92,7.92,0,0,1,212.9,81.18Z"/><path class="cls-12" d="M175,76.48a7.92,7.92,0,1,1-6.51-8.36A7.92,7.92,0,0,1,175,76.48Z"/><path class="cls-17" d="M183.26,88c0,.35.54.7,1.31.79s1.42-.1,1.46-.44-.54-.7-1.31-.8S183.3,87.7,183.26,88Z"/><path class="cls-18" d="M169.54,51.54s13-6.09,34.21,2C203.75,53.58,188.58,67.2,169.54,51.54Z"/><path class="cls-19" d="M171.35,52.81s9.54-4.9,30.92,1.78C202.27,54.59,190.82,65,171.35,52.81Z"/><circle class="cls-20" cx="209.13" cy="35.63" r="4.79" transform="matrix(0.94, -0.33, 0.33, 0.94, -0.1, 70.66)"/><circle class="cls-20" cx="185.77" cy="8.68" r="2.92" transform="translate(111.43 179.15) rotate(-69.11)"/><path class="cls-20" d="M191.91,9a1.22,1.22,0,1,1-1.07-1.37A1.23,1.23,0,0,1,191.91,9Z"/><path class="cls-20" d="M188.75,10.52a1.16,1.16,0,1,1-.34,1.61A1.16,1.16,0,0,1,188.75,10.52Z"/><circle class="cls-21" cx="208.33" cy="33.58" r="1.83" transform="translate(23.53 135.45) rotate(-38.02)"/><path class="cls-17" d="M169.46,51.55s16.26,17.59,34.38,2C203.84,53.56,188.69,61.72,169.46,51.55Z"/><path class="cls-22" d="M132.65,50s.34-2.47,4.95-8.07l6.24,7.6S139,54.92,132.65,50Z"/><path class="cls-12" d="M136.13,53.6s10.87,2.74,9.4-6.27c0,0-1.17-5.71-2.72-1.13-1,3-2.89,5.11-9.37,2C133.44,48.23,130.4,51.53,136.13,53.6Z"/><path class="cls-12" d="M140.3,47.07h0a1.59,1.59,0,0,1-1.15-1.94l1.23-4.85a1.6,1.6,0,0,1,2-1.15h0a1.6,1.6,0,0,1,1.15,1.94l-1.23,4.85A1.6,1.6,0,0,1,140.3,47.07Z"/><path class="cls-23" d="M203,11.09l-.95.46a18.41,18.41,0,0,1,.9,2.17l1-.33A20.2,20.2,0,0,0,203,11.09Z"/><path class="cls-23" d="M201.14,7.9l-.87.6a22.63,22.63,0,0,1,1.23,2l.92-.5A21.69,21.69,0,0,0,201.14,7.9Z"/><path class="cls-23" d="M198.76,5l-.71.77a19.67,19.67,0,0,1,1.54,1.75l.83-.64A18.45,18.45,0,0,0,198.76,5Z"/><path class="cls-23" d="M195.82,2.75l-.5.93A13.91,13.91,0,0,1,197.21,5l.65-.83A14,14,0,0,0,195.82,2.75Z"/><path class="cls-23" d="M192.37,1.35l-.26,1a12.21,12.21,0,0,1,2.2.77l.42-1A12.48,12.48,0,0,0,192.37,1.35Z"/><path class="cls-23" d="M188.65,1l0,1a12.86,12.86,0,0,1,2.32.08l.17-1A13.15,13.15,0,0,0,188.65,1Z"/><path class="cls-23" d="M185,1.7l.28,1a11,11,0,0,1,1.13-.29,10.89,10.89,0,0,1,1.14-.21l-.1-1a10.22,10.22,0,0,0-1.23.22C185.79,1.48,185.38,1.56,185,1.7Z"/><path class="cls-23" d="M181.53,3.11l.52.92,1-.52,1.08-.44-.36-1-1.16.47Z"/><path class="cls-23" d="M178.57,5.42l.77.72a3.18,3.18,0,0,1,.41-.41l.42-.39c.29-.25.61-.47.91-.71l-.6-.87c-.33.26-.68.51-1,.78L179,5A3.82,3.82,0,0,0,178.57,5.42Z"/><path class="cls-23" d="M176.56,8.63l1,.38.24-.52.11-.26A2,2,0,0,1,178,8l.28-.5a5.59,5.59,0,0,1,.33-.47l-.86-.62c-.12.18-.25.35-.36.53l-.32.56-.15.27-.13.3Z"/><path class="cls-23" d="M175.79,12.31l1.05.06a10.64,10.64,0,0,1,.13-1.15l.09-.58.14-.56-1-.26-.15.61c0,.21-.07.42-.1.62A10.79,10.79,0,0,0,175.79,12.31Z"/><path class="cls-23" d="M176,16l1-.16a18.49,18.49,0,0,1-.21-2.34l-1,0A18.58,18.58,0,0,0,176,16Z"/><path class="cls-23" d="M176.86,19.59l1-.32a22.07,22.07,0,0,1-.62-2.29l-1,.23A23.82,23.82,0,0,0,176.86,19.59Z"/><path class="cls-23" d="M178.21,23l.95-.45c-.34-.72-.64-1.45-.92-2.19l-1,.36C177.54,21.5,177.86,22.26,178.21,23Z"/><path class="cls-12" d="M137.27,46.3h0a1.6,1.6,0,0,1-1.15-1.94l1.23-4.85a1.6,1.6,0,0,1,1.94-1.15h0a1.59,1.59,0,0,1,1.15,1.94l-1.23,4.85A1.59,1.59,0,0,1,137.27,46.3Z"/><path class="cls-24" d="M191.86,46.42a1.39,1.39,0,0,1,2,.23,1.1,1.1,0,0,1,0,1.5,11.8,11.8,0,0,1-9.43,3.67,1.06,1.06,0,0,1-.94-.71,1.69,1.69,0,0,1,.82-2Z"/><path class="cls-24" d="M186.23,27.37s6.85-1.51,11.52,9.38l-4.58,2.56Z"/><path class="cls-24" d="M193.33,33.15A17.43,17.43,0,0,0,187,27.3a4.5,4.5,0,0,0-.77.07l6.94,11.94L195.5,38A19.2,19.2,0,0,0,193.33,33.15Z"/><path class="cls-24" d="M175.52,31.85s-5.89,3.82-1.41,14.79l5-1.47Z"/><path class="cls-24" d="M174.65,41a17.43,17.43,0,0,1,.28-8.62,4.69,4.69,0,0,1,.59-.5l3.62,13.32-2.56.75A18.79,18.79,0,0,1,174.65,41Z"/><path class="cls-25" d="M178.05,23.15s-5.79,8.43-.79,19.54,11.94,7.14,11.94,7.14,7.7-2.16,3.3-13.52S178.05,23.15,178.05,23.15Z"/><path class="cls-26" d="M190.38,32.11c1.4,3.9,1.51,8.28-.48,11.61-1.51,2.51-5,4.41-8.53,4.88a7,7,0,0,0,7.83,1.23s7.7-2.16,3.3-13.52A23.2,23.2,0,0,0,190.38,32.11Z"/><path class="cls-24" d="M185.26,26.58a19.11,19.11,0,0,0-7.21-3.43,19.18,19.18,0,0,0-2.71,8.26A12.66,12.66,0,0,0,185.26,26.58Z"/><path class="cls-24" d="M187.46,35.37a3.9,3.9,0,1,1-5.1-2.09A3.89,3.89,0,0,1,187.46,35.37Z"/><path class="cls-27" d="M186.23,35.88a2.56,2.56,0,1,1-4.72,2,2.56,2.56,0,0,1,4.72-2Z"/><path class="cls-28" d="M182.31,37.3a1.77,1.77,0,0,1,.83-1.33,5.45,5.45,0,0,0,.89-.62,1.55,1.55,0,0,0,.24-.38,1.73,1.73,0,0,0-2.57,2.09,1.71,1.71,0,0,0,.72.82A1.28,1.28,0,0,1,182.31,37.3Z"/><path class="cls-29" d="M182,28.17a.69.69,0,0,1-.53-1.27"/><path class="cls-29" d="M182.9,33.67a.34.34,0,0,1-.18.45.35.35,0,0,1-.46-.18.36.36,0,0,1,.19-.46A.34.34,0,0,1,182.9,33.67Z"/><path class="cls-29" d="M185.12,33.57a.34.34,0,0,1-.19.45.33.33,0,0,1-.45-.18.34.34,0,0,1,.18-.45A.34.34,0,0,1,185.12,33.57Z"/><path class="cls-29" d="M187.2,35.28a.35.35,0,0,1-.18.46.36.36,0,0,1-.46-.19.34.34,0,0,1,.19-.45A.34.34,0,0,1,187.2,35.28Z"/><path class="cls-29" d="M187.16,38.11a.35.35,0,0,1-.19.45.34.34,0,0,1-.45-.18.35.35,0,0,1,.18-.46A.36.36,0,0,1,187.16,38.11Z"/><path class="cls-29" d="M185.47,39.81a.35.35,0,0,1-.64.26.35.35,0,0,1,.19-.45A.35.35,0,0,1,185.47,39.81Z"/><path class="cls-29" d="M182.81,39.73a.35.35,0,0,1-.19.45.34.34,0,0,1-.45-.18.35.35,0,0,1,.18-.46A.36.36,0,0,1,182.81,39.73Z"/><path class="cls-29" d="M181.25,38.33a.35.35,0,0,1-.19.45.35.35,0,0,1-.27-.64A.36.36,0,0,1,181.25,38.33Z"/><path class="cls-29" d="M181.18,35.59A.34.34,0,0,1,181,36a.34.34,0,1,1,.18-.45Z"/><path class="cls-24" d="M193.53,47.9c.85.79,1.27,1.72.95,2.05s-1.26,0-2.1-.83-1.28-1.72-1-2.06S192.69,47.1,193.53,47.9Z"/><path class="cls-24" d="M190.42,50.36c.45,1.08.47,2.09,0,2.27s-1.14-.54-1.59-1.62-.47-2.09,0-2.27S190,49.29,190.42,50.36Z"/><path class="cls-24" d="M184.63,51.62c0,1.16.33,2.11.8,2.12s.86-.92.88-2.08-.33-2.12-.79-2.13S184.65,50.46,184.63,51.62Z"/><polygon class="cls-30" points="210.34 25.12 210.82 26.11 211.92 26.27 211.13 27.04 211.31 28.12 210.34 27.61 209.36 28.12 209.55 27.04 208.76 26.27 209.85 26.11 210.34 25.12"/><polygon class="cls-30" points="214.11 39.94 214.28 40.28 214.66 40.34 214.38 40.6 214.45 40.98 214.11 40.8 213.77 40.98 213.84 40.6 213.56 40.34 213.94 40.28 214.11 39.94"/><polygon class="cls-30" points="163.62 46.39 164.11 47.38 165.2 47.54 164.41 48.31 164.6 49.39 163.62 48.88 162.65 49.39 162.83 48.31 162.04 47.54 163.13 47.38 163.62 46.39"/><polygon class="cls-30" points="165.05 45.05 165.19 45.34 165.52 45.39 165.28 45.62 165.34 45.94 165.05 45.79 164.76 45.94 164.82 45.62 164.58 45.39 164.91 45.34 165.05 45.05"/><polygon class="cls-30" points="163.98 50.84 164.17 51.22 164.58 51.28 164.28 51.58 164.35 51.99 163.98 51.8 163.61 51.99 163.68 51.58 163.38 51.28 163.79 51.22 163.98 50.84"/><polygon class="cls-30" points="191.72 37.1 191.94 37.55 192.44 37.62 192.08 37.97 192.17 38.47 191.72 38.23 191.28 38.47 191.36 37.97 191 37.62 191.5 37.55 191.72 37.1"/><polygon class="cls-30" points="194.55 13.82 195.03 14.81 196.13 14.96 195.34 15.73 195.52 16.82 194.55 16.31 193.57 16.82 193.76 15.73 192.97 14.96 194.06 14.81 194.55 13.82"/><polygon class="cls-30" points="190.39 4.17 190.67 4.74 191.31 4.83 190.85 5.28 190.96 5.91 190.39 5.62 189.82 5.91 189.93 5.28 189.47 4.83 190.1 4.74 190.39 4.17"/><path class="cls-31" d="M215.62,31a.49.49,0,1,1-.48-.48A.49.49,0,0,1,215.62,31Z"/><path class="cls-31" d="M216.34,27.43a.6.6,0,1,1-.6-.6A.6.6,0,0,1,216.34,27.43Z"/><path class="cls-31" d="M175.31,10.84a.48.48,0,0,1-.48.49.49.49,0,0,1,0-1A.48.48,0,0,1,175.31,10.84Z"/><path class="cls-31" d="M176,7.3a.61.61,0,1,1-.6-.6A.6.6,0,0,1,176,7.3Z"/><circle class="cls-31" cx="212.91" cy="22.8" r="0.65"/><circle class="cls-31" cx="216.01" cy="36.63" r="0.39"/><path class="cls-31" d="M161.87,38.19a.72.72,0,1,1-.72-.72A.72.72,0,0,1,161.87,38.19Z"/><path class="cls-31" d="M190.58,39.84a.62.62,0,0,1-.62.62.62.62,0,0,1,0-1.24A.62.62,0,0,1,190.58,39.84Z"/><path class="cls-31" d="M204.45,49a.34.34,0,0,1-.35.35.35.35,0,0,1-.35-.35.35.35,0,0,1,.35-.35A.35.35,0,0,1,204.45,49Z"/><path class="cls-13" d="M177,50.29a.79.79,0,1,1-.79-.78A.79.79,0,0,1,177,50.29Z"/><path class="cls-13" d="M211.52,22.41a.72.72,0,1,1-.72-.72A.72.72,0,0,1,211.52,22.41Z"/><circle class="cls-31" cx="182.17" cy="15.7" r="0.65"/><path class="cls-13" d="M180.79,15.31a.73.73,0,0,1-.73.72.72.72,0,1,1,0-1.44A.73.73,0,0,1,180.79,15.31Z"/><path class="cls-13" d="M213.92,28.17a.51.51,0,0,1-.51.51.5.5,0,0,1-.5-.51.5.5,0,0,1,.5-.5A.5.5,0,0,1,213.92,28.17Z"/><polygon class="cls-30" points="173.98 16.23 173.49 17.22 172.4 17.38 173.19 18.15 173 19.24 173.98 18.72 174.95 19.24 174.76 18.15 175.56 17.38 174.46 17.22 173.98 16.23"/><path class="cls-31" d="M168,18.55a.61.61,0,1,0,.6-.61A.6.6,0,0,0,168,18.55Z"/><path class="cls-31" d="M170.76,13.91a.65.65,0,1,0,.65-.65A.65.65,0,0,0,170.76,13.91Z"/><path class="cls-13" d="M172.79,13.53a.72.72,0,0,0,.72.72.73.73,0,0,0,.73-.72.73.73,0,0,0-.73-.73A.73.73,0,0,0,172.79,13.53Z"/><circle class="cls-13" cx="170.9" cy="19.29" r="0.51"/><path class="cls-13" d="M204.18,41.63a.46.46,0,0,1-.46.46.45.45,0,0,1-.46-.46.46.46,0,0,1,.46-.46A.47.47,0,0,1,204.18,41.63Z"/><path class="cls-13" d="M192.8,40.83a.58.58,0,1,1-.58-.58A.58.58,0,0,1,192.8,40.83Z"/><path class="cls-13" d="M164.94,41.61a.48.48,0,1,1-1,0,.48.48,0,0,1,1,0Z"/><path class="cls-13" d="M217.14,39.35a.4.4,0,1,1-.4-.4A.4.4,0,0,1,217.14,39.35Z"/><path class="cls-12" d="M134.3,45.6h0a1.6,1.6,0,0,1-1.16-1.94l1.24-4.85a1.59,1.59,0,0,1,1.94-1.15h0a1.59,1.59,0,0,1,1.15,1.94l-1.23,4.85A1.6,1.6,0,0,1,134.3,45.6Z"/><path class="cls-32" d="M198.57,44.27c.06-.13.24-.18.49-.08A28.26,28.26,0,0,1,204.18,47a28.86,28.86,0,0,1,4.61,3.63c.19.2.21.39.11.49l1.31.87,0,0c.61-.92-3.46-4-5.7-5.48s-6.64-4.08-7.25-3.16l0,0Z"/><path class="cls-33" d="M200,45a4.63,4.63,0,1,0,6.43-1.29A4.63,4.63,0,0,0,200,45Z"/><path class="cls-34" d="M207.12,44.35c-.67.7-.21,1.86-.55,2.77-.24.66-.75.61-1.34.48s-2.08-.37-1.73.53c.18.48.67.8.82,1.3.35,1.09-1.13,1.29-1.87,1.18a5.69,5.69,0,0,1-3-1.46,4.63,4.63,0,1,0,7.67-4.8Z"/><path class="cls-32" d="M210.25,51.57l-1.69-1.13.23.23c.35.37.13.71-.35.52a28.26,28.26,0,0,1-5.12-2.85,28.63,28.63,0,0,1-4.6-3.63c-.36-.37-.13-.71.34-.52l.3.12-1.69-1.13a.45.45,0,0,0-.39.19c-.62.92,3.46,4,5.7,5.48s6.63,4.08,7.25,3.16A.51.51,0,0,0,210.25,51.57Z"/><polygon class="cls-30" points="209.44 55.82 209.79 56.52 210.56 56.63 210 57.17 210.14 57.94 209.44 57.58 208.75 57.94 208.89 57.17 208.33 56.63 209.1 56.52 209.44 55.82"/></g></g><rect class="cls-1" x="2" y="2" width="366.68" height="344.72" rx="8" ry="8"/></svg>