<svg id="fg" xmlns="http://www.w3.org/2000/svg" xmlns:xlink="http://www.w3.org/1999/xlink" viewBox="0 0 1024 1024"><defs><style>.cls-1{fill:none;}.cls-2{clip-path:url(#clip-path);}.cls-3{fill:#00d9cd;}.cls-4{clip-path:url(#clip-path-2);}.cls-5{fill:#111;}.cls-6{fill:#ef4440;}.cls-7{fill:#e21414;}.cls-8{fill:#fff;}.cls-9{fill:#00c4b4;}</style><clipPath id="clip-path"><path class="cls-1" d="M230,1.25c-127,0-230,103-230,230v564c0,119,90.42,216.94,206.33,228.79H817.67C933.57,1012.15,1024,914.24,1024,795.21v-564c0-127-103-230-230-230Z"/></clipPath><clipPath id="clip-path-2"><path class="cls-1" d="M419.43,478.86c67.76,40.3,146.7,44.84,218.26,8.39l3.39-1.74C754.22,427,837.13,636,693.37,743.65s-345.18,74.06-423.9-65.26C200.59,556.49,287.64,400.47,419.43,478.86Z"/></clipPath></defs><title>logo</title><g class="cls-2"><rect class="cls-3" y="1.25" width="1024" height="1022.75"/><g class="cls-4"><path class="cls-5" d="M419.43,478.86c67.76,40.3,146.7,44.84,218.26,8.39l3.39-1.74C754.22,427,837.13,636,693.37,743.65s-345.18,74.06-423.9-65.26C200.59,556.49,287.64,400.47,419.43,478.86Z"/><path class="cls-6" d="M692.56,747.72S718,600.26,507.71,700.36c0,0-156.18-131.08-216.33,14.36C291.38,714.72,437.1,916.88,692.56,747.72Z"/><path class="cls-7" d="M505.58,762.85c-9.46,5.2-21.68.52-28.25-6.85-41.48-46.47-78.51-79.32-132.9-102.32-20.67,9.26-39.36,27.93-53.05,61,0,0,128.77,178.54,356.38,59.51C623.37,723.37,544.9,741.25,505.58,762.85Z"/><path class="cls-8" d="M405.19,444.35s8.62,72.8-18.69,88.15c-8.94,5-54.66,4.34-63.65-5-24.9-25.89-14.12-95.83-14.12-95.83S397.43,390.93,405.19,444.35Z"/><path class="cls-8" d="M492.22,466.7s8.62,72.8-18.69,88.15c-8.94,5-54.66,4.34-63.65-5C385,524,395.76,454,395.76,454S484.46,413.28,492.22,466.7Z"/><path class="cls-8" d="M604.22,479s8.62,72.8-18.69,88.15c-8.94,5-54.66,4.34-63.65-5-24.9-25.89-14.12-95.83-14.12-95.83S596.47,425.58,604.22,479Z"/><path class="cls-8" d="M692.16,475.87s8.61,72.79-18.69,88.15c-8.94,5-54.66,4.33-63.65-5-24.9-25.89-14.12-95.83-14.12-95.83S684.4,422.45,692.16,475.87Z"/></g><ellipse class="cls-5" cx="716.69" cy="406.12" rx="44.85" ry="31.02" transform="translate(234.75 1074.19) rotate(-83.73)"/><ellipse class="cls-5" cx="327.5" cy="363.38" rx="44.85" ry="31.02" transform="translate(-69.46 649.25) rotate(-83.73)"/><circle class="cls-9" cx="888.26" cy="491.5" r="89.78" transform="translate(-87.38 772.05) rotate(-45)"/><path class="cls-9" d="M50.17,436a89.78,89.78,0,1,0,99-79.43A89.77,89.77,0,0,0,50.17,436Z"/></g></svg>